<svg xmlns="http://www.w3.org/2000/svg" xmlns:xlink="http://www.w3.org/1999/xlink" width="2000" zoomAndPan="magnify" viewBox="0 0 1500 374.999991" height="500" preserveAspectRatio="xMidYMid meet" version="1.0"><defs><g/></defs><g fill="#ffffff" fill-opacity="1"><g transform="translate(658.729091, 252.023232)"><g><path d="M 146.359375 -28.265625 C 145.710938 -26.191406 145.390625 -24.113281 145.390625 -22.03125 C 145.390625 -20.28125 145.628906 -18.804688 146.109375 -17.609375 C 146.585938 -16.410156 147.109375 -15.453125 147.671875 -14.734375 C 148.234375 -14.015625 148.59375 -13.492188 148.75 -13.171875 C 150.34375 -11.578125 151.140625 -9.984375 151.140625 -8.390625 C 151.140625 -8.066406 150.984375 -7.265625 150.671875 -5.984375 C 150.023438 -3.753906 148.625 -2.195312 146.46875 -1.3125 C 144.3125 -0.4375 141 0 136.53125 0 L 79.765625 0 C 76.410156 0 73.8125 -0.554688 71.96875 -1.671875 C 70.132812 -2.796875 69.21875 -4.316406 69.21875 -6.234375 C 69.21875 -7.191406 69.457031 -8.226562 69.9375 -9.34375 C 70.414062 -10.625 71.09375 -11.617188 71.96875 -12.328125 C 72.851562 -13.046875 74.09375 -13.882812 75.6875 -14.84375 C 78.25 -16.28125 80.328125 -17.878906 81.921875 -19.640625 C 83.515625 -21.398438 84.867188 -24.273438 85.984375 -28.265625 L 92.21875 -48.859375 L 54.859375 -48.859375 L 48.390625 -35.21875 C 45.671875 -29.300781 44.3125 -24.664062 44.3125 -21.3125 C 44.3125 -19.394531 44.628906 -17.835938 45.265625 -16.640625 C 45.910156 -15.441406 46.867188 -14.207031 48.140625 -12.9375 C 49.265625 -11.65625 50.023438 -10.578125 50.421875 -9.703125 C 50.816406 -8.828125 50.859375 -7.671875 50.546875 -6.234375 C 49.898438 -3.835938 48.578125 -2.195312 46.578125 -1.3125 C 44.585938 -0.4375 41.4375 0 37.125 0 L 1.4375 0 C -2.238281 0 -5.035156 -0.675781 -6.953125 -2.03125 C -8.867188 -3.394531 -9.828125 -5.191406 -9.828125 -7.421875 C -9.828125 -9.984375 -8.90625 -12.019531 -7.0625 -13.53125 C -5.226562 -15.050781 -2.472656 -16.6875 1.203125 -18.4375 C 5.992188 -20.832031 9.820312 -23.1875 12.6875 -25.5 C 15.5625 -27.820312 18.039062 -31.0625 20.125 -35.21875 L 62.75 -123.59375 C 69.300781 -137.332031 77.007812 -147.273438 85.875 -153.421875 C 94.738281 -159.566406 106.4375 -162.640625 120.96875 -162.640625 C 137.25 -162.640625 149.859375 -159.328125 158.796875 -152.703125 C 167.742188 -146.078125 172.21875 -136.851562 172.21875 -125.03125 C 172.21875 -120.082031 171.421875 -114.972656 169.828125 -109.703125 Z M 99.40625 -72.8125 L 112.09375 -114.96875 C 112.738281 -116.882812 113.0625 -118.882812 113.0625 -120.96875 C 113.0625 -124 112.222656 -126.269531 110.546875 -127.78125 C 108.867188 -129.300781 106.515625 -130.0625 103.484375 -130.0625 C 99.648438 -130.0625 96.375 -128.941406 93.65625 -126.703125 C 90.9375 -124.472656 88.222656 -120.484375 85.515625 -114.734375 L 65.875 -72.8125 Z M 99.40625 -72.8125 "/></g></g></g><g fill="#ffffff" fill-opacity="1"><g transform="translate(825.924217, 252.023232)"><g><path d="M 145.15625 -165.75 C 150.269531 -165.75 155.257812 -164.671875 160.125 -162.515625 C 165 -160.359375 168.992188 -157.40625 172.109375 -153.65625 C 175.222656 -149.90625 176.78125 -145.875 176.78125 -141.5625 C 176.78125 -132.144531 170.390625 -127.4375 157.609375 -127.4375 C 153.941406 -127.4375 151.109375 -127.710938 149.109375 -128.265625 C 147.109375 -128.828125 144.753906 -129.75 142.046875 -131.03125 C 141.566406 -129.90625 141.328125 -128.304688 141.328125 -126.234375 C 141.328125 -123.679688 141.765625 -120.644531 142.640625 -117.125 C 143.515625 -113.613281 144.59375 -110.34375 145.875 -107.3125 C 149.226562 -102.363281 150.90625 -96.453125 150.90625 -89.578125 C 150.90625 -86.546875 150.503906 -82.875 149.703125 -78.5625 C 147.785156 -70.257812 143.59375 -62.675781 137.125 -55.8125 C 130.664062 -48.945312 122.363281 -43.554688 112.21875 -39.640625 C 102.082031 -35.734375 90.945312 -33.78125 78.8125 -33.78125 C 69.539062 -33.78125 60.835938 -34.414062 52.703125 -35.6875 C 50.304688 -33.613281 49.109375 -31.0625 49.109375 -28.03125 C 49.109375 -25.945312 50.066406 -24.226562 51.984375 -22.875 C 53.898438 -21.519531 57.09375 -20.84375 61.5625 -20.84375 L 97.484375 -20.84375 C 109.785156 -20.84375 119.367188 -18.722656 126.234375 -14.484375 C 133.097656 -10.253906 136.53125 -4.226562 136.53125 3.59375 C 136.53125 6.46875 136.050781 9.421875 135.09375 12.453125 C 133.175781 18.679688 128.820312 24.46875 122.03125 29.8125 C 115.25 35.164062 105.707031 39.519531 93.40625 42.875 C 81.113281 46.226562 66.1875 47.90625 48.625 47.90625 C 32.976562 47.90625 19.722656 46.546875 8.859375 43.828125 C -1.992188 41.117188 -10.09375 37.40625 -15.4375 32.6875 C -20.789062 27.976562 -23.46875 22.75 -23.46875 17 C -23.46875 15.726562 -23.148438 13.816406 -22.515625 11.265625 C -21.078125 6.628906 -17.84375 2.835938 -12.8125 -0.109375 C -7.78125 -3.066406 0.484375 -5.023438 11.984375 -5.984375 C 8.148438 -9.660156 6.234375 -14.050781 6.234375 -19.15625 C 6.234375 -20.914062 6.472656 -22.753906 6.953125 -24.671875 C 9.503906 -32.972656 17.007812 -39.117188 29.46875 -43.109375 C 17.488281 -49.660156 11.5 -59.242188 11.5 -71.859375 C 11.5 -75.367188 11.976562 -79.039062 12.9375 -82.875 C 14.851562 -91.175781 19.082031 -98.71875 25.625 -105.5 C 32.175781 -112.289062 40.5625 -117.679688 50.78125 -121.671875 C 61 -125.671875 72.175781 -127.671875 84.3125 -127.671875 C 103.3125 -127.671875 118.242188 -125.195312 129.109375 -120.25 C 126.710938 -123.914062 124.832031 -127.863281 123.46875 -132.09375 C 122.113281 -136.332031 121.4375 -140.207031 121.4375 -143.71875 C 121.4375 -149.789062 123.390625 -154.976562 127.296875 -159.28125 C 131.210938 -163.59375 137.164062 -165.75 145.15625 -165.75 Z M 93.171875 -80.71875 C 95.734375 -88.863281 97.015625 -95.09375 97.015625 -99.40625 C 97.015625 -104.832031 94.695312 -107.546875 90.0625 -107.546875 C 86.070312 -107.546875 82.597656 -105.585938 79.640625 -101.671875 C 76.691406 -97.765625 73.695312 -90.78125 70.65625 -80.71875 C 68.101562 -72.414062 66.828125 -66.109375 66.828125 -61.796875 C 66.828125 -56.523438 69.0625 -53.890625 73.53125 -53.890625 C 77.53125 -53.890625 81.046875 -55.882812 84.078125 -59.875 C 87.109375 -63.875 90.140625 -70.820312 93.171875 -80.71875 Z M 45.515625 3.359375 C 41.035156 3.359375 36.960938 3.117188 33.296875 2.640625 C 31.378906 5.035156 30.421875 8.226562 30.421875 12.21875 C 30.578125 16.207031 32.210938 19.078125 35.328125 20.828125 C 38.441406 22.585938 43.273438 23.46875 49.828125 23.46875 C 57.804688 23.46875 64.3125 22.269531 69.34375 19.875 C 74.375 17.476562 76.890625 14.046875 76.890625 9.578125 C 76.890625 7.660156 76.171875 6.144531 74.734375 5.03125 C 73.296875 3.914062 71.21875 3.359375 68.5 3.359375 Z M 45.515625 3.359375 "/></g></g></g><g fill="#ffffff" fill-opacity="1"><g transform="translate(978.028707, 252.023232)"><g><path d="M 63 -126.71875 C 72.257812 -126.71875 79.046875 -124.957031 83.359375 -121.4375 C 87.671875 -117.925781 89.828125 -113.140625 89.828125 -107.078125 C 89.828125 -103.398438 89.265625 -99.882812 88.140625 -96.53125 L 66.109375 -24.90625 C 65.628906 -22.988281 65.390625 -21.3125 65.390625 -19.875 C 65.390625 -17.800781 65.785156 -16.164062 66.578125 -14.96875 C 67.378906 -13.769531 68.5 -12.613281 69.9375 -11.5 C 71.0625 -10.382812 71.863281 -9.46875 72.34375 -8.75 C 72.820312 -8.03125 72.898438 -7.109375 72.578125 -5.984375 C 71.773438 -3.910156 70.175781 -2.394531 67.78125 -1.4375 C 65.382812 -0.476562 61.710938 0 56.765625 0 L 2.15625 0 C -2 0 -5.035156 -0.675781 -6.953125 -2.03125 C -8.867188 -3.394531 -9.503906 -5.191406 -8.859375 -7.421875 C -8.222656 -9.335938 -6.546875 -11.015625 -3.828125 -12.453125 C -1.429688 -13.734375 0.5625 -15.25 2.15625 -17 C 3.75 -18.757812 5.109375 -21.554688 6.234375 -25.390625 L 27.0625 -94.609375 C 27.539062 -96.046875 27.78125 -97.242188 27.78125 -98.203125 C 27.78125 -99.960938 27.378906 -101.359375 26.578125 -102.390625 C 25.785156 -103.429688 24.59375 -104.515625 23 -105.640625 C 21.394531 -106.910156 20.273438 -108.023438 19.640625 -108.984375 C 19.003906 -109.941406 18.925781 -111.21875 19.40625 -112.8125 C 20.363281 -116.488281 25.390625 -119.722656 34.484375 -122.515625 C 43.585938 -125.316406 53.09375 -126.71875 63 -126.71875 Z M 79.046875 -179.65625 C 85.273438 -179.65625 90.460938 -177.617188 94.609375 -173.546875 C 98.765625 -169.472656 100.84375 -164.476562 100.84375 -158.5625 C 100.84375 -154.414062 99.765625 -150.34375 97.609375 -146.34375 C 95.453125 -142.351562 92.414062 -139.117188 88.5 -136.640625 C 84.59375 -134.171875 80.242188 -132.9375 75.453125 -132.9375 C 69.390625 -132.9375 64.320312 -134.972656 60.25 -139.046875 C 56.175781 -143.117188 54.0625 -148.191406 53.90625 -154.265625 C 53.90625 -158.253906 54.941406 -162.203125 57.015625 -166.109375 C 59.085938 -170.023438 62.039062 -173.257812 65.875 -175.8125 C 69.707031 -178.375 74.097656 -179.65625 79.046875 -179.65625 Z M 79.046875 -179.65625 "/></g></g></g><g fill="#ffffff" fill-opacity="1"><g transform="translate(1065.698364, 252.023232)"><g><path d="M 76.40625 -177.015625 C 85.664062 -177.015625 92.492188 -175.253906 96.890625 -171.734375 C 101.285156 -168.222656 103.484375 -163.4375 103.484375 -157.375 C 103.484375 -153.863281 102.921875 -150.429688 101.796875 -147.078125 L 64.1875 -24.90625 C 63.707031 -22.988281 63.46875 -21.3125 63.46875 -19.875 C 63.46875 -17.800781 63.867188 -16.164062 64.671875 -14.96875 C 65.472656 -13.769531 66.59375 -12.613281 68.03125 -11.5 C 69.144531 -10.382812 69.941406 -9.46875 70.421875 -8.75 C 70.898438 -8.03125 70.976562 -7.109375 70.65625 -5.984375 C 69.863281 -3.910156 68.269531 -2.394531 65.875 -1.4375 C 63.476562 -0.476562 59.804688 0 54.859375 0 L 0.234375 0 C -3.910156 0 -6.941406 -0.675781 -8.859375 -2.03125 C -10.773438 -3.394531 -11.414062 -5.191406 -10.78125 -7.421875 C -10.144531 -9.335938 -8.46875 -11.015625 -5.75 -12.453125 C -3.351562 -13.734375 -1.359375 -15.25 0.234375 -17 C 1.835938 -18.757812 3.195312 -21.554688 4.3125 -25.390625 L 40.71875 -144.921875 C 41.195312 -146.359375 41.4375 -147.554688 41.4375 -148.515625 C 41.4375 -150.265625 40.992188 -151.695312 40.109375 -152.8125 C 39.234375 -153.9375 38.078125 -155.054688 36.640625 -156.171875 C 35.046875 -157.453125 33.890625 -158.570312 33.171875 -159.53125 C 32.453125 -160.488281 32.332031 -161.765625 32.8125 -163.359375 C 33.769531 -167.035156 38.800781 -170.226562 47.90625 -172.9375 C 57.007812 -175.65625 66.507812 -177.015625 76.40625 -177.015625 Z M 76.40625 -177.015625 "/></g></g></g><g fill="#ffffff" fill-opacity="1"><g transform="translate(1153.36802, 252.023232)"><g><path d="M 81.203125 -127.90625 C 101.484375 -127.90625 116.171875 -124.671875 125.265625 -118.203125 C 134.367188 -111.734375 138.921875 -103.472656 138.921875 -93.421875 C 138.921875 -90.378906 138.601562 -87.582031 137.96875 -85.03125 C 135.570312 -74.488281 128.90625 -66.941406 117.96875 -62.390625 C 107.03125 -57.847656 94.132812 -55.578125 79.28125 -55.578125 C 71.78125 -55.578125 64.753906 -56.054688 58.203125 -57.015625 C 58.046875 -48.703125 60.28125 -42.867188 64.90625 -39.515625 C 69.539062 -36.171875 76.007812 -34.5 84.3125 -34.5 C 88.144531 -34.5 91.816406 -34.9375 95.328125 -35.8125 C 98.847656 -36.6875 103.320312 -38.003906 108.75 -39.765625 C 113.21875 -41.359375 116.25 -42.15625 117.84375 -42.15625 C 119.601562 -42.15625 120.484375 -41.117188 120.484375 -39.046875 C 120.640625 -33.453125 118.5625 -27.582031 114.25 -21.4375 C 109.945312 -15.289062 103.5625 -10.0625 95.09375 -5.75 C 86.632812 -1.4375 76.414062 0.71875 64.4375 0.71875 C 46.707031 0.71875 32.171875 -3.75 20.828125 -12.6875 C 9.492188 -21.632812 3.828125 -34.648438 3.828125 -51.734375 C 3.828125 -56.523438 4.46875 -62.113281 5.75 -68.5 C 9.738281 -88.144531 18.476562 -102.957031 31.96875 -112.9375 C 45.46875 -122.914062 61.878906 -127.90625 81.203125 -127.90625 Z M 59.890625 -71.375 C 60.523438 -71.21875 61.398438 -71.140625 62.515625 -71.140625 C 69.222656 -71.140625 74.332031 -74.253906 77.84375 -80.484375 C 81.363281 -86.710938 83.039062 -93.660156 82.875 -101.328125 C 82.71875 -105.796875 81.441406 -108.03125 79.046875 -108.03125 C 77.285156 -108.03125 75.207031 -106.628906 72.8125 -103.828125 C 70.414062 -101.035156 68.0625 -96.84375 65.75 -91.25 C 63.4375 -85.664062 61.484375 -79.039062 59.890625 -71.375 Z M 59.890625 -71.375 "/></g></g></g><path fill="#e89047" d="M 147.34375 93.722656 C 112.027344 110.191406 87.460938 145.988281 87.460938 187.5 L 79.511719 195.453125 L 47.707031 195.453125 L 39.753906 187.5 C 39.753906 133.152344 68.453125 85.519531 111.46875 58.953125 L 151.070312 84.089844 L 147.34375 93.722656 " fill-opacity="1" fill-rule="nonzero"/><path fill="#f7cb4a" d="M 190.824219 290.910156 L 190.824219 298.863281 L 87.460938 298.863281 L 80.785156 290.910156 C 55.347656 263.9375 39.753906 227.523438 39.753906 187.5 L 87.460938 187.5 C 87.460938 244.519531 133.832031 290.910156 190.824219 290.910156 " fill-opacity="1" fill-rule="nonzero"/><path fill="#ed2f62" d="M 190.824219 290.910156 L 198.777344 298.863281 L 198.777344 330.683594 L 190.824219 338.636719 L 15.902344 338.636719 C 7.144531 338.636719 0 331.492188 0 322.730469 L 0 306.820312 C 0 298.058594 7.144531 290.910156 15.902344 290.910156 L 190.824219 290.910156 " fill-opacity="1" fill-rule="nonzero"/><path fill="#5a77c4" d="M 300.867188 290.910156 L 381.648438 290.910156 L 381.648438 269.6875 C 381.648438 260.675781 393.015625 255.765625 400.410156 261.640625 L 457.183594 306.726562 C 462.496094 310.953125 462.496094 318.597656 457.183594 322.824219 L 400.410156 367.910156 C 393.015625 373.78125 381.648438 368.871094 381.648438 359.859375 L 381.648438 338.636719 L 190.824219 338.636719 L 300.867188 290.910156 " fill-opacity="1" fill-rule="nonzero"/><path fill="#62c66b" d="M 341.894531 187.5 C 341.894531 227.523438 326.304688 263.9375 300.867188 290.910156 C 273.347656 320.335938 234.246094 338.636719 190.824219 338.636719 L 190.824219 290.910156 C 247.816406 290.910156 294.1875 244.519531 294.1875 187.5 L 302.140625 179.546875 L 333.941406 179.546875 L 341.894531 187.5 " fill-opacity="1" fill-rule="nonzero"/><path fill="#70cb76" d="M 341.894531 187.5 L 294.1875 187.5 C 294.1875 130.480469 247.816406 84.089844 190.824219 84.089844 L 190.824219 105.3125 C 190.824219 114.324219 179.457031 119.234375 172.066406 113.359375 L 147.34375 93.722656 L 115.289062 68.273438 C 112.277344 65.878906 110.910156 62.308594 111.46875 58.953125 C 111.71875 56.496094 112.992188 54.011719 115.289062 52.175781 L 172.066406 7.089844 C 179.457031 1.21875 190.824219 6.128906 190.824219 15.140625 L 190.824219 36.363281 C 274.21875 36.363281 341.894531 104.070312 341.894531 187.5 " fill-opacity="1" fill-rule="nonzero"/></svg>