<svg xmlns="http://www.w3.org/2000/svg" xmlns:xlink="http://www.w3.org/1999/xlink" width="2000" zoomAndPan="magnify" viewBox="0 0 1500 374.999991" height="500" preserveAspectRatio="xMidYMid meet" version="1.0"><path fill="#00c853" d="M 740.429688 3.429688 C 746.46875 0.0429688 753.90625 0.0429688 759.9375 3.429688 C 789.785156 20.164062 879.597656 70.53125 909.453125 87.261719 C 915.496094 90.640625 919.210938 96.894531 919.210938 103.667969 C 919.210938 137.132812 919.210938 237.859375 919.210938 271.324219 C 919.210938 278.09375 915.496094 284.351562 909.453125 287.738281 C 879.609375 304.46875 789.792969 354.835938 759.9375 371.570312 C 753.898438 374.957031 746.460938 374.957031 740.429688 371.570312 C 710.582031 354.835938 620.765625 304.46875 590.914062 287.738281 C 584.878906 284.351562 581.160156 278.105469 581.160156 271.332031 C 581.160156 237.867188 581.160156 137.140625 581.160156 103.675781 C 581.160156 96.90625 584.878906 90.648438 590.921875 87.261719 C 620.757812 70.53125 710.589844 20.164062 740.429688 3.429688 Z M 740.429688 3.429688 " fill-opacity="1" fill-rule="nonzero"/><path fill="#69f0ae" d="M 583.867188 279.953125 C 581.5 276.789062 581.160156 273.785156 581.160156 269.742188 C 581.160156 236.472656 581.160156 136.324219 581.160156 103.046875 C 581.160156 96.308594 584.871094 90.089844 590.894531 86.730469 C 620.632812 70.09375 710.144531 20.019531 739.886719 3.375 C 745.910156 0.0078125 754.066406 0.078125 760.089844 3.449219 C 789.828125 20.082031 879.039062 69.730469 908.777344 86.367188 C 911.179688 87.714844 913.011719 89.34375 914.648438 91.484375 Z M 583.867188 279.953125 " fill-opacity="1" fill-rule="nonzero"/><path fill="#ffffff" d="M 750.1875 63.09375 C 681.421875 63.09375 625.640625 118.808594 625.640625 187.5 C 625.640625 256.191406 681.421875 311.90625 750.1875 311.90625 C 818.953125 311.90625 874.734375 256.191406 874.734375 187.5 C 874.734375 118.808594 818.953125 63.09375 750.1875 63.09375 Z M 750.1875 249.703125 C 715.847656 249.703125 687.914062 221.800781 687.914062 187.5 C 687.914062 153.199219 715.847656 125.296875 750.1875 125.296875 C 784.527344 125.296875 812.460938 153.199219 812.460938 187.5 C 812.460938 221.800781 784.527344 249.703125 750.1875 249.703125 Z M 750.1875 249.703125 " fill-opacity="1" fill-rule="nonzero"/><path fill="#00e676" d="M 914.632812 91.574219 C 919.222656 95.863281 919.132812 102.335938 919.132812 107.425781 C 919.132812 141.148438 918.847656 237.066406 919.210938 270.789062 C 919.25 274.308594 918.082031 278.015625 916.339844 280.804688 L 746.566406 187.5 Z M 914.632812 91.574219 " fill-opacity="1" fill-rule="nonzero"/><path fill="#ffffff" d="M 839.148438 151.953125 L 848.042969 151.953125 L 848.042969 223.046875 L 839.148438 223.046875 Z M 865.835938 151.953125 L 874.734375 151.953125 L 874.734375 223.046875 L 865.835938 223.046875 Z M 865.835938 151.953125 " fill-opacity="1" fill-rule="nonzero"/><path fill="#ffffff" d="M 821.355469 196.386719 L 892.523438 196.386719 L 892.523438 205.273438 L 821.355469 205.273438 Z M 821.355469 169.726562 L 892.523438 169.726562 L 892.523438 178.613281 L 821.355469 178.613281 Z M 821.355469 169.726562 " fill-opacity="1" fill-rule="nonzero"/></svg>