<svg xmlns="http://www.w3.org/2000/svg" xmlns:xlink="http://www.w3.org/1999/xlink" width="2000" zoomAndPan="magnify" viewBox="0 0 1500 374.999991" height="500" preserveAspectRatio="xMidYMid meet" version="1.0"><defs><g/><clipPath id="b7f412ff3b"><path d="M 0 3.105469 L 372 3.105469 L 372 375 L 0 375 Z M 0 3.105469 " clip-rule="nonzero"/></clipPath><clipPath id="3b39b1f789"><path d="M 0 3.105469 L 187 3.105469 L 187 375 L 0 375 Z M 0 3.105469 " clip-rule="nonzero"/></clipPath></defs><g fill="#ffffff" fill-opacity="1"><g transform="translate(414.633126, 239.355618)"><g><path d="M 63.1875 -97.203125 C 63.425781 -97.921875 63.546875 -98.878906 63.546875 -100.078125 C 63.546875 -101.992188 63.035156 -103.550781 62.015625 -104.75 C 60.992188 -105.957031 59.398438 -107.28125 57.234375 -108.71875 C 55.441406 -110.039062 54.15625 -111.179688 53.375 -112.140625 C 52.59375 -113.097656 52.378906 -114.238281 52.734375 -115.5625 C 53.097656 -117.238281 54 -118.375 55.4375 -118.96875 C 56.875 -119.570312 59.15625 -119.875 62.28125 -119.875 L 113.40625 -119.875 C 115.925781 -119.875 117.875 -119.453125 119.25 -118.609375 C 120.625 -117.773438 121.3125 -116.695312 121.3125 -115.375 C 121.3125 -114.78125 121.132812 -114.003906 120.78125 -113.046875 C 120.414062 -112.203125 119.90625 -111.445312 119.25 -110.78125 C 118.59375 -110.125 117.992188 -109.644531 117.453125 -109.34375 C 116.910156 -109.050781 116.519531 -108.785156 116.28125 -108.546875 C 114.363281 -107.460938 112.800781 -106.257812 111.59375 -104.9375 C 110.394531 -103.613281 109.378906 -101.570312 108.546875 -98.8125 L 90.90625 -36.546875 C 87.300781 -23.816406 81.175781 -14.363281 72.53125 -8.1875 C 63.894531 -2.007812 52.675781 1.078125 38.875 1.078125 C 29.632812 1.078125 21.804688 -0.269531 15.390625 -2.96875 C 8.972656 -5.664062 4.144531 -9.296875 0.90625 -13.859375 C -2.332031 -18.421875 -3.953125 -23.398438 -3.953125 -28.796875 C -3.953125 -31.441406 -3.59375 -34.023438 -2.875 -36.546875 C -1.320312 -41.941406 1.34375 -46.019531 5.125 -48.78125 C 8.90625 -51.539062 13.132812 -52.921875 17.8125 -52.921875 C 23.21875 -52.921875 27.359375 -51.300781 30.234375 -48.0625 C 33.117188 -44.820312 34.5625 -40.679688 34.5625 -35.640625 C 34.5625 -33.117188 34.203125 -30.597656 33.484375 -28.078125 C 32.035156 -23.035156 29.332031 -19.316406 25.375 -16.921875 C 27.300781 -15.722656 29.523438 -15.125 32.046875 -15.125 C 34.554688 -15.125 36.769531 -16.382812 38.6875 -18.90625 C 40.613281 -21.425781 42.238281 -24.960938 43.5625 -29.515625 Z M 63.1875 -97.203125 "/></g></g></g><g fill="#ffffff" fill-opacity="1"><g transform="translate(520.833123, 239.355618)"><g><path d="M 64.265625 -95.21875 C 78.054688 -95.21875 89.09375 -92.664062 97.375 -87.5625 C 105.65625 -82.46875 109.796875 -74.703125 109.796875 -64.265625 C 109.796875 -60.296875 109.078125 -55.796875 107.640625 -50.765625 L 100.265625 -25.921875 C 100.140625 -25.441406 100.078125 -24.84375 100.078125 -24.125 C 100.078125 -22.195312 100.859375 -21.234375 102.421875 -21.234375 C 103.859375 -21.234375 105.085938 -21.863281 106.109375 -23.125 C 107.128906 -24.382812 107.820312 -25.015625 108.1875 -25.015625 C 108.78125 -25.015625 109.285156 -24.59375 109.703125 -23.75 C 110.128906 -22.914062 110.34375 -21.957031 110.34375 -20.875 C 110.457031 -17.632812 109.222656 -14.332031 106.640625 -10.96875 C 104.066406 -7.613281 100.617188 -4.851562 96.296875 -2.6875 C 91.972656 -0.53125 87.234375 0.546875 82.078125 0.546875 C 75.835938 0.546875 70.5 -0.59375 66.0625 -2.875 C 61.625 -5.15625 58.5625 -8.515625 56.875 -12.953125 C 53.28125 -8.640625 49.019531 -5.3125 44.09375 -2.96875 C 39.175781 -0.625 33.898438 0.546875 28.265625 0.546875 C 21.898438 0.546875 16.554688 -0.679688 12.234375 -3.140625 C 7.921875 -5.609375 4.710938 -8.789062 2.609375 -12.6875 C 0.503906 -16.59375 -0.546875 -20.703125 -0.546875 -25.015625 C -0.546875 -26.941406 -0.363281 -28.800781 0 -30.59375 C 1.914062 -38.875 6.082031 -45.113281 12.5 -49.3125 C 18.925781 -53.519531 26.578125 -55.625 35.453125 -55.625 C 45.421875 -55.625 55.203125 -54.0625 64.796875 -50.9375 L 69.296875 -62.8125 C 70.859375 -67.851562 71.640625 -71.753906 71.640625 -74.515625 C 71.515625 -77.398438 70.550781 -79.5625 68.75 -81 C 66.957031 -82.4375 64.203125 -83.15625 60.484375 -83.15625 C 61.203125 -81.238281 61.5625 -79.257812 61.5625 -77.21875 C 61.5625 -72.78125 59.878906 -68.941406 56.515625 -65.703125 C 53.160156 -62.460938 48.363281 -60.84375 42.125 -60.84375 C 36.238281 -60.84375 31.644531 -62.128906 28.34375 -64.703125 C 25.050781 -67.285156 23.40625 -70.5 23.40625 -74.34375 C 23.40625 -80.34375 26.765625 -85.320312 33.484375 -89.28125 C 40.203125 -93.238281 50.460938 -95.21875 64.265625 -95.21875 Z M 54.1875 -40.6875 C 50.820312 -40.6875 48.085938 -39.394531 45.984375 -36.8125 C 43.890625 -34.226562 42.84375 -31.4375 42.84375 -28.4375 C 42.84375 -26.519531 43.289062 -24.957031 44.1875 -23.75 C 45.09375 -22.550781 46.382812 -21.953125 48.0625 -21.953125 C 49.625 -21.953125 51.332031 -22.582031 53.1875 -23.84375 C 55.050781 -25.101562 56.398438 -26.992188 57.234375 -29.515625 L 61.015625 -40.140625 C 58.972656 -40.503906 56.695312 -40.6875 54.1875 -40.6875 Z M 54.1875 -40.6875 "/></g></g><g transform="translate(638.553116, 239.355618)"><g><path d="M 87.84375 -95.21875 C 94.195312 -95.21875 99.472656 -92.9375 103.671875 -88.375 C 107.878906 -83.820312 109.984375 -77.582031 109.984375 -69.65625 C 109.984375 -58.976562 106.257812 -48.054688 98.8125 -36.890625 C 91.375 -25.734375 81.953125 -16.523438 70.546875 -9.265625 C 59.148438 -2.003906 48.054688 1.625 37.265625 1.625 C 26.941406 1.625 18.566406 -0.472656 12.140625 -4.671875 C 5.722656 -8.878906 2.515625 -14.882812 2.515625 -22.6875 C 2.515625 -25.5625 3.054688 -28.800781 4.140625 -32.40625 L 15.484375 -71.09375 C 15.722656 -72.0625 15.84375 -72.785156 15.84375 -73.265625 C 15.84375 -74.460938 15.539062 -75.476562 14.9375 -76.3125 C 14.34375 -77.15625 13.503906 -78.054688 12.421875 -79.015625 C 10.617188 -80.578125 9.71875 -81.957031 9.71875 -83.15625 C 9.601562 -84.84375 10.625 -86.644531 12.78125 -88.5625 C 14.9375 -90.476562 17.960938 -92.066406 21.859375 -93.328125 C 25.765625 -94.585938 30.175781 -95.21875 35.09375 -95.21875 C 43.132812 -95.21875 49.40625 -93.265625 53.90625 -89.359375 C 58.40625 -85.460938 60.65625 -80.394531 60.65625 -74.15625 C 60.65625 -71.394531 60.175781 -68.394531 59.21875 -65.15625 L 47.515625 -26.640625 C 47.160156 -25.554688 46.984375 -24.65625 46.984375 -23.9375 C 46.984375 -22.375 47.519531 -21.171875 48.59375 -20.328125 C 49.675781 -19.492188 51.175781 -19.078125 53.09375 -19.078125 C 55.738281 -19.078125 58.832031 -20.242188 62.375 -22.578125 C 65.914062 -24.921875 69.425781 -28.28125 72.90625 -32.65625 C 76.382812 -37.039062 79.203125 -42.234375 81.359375 -48.234375 C 76.554688 -52.441406 73.164062 -56.582031 71.1875 -60.65625 C 69.207031 -64.738281 68.21875 -68.941406 68.21875 -73.265625 C 68.21875 -79.378906 69.894531 -84.566406 73.25 -88.828125 C 76.613281 -93.085938 81.476562 -95.21875 87.84375 -95.21875 Z M 87.84375 -95.21875 "/></g></g></g><g fill="#ffffff" fill-opacity="1"><g transform="translate(746.373108, 239.355618)"><g><path d="M 64.265625 -95.21875 C 78.054688 -95.21875 89.09375 -92.664062 97.375 -87.5625 C 105.65625 -82.46875 109.796875 -74.703125 109.796875 -64.265625 C 109.796875 -60.296875 109.078125 -55.796875 107.640625 -50.765625 L 100.265625 -25.921875 C 100.140625 -25.441406 100.078125 -24.84375 100.078125 -24.125 C 100.078125 -22.195312 100.859375 -21.234375 102.421875 -21.234375 C 103.859375 -21.234375 105.085938 -21.863281 106.109375 -23.125 C 107.128906 -24.382812 107.820312 -25.015625 108.1875 -25.015625 C 108.78125 -25.015625 109.285156 -24.59375 109.703125 -23.75 C 110.128906 -22.914062 110.34375 -21.957031 110.34375 -20.875 C 110.457031 -17.632812 109.222656 -14.332031 106.640625 -10.96875 C 104.066406 -7.613281 100.617188 -4.851562 96.296875 -2.6875 C 91.972656 -0.53125 87.234375 0.546875 82.078125 0.546875 C 75.835938 0.546875 70.5 -0.59375 66.0625 -2.875 C 61.625 -5.15625 58.5625 -8.515625 56.875 -12.953125 C 53.28125 -8.640625 49.019531 -5.3125 44.09375 -2.96875 C 39.175781 -0.625 33.898438 0.546875 28.265625 0.546875 C 21.898438 0.546875 16.554688 -0.679688 12.234375 -3.140625 C 7.921875 -5.609375 4.710938 -8.789062 2.609375 -12.6875 C 0.503906 -16.59375 -0.546875 -20.703125 -0.546875 -25.015625 C -0.546875 -26.941406 -0.363281 -28.800781 0 -30.59375 C 1.914062 -38.875 6.082031 -45.113281 12.5 -49.3125 C 18.925781 -53.519531 26.578125 -55.625 35.453125 -55.625 C 45.421875 -55.625 55.203125 -54.0625 64.796875 -50.9375 L 69.296875 -62.8125 C 70.859375 -67.851562 71.640625 -71.753906 71.640625 -74.515625 C 71.515625 -77.398438 70.550781 -79.5625 68.75 -81 C 66.957031 -82.4375 64.203125 -83.15625 60.484375 -83.15625 C 61.203125 -81.238281 61.5625 -79.257812 61.5625 -77.21875 C 61.5625 -72.78125 59.878906 -68.941406 56.515625 -65.703125 C 53.160156 -62.460938 48.363281 -60.84375 42.125 -60.84375 C 36.238281 -60.84375 31.644531 -62.128906 28.34375 -64.703125 C 25.050781 -67.285156 23.40625 -70.5 23.40625 -74.34375 C 23.40625 -80.34375 26.765625 -85.320312 33.484375 -89.28125 C 40.203125 -93.238281 50.460938 -95.21875 64.265625 -95.21875 Z M 54.1875 -40.6875 C 50.820312 -40.6875 48.085938 -39.394531 45.984375 -36.8125 C 43.890625 -34.226562 42.84375 -31.4375 42.84375 -28.4375 C 42.84375 -26.519531 43.289062 -24.957031 44.1875 -23.75 C 45.09375 -22.550781 46.382812 -21.953125 48.0625 -21.953125 C 49.625 -21.953125 51.332031 -22.582031 53.1875 -23.84375 C 55.050781 -25.101562 56.398438 -26.992188 57.234375 -29.515625 L 61.015625 -40.140625 C 58.972656 -40.503906 56.695312 -40.6875 54.1875 -40.6875 Z M 54.1875 -40.6875 "/></g></g></g><g fill="#ffffff" fill-opacity="1"><g transform="translate(864.093117, 239.355618)"><g><path d="M 67.3125 -120.953125 C 74.039062 -120.953125 80.253906 -120.140625 85.953125 -118.515625 C 91.648438 -116.898438 97.4375 -114.351562 103.3125 -110.875 L 107.453125 -114.296875 C 110.335938 -116.578125 112.707031 -118.132812 114.5625 -118.96875 C 116.425781 -119.8125 118.554688 -120.234375 120.953125 -120.234375 C 123.835938 -120.234375 126.117188 -119.601562 127.796875 -118.34375 C 129.472656 -117.082031 130.3125 -115.253906 130.3125 -112.859375 C 130.3125 -111.898438 130.132812 -110.878906 129.78125 -109.796875 L 122.21875 -84.953125 C 121.375 -82.078125 120.320312 -80.039062 119.0625 -78.84375 C 117.8125 -77.644531 115.925781 -77.046875 113.40625 -77.046875 C 110.757812 -77.046875 108.445312 -77.851562 106.46875 -79.46875 C 104.488281 -81.09375 101.398438 -84.421875 97.203125 -89.453125 C 93.003906 -94.253906 89.191406 -97.644531 85.765625 -99.625 C 82.347656 -101.601562 78.835938 -102.59375 75.234375 -102.59375 C 72.597656 -102.59375 70.378906 -101.722656 68.578125 -99.984375 C 66.773438 -98.242188 65.875 -96.113281 65.875 -93.59375 C 65.875 -90.71875 67.3125 -88.050781 70.1875 -85.59375 C 73.070312 -83.132812 77.578125 -80.039062 83.703125 -76.3125 C 89.941406 -72.59375 95.097656 -69.234375 99.171875 -66.234375 C 103.253906 -63.234375 106.734375 -59.515625 109.609375 -55.078125 C 112.492188 -50.640625 113.9375 -45.539062 113.9375 -39.78125 C 113.9375 -36.0625 113.335938 -32.34375 112.140625 -28.625 C 109.253906 -19.019531 103.671875 -11.726562 95.390625 -6.75 C 87.117188 -1.769531 77.460938 0.71875 66.421875 0.71875 C 58.140625 0.71875 51.175781 -0.238281 45.53125 -2.15625 C 39.894531 -4.082031 34.140625 -7.320312 28.265625 -11.875 L 21.78125 -6.484375 C 18.78125 -3.960938 16.316406 -2.25 14.390625 -1.34375 C 12.472656 -0.445312 10.316406 0 7.921875 0 C 5.160156 0 2.96875 -0.65625 1.34375 -1.96875 C -0.269531 -3.289062 -1.078125 -5.09375 -1.078125 -7.375 C -1.078125 -8.582031 -0.835938 -9.84375 -0.359375 -11.15625 L 8.453125 -37.984375 C 9.421875 -41.097656 10.742188 -43.316406 12.421875 -44.640625 C 14.097656 -45.960938 16.257812 -46.625 18.90625 -46.625 C 21.664062 -46.625 24.15625 -45.660156 26.375 -43.734375 C 28.59375 -41.816406 31.5 -38.335938 35.09375 -33.296875 C 38.9375 -27.773438 42.507812 -23.9375 45.8125 -21.78125 C 49.113281 -19.625 53.039062 -18.546875 57.59375 -18.546875 C 60.832031 -18.546875 63.320312 -19.050781 65.0625 -20.0625 C 66.8125 -21.082031 68.046875 -22.734375 68.765625 -25.015625 C 69.003906 -25.617188 69.125 -26.519531 69.125 -27.71875 C 69.125 -30.601562 67.742188 -33.242188 64.984375 -35.640625 C 62.222656 -38.035156 57.960938 -40.914062 52.203125 -44.28125 C 46.078125 -48 41.09375 -51.328125 37.25 -54.265625 C 33.414062 -57.210938 30.085938 -60.90625 27.265625 -65.34375 C 24.453125 -69.78125 23.046875 -75 23.046875 -81 C 23.046875 -85.195312 23.703125 -89.335938 25.015625 -93.421875 C 27.535156 -101.703125 32.695312 -108.359375 40.5 -113.390625 C 48.300781 -118.429688 57.238281 -120.953125 67.3125 -120.953125 Z M 67.3125 -120.953125 "/></g></g></g><g fill="#ffffff" fill-opacity="1"><g transform="translate(988.113098, 239.355618)"><g><path d="M 65.34375 -96.125 C 72.65625 -96.125 79.070312 -95.070312 84.59375 -92.96875 C 90.113281 -90.863281 94.40625 -87.984375 97.46875 -84.328125 C 100.53125 -80.671875 102.0625 -76.625 102.0625 -72.1875 C 102.0625 -67.382812 100.410156 -63.421875 97.109375 -60.296875 C 93.804688 -57.179688 89.335938 -55.625 83.703125 -55.625 C 77.941406 -55.625 73.441406 -57.09375 70.203125 -60.03125 C 66.960938 -62.96875 65.34375 -66.957031 65.34375 -72 C 65.34375 -74.394531 65.703125 -76.914062 66.421875 -79.5625 C 61.378906 -78.238281 56.90625 -75.625 53 -71.71875 C 49.101562 -67.820312 46.5 -62.695312 45.1875 -56.34375 C 44.457031 -52.738281 44.09375 -49.5 44.09375 -46.625 C 44.09375 -40.144531 45.894531 -35.222656 49.5 -31.859375 C 53.101562 -28.492188 58.265625 -26.8125 64.984375 -26.8125 C 68.816406 -26.8125 72.113281 -27.203125 74.875 -27.984375 C 77.632812 -28.765625 80.457031 -29.816406 83.34375 -31.140625 C 85.738281 -32.335938 87.476562 -32.9375 88.5625 -32.9375 C 89.28125 -32.9375 89.757812 -32.785156 90 -32.484375 C 90.238281 -32.191406 90.359375 -31.5625 90.359375 -30.59375 C 90.484375 -26.15625 88.65625 -21.503906 84.875 -16.640625 C 81.09375 -11.785156 75.867188 -7.707031 69.203125 -4.40625 C 62.546875 -1.101562 55.078125 0.546875 46.796875 0.546875 C 38.160156 0.546875 30.507812 -1.039062 23.84375 -4.21875 C 17.1875 -7.40625 12.023438 -11.96875 8.359375 -17.90625 C 4.703125 -23.84375 2.875 -30.773438 2.875 -38.703125 C 2.875 -42.421875 3.351562 -46.5625 4.3125 -51.125 C 7.5625 -66 14.734375 -77.21875 25.828125 -84.78125 C 36.929688 -92.34375 50.101562 -96.125 65.34375 -96.125 Z M 65.34375 -96.125 "/></g></g></g><g fill="#ffffff" fill-opacity="1"><g transform="translate(1085.673104, 239.355618)"><g><path d="M 88.375 -95.21875 C 95.09375 -95.21875 100.460938 -93.175781 104.484375 -89.09375 C 108.503906 -85.019531 110.515625 -79.984375 110.515625 -73.984375 C 110.515625 -71.703125 110.273438 -69.601562 109.796875 -67.6875 C 108.597656 -62.757812 106.316406 -58.972656 102.953125 -56.328125 C 99.597656 -53.691406 95.582031 -52.375 90.90625 -52.375 C 86.34375 -52.375 82.890625 -53.453125 80.546875 -55.609375 C 78.210938 -57.773438 76.144531 -60.660156 74.34375 -64.265625 C 73.382812 -66.296875 72.484375 -67.789062 71.640625 -68.75 C 70.796875 -69.71875 69.835938 -70.203125 68.765625 -70.203125 C 67.554688 -70.203125 66.503906 -69.71875 65.609375 -68.75 C 64.710938 -67.789062 63.90625 -66.113281 63.1875 -63.71875 L 49.3125 -18.71875 C 49.070312 -18.113281 48.953125 -17.210938 48.953125 -16.015625 C 48.953125 -14.460938 49.398438 -13.175781 50.296875 -12.15625 C 51.203125 -11.132812 52.4375 -10.144531 54 -9.1875 C 55.4375 -8.21875 56.394531 -7.429688 56.875 -6.828125 C 57.351562 -6.234375 57.535156 -5.457031 57.421875 -4.5 C 57.179688 -2.9375 56.3125 -1.796875 54.8125 -1.078125 C 53.3125 -0.359375 50.757812 0 47.15625 0 L 1.078125 0 C -2.035156 0 -4.28125 -0.507812 -5.65625 -1.53125 C -7.039062 -2.550781 -7.554688 -3.898438 -7.203125 -5.578125 C -6.722656 -7.015625 -5.460938 -8.273438 -3.421875 -9.359375 C -1.617188 -10.316406 -0.117188 -11.457031 1.078125 -12.78125 C 2.273438 -14.101562 3.296875 -16.203125 4.140625 -19.078125 L 20.15625 -71.09375 C 20.394531 -71.695312 20.515625 -72.539062 20.515625 -73.625 C 20.515625 -74.9375 20.242188 -75.953125 19.703125 -76.671875 C 19.171875 -77.398438 18.300781 -78.300781 17.09375 -79.375 C 15.894531 -80.332031 15.054688 -81.171875 14.578125 -81.890625 C 14.097656 -82.617188 14.039062 -83.582031 14.40625 -84.78125 C 15.125 -87.539062 18.898438 -89.96875 25.734375 -92.0625 C 32.578125 -94.164062 39.71875 -95.21875 47.15625 -95.21875 C 52.082031 -95.21875 56.164062 -94.109375 59.40625 -91.890625 C 62.644531 -89.671875 64.742188 -86.519531 65.703125 -82.4375 C 71.460938 -90.957031 79.019531 -95.21875 88.375 -95.21875 Z M 88.375 -95.21875 "/></g></g></g><g fill="#ffffff" fill-opacity="1"><g transform="translate(1189.893114, 239.355618)"><g><path d="M 47.34375 -95.21875 C 54.300781 -95.21875 59.398438 -93.894531 62.640625 -91.25 C 65.878906 -88.613281 67.5 -85.015625 67.5 -80.453125 C 67.5 -77.691406 67.082031 -75.054688 66.25 -72.546875 L 49.6875 -18.71875 C 49.320312 -17.28125 49.140625 -16.019531 49.140625 -14.9375 C 49.140625 -13.375 49.441406 -12.144531 50.046875 -11.25 C 50.648438 -10.351562 51.488281 -9.484375 52.5625 -8.640625 C 53.40625 -7.796875 54.003906 -7.101562 54.359375 -6.5625 C 54.722656 -6.03125 54.785156 -5.34375 54.546875 -4.5 C 53.941406 -2.9375 52.738281 -1.796875 50.9375 -1.078125 C 49.144531 -0.359375 46.390625 0 42.671875 0 L 1.625 0 C -1.488281 0 -3.765625 -0.507812 -5.203125 -1.53125 C -6.648438 -2.550781 -7.132812 -3.898438 -6.65625 -5.578125 C -6.175781 -7.015625 -4.914062 -8.273438 -2.875 -9.359375 C -1.070312 -10.316406 0.425781 -11.457031 1.625 -12.78125 C 2.820312 -14.101562 3.84375 -16.203125 4.6875 -19.078125 L 20.34375 -71.09375 C 20.707031 -72.175781 20.890625 -73.078125 20.890625 -73.796875 C 20.890625 -75.117188 20.585938 -76.171875 19.984375 -76.953125 C 19.390625 -77.734375 18.488281 -78.539062 17.28125 -79.375 C 16.082031 -80.332031 15.242188 -81.171875 14.765625 -81.890625 C 14.285156 -82.617188 14.226562 -83.582031 14.59375 -84.78125 C 15.3125 -87.539062 19.085938 -89.96875 25.921875 -92.0625 C 32.765625 -94.164062 39.90625 -95.21875 47.34375 -95.21875 Z M 59.40625 -135 C 64.082031 -135 67.976562 -133.46875 71.09375 -130.40625 C 74.21875 -127.34375 75.78125 -123.59375 75.78125 -119.15625 C 75.78125 -116.039062 74.96875 -112.984375 73.34375 -109.984375 C 71.726562 -106.984375 69.453125 -104.550781 66.515625 -102.6875 C 63.578125 -100.832031 60.304688 -99.90625 56.703125 -99.90625 C 52.140625 -99.90625 48.328125 -101.429688 45.265625 -104.484375 C 42.210938 -107.546875 40.625 -111.359375 40.5 -115.921875 C 40.5 -118.921875 41.28125 -121.890625 42.84375 -124.828125 C 44.40625 -127.765625 46.625 -130.191406 49.5 -132.109375 C 52.382812 -134.035156 55.6875 -135 59.40625 -135 Z M 59.40625 -135 "/></g></g></g><g fill="#ffffff" fill-opacity="1"><g transform="translate(1255.773084, 239.355618)"><g><path d="M 94.140625 -95.9375 C 103.378906 -95.9375 110.640625 -92.875 115.921875 -86.75 C 121.203125 -80.632812 123.84375 -72.296875 123.84375 -61.734375 C 123.84375 -56.097656 123.0625 -50.160156 121.5 -43.921875 C 117.894531 -29.035156 111.171875 -17.722656 101.328125 -9.984375 C 91.492188 -2.242188 80.097656 1.625 67.140625 1.625 C 58.859375 1.625 51.660156 -0.113281 45.546875 -3.59375 L 39.78125 15.65625 C 39.300781 16.976562 39.0625 18.238281 39.0625 19.4375 C 39.0625 20.757812 39.359375 21.867188 39.953125 22.765625 C 40.554688 23.671875 41.335938 24.539062 42.296875 25.375 C 43.253906 26.332031 43.882812 27.113281 44.1875 27.71875 C 44.488281 28.320312 44.519531 29.039062 44.28125 29.875 C 43.800781 31.4375 42.660156 32.546875 40.859375 33.203125 C 39.054688 33.867188 36.296875 34.203125 32.578125 34.203125 L -8.640625 34.203125 C -11.753906 34.203125 -14 33.691406 -15.375 32.671875 C -16.757812 31.648438 -17.15625 30.359375 -16.5625 28.796875 C -16.320312 27.835938 -15.898438 27.054688 -15.296875 26.453125 C -14.703125 25.859375 -13.863281 25.320312 -12.78125 24.84375 C -10.976562 23.644531 -9.535156 22.414062 -8.453125 21.15625 C -7.378906 19.894531 -6.421875 17.882812 -5.578125 15.125 L 20.703125 -71.09375 C 21.054688 -72.175781 21.234375 -73.078125 21.234375 -73.796875 C 21.234375 -75.117188 20.929688 -76.171875 20.328125 -76.953125 C 19.734375 -77.734375 18.835938 -78.539062 17.640625 -79.375 C 16.441406 -80.332031 15.601562 -81.171875 15.125 -81.890625 C 14.644531 -82.617188 14.582031 -83.582031 14.9375 -84.78125 C 15.65625 -87.539062 19.4375 -89.96875 26.28125 -92.0625 C 33.125 -94.164062 40.265625 -95.21875 47.703125 -95.21875 C 52.984375 -95.21875 57.332031 -93.894531 60.75 -91.25 C 64.164062 -88.613281 66.113281 -84.957031 66.59375 -80.28125 C 74.757812 -90.71875 83.941406 -95.9375 94.140625 -95.9375 Z M 73.265625 -42.484375 C 76.140625 -53.160156 77.578125 -60.539062 77.578125 -64.625 C 77.578125 -67.144531 77.1875 -68.789062 76.40625 -69.5625 C 75.625 -70.34375 74.515625 -70.734375 73.078125 -70.734375 C 71.992188 -70.734375 70.613281 -70.222656 68.9375 -69.203125 C 67.257812 -68.191406 65.582031 -66.484375 63.90625 -64.078125 L 49.6875 -16.921875 C 51.125 -15.484375 52.863281 -14.765625 54.90625 -14.765625 C 58.144531 -14.765625 61.234375 -16.59375 64.171875 -20.25 C 67.109375 -23.90625 70.140625 -31.316406 73.265625 -42.484375 Z M 73.265625 -42.484375 "/></g></g></g><g fill="#ffffff" fill-opacity="1"><g transform="translate(1380.15305, 239.355618)"><g><path d="M 80.453125 -92.875 C 82.734375 -92.875 84.503906 -92.394531 85.765625 -91.4375 C 87.023438 -90.476562 87.65625 -89.160156 87.65625 -87.484375 C 87.65625 -87.003906 87.535156 -86.160156 87.296875 -84.953125 C 85.734375 -79.679688 82.132812 -77.046875 76.5 -77.046875 L 66.0625 -77.046875 L 52.5625 -32.578125 C 51.957031 -30.773438 51.65625 -28.914062 51.65625 -27 C 51.65625 -24.84375 52.253906 -23.34375 53.453125 -22.5 C 54.660156 -21.65625 56.34375 -21.234375 58.5 -21.234375 C 60.414062 -21.234375 62.816406 -21.472656 65.703125 -21.953125 C 67.140625 -22.316406 68.398438 -22.5 69.484375 -22.5 C 70.316406 -22.5 70.941406 -22.226562 71.359375 -21.6875 C 71.785156 -21.144531 72 -20.457031 72 -19.625 C 72.125 -17.21875 70.351562 -14.304688 66.6875 -10.890625 C 63.03125 -7.472656 58.082031 -4.53125 51.84375 -2.0625 C 45.601562 0.394531 38.703125 1.625 31.140625 1.625 C 22.984375 1.625 16.441406 -0.234375 11.515625 -3.953125 C 6.597656 -7.679688 4.140625 -12.785156 4.140625 -19.265625 C 4.140625 -22.265625 4.617188 -25.144531 5.578125 -27.90625 L 17.09375 -63.546875 C 17.695312 -65.578125 18 -67.195312 18 -68.40625 C 18 -70.800781 17.425781 -72.835938 16.28125 -74.515625 C 15.144531 -76.203125 13.554688 -77.941406 11.515625 -79.734375 C 9.710938 -81.421875 8.453125 -82.832031 7.734375 -83.96875 C 7.015625 -85.113281 6.835938 -86.460938 7.203125 -88.015625 C 7.679688 -89.578125 8.695312 -90.773438 10.25 -91.609375 C 11.8125 -92.453125 14.273438 -92.875 17.640625 -92.875 L 27.71875 -92.875 L 39.0625 -104.21875 C 43.019531 -108.175781 46.648438 -110.9375 49.953125 -112.5 C 53.253906 -114.0625 57.539062 -114.84375 62.8125 -114.84375 C 70.375 -114.84375 74.15625 -111.960938 74.15625 -106.203125 C 74.15625 -104.398438 73.914062 -102.71875 73.4375 -101.15625 L 70.921875 -92.875 Z M 80.453125 -92.875 "/></g></g></g><g clip-path="url(#b7f412ff3b)"><path fill="#ffc44d" d="M 13.84375 2.242188 C 10.121094 2.242188 6.578125 3.839844 4.113281 6.628906 C 1.648438 9.417969 0.503906 13.132812 0.964844 16.828125 L 35.570312 293.664062 C 36.109375 297.96875 38.761719 301.722656 42.644531 303.660156 L 181.0625 372.871094 C 184.714844 374.699219 189.015625 374.699219 192.667969 372.871094 L 331.085938 303.660156 C 334.96875 301.722656 337.621094 297.96875 338.160156 293.664062 L 372.765625 16.828125 C 373.226562 13.132812 372.078125 9.417969 369.617188 6.628906 C 367.152344 3.839844 363.609375 2.242188 359.886719 2.242188 Z M 13.84375 2.242188 " fill-opacity="1" fill-rule="nonzero"/></g><g clip-path="url(#3b39b1f789)"><path fill="#e5b045" d="M 186.863281 2.242188 L 186.863281 374.242188 C 184.878906 374.242188 182.890625 373.785156 181.0625 372.871094 L 42.644531 303.660156 C 38.761719 301.722656 36.109375 297.96875 35.570312 293.664062 L 0.964844 16.828125 C 0.503906 13.132812 1.648438 9.417969 4.113281 6.628906 C 6.578125 3.839844 10.121094 2.242188 13.84375 2.242188 Z M 186.863281 2.242188 " fill-opacity="1" fill-rule="evenodd"/></g><path fill="#eceff1" d="M 73.46875 58.375 C 75.925781 55.679688 79.40625 54.148438 83.050781 54.148438 L 290.679688 54.148438 C 297.847656 54.148438 303.65625 59.957031 303.65625 67.125 C 303.65625 74.292969 297.847656 80.101562 290.679688 80.101562 L 97.261719 80.101562 L 103.554688 149.308594 L 290.679688 149.308594 C 294.527344 149.308594 298.175781 151.019531 300.640625 153.972656 C 303.105469 156.925781 304.136719 160.824219 303.445312 164.609375 L 286.144531 259.773438 C 285.476562 263.445312 283.257812 266.65625 280.054688 268.578125 L 193.542969 320.484375 C 189.433594 322.949219 184.296875 322.949219 180.1875 320.484375 L 93.675781 268.578125 C 90.125 266.445312 87.804688 262.75 87.429688 258.625 L 70.128906 68.300781 C 69.796875 64.667969 71.011719 61.066406 73.46875 58.375 Z M 105.914062 175.265625 L 112.679688 249.710938 L 186.863281 294.222656 L 261.660156 249.34375 L 275.128906 175.265625 Z M 105.914062 175.265625 " fill-opacity="1" fill-rule="evenodd"/><path fill="#cfd8dc" d="M 186.863281 80.101562 L 97.261719 80.101562 L 103.554688 149.308594 L 186.863281 149.308594 L 186.863281 175.265625 L 105.914062 175.265625 L 112.679688 249.710938 L 186.863281 294.222656 L 186.863281 322.332031 C 184.554688 322.332031 182.242188 321.71875 180.1875 320.484375 L 93.675781 268.578125 C 90.125 266.445312 87.804688 262.75 87.429688 258.625 L 78.777344 163.460938 L 70.128906 68.300781 C 69.796875 64.667969 71.011719 61.066406 73.46875 58.375 C 75.925781 55.679688 79.40625 54.148438 83.050781 54.148438 L 186.863281 54.148438 Z M 186.863281 80.101562 " fill-opacity="1" fill-rule="evenodd"/></svg>