<svg xmlns="http://www.w3.org/2000/svg" xmlns:xlink="http://www.w3.org/1999/xlink" width="2000" zoomAndPan="magnify" viewBox="0 0 1500 374.999991" height="500" preserveAspectRatio="xMidYMid meet" version="1.0"><defs><g/><clipPath id="28ec1d79e0"><path d="M 37.5 0.0742188 L 390.75 0.0742188 L 390.75 374.886719 L 37.5 374.886719 Z M 37.5 0.0742188 " clip-rule="nonzero"/></clipPath></defs><g fill="#ffffff" fill-opacity="1"><g transform="translate(468.422185, 257.999983)"><g><path d="M 228.234375 -33.125 C 227.921875 -32.476562 227.765625 -31.515625 227.765625 -30.234375 C 227.765625 -29.117188 228.039062 -28.238281 228.59375 -27.59375 C 229.15625 -26.957031 229.914062 -26.640625 230.875 -26.640625 C 232.800781 -26.640625 234.441406 -27.476562 235.796875 -29.15625 C 237.160156 -30.84375 238.082031 -31.6875 238.5625 -31.6875 C 239.363281 -31.6875 240.003906 -31.164062 240.484375 -30.125 C 240.960938 -29.082031 241.203125 -27.84375 241.203125 -26.40625 C 241.359375 -21.757812 239.835938 -17.234375 236.640625 -12.828125 C 233.441406 -8.429688 228.757812 -4.832031 222.59375 -2.03125 C 216.4375 0.757812 209.039062 2.15625 200.40625 2.15625 C 189.84375 2.15625 181.441406 -0.28125 175.203125 -5.15625 C 168.960938 -10.039062 165.757812 -16.5625 165.59375 -24.71875 C 165.59375 -30.632812 167.035156 -37.273438 169.921875 -44.640625 L 183.125 -79.203125 C 183.914062 -81.273438 184.3125 -82.953125 184.3125 -84.234375 C 184.3125 -86.316406 183.628906 -87.957031 182.265625 -89.15625 C 180.910156 -90.351562 179.273438 -90.953125 177.359375 -90.953125 C 174.640625 -90.953125 171.835938 -89.753906 168.953125 -87.359375 C 166.078125 -84.960938 163.519531 -81.203125 161.28125 -76.078125 L 148.078125 -33.125 C 147.753906 -32.476562 147.59375 -31.515625 147.59375 -30.234375 C 147.59375 -29.117188 147.875 -28.238281 148.4375 -27.59375 C 149 -26.957031 149.757812 -26.640625 150.71875 -26.640625 C 152.632812 -26.640625 154.273438 -27.476562 155.640625 -29.15625 C 157.003906 -30.84375 157.925781 -31.6875 158.40625 -31.6875 C 159.195312 -31.6875 159.832031 -31.164062 160.3125 -30.125 C 160.800781 -29.082031 161.046875 -27.84375 161.046875 -26.40625 C 161.203125 -21.757812 159.679688 -17.234375 156.484375 -12.828125 C 153.285156 -8.429688 148.601562 -4.832031 142.4375 -2.03125 C 136.28125 0.757812 128.878906 2.15625 120.234375 2.15625 C 109.679688 2.15625 101.285156 -0.28125 95.046875 -5.15625 C 88.804688 -10.039062 85.601562 -16.5625 85.4375 -24.71875 C 85.4375 -30.632812 86.878906 -37.273438 89.765625 -44.640625 L 102.953125 -79.203125 C 103.753906 -81.273438 104.15625 -82.953125 104.15625 -84.234375 C 104.15625 -86.316406 103.472656 -87.957031 102.109375 -89.15625 C 100.753906 -90.351562 99.117188 -90.953125 97.203125 -90.953125 C 94.484375 -90.953125 91.679688 -89.789062 88.796875 -87.46875 C 85.921875 -85.15625 83.519531 -81.4375 81.59375 -76.3125 L 65.765625 -24.953125 C 65.117188 -23.191406 64.796875 -21.515625 64.796875 -19.921875 C 64.796875 -18.003906 65.195312 -16.441406 66 -15.234375 C 66.800781 -14.035156 67.921875 -12.796875 69.359375 -11.515625 C 70.484375 -10.554688 71.285156 -9.675781 71.765625 -8.875 C 72.242188 -8.082031 72.320312 -7.125 72 -6 C 71.363281 -3.914062 69.84375 -2.394531 67.4375 -1.4375 C 65.039062 -0.476562 61.28125 0 56.15625 0 L 1.4375 0 C -2.71875 0 -5.710938 -0.675781 -7.546875 -2.03125 C -9.390625 -3.394531 -10.070312 -5.195312 -9.59375 -7.4375 C -8.957031 -9.351562 -7.28125 -11.035156 -4.5625 -12.484375 C -2.15625 -13.765625 -0.15625 -15.285156 1.4375 -17.046875 C 3.039062 -18.804688 4.398438 -21.601562 5.515625 -25.4375 L 26.875 -94.796875 C 27.195312 -95.597656 27.359375 -96.71875 27.359375 -98.15625 C 27.359375 -99.914062 27 -101.273438 26.28125 -102.234375 C 25.5625 -103.203125 24.398438 -104.40625 22.796875 -105.84375 C 21.203125 -107.125 20.082031 -108.242188 19.4375 -109.203125 C 18.800781 -110.160156 18.722656 -111.441406 19.203125 -113.046875 C 20.160156 -116.722656 25.195312 -119.957031 34.3125 -122.75 C 43.4375 -125.550781 52.957031 -126.953125 62.875 -126.953125 C 70.71875 -126.953125 76.914062 -124.789062 81.46875 -120.46875 C 86.03125 -116.15625 88.234375 -110.238281 88.078125 -102.71875 C 94.640625 -111.84375 101.5625 -118.160156 108.84375 -121.671875 C 116.125 -125.191406 124.003906 -126.953125 132.484375 -126.953125 C 141.765625 -126.953125 149.320312 -124.269531 155.15625 -118.90625 C 161 -113.550781 164.238281 -106.554688 164.875 -97.921875 C 171.757812 -108.796875 179.117188 -116.351562 186.953125 -120.59375 C 194.796875 -124.832031 203.359375 -126.953125 212.640625 -126.953125 C 222.398438 -126.953125 230.28125 -123.992188 236.28125 -118.078125 C 242.28125 -112.160156 245.28125 -104.484375 245.28125 -95.046875 C 245.28125 -90.078125 244.476562 -85.195312 242.875 -80.40625 Z M 228.234375 -33.125 "/></g></g></g><g fill="#ffffff" fill-opacity="1"><g transform="translate(719.941748, 257.999983)"><g><path d="M 127.203125 -126.953125 C 134.242188 -126.953125 139.882812 -124.113281 144.125 -118.4375 C 148.363281 -112.757812 150.484375 -105.039062 150.484375 -95.28125 C 150.484375 -86.800781 148.960938 -77.679688 145.921875 -67.921875 C 140.003906 -48.242188 130.523438 -29.679688 117.484375 -12.234375 C 104.441406 5.203125 89.476562 19.195312 72.59375 29.75 C 55.71875 40.3125 38.878906 45.59375 22.078125 45.59375 C 13.753906 45.59375 6.59375 44.148438 0.59375 41.265625 C -5.40625 38.390625 -9.960938 34.550781 -13.078125 29.75 C -16.203125 24.957031 -17.765625 19.84375 -17.765625 14.40625 C -17.765625 12 -17.363281 9.359375 -16.5625 6.484375 C -15.125 2.003906 -12.722656 -1.429688 -9.359375 -3.828125 C -5.992188 -6.234375 -1.992188 -7.4375 2.640625 -7.4375 C 10.003906 -7.4375 16.046875 -4.914062 20.765625 0.125 C 25.484375 5.164062 28.484375 12.082031 29.765625 20.875 C 40.003906 20.394531 49.441406 16 58.078125 7.6875 C 49.921875 6.238281 43.878906 3.476562 39.953125 -0.59375 C 36.035156 -4.675781 33.359375 -11.039062 31.921875 -19.6875 L 22.3125 -78.484375 C 21.832031 -81.523438 21.148438 -83.644531 20.265625 -84.84375 C 19.390625 -86.039062 18.234375 -86.640625 16.796875 -86.640625 C 15.679688 -86.640625 14.363281 -86.078125 12.84375 -84.953125 C 11.320312 -83.835938 10.238281 -83.28125 9.59375 -83.28125 C 8.320312 -83.28125 7.6875 -84.640625 7.6875 -87.359375 C 7.6875 -89.597656 8.082031 -92 8.875 -94.5625 C 11.757812 -103.675781 17.117188 -111.394531 24.953125 -117.71875 C 32.796875 -124.039062 41.914062 -127.203125 52.3125 -127.203125 C 62.5625 -127.203125 70.125 -124.160156 75 -118.078125 C 79.875 -111.992188 83.035156 -102.632812 84.484375 -90 L 91.6875 -37.203125 C 92.164062 -33.203125 93.601562 -31.203125 96 -31.203125 C 98.875 -31.203125 102.234375 -33.800781 106.078125 -39 C 109.921875 -44.195312 113.679688 -51.597656 117.359375 -61.203125 C 112.554688 -65.523438 108.875 -70.484375 106.3125 -76.078125 C 103.757812 -81.679688 102.484375 -87.679688 102.484375 -94.078125 C 102.484375 -99.035156 103.125 -103.515625 104.40625 -107.515625 C 106.320312 -113.921875 109.316406 -118.757812 113.390625 -122.03125 C 117.472656 -125.3125 122.078125 -126.953125 127.203125 -126.953125 Z M 127.203125 -126.953125 "/></g></g></g><g fill="#ffffff" fill-opacity="1"><g transform="translate(868.741483, 257.999983)"><g><path d="M 89.765625 -161.28125 C 98.722656 -161.28125 107 -160.195312 114.59375 -158.03125 C 122.195312 -155.875 129.921875 -152.476562 137.765625 -147.84375 L 143.28125 -152.40625 C 147.125 -155.4375 150.285156 -157.507812 152.765625 -158.625 C 155.242188 -159.75 158.082031 -160.3125 161.28125 -160.3125 C 165.125 -160.3125 168.164062 -159.472656 170.40625 -157.796875 C 172.644531 -156.117188 173.765625 -153.679688 173.765625 -150.484375 C 173.765625 -149.203125 173.523438 -147.84375 173.046875 -146.40625 L 162.953125 -113.28125 C 161.835938 -109.4375 160.4375 -106.710938 158.75 -105.109375 C 157.070312 -103.515625 154.554688 -102.71875 151.203125 -102.71875 C 147.679688 -102.71875 144.597656 -103.796875 141.953125 -105.953125 C 139.316406 -108.117188 135.195312 -112.5625 129.59375 -119.28125 C 124 -125.675781 118.921875 -130.191406 114.359375 -132.828125 C 109.796875 -135.472656 105.113281 -136.796875 100.3125 -136.796875 C 96.800781 -136.796875 93.84375 -135.632812 91.4375 -133.3125 C 89.039062 -131 87.84375 -128.160156 87.84375 -124.796875 C 87.84375 -120.960938 89.757812 -117.40625 93.59375 -114.125 C 97.4375 -110.84375 103.4375 -106.722656 111.59375 -101.765625 C 119.914062 -96.796875 126.796875 -92.3125 132.234375 -88.3125 C 137.679688 -84.3125 142.320312 -79.351562 146.15625 -73.4375 C 150 -67.519531 151.921875 -60.722656 151.921875 -53.046875 C 151.921875 -48.078125 151.117188 -43.113281 149.515625 -38.15625 C 145.679688 -25.351562 138.242188 -15.632812 127.203125 -9 C 116.160156 -2.363281 103.28125 0.953125 88.5625 0.953125 C 77.519531 0.953125 68.238281 -0.320312 60.71875 -2.875 C 53.195312 -5.4375 45.519531 -9.757812 37.6875 -15.84375 L 29.046875 -8.640625 C 25.046875 -5.273438 21.765625 -2.992188 19.203125 -1.796875 C 16.640625 -0.597656 13.757812 0 10.5625 0 C 6.882812 0 3.960938 -0.878906 1.796875 -2.640625 C -0.359375 -4.398438 -1.4375 -6.800781 -1.4375 -9.84375 C -1.4375 -11.4375 -1.117188 -13.113281 -0.484375 -14.875 L 11.28125 -50.640625 C 12.5625 -54.796875 14.320312 -57.753906 16.5625 -59.515625 C 18.800781 -61.273438 21.679688 -62.15625 25.203125 -62.15625 C 28.878906 -62.15625 32.195312 -60.875 35.15625 -58.3125 C 38.113281 -55.757812 41.992188 -51.125 46.796875 -44.40625 C 51.921875 -37.039062 56.679688 -31.914062 61.078125 -29.03125 C 65.484375 -26.15625 70.722656 -24.71875 76.796875 -24.71875 C 81.117188 -24.71875 84.4375 -25.394531 86.75 -26.75 C 89.070312 -28.113281 90.71875 -30.316406 91.6875 -33.359375 C 92 -34.160156 92.15625 -35.359375 92.15625 -36.953125 C 92.15625 -40.796875 90.316406 -44.316406 86.640625 -47.515625 C 82.960938 -50.710938 77.28125 -54.554688 69.59375 -59.046875 C 61.4375 -64.003906 54.796875 -68.441406 49.671875 -72.359375 C 44.554688 -76.273438 40.117188 -81.191406 36.359375 -87.109375 C 32.597656 -93.035156 30.71875 -100 30.71875 -108 C 30.71875 -113.601562 31.597656 -119.125 33.359375 -124.5625 C 36.722656 -135.601562 43.601562 -144.484375 54 -151.203125 C 64.394531 -157.921875 76.316406 -161.28125 89.765625 -161.28125 Z M 89.765625 -161.28125 "/></g></g></g><g fill="#ffffff" fill-opacity="1"><g transform="translate(1034.101233, 257.999983)"><g><path d="M 177.359375 -80.640625 C 171.441406 -58.242188 161.363281 -40.125 147.125 -26.28125 C 132.882812 -12.4375 116.082031 -3.515625 96.71875 0.484375 C 102.957031 5.285156 109.914062 7.6875 117.59375 7.6875 C 121.59375 7.6875 125.148438 6.925781 128.265625 5.40625 C 131.390625 3.882812 134.472656 1.921875 137.515625 -0.484375 C 137.835938 -0.796875 138.71875 -1.472656 140.15625 -2.515625 C 141.59375 -3.554688 142.875 -4.078125 144 -4.078125 C 145.4375 -4.078125 146.753906 -2.4375 147.953125 0.84375 C 149.160156 4.125 149.765625 8.160156 149.765625 12.953125 C 149.765625 17.753906 149.125 22.316406 147.84375 26.640625 C 145.4375 34.960938 141.15625 41.441406 135 46.078125 C 128.84375 50.722656 121.125 53.046875 111.84375 53.046875 C 92 53.046875 78.078125 40.960938 70.078125 16.796875 L 65.28125 2.640625 C 47.84375 1.359375 34.203125 -4.039062 24.359375 -13.5625 C 14.515625 -23.082031 9.59375 -36.160156 9.59375 -52.796875 C 9.59375 -60.960938 10.957031 -70.242188 13.6875 -80.640625 C 18.320312 -98.398438 25.640625 -113.476562 35.640625 -125.875 C 45.640625 -138.28125 57.554688 -147.640625 71.390625 -153.953125 C 85.234375 -160.273438 100.394531 -163.4375 116.875 -163.4375 C 137.039062 -163.4375 152.800781 -158.675781 164.15625 -149.15625 C 175.519531 -139.632812 181.203125 -125.914062 181.203125 -108 C 181.203125 -99.519531 179.921875 -90.398438 177.359375 -80.640625 Z M 114 -78.953125 C 120.238281 -101.035156 123.359375 -116.554688 123.359375 -125.515625 C 123.359375 -130.640625 122.476562 -134.320312 120.71875 -136.5625 C 118.957031 -138.800781 116.238281 -139.921875 112.5625 -139.921875 C 107.757812 -139.921875 103.4375 -138 99.59375 -134.15625 C 95.757812 -130.320312 91.960938 -124.039062 88.203125 -115.3125 C 84.441406 -106.59375 80.398438 -94.472656 76.078125 -78.953125 C 69.679688 -56.554688 66.484375 -41.117188 66.484375 -32.640625 C 66.484375 -27.679688 67.363281 -24.082031 69.125 -21.84375 C 70.882812 -19.601562 73.679688 -18.484375 77.515625 -18.484375 C 82.316406 -18.484375 86.632812 -20.441406 90.46875 -24.359375 C 94.3125 -28.273438 98.070312 -34.550781 101.75 -43.1875 C 105.4375 -51.832031 109.519531 -63.753906 114 -78.953125 Z M 114 -78.953125 "/></g></g></g><g fill="#ffffff" fill-opacity="1"><g transform="translate(1210.020944, 257.999983)"><g><path d="M 137.515625 -61.921875 C 141.992188 -61.921875 145.394531 -61 147.71875 -59.15625 C 150.039062 -57.320312 151.203125 -54.722656 151.203125 -51.359375 C 151.203125 -49.921875 150.960938 -48.320312 150.484375 -46.5625 L 142.5625 -18.484375 C 140.476562 -11.597656 137.554688 -6.796875 133.796875 -4.078125 C 130.035156 -1.359375 124.476562 0 117.125 0 L 4.3125 0 C 0.957031 0 -1.632812 -0.554688 -3.46875 -1.671875 C -5.3125 -2.796875 -6.234375 -4.316406 -6.234375 -6.234375 C -6.234375 -7.203125 -5.992188 -8.242188 -5.515625 -9.359375 C -5.035156 -10.640625 -4.234375 -11.71875 -3.109375 -12.59375 C -1.992188 -13.476562 -0.796875 -14.320312 0.484375 -15.125 C 3.035156 -16.71875 5.113281 -18.351562 6.71875 -20.03125 C 8.320312 -21.71875 9.679688 -24.476562 10.796875 -28.3125 L 40.078125 -131.765625 C 40.722656 -133.835938 41.046875 -135.835938 41.046875 -137.765625 C 41.046875 -139.523438 40.765625 -141.003906 40.203125 -142.203125 C 39.640625 -143.398438 38.878906 -144.800781 37.921875 -146.40625 C 36.484375 -148.476562 35.765625 -150.15625 35.765625 -151.4375 C 35.765625 -151.914062 35.921875 -152.796875 36.234375 -154.078125 C 36.878906 -156.160156 38.28125 -157.640625 40.4375 -158.515625 C 42.601562 -159.398438 45.925781 -159.84375 50.40625 -159.84375 L 106.796875 -159.84375 C 110.160156 -159.84375 112.757812 -159.320312 114.59375 -158.28125 C 116.4375 -157.238281 117.359375 -155.757812 117.359375 -153.84375 C 117.359375 -153.039062 117.117188 -152 116.640625 -150.71875 C 116.160156 -149.601562 115.476562 -148.601562 114.59375 -147.71875 C 113.71875 -146.84375 112.921875 -146.203125 112.203125 -145.796875 C 111.484375 -145.398438 110.960938 -145.039062 110.640625 -144.71875 C 108.078125 -143.28125 105.992188 -141.679688 104.390625 -139.921875 C 102.796875 -138.160156 101.4375 -135.441406 100.3125 -131.765625 L 69.359375 -23.046875 L 84.234375 -23.046875 C 87.921875 -23.046875 91.082031 -23.679688 93.71875 -24.953125 C 96.363281 -26.234375 99.125 -28.632812 102 -32.15625 L 118.5625 -51.84375 C 121.601562 -55.363281 124.519531 -57.921875 127.3125 -59.515625 C 130.113281 -61.117188 133.515625 -61.921875 137.515625 -61.921875 Z M 137.515625 -61.921875 "/></g></g></g><path fill="#dedbee" d="M 299.394531 182.851562 C 307.558594 184.96875 315.359375 188.3125 322.523438 192.777344 L 343.601562 175.898438 C 352.066406 182.199219 359.566406 189.703125 365.867188 198.171875 L 348.992188 219.265625 C 353.824219 227.023438 357.347656 235.523438 359.40625 244.433594 L 386.25 247.402344 C 387.777344 257.851562 387.777344 268.464844 386.25 278.910156 L 359.40625 281.882812 C 357.347656 290.792969 353.824219 299.292969 348.992188 307.050781 L 365.867188 328.144531 C 359.566406 336.613281 352.066406 344.117188 343.601562 350.417969 L 322.523438 333.539062 C 314.765625 338.371094 306.269531 341.898438 297.367188 343.957031 L 294.394531 370.816406 C 283.957031 372.34375 273.347656 372.34375 262.90625 370.816406 L 259.933594 343.957031 C 251.03125 341.898438 242.535156 338.371094 234.78125 333.539062 L 213.699219 350.417969 C 205.234375 344.117188 197.734375 336.613281 191.4375 328.144531 L 208.308594 307.050781 C 203.472656 299.292969 199.953125 290.792969 197.898438 281.882812 L 171.050781 278.910156 C 170.289062 273.683594 169.902344 268.421875 169.902344 263.15625 C 169.902344 257.894531 170.289062 252.632812 171.050781 247.402344 L 197.898438 244.433594 C 199.953125 235.523438 203.472656 227.023438 208.308594 219.265625 L 191.4375 198.171875 C 191.683594 197.835938 191.941406 197.492188 192.195312 197.15625 C 198.34375 189.101562 205.578125 181.945312 213.699219 175.898438 L 234.78125 192.777344 C 242.535156 187.945312 251.03125 184.417969 259.933594 182.359375 L 262.90625 155.5 C 272.460938 154.105469 282.164062 153.988281 291.742188 155.144531 C 292.625 155.253906 293.511719 155.371094 294.394531 155.5 L 297.367188 182.359375 C 298.046875 182.515625 298.71875 182.683594 299.394531 182.851562 Z M 278.652344 208.453125 C 308.824219 208.453125 333.328125 232.96875 333.328125 263.15625 C 333.328125 293.347656 308.824219 317.863281 278.652344 317.863281 C 248.46875 317.863281 223.972656 293.347656 223.972656 263.15625 C 223.972656 232.96875 248.46875 208.453125 278.652344 208.453125 Z M 278.652344 208.453125 " fill-opacity="1" fill-rule="evenodd"/><path fill="#57a4fe" d="M 333.328125 263.15625 C 333.328125 264.949219 333.238281 266.738281 333.066406 268.519531 C 332.890625 270.304688 332.625 272.074219 332.277344 273.832031 C 331.929688 275.589844 331.492188 277.324219 330.972656 279.039062 C 330.453125 280.753906 329.851562 282.4375 329.164062 284.09375 C 328.480469 285.75 327.714844 287.367188 326.871094 288.945312 C 326.027344 290.527344 325.109375 292.0625 324.113281 293.550781 C 323.117188 295.039062 322.050781 296.476562 320.917969 297.863281 C 319.78125 299.25 318.578125 300.574219 317.3125 301.839844 C 316.046875 303.109375 314.722656 304.308594 313.335938 305.445312 C 311.953125 306.582031 310.515625 307.648438 309.027344 308.644531 C 307.539062 309.640625 306.003906 310.558594 304.425781 311.40625 C 302.84375 312.25 301.230469 313.015625 299.574219 313.699219 C 297.921875 314.386719 296.234375 314.988281 294.523438 315.507812 C 292.808594 316.027344 291.074219 316.464844 289.316406 316.8125 C 287.5625 317.164062 285.792969 317.425781 284.011719 317.601562 C 282.226562 317.777344 280.441406 317.863281 278.652344 317.863281 C 276.859375 317.863281 275.074219 317.777344 273.292969 317.601562 C 271.507812 317.425781 269.738281 317.164062 267.984375 316.8125 C 266.226562 316.464844 264.492188 316.027344 262.777344 315.507812 C 261.066406 314.988281 259.382812 314.386719 257.726562 313.699219 C 256.070312 313.015625 254.457031 312.25 252.875 311.40625 C 251.296875 310.558594 249.761719 309.640625 248.273438 308.644531 C 246.785156 307.648438 245.347656 306.582031 243.964844 305.445312 C 242.578125 304.308594 241.253906 303.109375 239.988281 301.839844 C 238.722656 300.574219 237.519531 299.25 236.386719 297.863281 C 235.25 296.476562 234.183594 295.039062 233.1875 293.550781 C 232.195312 292.0625 231.273438 290.527344 230.429688 288.945312 C 229.585938 287.367188 228.820312 285.75 228.136719 284.09375 C 227.449219 282.4375 226.847656 280.753906 226.328125 279.039062 C 225.808594 277.324219 225.375 275.589844 225.023438 273.832031 C 224.675781 272.074219 224.414062 270.304688 224.238281 268.519531 C 224.0625 266.738281 223.972656 264.949219 223.972656 263.15625 C 223.972656 261.367188 224.0625 259.578125 224.238281 257.796875 C 224.414062 256.011719 224.675781 254.242188 225.023438 252.484375 C 225.375 250.726562 225.808594 248.992188 226.328125 247.277344 C 226.847656 245.5625 227.449219 243.878906 228.136719 242.222656 C 228.820312 240.566406 229.585938 238.949219 230.429688 237.371094 C 231.273438 235.789062 232.195312 234.253906 233.1875 232.765625 C 234.183594 231.273438 235.25 229.839844 236.386719 228.453125 C 237.519531 227.066406 238.722656 225.742188 239.988281 224.476562 C 241.253906 223.207031 242.578125 222.007812 243.964844 220.871094 C 245.347656 219.734375 246.785156 218.667969 248.273438 217.671875 C 249.761719 216.675781 251.296875 215.757812 252.875 214.910156 C 254.457031 214.066406 256.074219 213.300781 257.726562 212.617188 C 259.382812 211.929688 261.066406 211.328125 262.777344 210.808594 C 264.492188 210.289062 266.226562 209.851562 267.984375 209.503906 C 269.738281 209.152344 271.507812 208.890625 273.292969 208.714844 C 275.074219 208.539062 276.859375 208.453125 278.652344 208.453125 C 280.441406 208.453125 282.226562 208.539062 284.011719 208.714844 C 285.792969 208.890625 287.5625 209.152344 289.316406 209.503906 C 291.074219 209.851562 292.808594 210.289062 294.523438 210.808594 C 296.234375 211.328125 297.921875 211.929688 299.574219 212.617188 C 301.230469 213.300781 302.84375 214.066406 304.425781 214.910156 C 306.003906 215.757812 307.539062 216.675781 309.027344 217.671875 C 310.515625 218.667969 311.953125 219.734375 313.335938 220.871094 C 314.722656 222.007812 316.046875 223.207031 317.3125 224.476562 C 318.578125 225.742188 319.78125 227.066406 320.917969 228.453125 C 322.050781 229.839844 323.117188 231.273438 324.113281 232.765625 C 325.109375 234.253906 326.027344 235.789062 326.871094 237.371094 C 327.714844 238.949219 328.480469 240.566406 329.164062 242.222656 C 329.851562 243.878906 330.453125 245.5625 330.972656 247.277344 C 331.492188 248.992188 331.929688 250.726562 332.277344 252.484375 C 332.625 254.242188 332.890625 256.011719 333.0625 257.796875 C 333.238281 259.578125 333.328125 261.367188 333.328125 263.15625 Z M 333.328125 263.15625 " fill-opacity="1" fill-rule="nonzero"/><path fill="#57a4fe" d="M 40.417969 68.042969 C 40.417969 32.144531 98.441406 3.003906 169.902344 3.003906 C 241.371094 3.003906 299.394531 32.144531 299.394531 68.042969 C 299.394531 103.9375 241.371094 133.078125 169.902344 133.078125 C 98.441406 133.078125 40.417969 103.9375 40.417969 68.042969 Z M 40.417969 68.042969 " fill-opacity="1" fill-rule="evenodd"/><path fill="#57a4fe" d="M 299.394531 68.042969 L 299.394531 133.078125 C 299.394531 140.824219 296.695312 148.253906 291.742188 155.144531 C 282.164062 153.988281 272.460938 154.105469 262.90625 155.5 L 260.226562 179.667969 C 251.738281 183.816406 242.125 187.390625 231.632812 190.261719 L 213.699219 175.898438 C 205.578125 181.945312 198.34375 189.101562 192.195312 197.15625 C 184.953125 197.792969 177.503906 198.121094 169.902344 198.121094 C 98.441406 198.121094 40.417969 168.980469 40.417969 133.078125 L 40.417969 68.042969 C 40.417969 103.9375 98.441406 133.078125 169.902344 133.078125 C 241.371094 133.078125 299.394531 103.9375 299.394531 68.042969 Z M 169.902344 154.03125 C 176.289062 154.03125 181.46875 159.214844 181.46875 165.597656 C 181.46875 171.980469 176.289062 177.171875 169.902344 177.171875 C 163.523438 177.171875 158.34375 171.980469 158.34375 165.597656 C 158.34375 159.214844 163.523438 154.03125 169.902344 154.03125 Z M 169.902344 154.03125 " fill-opacity="1" fill-rule="evenodd"/><path fill="#dedbee" d="M 181.464844 165.597656 C 181.464844 166.355469 181.390625 167.109375 181.242188 167.851562 C 181.09375 168.597656 180.875 169.320312 180.585938 170.023438 C 180.292969 170.726562 179.9375 171.390625 179.515625 172.023438 C 179.09375 172.65625 178.613281 173.238281 178.078125 173.777344 C 177.542969 174.3125 176.957031 174.792969 176.324219 175.214844 C 175.695312 175.636719 175.027344 175.992188 174.328125 176.285156 C 173.625 176.574219 172.902344 176.792969 172.15625 176.941406 C 171.414062 177.089844 170.660156 177.164062 169.902344 177.164062 C 169.144531 177.164062 168.390625 177.089844 167.648438 176.941406 C 166.902344 176.792969 166.179688 176.574219 165.476562 176.285156 C 164.777344 175.992188 164.109375 175.636719 163.480469 175.214844 C 162.847656 174.792969 162.265625 174.3125 161.726562 173.777344 C 161.191406 173.238281 160.710938 172.65625 160.289062 172.023438 C 159.867188 171.390625 159.511719 170.726562 159.222656 170.023438 C 158.929688 169.320312 158.710938 168.597656 158.5625 167.855469 C 158.414062 167.109375 158.339844 166.355469 158.339844 165.597656 C 158.339844 164.835938 158.414062 164.085938 158.5625 163.339844 C 158.710938 162.59375 158.929688 161.871094 159.222656 161.167969 C 159.511719 160.46875 159.867188 159.800781 160.289062 159.167969 C 160.710938 158.539062 161.191406 157.953125 161.726562 157.417969 C 162.265625 156.878906 162.847656 156.398438 163.480469 155.976562 C 164.109375 155.554688 164.777344 155.199219 165.476562 154.910156 C 166.179688 154.617188 166.902344 154.398438 167.648438 154.25 C 168.390625 154.101562 169.144531 154.027344 169.902344 154.027344 C 170.660156 154.027344 171.414062 154.101562 172.15625 154.25 C 172.902344 154.398438 173.625 154.617188 174.328125 154.910156 C 175.027344 155.199219 175.695312 155.554688 176.324219 155.976562 C 176.957031 156.398438 177.542969 156.878906 178.078125 157.417969 C 178.613281 157.953125 179.09375 158.539062 179.515625 159.167969 C 179.9375 159.800781 180.292969 160.46875 180.585938 161.167969 C 180.875 161.871094 181.09375 162.59375 181.242188 163.339844 C 181.390625 164.085938 181.464844 164.835938 181.464844 165.597656 Z M 181.464844 165.597656 " fill-opacity="1" fill-rule="nonzero"/><path fill="#dedbee" d="M 299.394531 133.078125 L 299.394531 182.851562 C 298.71875 182.683594 298.046875 182.515625 297.367188 182.359375 L 294.394531 155.5 C 293.511719 155.371094 292.625 155.253906 291.742188 155.144531 C 296.695312 148.253906 299.394531 140.824219 299.394531 133.078125 Z M 299.394531 133.078125 " fill-opacity="1" fill-rule="evenodd"/><path fill="#57a4fe" d="M 40.417969 198.121094 L 40.417969 133.078125 C 40.417969 168.980469 98.441406 198.121094 169.902344 198.121094 C 177.503906 198.121094 184.953125 197.792969 192.195312 197.15625 C 191.941406 197.492188 191.683594 197.835938 191.4375 198.171875 L 208.308594 219.265625 C 203.472656 227.023438 199.953125 235.523438 197.898438 244.433594 L 171.050781 247.402344 C 170.289062 252.632812 169.902344 257.894531 169.902344 263.15625 C 98.441406 263.15625 40.417969 234.015625 40.417969 198.121094 Z M 169.902344 219.734375 C 176.289062 219.734375 181.46875 224.914062 181.46875 231.300781 C 181.46875 237.683594 176.289062 242.867188 169.902344 242.867188 C 163.523438 242.867188 158.34375 237.683594 158.34375 231.300781 C 158.34375 224.914062 163.523438 219.734375 169.902344 219.734375 Z M 169.902344 219.734375 " fill-opacity="1" fill-rule="evenodd"/><path fill="#dedbee" d="M 181.464844 231.300781 C 181.464844 232.058594 181.390625 232.8125 181.242188 233.554688 C 181.09375 234.300781 180.875 235.023438 180.585938 235.726562 C 180.292969 236.425781 179.9375 237.09375 179.515625 237.726562 C 179.09375 238.355469 178.613281 238.941406 178.078125 239.480469 C 177.542969 240.015625 176.957031 240.496094 176.324219 240.917969 C 175.695312 241.339844 175.027344 241.695312 174.328125 241.984375 C 173.625 242.277344 172.902344 242.496094 172.15625 242.644531 C 171.414062 242.792969 170.660156 242.867188 169.902344 242.867188 C 169.144531 242.867188 168.390625 242.792969 167.648438 242.644531 C 166.902344 242.496094 166.179688 242.277344 165.476562 241.984375 C 164.777344 241.695312 164.109375 241.339844 163.480469 240.917969 C 162.847656 240.496094 162.265625 240.015625 161.726562 239.480469 C 161.191406 238.941406 160.710938 238.355469 160.289062 237.726562 C 159.867188 237.09375 159.511719 236.425781 159.222656 235.726562 C 158.929688 235.023438 158.710938 234.300781 158.5625 233.554688 C 158.414062 232.8125 158.339844 232.058594 158.339844 231.300781 C 158.339844 230.539062 158.414062 229.785156 158.5625 229.042969 C 158.710938 228.296875 158.929688 227.574219 159.222656 226.871094 C 159.511719 226.171875 159.867188 225.503906 160.289062 224.871094 C 160.710938 224.242188 161.191406 223.65625 161.726562 223.117188 C 162.265625 222.582031 162.847656 222.101562 163.480469 221.679688 C 164.109375 221.257812 164.777344 220.902344 165.476562 220.613281 C 166.179688 220.320312 166.902344 220.101562 167.648438 219.953125 C 168.390625 219.804688 169.144531 219.730469 169.902344 219.730469 C 170.660156 219.730469 171.414062 219.804688 172.15625 219.953125 C 172.902344 220.101562 173.625 220.320312 174.328125 220.613281 C 175.027344 220.902344 175.695312 221.257812 176.324219 221.679688 C 176.957031 222.101562 177.542969 222.582031 178.078125 223.117188 C 178.613281 223.65625 179.09375 224.242188 179.515625 224.871094 C 179.9375 225.503906 180.292969 226.171875 180.585938 226.871094 C 180.875 227.574219 181.09375 228.296875 181.242188 229.042969 C 181.390625 229.785156 181.464844 230.539062 181.464844 231.300781 Z M 181.464844 231.300781 " fill-opacity="1" fill-rule="nonzero"/><path fill="#57a4fe" d="M 192.160156 327.234375 C 184.925781 327.863281 177.488281 328.195312 169.902344 328.195312 C 98.441406 328.195312 40.417969 299.050781 40.417969 263.15625 L 40.417969 198.121094 C 40.417969 234.015625 98.441406 263.15625 169.902344 263.15625 C 169.902344 268.421875 170.289062 273.683594 171.050781 278.910156 L 197.898438 281.882812 C 199.953125 290.792969 203.472656 299.292969 208.308594 307.050781 Z M 169.902344 285.433594 C 176.289062 285.433594 181.46875 290.617188 181.46875 297 C 181.46875 303.382812 176.289062 308.566406 169.902344 308.566406 C 163.523438 308.566406 158.34375 303.382812 158.34375 297 C 158.34375 290.617188 163.523438 285.433594 169.902344 285.433594 Z M 169.902344 285.433594 " fill-opacity="1" fill-rule="evenodd"/><path fill="#dedbee" d="M 181.464844 297 C 181.464844 297.761719 181.390625 298.511719 181.242188 299.257812 C 181.09375 300.003906 180.875 300.726562 180.585938 301.429688 C 180.292969 302.128906 179.9375 302.796875 179.515625 303.429688 C 179.09375 304.058594 178.613281 304.644531 178.078125 305.179688 C 177.542969 305.71875 176.957031 306.199219 176.324219 306.621094 C 175.695312 307.042969 175.027344 307.398438 174.328125 307.6875 C 173.625 307.980469 172.902344 308.199219 172.15625 308.347656 C 171.414062 308.496094 170.660156 308.570312 169.902344 308.570312 C 169.144531 308.570312 168.390625 308.496094 167.648438 308.347656 C 166.902344 308.199219 166.179688 307.980469 165.476562 307.6875 C 164.777344 307.398438 164.109375 307.042969 163.480469 306.621094 C 162.847656 306.199219 162.265625 305.71875 161.726562 305.179688 C 161.191406 304.644531 160.710938 304.058594 160.289062 303.429688 C 159.867188 302.796875 159.511719 302.128906 159.222656 301.429688 C 158.929688 300.726562 158.710938 300.003906 158.5625 299.257812 C 158.414062 298.511719 158.339844 297.761719 158.339844 297 C 158.339844 296.242188 158.414062 295.488281 158.5625 294.746094 C 158.710938 294 158.929688 293.277344 159.222656 292.574219 C 159.511719 291.871094 159.867188 291.207031 160.289062 290.574219 C 160.710938 289.941406 161.191406 289.359375 161.726562 288.820312 C 162.265625 288.285156 162.847656 287.804688 163.480469 287.382812 C 164.109375 286.960938 164.777344 286.605469 165.476562 286.3125 C 166.179688 286.023438 166.902344 285.804688 167.648438 285.65625 C 168.390625 285.507812 169.144531 285.433594 169.902344 285.433594 C 170.660156 285.433594 171.414062 285.507812 172.15625 285.65625 C 172.902344 285.804688 173.625 286.023438 174.328125 286.3125 C 175.027344 286.605469 175.695312 286.960938 176.324219 287.382812 C 176.957031 287.804688 177.542969 288.285156 178.078125 288.820312 C 178.613281 289.359375 179.09375 289.941406 179.515625 290.574219 C 179.9375 291.207031 180.292969 291.871094 180.585938 292.574219 C 180.875 293.277344 181.09375 294 181.242188 294.746094 C 181.390625 295.488281 181.464844 296.242188 181.464844 297 Z M 181.464844 297 " fill-opacity="1" fill-rule="nonzero"/><path fill="#dedbee" d="M 260.226562 179.667969 C 251.738281 183.816406 242.125 187.390625 231.632812 190.261719 L 234.78125 192.777344 C 242.535156 187.945312 251.03125 184.417969 259.933594 182.359375 Z M 260.226562 179.667969 " fill-opacity="1" fill-rule="evenodd"/><g clip-path="url(#28ec1d79e0)"><path fill="#00005d" d="M 37.488281 68.058594 C 37.488281 52.847656 47.113281 38.640625 63.761719 27.242188 C 87.710938 10.832031 126.335938 0.0859375 169.90625 0.0859375 C 213.472656 0.0859375 252.101562 10.832031 276.050781 27.242188 C 292.699219 38.640625 302.320312 52.847656 302.320312 68.058594 L 302.320312 180.632812 C 309.3125 182.640625 316.019531 185.519531 322.289062 189.230469 L 341.769531 173.625 C 342.8125 172.792969 344.28125 172.761719 345.347656 173.5625 C 354.039062 180.035156 361.742188 187.742188 368.214844 196.441406 C 369.011719 197.507812 368.984375 198.976562 368.152344 200.011719 C 368.152344 200.011719 352.554688 219.511719 352.554688 219.511719 C 356.652344 226.457031 359.753906 233.941406 361.765625 241.761719 L 386.570312 244.507812 C 387.894531 244.652344 388.953125 245.675781 389.144531 246.992188 C 390.714844 257.722656 390.714844 268.625 389.144531 279.34375 C 388.953125 280.671875 387.894531 281.683594 386.570312 281.835938 C 386.570312 281.835938 361.765625 284.585938 361.765625 284.585938 C 359.753906 292.394531 356.652344 299.886719 352.554688 306.835938 L 368.152344 326.324219 C 368.984375 327.371094 369.011719 328.839844 368.214844 329.90625 C 361.742188 338.59375 354.039062 346.3125 345.347656 352.78125 C 344.28125 353.582031 342.8125 353.554688 341.769531 352.722656 C 341.769531 352.722656 322.289062 337.113281 322.289062 337.113281 C 315.34375 341.210938 307.859375 344.316406 300.054688 346.332031 L 297.304688 371.148438 C 297.15625 372.476562 296.136719 373.53125 294.820312 373.722656 C 284.097656 375.296875 273.203125 375.296875 262.480469 373.722656 C 261.164062 373.53125 260.144531 372.476562 259.996094 371.148438 C 259.996094 371.148438 257.246094 346.332031 257.246094 346.332031 C 249.441406 344.316406 241.957031 341.210938 235.011719 337.113281 L 215.527344 352.722656 C 214.488281 353.554688 213.019531 353.582031 211.953125 352.78125 C 203.429688 346.433594 195.855469 338.898438 189.460938 330.410156 C 183.082031 330.886719 176.550781 331.140625 169.90625 331.140625 C 126.335938 331.140625 87.710938 320.394531 63.761719 303.984375 C 47.113281 292.585938 37.488281 278.378906 37.488281 263.167969 Z M 296.46875 68.058594 C 296.46875 54.550781 287.527344 42.199219 272.742188 32.070312 C 249.550781 16.179688 212.097656 5.945312 169.90625 5.945312 C 127.710938 5.945312 90.261719 16.179688 67.066406 32.070312 C 52.285156 42.199219 43.34375 54.550781 43.34375 68.058594 C 43.34375 81.554688 52.285156 93.917969 67.066406 104.039062 C 90.261719 119.929688 127.710938 130.160156 169.90625 130.160156 C 212.097656 130.160156 249.550781 119.929688 272.742188 104.039062 C 287.527344 93.917969 296.46875 81.554688 296.46875 68.058594 Z M 296.46875 133.089844 L 296.46875 88.230469 C 291.984375 95.734375 285.042969 102.710938 276.050781 108.875 C 252.101562 125.273438 213.472656 136.023438 169.90625 136.023438 C 126.335938 136.023438 87.710938 125.273438 63.761719 108.875 C 54.769531 102.710938 47.828125 95.734375 43.34375 88.230469 L 43.34375 133.089844 C 43.34375 146.597656 52.285156 158.949219 67.066406 169.082031 C 90.261719 184.960938 127.710938 195.203125 169.90625 195.203125 C 176.972656 195.203125 183.910156 194.921875 190.667969 194.363281 C 196.800781 186.511719 203.957031 179.515625 211.953125 173.5625 C 213.019531 172.761719 214.488281 172.792969 215.527344 173.625 C 215.527344 173.625 226.933594 182.75 232.292969 187.050781 C 241.453125 184.464844 249.917969 181.339844 257.5 177.742188 L 259.996094 155.1875 C 260.144531 153.871094 261.164062 152.804688 262.480469 152.613281 C 271.710938 151.265625 281.066406 151.082031 290.332031 152.054688 C 294.292969 146.09375 296.46875 139.722656 296.46875 133.089844 Z M 296.46875 153.445312 L 296.46875 153.292969 C 296.449219 153.324219 296.429688 153.351562 296.410156 153.394531 C 296.429688 153.414062 296.449219 153.425781 296.46875 153.445312 Z M 190.65625 324.4375 C 194.570312 319.550781 204.746094 306.835938 204.746094 306.835938 C 200.648438 299.886719 197.546875 292.394531 195.535156 284.585938 L 170.730469 281.835938 C 169.40625 281.683594 168.347656 280.671875 168.15625 279.34375 C 167.511719 274.953125 167.132812 270.519531 167.015625 266.089844 C 124.632812 265.621094 87.179688 254.996094 63.761719 238.953125 C 54.769531 232.785156 47.828125 225.808594 43.34375 218.304688 L 43.34375 263.167969 C 43.34375 276.675781 52.285156 289.027344 67.066406 299.15625 C 90.261719 315.046875 127.710938 325.28125 169.90625 325.28125 C 176.96875 325.28125 183.902344 324.996094 190.65625 324.4375 Z M 172.832031 263.167969 C 172.832031 267.550781 173.105469 271.917969 173.644531 276.261719 L 198.214844 278.988281 C 199.449219 279.128906 200.464844 280.03125 200.742188 281.238281 C 202.734375 289.828125 206.128906 298.03125 210.792969 305.515625 C 211.449219 306.570312 211.371094 307.917969 210.59375 308.894531 C 210.59375 308.894531 195.144531 328.199219 195.144531 328.199219 C 200.527344 335.117188 206.742188 341.332031 213.65625 346.71875 L 232.953125 331.265625 C 233.921875 330.484375 235.277344 330.402344 236.332031 331.0625 C 243.808594 335.726562 252.007812 339.132812 260.59375 341.121094 C 261.804688 341.394531 262.703125 342.410156 262.839844 343.644531 C 262.839844 343.644531 265.5625 368.238281 265.5625 368.238281 C 274.253906 369.3125 283.046875 369.3125 291.738281 368.238281 L 294.460938 343.644531 C 294.597656 342.410156 295.496094 341.394531 296.710938 341.121094 C 305.292969 339.132812 313.492188 335.726562 320.96875 331.0625 C 322.023438 330.402344 323.378906 330.484375 324.347656 331.265625 C 324.347656 331.265625 343.648438 346.71875 343.648438 346.71875 C 350.558594 341.332031 356.773438 335.117188 362.15625 328.199219 L 346.707031 308.894531 C 345.929688 307.917969 345.851562 306.570312 346.507812 305.515625 C 351.171875 298.03125 354.566406 289.828125 356.558594 281.238281 C 356.835938 280.03125 357.851562 279.128906 359.085938 278.988281 C 359.085938 278.988281 383.65625 276.261719 383.65625 276.261719 C 384.738281 267.570312 384.738281 258.765625 383.65625 250.078125 L 359.085938 247.347656 C 357.851562 247.214844 356.835938 246.3125 356.558594 245.105469 C 354.566406 236.519531 351.171875 228.3125 346.507812 220.832031 C 345.851562 219.773438 345.929688 218.417969 346.707031 217.453125 C 346.707031 217.453125 362.15625 198.144531 362.15625 198.144531 C 356.773438 191.230469 350.558594 185.003906 343.648438 179.617188 L 324.347656 195.082031 C 323.378906 195.851562 322.023438 195.933594 320.96875 195.273438 C 314.078125 190.976562 306.570312 187.75 298.714844 185.710938 C 298.679688 185.703125 298.644531 185.703125 298.609375 185.691406 C 297.976562 185.519531 297.34375 185.367188 296.710938 185.226562 C 295.496094 184.941406 294.597656 183.929688 294.460938 182.691406 L 291.738281 158.109375 C 291.628906 158.097656 291.519531 158.078125 291.410156 158.070312 C 291.394531 158.070312 291.378906 158.070312 291.359375 158.058594 C 282.792969 157.023438 274.128906 157.042969 265.5625 158.109375 L 262.839844 182.691406 C 262.703125 183.929688 261.804688 184.941406 260.59375 185.226562 C 252.007812 187.214844 243.808594 190.609375 236.332031 195.273438 C 235.277344 195.933594 233.921875 195.851562 232.953125 195.082031 C 232.953125 195.082031 213.65625 179.617188 213.65625 179.617188 C 206.742188 185.003906 200.527344 191.230469 195.144531 198.144531 L 210.59375 217.453125 C 211.371094 218.417969 211.449219 219.773438 210.792969 220.832031 C 206.128906 228.3125 202.734375 236.519531 200.742188 245.105469 C 200.464844 246.3125 199.449219 247.214844 198.214844 247.347656 C 198.214844 247.347656 173.644531 250.078125 173.644531 250.078125 C 173.105469 254.425781 172.832031 258.796875 172.832031 263.167969 Z M 43.34375 153.261719 L 43.34375 198.136719 C 43.34375 211.640625 52.285156 223.996094 67.066406 234.113281 C 89.730469 249.640625 126.007812 259.769531 167.019531 260.226562 C 167.132812 255.804688 167.511719 251.382812 168.15625 246.992188 C 168.222656 246.539062 168.394531 246.109375 168.640625 245.757812 C 161.234375 245.117188 155.417969 238.890625 155.417969 231.316406 C 155.417969 223.316406 161.910156 216.8125 169.90625 216.8125 C 177.902344 216.8125 184.394531 223.316406 184.394531 231.316406 C 184.394531 236.609375 181.546875 241.253906 177.300781 243.777344 C 184.652344 242.96875 195.535156 241.761719 195.535156 241.761719 C 197.546875 233.941406 200.648438 226.457031 204.746094 219.511719 L 189.402344 200.335938 C 183.042969 200.8125 176.53125 201.066406 169.90625 201.066406 C 126.335938 201.066406 87.710938 190.316406 63.761719 173.910156 C 54.769531 167.753906 47.828125 160.777344 43.34375 153.261719 Z M 169.90625 151.113281 C 177.902344 151.113281 184.394531 157.613281 184.394531 165.613281 C 184.394531 173.613281 177.902344 180.105469 169.90625 180.105469 C 161.910156 180.105469 155.417969 173.613281 155.417969 165.613281 C 155.417969 157.613281 161.910156 151.113281 169.90625 151.113281 Z M 169.90625 156.972656 C 165.140625 156.972656 161.269531 160.847656 161.269531 165.613281 C 161.269531 170.378906 165.140625 174.253906 169.90625 174.253906 C 174.671875 174.253906 178.539062 170.378906 178.539062 165.613281 C 178.539062 160.847656 174.671875 156.972656 169.90625 156.972656 Z M 169.90625 282.515625 C 177.902344 282.515625 184.394531 289.015625 184.394531 297.019531 C 184.394531 305.007812 177.902344 311.507812 169.90625 311.507812 C 161.910156 311.507812 155.417969 305.007812 155.417969 297.019531 C 155.417969 289.015625 161.910156 282.515625 169.90625 282.515625 Z M 169.90625 288.378906 C 165.140625 288.378906 161.269531 292.242188 161.269531 297.019531 C 161.269531 301.785156 165.140625 305.65625 169.90625 305.65625 C 174.671875 305.65625 178.539062 301.785156 178.539062 297.019531 C 178.539062 292.242188 174.671875 288.378906 169.90625 288.378906 Z M 278.652344 205.539062 C 310.441406 205.539062 336.253906 231.367188 336.253906 263.167969 C 336.253906 294.980469 310.441406 320.808594 278.652344 320.808594 C 246.859375 320.808594 221.046875 294.980469 221.046875 263.167969 C 221.046875 231.367188 246.859375 205.539062 278.652344 205.539062 Z M 278.652344 211.390625 C 250.089844 211.390625 226.898438 234.589844 226.898438 263.167969 C 226.898438 291.746094 250.089844 314.945312 278.652344 314.945312 C 307.210938 314.945312 330.402344 291.746094 330.402344 263.167969 C 330.402344 234.589844 307.210938 211.390625 278.652344 211.390625 Z M 263.375 234.054688 L 265.785156 234.054688 C 267.398438 234.054688 268.710938 235.363281 268.710938 236.984375 C 268.710938 238.597656 267.398438 239.90625 265.785156 239.90625 L 253.792969 239.90625 C 253.375 239.90625 252.964844 239.824219 252.585938 239.652344 C 251.554688 239.183594 250.863281 238.152344 250.863281 236.984375 L 250.863281 224.976562 L 256.71875 224.976562 C 256.71875 224.976562 256.71875 229.773438 256.71875 231.101562 C 263.042969 227.027344 270.574219 224.652344 278.652344 224.652344 C 289.5 224.652344 299.359375 228.921875 306.640625 235.878906 C 314.375 243.273438 319.195312 253.6875 319.195312 265.214844 C 319.195312 287.609375 301.027344 305.789062 278.652344 305.789062 C 267.121094 305.789062 256.710938 300.964844 249.328125 293.226562 C 248.210938 292.058594 248.253906 290.203125 249.425781 289.089844 C 250.589844 287.960938 252.445312 288.011719 253.5625 289.179688 C 259.878906 295.800781 268.785156 299.929688 278.652344 299.929688 C 297.796875 299.929688 313.34375 284.371094 313.34375 265.214844 C 313.34375 255.347656 309.214844 246.4375 302.597656 240.117188 C 296.371094 234.164062 287.933594 230.515625 278.652344 230.515625 C 273.167969 230.515625 267.984375 231.78125 263.375 234.054688 Z M 169.90625 222.675781 C 165.140625 222.675781 161.269531 226.550781 161.269531 231.316406 C 161.269531 236.082031 165.140625 239.957031 169.90625 239.957031 C 174.671875 239.957031 178.539062 236.082031 178.539062 231.316406 C 178.539062 226.550781 174.671875 222.675781 169.90625 222.675781 Z M 169.90625 222.675781 " fill-opacity="1" fill-rule="evenodd"/></g></svg>