<svg xmlns="http://www.w3.org/2000/svg" xmlns:xlink="http://www.w3.org/1999/xlink" width="2000" zoomAndPan="magnify" viewBox="0 0 1500 374.999991" height="500" preserveAspectRatio="xMidYMid meet" version="1.0"><path fill="#83cd29" d="M 1306.195312 132.734375 C 1302.96875 132.734375 1299.832031 133.402344 1297.058594 134.972656 L 1209.21875 185.691406 C 1203.53125 188.964844 1200.078125 195.148438 1200.078125 201.726562 L 1200.078125 302.980469 C 1200.078125 309.558594 1203.53125 315.734375 1209.21875 319.015625 L 1232.15625 332.234375 C 1243.304688 337.726562 1247.414062 337.640625 1252.488281 337.640625 C 1268.988281 337.640625 1278.40625 327.628906 1278.40625 310.226562 L 1278.40625 210.328125 C 1278.40625 208.914062 1277.183594 207.902344 1275.796875 207.902344 L 1264.792969 207.902344 C 1263.382812 207.902344 1262.183594 208.941406 1262.183594 210.328125 L 1262.183594 310.273438 C 1262.183594 317.984375 1254.148438 325.742188 1241.109375 319.222656 L 1217.261719 305.238281 C 1216.421875 304.78125 1215.769531 303.941406 1215.769531 303.003906 L 1215.769531 201.75 C 1215.769531 200.789062 1216.414062 199.808594 1217.261719 199.324219 L 1304.917969 148.789062 C 1305.738281 148.316406 1306.71875 148.316406 1307.527344 148.789062 L 1395.183594 199.324219 C 1396.019531 199.824219 1396.675781 200.757812 1396.675781 201.75 L 1396.675781 303.003906 C 1396.675781 303.96875 1396.191406 304.960938 1395.371094 305.425781 L 1307.53125 355.960938 C 1306.753906 356.410156 1305.714844 356.410156 1304.921875 355.960938 L 1282.355469 342.539062 C 1281.679688 342.144531 1280.765625 342.175781 1280.117188 342.539062 C 1273.890625 346.066406 1272.71875 346.476562 1266.878906 348.503906 C 1265.4375 349.003906 1263.25 349.785156 1267.625 352.234375 L 1297.089844 369.597656 C 1299.894531 371.222656 1303.019531 372.023438 1306.230469 372.023438 C 1309.484375 372.023438 1312.5625 371.246094 1315.371094 369.597656 L 1403.207031 319.0625 C 1408.894531 315.757812 1412.347656 309.601562 1412.347656 303.027344 L 1412.347656 201.773438 C 1412.347656 195.195312 1408.894531 189.023438 1403.207031 185.738281 L 1315.371094 135.019531 C 1312.617188 133.449219 1309.460938 132.78125 1306.230469 132.78125 Z M 1329.695312 205.089844 C 1304.683594 205.089844 1289.785156 215.734375 1289.785156 233.429688 C 1289.785156 252.609375 1304.570312 257.90625 1328.578125 260.28125 C 1357.296875 263.089844 1359.539062 267.308594 1359.539062 272.960938 C 1359.539062 282.765625 1351.71875 286.945312 1333.242188 286.945312 C 1310.027344 286.945312 1304.921875 281.148438 1303.214844 269.582031 C 1303.011719 268.34375 1302.058594 267.34375 1300.792969 267.34375 L 1289.386719 267.34375 C 1289.042969 267.351562 1288.714844 267.421875 1288.398438 267.558594 C 1288.082031 267.695312 1287.800781 267.882812 1287.558594 268.125 C 1287.316406 268.367188 1287.125 268.648438 1286.992188 268.964844 C 1286.855469 269.28125 1286.785156 269.609375 1286.777344 269.953125 C 1286.777344 284.734375 1294.816406 302.210938 1333.214844 302.210938 C 1361.011719 302.210938 1377.042969 291.328125 1377.042969 272.191406 C 1377.042969 253.273438 1364.09375 248.160156 1337.132812 244.589844 C 1309.914062 240.960938 1307.292969 239.226562 1307.292969 232.84375 C 1307.292969 227.578125 1309.496094 220.53125 1329.671875 220.53125 C 1347.695312 220.53125 1354.355469 224.417969 1357.089844 236.570312 C 1357.328125 237.710938 1358.332031 238.640625 1359.511719 238.640625 L 1370.917969 238.640625 C 1371.617188 238.640625 1372.296875 238.210938 1372.785156 237.710938 C 1373.261719 237.171875 1373.597656 236.570312 1373.53125 235.84375 C 1371.765625 214.917969 1357.8125 205.074219 1329.703125 205.074219 Z M 1329.695312 205.089844 " fill-opacity="1" fill-rule="nonzero"/><path fill="#404137" d="M 789.78125 0 C 788.785156 0.00390625 787.851562 0.25 786.984375 0.746094 C 786.125 1.253906 785.445312 1.9375 784.945312 2.800781 C 784.445312 3.667969 784.195312 4.597656 784.1875 5.597656 L 784.1875 148.246094 C 784.1875 149.644531 783.535156 150.898438 782.324219 151.601562 C 781.71875 151.953125 781.066406 152.128906 780.363281 152.128906 C 779.664062 152.128906 779.011719 151.953125 778.40625 151.601562 L 755.09375 138.175781 C 754.242188 137.683594 753.34375 137.3125 752.394531 137.054688 C 751.445312 136.800781 750.480469 136.675781 749.5 136.675781 C 748.515625 136.675781 747.550781 136.800781 746.601562 137.054688 C 745.652344 137.3125 744.753906 137.683594 743.902344 138.175781 L 650.847656 191.875 C 647.371094 193.882812 645.25 197.742188 645.25 201.757812 L 645.25 309.164062 C 645.25 310.144531 645.375 311.113281 645.628906 312.0625 C 645.882812 313.011719 646.253906 313.910156 646.746094 314.761719 C 647.238281 315.613281 647.832031 316.386719 648.527344 317.082031 C 649.222656 317.773438 649.996094 318.367188 650.847656 318.859375 L 743.910156 372.5625 C 744.757812 373.054688 745.65625 373.429688 746.605469 373.683594 C 747.554688 373.941406 748.519531 374.066406 749.503906 374.066406 C 750.488281 374.066406 751.453125 373.941406 752.402344 373.683594 C 753.351562 373.429688 754.25 373.054688 755.097656 372.5625 L 848.160156 318.859375 C 849.011719 318.367188 849.785156 317.773438 850.480469 317.082031 C 851.175781 316.386719 851.769531 315.613281 852.261719 314.761719 C 852.753906 313.910156 853.125 313.011719 853.378906 312.0625 C 853.632812 311.113281 853.757812 310.144531 853.757812 309.164062 L 853.757812 41.398438 C 853.757812 37.324219 851.535156 33.5 847.976562 31.515625 L 792.585938 0.546875 C 791.714844 0.0625 790.75 -0.0234375 789.785156 -0.0117188 Z M 191.125 134.070312 C 189.347656 134.144531 187.683594 134.453125 186.089844 135.375 L 93.027344 189.078125 C 92.175781 189.566406 91.402344 190.160156 90.707031 190.855469 C 90.011719 191.546875 89.417969 192.320312 88.925781 193.171875 C 88.433594 194.023438 88.0625 194.925781 87.808594 195.875 C 87.558594 196.824219 87.433594 197.789062 87.433594 198.773438 L 87.625 342.914062 C 87.625 344.921875 88.660156 346.78125 90.421875 347.761719 C 92.152344 348.800781 94.296875 348.800781 96.015625 347.761719 L 151.21875 316.0625 C 154.71875 313.988281 157 310.371094 157 306.367188 L 157 239.046875 C 157 235.03125 159.113281 231.347656 162.597656 229.355469 L 186.097656 215.742188 C 187.828125 214.738281 189.691406 214.238281 191.691406 214.25 C 193.691406 214.238281 195.558594 214.734375 197.289062 215.742188 L 220.777344 229.347656 C 224.257812 231.339844 226.371094 235.027344 226.371094 239.039062 L 226.371094 306.351562 C 226.371094 310.359375 228.703125 314 232.152344 316.046875 L 287.355469 347.746094 C 289.089844 348.785156 291.230469 348.785156 292.949219 347.746094 C 294.660156 346.761719 295.746094 344.902344 295.746094 342.902344 L 295.933594 198.761719 C 295.9375 197.777344 295.816406 196.8125 295.5625 195.863281 C 295.3125 194.910156 294.941406 194.007812 294.449219 193.15625 C 293.957031 192.304688 293.363281 191.53125 292.667969 190.839844 C 291.96875 190.144531 291.195312 189.554688 290.339844 189.066406 L 197.28125 135.382812 C 195.707031 134.460938 194.03125 134.152344 192.242188 134.078125 L 191.128906 134.078125 Z M 1027.371094 135.375 C 1025.371094 135.371094 1023.503906 135.867188 1021.773438 136.871094 L 928.710938 190.574219 C 925.238281 192.582031 923.113281 196.253906 923.113281 200.265625 L 923.113281 307.671875 C 923.113281 311.707031 925.386719 315.367188 928.894531 317.363281 L 1021.207031 369.972656 C 1024.617188 371.917969 1028.777344 372.0625 1032.210938 370.152344 L 1088.160156 339.011719 C 1089.9375 338.027344 1091.136719 336.1875 1091.140625 334.167969 C 1091.148438 332.144531 1090.097656 330.324219 1088.34375 329.320312 L 994.71875 275.617188 C 992.964844 274.617188 991.738281 272.59375 991.738281 270.582031 L 991.738281 236.992188 C 991.738281 234.988281 992.980469 233.148438 994.71875 232.148438 L 1023.8125 215.363281 C 1025.542969 214.363281 1027.667969 214.363281 1029.410156 215.363281 L 1058.570312 232.148438 C 1059.4375 232.644531 1060.121094 233.328125 1060.621094 234.195312 C 1061.121094 235.0625 1061.371094 235.992188 1061.367188 236.992188 L 1061.367188 263.472656 C 1061.363281 264.472656 1061.613281 265.40625 1062.113281 266.273438 C 1062.613281 267.136719 1063.296875 267.820312 1064.164062 268.320312 C 1065.910156 269.324219 1068.019531 269.328125 1069.761719 268.320312 L 1125.519531 235.871094 C 1128.976562 233.859375 1131.117188 230.179688 1131.117188 226.179688 L 1131.117188 200.261719 C 1131.117188 199.28125 1130.988281 198.316406 1130.734375 197.367188 C 1130.480469 196.417969 1130.109375 195.515625 1129.617188 194.667969 C 1129.125 193.816406 1128.535156 193.042969 1127.839844 192.347656 C 1127.144531 191.652344 1126.371094 191.058594 1125.519531 190.566406 L 1033.019531 136.863281 C 1031.289062 135.863281 1029.421875 135.363281 1027.421875 135.371094 Z M 749.113281 215.5625 C 749.644531 215.558594 750.140625 215.683594 750.605469 215.933594 L 782.496094 234.390625 C 783.363281 234.890625 783.988281 235.816406 783.988281 236.816406 L 783.988281 273.734375 C 783.988281 274.738281 783.367188 275.660156 782.496094 276.160156 L 750.605469 294.617188 C 749.738281 295.109375 748.679688 295.109375 747.808594 294.617188 L 715.917969 276.160156 C 715.050781 275.660156 714.425781 274.734375 714.425781 273.734375 L 714.425781 236.824219 C 714.425781 235.824219 715.050781 234.90625 715.917969 234.402344 L 747.808594 215.945312 C 748.242188 215.695312 748.625 215.574219 749.113281 215.574219 Z M 749.113281 215.5625 " fill-opacity="1" fill-rule="nonzero"/><path fill="#83cd29" d="M 470.675781 134.816406 C 468.675781 134.8125 466.808594 135.308594 465.078125 136.308594 L 372.015625 189.824219 C 368.535156 191.828125 366.421875 195.695312 366.421875 199.707031 L 366.421875 307.109375 C 366.417969 308.09375 366.542969 309.058594 366.796875 310.007812 C 367.050781 310.957031 367.421875 311.859375 367.914062 312.710938 C 368.40625 313.5625 368.996094 314.332031 369.695312 315.027344 C 370.390625 315.722656 371.164062 316.3125 372.015625 316.804688 L 465.078125 370.507812 C 465.925781 371 466.828125 371.375 467.777344 371.628906 C 468.722656 371.882812 469.691406 372.011719 470.671875 372.011719 C 471.65625 372.011719 472.621094 371.882812 473.570312 371.628906 C 474.519531 371.375 475.417969 371 476.265625 370.507812 L 569.328125 316.804688 C 570.179688 316.3125 570.953125 315.71875 571.648438 315.023438 C 572.34375 314.332031 572.9375 313.558594 573.429688 312.707031 C 573.921875 311.855469 574.292969 310.957031 574.546875 310.007812 C 574.800781 309.054688 574.925781 308.089844 574.925781 307.109375 L 574.925781 199.710938 C 574.925781 195.695312 572.8125 191.832031 569.328125 189.828125 L 476.265625 136.3125 C 474.535156 135.308594 472.667969 134.8125 470.664062 134.820312 Z M 1027.1875 230.660156 C 1026.816406 230.660156 1026.40625 230.660156 1026.070312 230.839844 L 1008.164062 241.285156 C 1007.824219 241.472656 1007.554688 241.734375 1007.355469 242.066406 C 1007.15625 242.402344 1007.054688 242.761719 1007.046875 243.148438 L 1007.046875 263.660156 C 1007.046875 264.433594 1007.492188 265.140625 1008.164062 265.527344 L 1026.070312 275.78125 C 1026.382812 275.976562 1026.722656 276.074219 1027.09375 276.074219 C 1027.460938 276.074219 1027.804688 275.976562 1028.117188 275.78125 L 1046.019531 265.527344 C 1046.683594 265.148438 1047.140625 264.433594 1047.140625 263.660156 L 1047.140625 243.148438 C 1047.140625 242.375 1046.6875 241.671875 1046.019531 241.285156 L 1028.117188 230.839844 C 1027.785156 230.640625 1027.554688 230.65625 1027.183594 230.65625 Z M 1027.1875 230.660156 " fill-opacity="1" fill-rule="nonzero"/></svg>