<svg xmlns="http://www.w3.org/2000/svg" xmlns:xlink="http://www.w3.org/1999/xlink" width="2000" zoomAndPan="magnify" viewBox="0 0 1500 374.999991" height="500" preserveAspectRatio="xMidYMid meet" version="1.0"><defs><g/><clipPath id="89157e18bf"><path d="M 5 0 L 338 0 L 338 375 L 5 375 Z M 5 0 " clip-rule="nonzero"/></clipPath><clipPath id="d55aa645d8"><path d="M 171.757812 374.980469 C 152.824219 374.980469 135.433594 354.910156 122.78125 318.464844 C 110.621094 283.429688 103.921875 236.921875 103.921875 187.527344 C 103.921875 138.128906 110.621094 91.632812 122.78125 56.585938 C 135.433594 20.148438 152.824219 0.0703125 171.757812 0.0703125 C 190.691406 0.0703125 208.085938 20.140625 220.734375 56.585938 C 232.894531 91.621094 239.59375 138.128906 239.59375 187.527344 C 239.59375 232.019531 234.015625 275.066406 223.882812 308.71875 C 223.203125 310.96875 220.835938 312.230469 218.597656 311.5625 C 216.359375 310.882812 215.089844 308.515625 215.757812 306.277344 C 225.660156 273.394531 231.113281 231.222656 231.113281 187.527344 C 231.113281 139.050781 224.585938 93.539062 212.722656 59.367188 C 201.511719 27.078125 186.582031 8.5625 171.757812 8.5625 C 156.9375 8.5625 142.003906 27.078125 130.792969 59.367188 C 118.933594 93.53125 112.402344 139.042969 112.402344 187.527344 C 112.402344 236.007812 118.933594 281.511719 130.792969 315.683594 C 142.003906 347.972656 156.9375 366.488281 171.757812 366.488281 C 182.976562 366.488281 192.226562 355.929688 198.011719 347.066406 C 199.289062 345.105469 201.917969 344.554688 203.878906 345.835938 C 205.835938 347.117188 206.386719 349.746094 205.109375 351.707031 C 195.179688 366.9375 183.636719 374.980469 171.757812 374.980469 Z M 52.222656 298.667969 C 30.90625 298.667969 16.101562 292.757812 9.464844 281.257812 C 0 264.851562 8.675781 239.753906 33.902344 210.578125 C 58.152344 182.519531 95.0625 153.472656 137.832031 128.773438 C 188.683594 99.410156 240.1875 80.527344 279.132812 76.976562 C 280.320312 76.863281 281.5 77.261719 282.378906 78.070312 C 283.261719 78.875 283.761719 80.011719 283.761719 81.199219 C 283.761719 83.558594 281.828125 85.472656 279.480469 85.464844 C 242.296875 88.96875 190.972656 107.882812 142.082031 136.117188 C 100.117188 160.359375 63.976562 188.773438 40.320312 216.125 C 17.96875 241.976562 9.394531 264.175781 16.816406 277.015625 C 24.226562 289.855469 47.722656 293.53125 81.285156 287.101562 C 116.796875 280.289062 159.464844 263.191406 201.4375 238.957031 C 243.402344 214.71875 279.539062 186.304688 303.199219 158.949219 C 325.550781 133.097656 334.121094 110.902344 326.710938 98.058594 C 325.449219 95.871094 323.683594 93.90625 321.46875 92.234375 C 319.605469 90.816406 319.230469 88.164062 320.648438 86.296875 C 322.0625 84.429688 324.71875 84.058594 326.582031 85.472656 C 329.703125 87.832031 332.214844 90.640625 334.054688 93.820312 C 343.515625 110.214844 334.84375 135.320312 309.617188 164.496094 C 285.367188 192.554688 248.445312 221.605469 205.683594 246.304688 C 162.921875 271.003906 119.304688 288.449219 82.894531 295.429688 C 71.566406 297.59375 61.304688 298.667969 52.222656 298.667969 Z M 291.292969 298.667969 C 282.210938 298.667969 271.949219 297.601562 260.640625 295.429688 C 224.21875 288.449219 180.609375 271.003906 137.839844 246.304688 C 95.070312 221.605469 58.160156 192.554688 33.910156 164.496094 C 8.683594 135.320312 0.0078125 110.222656 9.472656 93.820312 C 15.332031 83.660156 27.820312 77.703125 45.578125 76.59375 C 47.910156 76.449219 49.925781 78.222656 50.070312 80.5625 C 50.214844 82.902344 48.441406 84.914062 46.101562 85.058594 C 35.792969 85.703125 22.335938 88.476562 16.816406 98.050781 C 9.402344 110.894531 17.96875 133.089844 40.320312 158.941406 C 63.96875 186.304688 100.109375 214.71875 142.082031 238.949219 C 184.046875 263.191406 226.722656 280.28125 262.234375 287.09375 C 295.796875 293.53125 319.292969 289.855469 326.703125 277.007812 C 334.113281 264.167969 325.550781 241.96875 303.1875 216.117188 C 279.539062 188.753906 243.402344 160.339844 201.429688 136.109375 C 163.328125 114.109375 123.859375 97.695312 90.28125 89.882812 C 88 89.351562 86.582031 87.078125 87.109375 84.796875 C 87.644531 82.511719 89.914062 81.097656 92.195312 81.621094 C 126.5625 89.613281 166.867188 106.355469 205.660156 128.765625 C 248.429688 153.464844 285.339844 182.511719 309.589844 210.570312 C 334.816406 239.746094 343.492188 264.84375 334.027344 281.25 C 327.40625 292.757812 312.601562 298.667969 291.292969 298.667969 Z M 171.757812 214.675781 C 156.792969 214.675781 144.625 202.496094 144.625 187.535156 C 144.625 172.570312 156.792969 160.390625 171.757812 160.390625 C 186.722656 160.390625 198.890625 172.5625 198.890625 187.535156 C 198.890625 202.503906 186.714844 214.675781 171.757812 214.675781 Z M 171.757812 168.875 C 161.472656 168.875 153.105469 177.246094 153.105469 187.535156 C 153.105469 197.820312 161.472656 206.195312 171.757812 206.195312 C 182.042969 206.195312 190.414062 197.820312 190.414062 187.535156 C 190.414062 177.246094 182.042969 168.875 171.757812 168.875 Z M 68.71875 108.839844 C 53.75 108.839844 41.582031 96.667969 41.582031 81.699219 C 41.582031 66.730469 53.75 54.558594 68.71875 54.558594 C 83.683594 54.558594 95.851562 66.730469 95.851562 81.699219 C 95.851562 96.667969 83.675781 108.839844 68.71875 108.839844 Z M 68.71875 63.039062 C 58.429688 63.039062 50.0625 71.410156 50.0625 81.699219 C 50.0625 91.988281 58.429688 100.359375 68.71875 100.359375 C 79.003906 100.359375 87.371094 91.988281 87.371094 81.699219 C 87.371094 71.410156 79.003906 63.039062 68.71875 63.039062 Z M 212.136719 356.226562 C 197.179688 356.226562 185.003906 344.046875 185.003906 329.085938 C 185.003906 314.125 197.179688 301.945312 212.136719 301.945312 C 227.101562 301.945312 239.269531 314.125 239.269531 329.085938 C 239.269531 344.046875 227.09375 356.226562 212.136719 356.226562 Z M 212.136719 310.425781 C 201.851562 310.425781 193.484375 318.796875 193.484375 329.085938 C 193.484375 339.375 201.851562 347.746094 212.136719 347.746094 C 222.421875 347.746094 230.792969 339.375 230.792969 329.085938 C 230.792969 318.796875 222.421875 310.425781 212.136719 310.425781 Z M 302.425781 108.382812 C 287.46875 108.382812 275.292969 96.210938 275.292969 81.242188 C 275.292969 66.269531 287.46875 54.101562 302.425781 54.101562 C 317.382812 54.101562 329.558594 66.269531 329.558594 81.242188 C 329.558594 96.210938 317.382812 108.382812 302.425781 108.382812 Z M 302.425781 62.582031 C 292.140625 62.582031 283.769531 70.953125 283.769531 81.242188 C 283.769531 91.53125 292.140625 99.902344 302.425781 99.902344 C 312.710938 99.902344 321.082031 91.53125 321.082031 81.242188 C 321.082031 70.953125 312.710938 62.582031 302.425781 62.582031 Z M 302.425781 62.582031 " clip-rule="nonzero"/></clipPath><linearGradient x1="39.77649" gradientTransform="matrix(0.847939, 0, 0, 0.84817, -37.054905, -21.743589)" y1="29.643493" x2="463.336493" gradientUnits="userSpaceOnUse" y2="453.203504" id="bcfa138094"><stop stop-opacity="1" stop-color="rgb(0%, 62.399292%, 100%)" offset="0"/><stop stop-opacity="1" stop-color="rgb(0%, 62.399292%, 100%)" offset="0.125"/><stop stop-opacity="1" stop-color="rgb(0%, 62.399292%, 100%)" offset="0.140625"/><stop stop-opacity="1" stop-color="rgb(0.424194%, 62.19635%, 99.674988%)" offset="0.144531"/><stop stop-opacity="1" stop-color="rgb(0.848389%, 61.994934%, 99.351501%)" offset="0.148438"/><stop stop-opacity="1" stop-color="rgb(1.351929%, 61.755371%, 98.965454%)" offset="0.152344"/><stop stop-opacity="1" stop-color="rgb(1.856995%, 61.515808%, 98.580933%)" offset="0.15625"/><stop stop-opacity="1" stop-color="rgb(2.360535%, 61.274719%, 98.196411%)" offset="0.160156"/><stop stop-opacity="1" stop-color="rgb(2.865601%, 61.035156%, 97.81189%)" offset="0.164063"/><stop stop-opacity="1" stop-color="rgb(3.369141%, 60.795593%, 97.425842%)" offset="0.167969"/><stop stop-opacity="1" stop-color="rgb(3.874207%, 60.55603%, 97.041321%)" offset="0.171875"/><stop stop-opacity="1" stop-color="rgb(4.377747%, 60.314941%, 96.656799%)" offset="0.175781"/><stop stop-opacity="1" stop-color="rgb(4.882812%, 60.075378%, 96.272278%)" offset="0.179688"/><stop stop-opacity="1" stop-color="rgb(5.386353%, 59.835815%, 95.88623%)" offset="0.183594"/><stop stop-opacity="1" stop-color="rgb(5.891418%, 59.596252%, 95.501709%)" offset="0.1875"/><stop stop-opacity="1" stop-color="rgb(6.396484%, 59.355164%, 95.115662%)" offset="0.191406"/><stop stop-opacity="1" stop-color="rgb(6.90155%, 59.115601%, 94.73114%)" offset="0.195313"/><stop stop-opacity="1" stop-color="rgb(7.40509%, 58.876038%, 94.346619%)" offset="0.199219"/><stop stop-opacity="1" stop-color="rgb(7.910156%, 58.636475%, 93.962097%)" offset="0.203125"/><stop stop-opacity="1" stop-color="rgb(8.413696%, 58.395386%, 93.57605%)" offset="0.207031"/><stop stop-opacity="1" stop-color="rgb(8.918762%, 58.155823%, 93.191528%)" offset="0.210938"/><stop stop-opacity="1" stop-color="rgb(9.422302%, 57.91626%, 92.805481%)" offset="0.214844"/><stop stop-opacity="1" stop-color="rgb(9.927368%, 57.676697%, 92.420959%)" offset="0.21875"/><stop stop-opacity="1" stop-color="rgb(10.430908%, 57.435608%, 92.036438%)" offset="0.222656"/><stop stop-opacity="1" stop-color="rgb(10.935974%, 57.196045%, 91.651917%)" offset="0.226563"/><stop stop-opacity="1" stop-color="rgb(11.439514%, 56.956482%, 91.265869%)" offset="0.230469"/><stop stop-opacity="1" stop-color="rgb(11.94458%, 56.716919%, 90.881348%)" offset="0.234375"/><stop stop-opacity="1" stop-color="rgb(12.44812%, 56.477356%, 90.496826%)" offset="0.238281"/><stop stop-opacity="1" stop-color="rgb(12.953186%, 56.237793%, 90.112305%)" offset="0.242188"/><stop stop-opacity="1" stop-color="rgb(13.458252%, 55.996704%, 89.726257%)" offset="0.246094"/><stop stop-opacity="1" stop-color="rgb(13.963318%, 55.757141%, 89.341736%)" offset="0.25"/><stop stop-opacity="1" stop-color="rgb(14.466858%, 55.517578%, 88.955688%)" offset="0.253906"/><stop stop-opacity="1" stop-color="rgb(14.971924%, 55.278015%, 88.571167%)" offset="0.257813"/><stop stop-opacity="1" stop-color="rgb(15.475464%, 55.036926%, 88.186646%)" offset="0.261719"/><stop stop-opacity="1" stop-color="rgb(15.98053%, 54.797363%, 87.802124%)" offset="0.265625"/><stop stop-opacity="1" stop-color="rgb(16.48407%, 54.5578%, 87.416077%)" offset="0.269531"/><stop stop-opacity="1" stop-color="rgb(16.989136%, 54.318237%, 87.031555%)" offset="0.273438"/><stop stop-opacity="1" stop-color="rgb(17.492676%, 54.077148%, 86.647034%)" offset="0.277344"/><stop stop-opacity="1" stop-color="rgb(17.997742%, 53.837585%, 86.262512%)" offset="0.28125"/><stop stop-opacity="1" stop-color="rgb(18.501282%, 53.598022%, 85.876465%)" offset="0.285156"/><stop stop-opacity="1" stop-color="rgb(19.006348%, 53.358459%, 85.491943%)" offset="0.289063"/><stop stop-opacity="1" stop-color="rgb(19.509888%, 53.117371%, 85.105896%)" offset="0.292969"/><stop stop-opacity="1" stop-color="rgb(20.014954%, 52.877808%, 84.721375%)" offset="0.296875"/><stop stop-opacity="1" stop-color="rgb(20.52002%, 52.638245%, 84.336853%)" offset="0.300781"/><stop stop-opacity="1" stop-color="rgb(21.025085%, 52.398682%, 83.952332%)" offset="0.304688"/><stop stop-opacity="1" stop-color="rgb(21.528625%, 52.157593%, 83.566284%)" offset="0.308594"/><stop stop-opacity="1" stop-color="rgb(22.033691%, 51.91803%, 83.181763%)" offset="0.3125"/><stop stop-opacity="1" stop-color="rgb(22.537231%, 51.678467%, 82.795715%)" offset="0.316406"/><stop stop-opacity="1" stop-color="rgb(23.042297%, 51.438904%, 82.411194%)" offset="0.320313"/><stop stop-opacity="1" stop-color="rgb(23.545837%, 51.197815%, 82.026672%)" offset="0.324219"/><stop stop-opacity="1" stop-color="rgb(24.050903%, 50.958252%, 81.642151%)" offset="0.328125"/><stop stop-opacity="1" stop-color="rgb(24.554443%, 50.718689%, 81.256104%)" offset="0.332031"/><stop stop-opacity="1" stop-color="rgb(25.059509%, 50.479126%, 80.871582%)" offset="0.335938"/><stop stop-opacity="1" stop-color="rgb(25.563049%, 50.238037%, 80.487061%)" offset="0.339844"/><stop stop-opacity="1" stop-color="rgb(26.068115%, 49.998474%, 80.102539%)" offset="0.34375"/><stop stop-opacity="1" stop-color="rgb(26.571655%, 49.758911%, 79.716492%)" offset="0.347656"/><stop stop-opacity="1" stop-color="rgb(27.076721%, 49.519348%, 79.33197%)" offset="0.351563"/><stop stop-opacity="1" stop-color="rgb(27.581787%, 49.278259%, 78.945923%)" offset="0.355469"/><stop stop-opacity="1" stop-color="rgb(28.086853%, 49.038696%, 78.561401%)" offset="0.359375"/><stop stop-opacity="1" stop-color="rgb(28.590393%, 48.799133%, 78.17688%)" offset="0.363281"/><stop stop-opacity="1" stop-color="rgb(29.095459%, 48.55957%, 77.792358%)" offset="0.367188"/><stop stop-opacity="1" stop-color="rgb(29.598999%, 48.318481%, 77.406311%)" offset="0.371094"/><stop stop-opacity="1" stop-color="rgb(30.104065%, 48.078918%, 77.02179%)" offset="0.375"/><stop stop-opacity="1" stop-color="rgb(30.607605%, 47.839355%, 76.637268%)" offset="0.378906"/><stop stop-opacity="1" stop-color="rgb(31.112671%, 47.599792%, 76.252747%)" offset="0.382813"/><stop stop-opacity="1" stop-color="rgb(31.616211%, 47.358704%, 75.866699%)" offset="0.386719"/><stop stop-opacity="1" stop-color="rgb(32.121277%, 47.119141%, 75.482178%)" offset="0.390625"/><stop stop-opacity="1" stop-color="rgb(32.624817%, 46.879578%, 75.09613%)" offset="0.394531"/><stop stop-opacity="1" stop-color="rgb(33.129883%, 46.640015%, 74.711609%)" offset="0.398438"/><stop stop-opacity="1" stop-color="rgb(33.633423%, 46.398926%, 74.327087%)" offset="0.402344"/><stop stop-opacity="1" stop-color="rgb(34.138489%, 46.159363%, 73.942566%)" offset="0.40625"/><stop stop-opacity="1" stop-color="rgb(34.643555%, 45.9198%, 73.556519%)" offset="0.410156"/><stop stop-opacity="1" stop-color="rgb(35.148621%, 45.680237%, 73.171997%)" offset="0.414063"/><stop stop-opacity="1" stop-color="rgb(35.652161%, 45.439148%, 72.78595%)" offset="0.417969"/><stop stop-opacity="1" stop-color="rgb(36.157227%, 45.199585%, 72.401428%)" offset="0.421875"/><stop stop-opacity="1" stop-color="rgb(36.660767%, 44.960022%, 72.016907%)" offset="0.425781"/><stop stop-opacity="1" stop-color="rgb(37.165833%, 44.720459%, 71.632385%)" offset="0.429688"/><stop stop-opacity="1" stop-color="rgb(37.669373%, 44.47937%, 71.246338%)" offset="0.433594"/><stop stop-opacity="1" stop-color="rgb(38.174438%, 44.239807%, 70.861816%)" offset="0.4375"/><stop stop-opacity="1" stop-color="rgb(38.677979%, 44.000244%, 70.477295%)" offset="0.441406"/><stop stop-opacity="1" stop-color="rgb(39.183044%, 43.760681%, 70.092773%)" offset="0.445313"/><stop stop-opacity="1" stop-color="rgb(39.686584%, 43.519592%, 69.706726%)" offset="0.449219"/><stop stop-opacity="1" stop-color="rgb(40.19165%, 43.280029%, 69.322205%)" offset="0.453125"/><stop stop-opacity="1" stop-color="rgb(40.69519%, 43.040466%, 68.936157%)" offset="0.457031"/><stop stop-opacity="1" stop-color="rgb(41.200256%, 42.800903%, 68.551636%)" offset="0.460938"/><stop stop-opacity="1" stop-color="rgb(41.705322%, 42.559814%, 68.167114%)" offset="0.464844"/><stop stop-opacity="1" stop-color="rgb(42.210388%, 42.320251%, 67.782593%)" offset="0.46875"/><stop stop-opacity="1" stop-color="rgb(42.713928%, 42.080688%, 67.396545%)" offset="0.472656"/><stop stop-opacity="1" stop-color="rgb(43.218994%, 41.841125%, 67.012024%)" offset="0.476563"/><stop stop-opacity="1" stop-color="rgb(43.722534%, 41.600037%, 66.627502%)" offset="0.480469"/><stop stop-opacity="1" stop-color="rgb(44.2276%, 41.360474%, 66.242981%)" offset="0.484375"/><stop stop-opacity="1" stop-color="rgb(44.73114%, 41.120911%, 65.856934%)" offset="0.488281"/><stop stop-opacity="1" stop-color="rgb(45.236206%, 40.881348%, 65.472412%)" offset="0.492188"/><stop stop-opacity="1" stop-color="rgb(45.739746%, 40.640259%, 65.086365%)" offset="0.496094"/><stop stop-opacity="1" stop-color="rgb(46.244812%, 40.400696%, 64.701843%)" offset="0.5"/><stop stop-opacity="1" stop-color="rgb(46.748352%, 40.161133%, 64.317322%)" offset="0.503906"/><stop stop-opacity="1" stop-color="rgb(47.253418%, 39.92157%, 63.9328%)" offset="0.507812"/><stop stop-opacity="1" stop-color="rgb(47.756958%, 39.680481%, 63.546753%)" offset="0.511719"/><stop stop-opacity="1" stop-color="rgb(48.262024%, 39.440918%, 63.162231%)" offset="0.515625"/><stop stop-opacity="1" stop-color="rgb(48.76709%, 39.201355%, 62.77771%)" offset="0.519531"/><stop stop-opacity="1" stop-color="rgb(49.272156%, 38.961792%, 62.393188%)" offset="0.523438"/><stop stop-opacity="1" stop-color="rgb(49.775696%, 38.720703%, 62.007141%)" offset="0.527344"/><stop stop-opacity="1" stop-color="rgb(50.280762%, 38.48114%, 61.62262%)" offset="0.53125"/><stop stop-opacity="1" stop-color="rgb(50.784302%, 38.241577%, 61.236572%)" offset="0.535156"/><stop stop-opacity="1" stop-color="rgb(51.289368%, 38.002014%, 60.852051%)" offset="0.539062"/><stop stop-opacity="1" stop-color="rgb(51.792908%, 37.760925%, 60.467529%)" offset="0.542969"/><stop stop-opacity="1" stop-color="rgb(52.297974%, 37.521362%, 60.083008%)" offset="0.546875"/><stop stop-opacity="1" stop-color="rgb(52.801514%, 37.281799%, 59.69696%)" offset="0.550781"/><stop stop-opacity="1" stop-color="rgb(53.30658%, 37.042236%, 59.312439%)" offset="0.554688"/><stop stop-opacity="1" stop-color="rgb(53.81012%, 36.801147%, 58.926392%)" offset="0.558594"/><stop stop-opacity="1" stop-color="rgb(54.315186%, 36.561584%, 58.54187%)" offset="0.5625"/><stop stop-opacity="1" stop-color="rgb(54.820251%, 36.322021%, 58.157349%)" offset="0.566406"/><stop stop-opacity="1" stop-color="rgb(55.325317%, 36.082458%, 57.772827%)" offset="0.570312"/><stop stop-opacity="1" stop-color="rgb(55.828857%, 35.84137%, 57.38678%)" offset="0.574219"/><stop stop-opacity="1" stop-color="rgb(56.333923%, 35.601807%, 57.002258%)" offset="0.578125"/><stop stop-opacity="1" stop-color="rgb(56.837463%, 35.362244%, 56.617737%)" offset="0.582031"/><stop stop-opacity="1" stop-color="rgb(57.342529%, 35.122681%, 56.233215%)" offset="0.585938"/><stop stop-opacity="1" stop-color="rgb(57.846069%, 34.881592%, 55.847168%)" offset="0.589844"/><stop stop-opacity="1" stop-color="rgb(58.351135%, 34.642029%, 55.462646%)" offset="0.59375"/><stop stop-opacity="1" stop-color="rgb(58.854675%, 34.402466%, 55.076599%)" offset="0.597656"/><stop stop-opacity="1" stop-color="rgb(59.359741%, 34.162903%, 54.692078%)" offset="0.601562"/><stop stop-opacity="1" stop-color="rgb(59.863281%, 33.921814%, 54.307556%)" offset="0.605469"/><stop stop-opacity="1" stop-color="rgb(60.368347%, 33.682251%, 53.923035%)" offset="0.609375"/><stop stop-opacity="1" stop-color="rgb(60.871887%, 33.442688%, 53.536987%)" offset="0.613281"/><stop stop-opacity="1" stop-color="rgb(61.376953%, 33.203125%, 53.152466%)" offset="0.617188"/><stop stop-opacity="1" stop-color="rgb(61.882019%, 32.962036%, 52.767944%)" offset="0.621094"/><stop stop-opacity="1" stop-color="rgb(62.387085%, 32.722473%, 52.383423%)" offset="0.625"/><stop stop-opacity="1" stop-color="rgb(62.890625%, 32.48291%, 51.997375%)" offset="0.628906"/><stop stop-opacity="1" stop-color="rgb(63.395691%, 32.243347%, 51.612854%)" offset="0.632812"/><stop stop-opacity="1" stop-color="rgb(63.899231%, 32.002258%, 51.226807%)" offset="0.636719"/><stop stop-opacity="1" stop-color="rgb(64.404297%, 31.762695%, 50.842285%)" offset="0.640625"/><stop stop-opacity="1" stop-color="rgb(64.907837%, 31.523132%, 50.457764%)" offset="0.644531"/><stop stop-opacity="1" stop-color="rgb(65.412903%, 31.283569%, 50.073242%)" offset="0.648438"/><stop stop-opacity="1" stop-color="rgb(65.916443%, 31.044006%, 49.687195%)" offset="0.652344"/><stop stop-opacity="1" stop-color="rgb(66.421509%, 30.804443%, 49.302673%)" offset="0.65625"/><stop stop-opacity="1" stop-color="rgb(66.925049%, 30.563354%, 48.916626%)" offset="0.660156"/><stop stop-opacity="1" stop-color="rgb(67.430115%, 30.323792%, 48.532104%)" offset="0.664062"/><stop stop-opacity="1" stop-color="rgb(67.933655%, 30.084229%, 48.147583%)" offset="0.667969"/><stop stop-opacity="1" stop-color="rgb(68.438721%, 29.844666%, 47.763062%)" offset="0.671875"/><stop stop-opacity="1" stop-color="rgb(68.943787%, 29.603577%, 47.377014%)" offset="0.675781"/><stop stop-opacity="1" stop-color="rgb(69.448853%, 29.364014%, 46.992493%)" offset="0.679688"/><stop stop-opacity="1" stop-color="rgb(69.952393%, 29.124451%, 46.607971%)" offset="0.683594"/><stop stop-opacity="1" stop-color="rgb(70.457458%, 28.884888%, 46.22345%)" offset="0.6875"/><stop stop-opacity="1" stop-color="rgb(70.960999%, 28.643799%, 45.837402%)" offset="0.691406"/><stop stop-opacity="1" stop-color="rgb(71.466064%, 28.404236%, 45.452881%)" offset="0.695312"/><stop stop-opacity="1" stop-color="rgb(71.969604%, 28.164673%, 45.066833%)" offset="0.699219"/><stop stop-opacity="1" stop-color="rgb(72.47467%, 27.92511%, 44.682312%)" offset="0.703125"/><stop stop-opacity="1" stop-color="rgb(72.97821%, 27.684021%, 44.297791%)" offset="0.707031"/><stop stop-opacity="1" stop-color="rgb(73.483276%, 27.444458%, 43.913269%)" offset="0.710938"/><stop stop-opacity="1" stop-color="rgb(73.986816%, 27.204895%, 43.527222%)" offset="0.714844"/><stop stop-opacity="1" stop-color="rgb(74.491882%, 26.965332%, 43.1427%)" offset="0.71875"/><stop stop-opacity="1" stop-color="rgb(74.995422%, 26.724243%, 42.758179%)" offset="0.722656"/><stop stop-opacity="1" stop-color="rgb(75.500488%, 26.48468%, 42.373657%)" offset="0.726562"/><stop stop-opacity="1" stop-color="rgb(76.005554%, 26.245117%, 41.98761%)" offset="0.730469"/><stop stop-opacity="1" stop-color="rgb(76.51062%, 26.005554%, 41.603088%)" offset="0.734375"/><stop stop-opacity="1" stop-color="rgb(77.01416%, 25.764465%, 41.217041%)" offset="0.738281"/><stop stop-opacity="1" stop-color="rgb(77.519226%, 25.524902%, 40.83252%)" offset="0.742188"/><stop stop-opacity="1" stop-color="rgb(78.022766%, 25.285339%, 40.447998%)" offset="0.746094"/><stop stop-opacity="1" stop-color="rgb(78.527832%, 25.045776%, 40.063477%)" offset="0.75"/><stop stop-opacity="1" stop-color="rgb(79.031372%, 24.804688%, 39.677429%)" offset="0.753906"/><stop stop-opacity="1" stop-color="rgb(79.536438%, 24.565125%, 39.292908%)" offset="0.757812"/><stop stop-opacity="1" stop-color="rgb(80.039978%, 24.325562%, 38.90686%)" offset="0.761719"/><stop stop-opacity="1" stop-color="rgb(80.545044%, 24.085999%, 38.522339%)" offset="0.765625"/><stop stop-opacity="1" stop-color="rgb(81.048584%, 23.84491%, 38.137817%)" offset="0.769531"/><stop stop-opacity="1" stop-color="rgb(81.55365%, 23.605347%, 37.753296%)" offset="0.773438"/><stop stop-opacity="1" stop-color="rgb(82.05719%, 23.365784%, 37.367249%)" offset="0.777344"/><stop stop-opacity="1" stop-color="rgb(82.562256%, 23.126221%, 36.982727%)" offset="0.78125"/><stop stop-opacity="1" stop-color="rgb(83.067322%, 22.885132%, 36.598206%)" offset="0.785156"/><stop stop-opacity="1" stop-color="rgb(83.572388%, 22.645569%, 36.213684%)" offset="0.789062"/><stop stop-opacity="1" stop-color="rgb(84.075928%, 22.406006%, 35.827637%)" offset="0.792969"/><stop stop-opacity="1" stop-color="rgb(84.580994%, 22.166443%, 35.443115%)" offset="0.796875"/><stop stop-opacity="1" stop-color="rgb(85.084534%, 21.925354%, 35.057068%)" offset="0.800781"/><stop stop-opacity="1" stop-color="rgb(85.5896%, 21.685791%, 34.672546%)" offset="0.804688"/><stop stop-opacity="1" stop-color="rgb(86.09314%, 21.446228%, 34.288025%)" offset="0.808594"/><stop stop-opacity="1" stop-color="rgb(86.598206%, 21.206665%, 33.903503%)" offset="0.8125"/><stop stop-opacity="1" stop-color="rgb(87.101746%, 20.965576%, 33.517456%)" offset="0.816406"/><stop stop-opacity="1" stop-color="rgb(87.606812%, 20.726013%, 33.132935%)" offset="0.820312"/><stop stop-opacity="1" stop-color="rgb(88.110352%, 20.48645%, 32.748413%)" offset="0.824219"/><stop stop-opacity="1" stop-color="rgb(88.615417%, 20.246887%, 32.363892%)" offset="0.828125"/><stop stop-opacity="1" stop-color="rgb(89.118958%, 20.005798%, 31.977844%)" offset="0.832031"/><stop stop-opacity="1" stop-color="rgb(89.624023%, 19.766235%, 31.593323%)" offset="0.835938"/><stop stop-opacity="1" stop-color="rgb(90.129089%, 19.526672%, 31.207275%)" offset="0.839844"/><stop stop-opacity="1" stop-color="rgb(90.634155%, 19.287109%, 30.822754%)" offset="0.84375"/><stop stop-opacity="1" stop-color="rgb(91.137695%, 19.046021%, 30.438232%)" offset="0.847656"/><stop stop-opacity="1" stop-color="rgb(91.642761%, 18.806458%, 30.053711%)" offset="0.851562"/><stop stop-opacity="1" stop-color="rgb(92.070007%, 18.60199%, 29.725647%)" offset="0.855469"/><stop stop-opacity="1" stop-color="rgb(92.498779%, 18.399048%, 29.399109%)" offset="0.859375"/><stop stop-opacity="1" stop-color="rgb(92.498779%, 18.399048%, 29.399109%)" offset="0.875"/><stop stop-opacity="1" stop-color="rgb(92.498779%, 18.399048%, 29.399109%)" offset="1"/></linearGradient></defs><g fill="#ffffff" fill-opacity="1"><g transform="translate(389.287961, 251.999983)"><g><path d="M 183.359375 -111.125 C 180.796875 -101.84375 175.992188 -94.597656 168.953125 -89.390625 C 161.921875 -84.191406 153.039062 -80.957031 142.3125 -79.6875 C 150 -79.039062 155.757812 -76.796875 159.59375 -72.953125 C 163.4375 -69.117188 165.359375 -64.082031 165.359375 -57.84375 C 165.359375 -55.4375 164.957031 -52.472656 164.15625 -48.953125 L 161.515625 -37.203125 C 161.203125 -35.597656 161.046875 -34.476562 161.046875 -33.84375 C 161.046875 -31.757812 161.523438 -30.195312 162.484375 -29.15625 C 163.441406 -28.113281 164.800781 -27.59375 166.5625 -27.59375 C 169.914062 -27.59375 172.351562 -27.113281 173.875 -26.15625 C 175.394531 -25.195312 175.914062 -23.4375 175.4375 -20.875 C 174.800781 -17.195312 172.878906 -13.597656 169.671875 -10.078125 C 166.472656 -6.554688 161.953125 -3.632812 156.109375 -1.3125 C 150.273438 1 143.195312 2.15625 134.875 2.15625 C 124.320312 2.15625 115.921875 -0.203125 109.671875 -4.921875 C 103.429688 -9.640625 100.3125 -16.398438 100.3125 -25.203125 C 100.3125 -28.554688 100.796875 -32.15625 101.765625 -36 L 105.59375 -51.359375 C 106.238281 -53.441406 106.5625 -55.601562 106.5625 -57.84375 C 106.5625 -61.519531 105.320312 -64.15625 102.84375 -65.75 C 100.363281 -67.351562 96.398438 -68.15625 90.953125 -68.15625 L 81.84375 -68.15625 L 70.796875 -28.3125 C 70.472656 -27.351562 70.3125 -26.15625 70.3125 -24.71875 C 70.3125 -22.476562 70.875 -20.554688 72 -18.953125 C 73.125 -17.359375 74.644531 -15.679688 76.5625 -13.921875 C 78 -12.796875 79.117188 -11.710938 79.921875 -10.671875 C 80.722656 -9.640625 81.125 -8.5625 81.125 -7.4375 C 81.125 -4.71875 79.84375 -2.796875 77.28125 -1.671875 C 74.71875 -0.554688 70.957031 0 66 0 L 5.765625 0 C 1.597656 0 -1.519531 -0.757812 -3.59375 -2.28125 C -5.675781 -3.800781 -6.398438 -5.921875 -5.765625 -8.640625 C -5.441406 -10.078125 -4.835938 -11.234375 -3.953125 -12.109375 C -3.078125 -12.992188 -1.757812 -14 0 -15.125 C 2.71875 -16.71875 4.875 -18.394531 6.46875 -20.15625 C 8.070312 -21.914062 9.351562 -24.632812 10.3125 -28.3125 L 39.59375 -131.765625 C 40.238281 -133.835938 40.5625 -135.835938 40.5625 -137.765625 C 40.5625 -139.523438 40.28125 -141.003906 39.71875 -142.203125 C 39.15625 -143.398438 38.394531 -144.800781 37.4375 -146.40625 C 36 -148.476562 35.28125 -150.15625 35.28125 -151.4375 C 35.28125 -151.914062 35.441406 -152.796875 35.765625 -154.078125 C 36.398438 -156.160156 37.796875 -157.640625 39.953125 -158.515625 C 42.117188 -159.398438 45.441406 -159.84375 49.921875 -159.84375 L 130.3125 -159.84375 C 141.351562 -159.84375 150.992188 -158.160156 159.234375 -154.796875 C 167.472656 -151.441406 173.789062 -146.84375 178.1875 -141 C 182.59375 -135.15625 184.796875 -128.554688 184.796875 -121.203125 C 184.796875 -117.835938 184.316406 -114.476562 183.359375 -111.125 Z M 121.921875 -113.515625 C 122.722656 -117.203125 123.125 -120.003906 123.125 -121.921875 C 123.125 -130.398438 118.484375 -134.640625 109.203125 -134.640625 L 99.125 -134.640625 L 88.5625 -92.15625 L 98.640625 -92.15625 C 104.878906 -92.15625 109.796875 -93.675781 113.390625 -96.71875 C 116.992188 -99.757812 119.835938 -105.359375 121.921875 -113.515625 Z M 121.921875 -113.515625 "/></g></g></g><g fill="#ffffff" fill-opacity="1"><g transform="translate(571.447619, 251.999983)"><g><path d="M 81.359375 -128.15625 C 101.679688 -128.15625 116.398438 -124.914062 125.515625 -118.4375 C 134.640625 -111.957031 139.203125 -103.675781 139.203125 -93.59375 C 139.203125 -90.5625 138.878906 -87.765625 138.234375 -85.203125 C 135.835938 -74.640625 129.160156 -67.078125 118.203125 -62.515625 C 107.242188 -57.960938 94.320312 -55.6875 79.4375 -55.6875 C 71.914062 -55.6875 64.875 -56.164062 58.3125 -57.125 C 58.15625 -48.800781 60.394531 -42.957031 65.03125 -39.59375 C 69.675781 -36.238281 76.160156 -34.5625 84.484375 -34.5625 C 88.316406 -34.5625 91.992188 -35 95.515625 -35.875 C 99.035156 -36.757812 103.515625 -38.082031 108.953125 -39.84375 C 113.441406 -41.4375 116.484375 -42.234375 118.078125 -42.234375 C 119.835938 -42.234375 120.71875 -41.195312 120.71875 -39.125 C 120.875 -33.519531 118.789062 -27.632812 114.46875 -21.46875 C 110.15625 -15.3125 103.757812 -10.070312 95.28125 -5.75 C 86.800781 -1.4375 76.5625 0.71875 64.5625 0.71875 C 46.800781 0.71875 32.238281 -3.757812 20.875 -12.71875 C 9.519531 -21.675781 3.84375 -34.71875 3.84375 -51.84375 C 3.84375 -56.644531 4.484375 -62.242188 5.765625 -68.640625 C 9.765625 -88.316406 18.519531 -103.15625 32.03125 -113.15625 C 45.550781 -123.15625 61.992188 -128.15625 81.359375 -128.15625 Z M 60 -71.515625 C 60.632812 -71.359375 61.515625 -71.28125 62.640625 -71.28125 C 69.359375 -71.28125 74.476562 -74.398438 78 -80.640625 C 81.519531 -86.878906 83.203125 -93.835938 83.046875 -101.515625 C 82.878906 -105.992188 81.597656 -108.234375 79.203125 -108.234375 C 77.441406 -108.234375 75.359375 -106.832031 72.953125 -104.03125 C 70.554688 -101.238281 68.195312 -97.039062 65.875 -91.4375 C 63.5625 -85.84375 61.601562 -79.203125 60 -71.515625 Z M 60 -71.515625 "/></g></g></g><g fill="#ffffff" fill-opacity="1"><g transform="translate(705.847355, 251.999983)"><g><path d="M 85.6875 -126.953125 C 104.082031 -126.953125 118.800781 -123.550781 129.84375 -116.75 C 140.882812 -109.957031 146.40625 -99.601562 146.40625 -85.6875 C 146.40625 -80.40625 145.441406 -74.40625 143.515625 -67.6875 L 133.6875 -34.5625 C 133.519531 -33.914062 133.4375 -33.113281 133.4375 -32.15625 C 133.4375 -29.59375 134.476562 -28.3125 136.5625 -28.3125 C 138.476562 -28.3125 140.113281 -29.148438 141.46875 -30.828125 C 142.832031 -32.515625 143.753906 -33.359375 144.234375 -33.359375 C 145.035156 -33.359375 145.71875 -32.796875 146.28125 -31.671875 C 146.84375 -30.554688 147.125 -29.28125 147.125 -27.84375 C 147.28125 -23.519531 145.640625 -19.117188 142.203125 -14.640625 C 138.765625 -10.160156 134.164062 -6.476562 128.40625 -3.59375 C 122.644531 -0.71875 116.320312 0.71875 109.4375 0.71875 C 101.113281 0.71875 93.992188 -0.800781 88.078125 -3.84375 C 82.160156 -6.882812 78.082031 -11.363281 75.84375 -17.28125 C 71.039062 -11.519531 65.359375 -7.078125 58.796875 -3.953125 C 52.234375 -0.835938 45.195312 0.71875 37.6875 0.71875 C 29.195312 0.71875 22.070312 -0.921875 16.3125 -4.203125 C 10.5625 -7.484375 6.285156 -11.722656 3.484375 -16.921875 C 0.679688 -22.117188 -0.71875 -27.597656 -0.71875 -33.359375 C -0.71875 -35.921875 -0.476562 -38.398438 0 -40.796875 C 2.5625 -51.835938 8.117188 -60.15625 16.671875 -65.75 C 25.234375 -71.351562 35.4375 -74.15625 47.28125 -74.15625 C 60.5625 -74.15625 73.601562 -72.078125 86.40625 -67.921875 L 92.40625 -83.765625 C 94.476562 -90.484375 95.515625 -95.679688 95.515625 -99.359375 C 95.359375 -103.203125 94.078125 -106.082031 91.671875 -108 C 89.273438 -109.914062 85.597656 -110.875 80.640625 -110.875 C 81.597656 -108.320312 82.078125 -105.679688 82.078125 -102.953125 C 82.078125 -97.035156 79.835938 -91.914062 75.359375 -87.59375 C 70.878906 -83.28125 64.476562 -81.125 56.15625 -81.125 C 48.320312 -81.125 42.203125 -82.84375 37.796875 -86.28125 C 33.398438 -89.71875 31.203125 -94 31.203125 -99.125 C 31.203125 -107.125 35.679688 -113.757812 44.640625 -119.03125 C 53.597656 -124.3125 67.28125 -126.953125 85.6875 -126.953125 Z M 72.234375 -54.234375 C 67.753906 -54.234375 64.113281 -52.515625 61.3125 -49.078125 C 58.519531 -45.640625 57.125 -41.921875 57.125 -37.921875 C 57.125 -35.359375 57.722656 -33.273438 58.921875 -31.671875 C 60.117188 -30.078125 61.835938 -29.28125 64.078125 -29.28125 C 66.160156 -29.28125 68.441406 -30.117188 70.921875 -31.796875 C 73.398438 -33.472656 75.195312 -35.992188 76.3125 -39.359375 L 81.359375 -53.515625 C 78.640625 -53.992188 75.597656 -54.234375 72.234375 -54.234375 Z M 72.234375 -54.234375 "/></g></g></g><g fill="#ffffff" fill-opacity="1"><g transform="translate(862.80709, 251.999983)"><g><path d="M 87.125 -128.15625 C 96.882812 -128.15625 105.441406 -126.753906 112.796875 -123.953125 C 120.160156 -121.160156 125.878906 -117.320312 129.953125 -112.4375 C 134.035156 -107.5625 136.078125 -102.160156 136.078125 -96.234375 C 136.078125 -89.835938 133.875 -84.554688 129.46875 -80.390625 C 125.070312 -76.234375 119.113281 -74.15625 111.59375 -74.15625 C 103.914062 -74.15625 97.914062 -76.113281 93.59375 -80.03125 C 89.28125 -83.957031 87.125 -89.28125 87.125 -96 C 87.125 -99.195312 87.601562 -102.554688 88.5625 -106.078125 C 81.84375 -104.316406 75.878906 -100.835938 70.671875 -95.640625 C 65.472656 -90.441406 61.992188 -83.601562 60.234375 -75.125 C 59.273438 -70.320312 58.796875 -66 58.796875 -62.15625 C 58.796875 -53.519531 61.195312 -46.960938 66 -42.484375 C 70.800781 -38.003906 77.679688 -35.765625 86.640625 -35.765625 C 91.753906 -35.765625 96.148438 -36.28125 99.828125 -37.3125 C 103.515625 -38.351562 107.28125 -39.753906 111.125 -41.515625 C 114.320312 -43.117188 116.640625 -43.921875 118.078125 -43.921875 C 119.035156 -43.921875 119.675781 -43.71875 120 -43.3125 C 120.320312 -42.914062 120.484375 -42.078125 120.484375 -40.796875 C 120.640625 -34.878906 118.195312 -28.679688 113.15625 -22.203125 C 108.113281 -15.722656 101.148438 -10.28125 92.265625 -5.875 C 83.390625 -1.476562 73.4375 0.71875 62.40625 0.71875 C 50.882812 0.71875 40.679688 -1.398438 31.796875 -5.640625 C 22.921875 -9.878906 16.039062 -15.957031 11.15625 -23.875 C 6.28125 -31.800781 3.84375 -41.039062 3.84375 -51.59375 C 3.84375 -56.5625 4.484375 -62.082031 5.765625 -68.15625 C 10.078125 -88 19.632812 -102.957031 34.4375 -113.03125 C 49.238281 -123.113281 66.800781 -128.15625 87.125 -128.15625 Z M 87.125 -128.15625 "/></g></g></g><g fill="#ffffff" fill-opacity="1"><g transform="translate(992.886856, 251.999983)"><g><path d="M 107.28125 -123.84375 C 110.320312 -123.84375 112.679688 -123.203125 114.359375 -121.921875 C 116.035156 -120.640625 116.875 -118.878906 116.875 -116.640625 C 116.875 -116.003906 116.71875 -114.882812 116.40625 -113.28125 C 114.320312 -106.238281 109.519531 -102.71875 102 -102.71875 L 88.078125 -102.71875 L 70.078125 -43.4375 C 69.273438 -41.039062 68.875 -38.5625 68.875 -36 C 68.875 -33.125 69.675781 -31.125 71.28125 -30 C 72.882812 -28.875 75.125 -28.3125 78 -28.3125 C 80.5625 -28.3125 83.757812 -28.632812 87.59375 -29.28125 C 89.519531 -29.757812 91.203125 -30 92.640625 -30 C 93.753906 -30 94.59375 -29.640625 95.15625 -28.921875 C 95.71875 -28.203125 96 -27.28125 96 -26.15625 C 96.15625 -22.957031 93.789062 -19.078125 88.90625 -14.515625 C 84.03125 -9.960938 77.429688 -6.046875 69.109375 -2.765625 C 60.796875 0.515625 51.597656 2.15625 41.515625 2.15625 C 30.640625 2.15625 21.921875 -0.320312 15.359375 -5.28125 C 8.796875 -10.238281 5.515625 -17.039062 5.515625 -25.6875 C 5.515625 -29.6875 6.15625 -33.523438 7.4375 -37.203125 L 22.796875 -84.71875 C 23.597656 -87.4375 24 -89.597656 24 -91.203125 C 24 -94.398438 23.238281 -97.117188 21.71875 -99.359375 C 20.195312 -101.597656 18.078125 -103.914062 15.359375 -106.3125 C 12.960938 -108.5625 11.28125 -110.441406 10.3125 -111.953125 C 9.351562 -113.472656 9.113281 -115.273438 9.59375 -117.359375 C 10.238281 -119.441406 11.597656 -121.039062 13.671875 -122.15625 C 15.753906 -123.28125 19.035156 -123.84375 23.515625 -123.84375 L 36.953125 -123.84375 L 52.078125 -138.953125 C 57.359375 -144.234375 62.195312 -147.914062 66.59375 -150 C 71 -152.082031 76.722656 -153.125 83.765625 -153.125 C 93.835938 -153.125 98.875 -149.28125 98.875 -141.59375 C 98.875 -139.195312 98.554688 -136.957031 97.921875 -134.875 L 94.5625 -123.84375 Z M 107.28125 -123.84375 "/></g></g></g><g fill="#ffffff" fill-opacity="1"><g transform="translate(1144.086599, 251.999983)"><g><path d="M 84.234375 -129.59375 C 84.554688 -130.5625 84.71875 -131.84375 84.71875 -133.4375 C 84.71875 -136 84.035156 -138.078125 82.671875 -139.671875 C 81.316406 -141.273438 79.195312 -143.035156 76.3125 -144.953125 C 73.914062 -146.710938 72.195312 -148.234375 71.15625 -149.515625 C 70.113281 -150.796875 69.832031 -152.316406 70.3125 -154.078125 C 70.800781 -156.316406 72.003906 -157.835938 73.921875 -158.640625 C 75.835938 -159.441406 78.878906 -159.84375 83.046875 -159.84375 L 151.203125 -159.84375 C 154.554688 -159.84375 157.15625 -159.28125 159 -158.15625 C 160.84375 -157.039062 161.765625 -155.601562 161.765625 -153.84375 C 161.765625 -153.039062 161.523438 -152 161.046875 -150.71875 C 160.554688 -149.601562 159.875 -148.601562 159 -147.71875 C 158.125 -146.84375 157.320312 -146.203125 156.59375 -145.796875 C 155.875 -145.398438 155.359375 -145.039062 155.046875 -144.71875 C 152.484375 -143.28125 150.398438 -141.679688 148.796875 -139.921875 C 147.203125 -138.160156 145.84375 -135.441406 144.71875 -131.765625 L 121.203125 -48.71875 C 116.398438 -31.757812 108.238281 -19.160156 96.71875 -10.921875 C 85.195312 -2.679688 70.238281 1.4375 51.84375 1.4375 C 39.519531 1.4375 29.078125 -0.359375 20.515625 -3.953125 C 11.960938 -7.554688 5.523438 -12.394531 1.203125 -18.46875 C -3.117188 -24.550781 -5.28125 -31.195312 -5.28125 -38.40625 C -5.28125 -41.925781 -4.800781 -45.363281 -3.84375 -48.71875 C -1.757812 -55.914062 1.800781 -61.351562 6.84375 -65.03125 C 11.882812 -68.71875 17.523438 -70.5625 23.765625 -70.5625 C 30.960938 -70.5625 36.476562 -68.398438 40.3125 -64.078125 C 44.15625 -59.753906 46.078125 -54.234375 46.078125 -47.515625 C 46.078125 -44.160156 45.597656 -40.800781 44.640625 -37.4375 C 42.722656 -30.71875 39.125 -25.757812 33.84375 -22.5625 C 36.40625 -20.957031 39.363281 -20.15625 42.71875 -20.15625 C 46.082031 -20.15625 49.039062 -21.832031 51.59375 -25.1875 C 54.15625 -28.550781 56.316406 -33.273438 58.078125 -39.359375 Z M 84.234375 -129.59375 "/></g></g></g><g fill="#ffffff" fill-opacity="1"><g transform="translate(1285.686305, 251.999983)"><g><path d="M 89.765625 -161.28125 C 98.722656 -161.28125 107 -160.195312 114.59375 -158.03125 C 122.195312 -155.875 129.921875 -152.476562 137.765625 -147.84375 L 143.28125 -152.40625 C 147.125 -155.4375 150.285156 -157.507812 152.765625 -158.625 C 155.242188 -159.75 158.082031 -160.3125 161.28125 -160.3125 C 165.125 -160.3125 168.164062 -159.472656 170.40625 -157.796875 C 172.644531 -156.117188 173.765625 -153.679688 173.765625 -150.484375 C 173.765625 -149.203125 173.523438 -147.84375 173.046875 -146.40625 L 162.953125 -113.28125 C 161.835938 -109.4375 160.4375 -106.710938 158.75 -105.109375 C 157.070312 -103.515625 154.554688 -102.71875 151.203125 -102.71875 C 147.679688 -102.71875 144.597656 -103.796875 141.953125 -105.953125 C 139.316406 -108.117188 135.195312 -112.5625 129.59375 -119.28125 C 124 -125.675781 118.921875 -130.191406 114.359375 -132.828125 C 109.796875 -135.472656 105.113281 -136.796875 100.3125 -136.796875 C 96.800781 -136.796875 93.84375 -135.632812 91.4375 -133.3125 C 89.039062 -131 87.84375 -128.160156 87.84375 -124.796875 C 87.84375 -120.960938 89.757812 -117.40625 93.59375 -114.125 C 97.4375 -110.84375 103.4375 -106.722656 111.59375 -101.765625 C 119.914062 -96.796875 126.796875 -92.3125 132.234375 -88.3125 C 137.679688 -84.3125 142.320312 -79.351562 146.15625 -73.4375 C 150 -67.519531 151.921875 -60.722656 151.921875 -53.046875 C 151.921875 -48.078125 151.117188 -43.113281 149.515625 -38.15625 C 145.679688 -25.351562 138.242188 -15.632812 127.203125 -9 C 116.160156 -2.363281 103.28125 0.953125 88.5625 0.953125 C 77.519531 0.953125 68.238281 -0.320312 60.71875 -2.875 C 53.195312 -5.4375 45.519531 -9.757812 37.6875 -15.84375 L 29.046875 -8.640625 C 25.046875 -5.273438 21.765625 -2.992188 19.203125 -1.796875 C 16.640625 -0.597656 13.757812 0 10.5625 0 C 6.882812 0 3.960938 -0.878906 1.796875 -2.640625 C -0.359375 -4.398438 -1.4375 -6.800781 -1.4375 -9.84375 C -1.4375 -11.4375 -1.117188 -13.113281 -0.484375 -14.875 L 11.28125 -50.640625 C 12.5625 -54.796875 14.320312 -57.753906 16.5625 -59.515625 C 18.800781 -61.273438 21.679688 -62.15625 25.203125 -62.15625 C 28.878906 -62.15625 32.195312 -60.875 35.15625 -58.3125 C 38.113281 -55.757812 41.992188 -51.125 46.796875 -44.40625 C 51.921875 -37.039062 56.679688 -31.914062 61.078125 -29.03125 C 65.484375 -26.15625 70.722656 -24.71875 76.796875 -24.71875 C 81.117188 -24.71875 84.4375 -25.394531 86.75 -26.75 C 89.070312 -28.113281 90.71875 -30.316406 91.6875 -33.359375 C 92 -34.160156 92.15625 -35.359375 92.15625 -36.953125 C 92.15625 -40.796875 90.316406 -44.316406 86.640625 -47.515625 C 82.960938 -50.710938 77.28125 -54.554688 69.59375 -59.046875 C 61.4375 -64.003906 54.796875 -68.441406 49.671875 -72.359375 C 44.554688 -76.273438 40.117188 -81.191406 36.359375 -87.109375 C 32.597656 -93.035156 30.71875 -100 30.71875 -108 C 30.71875 -113.601562 31.597656 -119.125 33.359375 -124.5625 C 36.722656 -135.601562 43.601562 -144.484375 54 -151.203125 C 64.394531 -157.921875 76.316406 -161.28125 89.765625 -161.28125 Z M 89.765625 -161.28125 "/></g></g></g><g clip-path="url(#89157e18bf)"><g clip-path="url(#d55aa645d8)"><path fill="url(#bcfa138094)" d="M 0 0.0703125 L 0 374.980469 L 343.5 374.980469 L 343.5 0.0703125 Z M 0 0.0703125 " fill-rule="nonzero"/></g></g></svg>