<svg xmlns="http://www.w3.org/2000/svg" xmlns:xlink="http://www.w3.org/1999/xlink" width="2000" zoomAndPan="magnify" viewBox="0 0 1500 374.999991" height="500" preserveAspectRatio="xMidYMid meet" version="1.0"><defs><g/></defs><g fill="#ffffff" fill-opacity="1"><g transform="translate(628.424405, 252.023232)"><g><path d="M 183 -110.90625 C 180.445312 -101.644531 175.65625 -94.414062 168.625 -89.21875 C 161.601562 -84.03125 152.742188 -80.800781 142.046875 -79.53125 C 149.710938 -78.882812 155.457031 -76.644531 159.28125 -72.8125 C 163.113281 -68.976562 165.03125 -63.953125 165.03125 -57.734375 C 165.03125 -55.335938 164.632812 -52.378906 163.84375 -48.859375 L 161.203125 -37.125 C 160.878906 -35.53125 160.71875 -34.414062 160.71875 -33.78125 C 160.71875 -31.695312 161.195312 -30.132812 162.15625 -29.09375 C 163.113281 -28.0625 164.472656 -27.546875 166.234375 -27.546875 C 169.585938 -27.546875 172.019531 -27.066406 173.53125 -26.109375 C 175.050781 -25.148438 175.570312 -23.394531 175.09375 -20.84375 C 174.457031 -17.164062 172.539062 -13.570312 169.34375 -10.0625 C 166.15625 -6.550781 161.644531 -3.632812 155.8125 -1.3125 C 149.988281 1 142.921875 2.15625 134.609375 2.15625 C 124.078125 2.15625 115.695312 -0.195312 109.46875 -4.90625 C 103.238281 -9.625 100.125 -16.375 100.125 -25.15625 C 100.125 -28.507812 100.601562 -32.101562 101.5625 -35.9375 L 105.390625 -51.265625 C 106.035156 -53.335938 106.359375 -55.492188 106.359375 -57.734375 C 106.359375 -61.398438 105.117188 -64.03125 102.640625 -65.625 C 100.160156 -67.226562 96.207031 -68.03125 90.78125 -68.03125 L 81.6875 -68.03125 L 70.65625 -28.265625 C 70.34375 -27.304688 70.1875 -26.109375 70.1875 -24.671875 C 70.1875 -22.429688 70.742188 -20.515625 71.859375 -18.921875 C 72.972656 -17.328125 74.488281 -15.648438 76.40625 -13.890625 C 77.84375 -12.773438 78.960938 -11.695312 79.765625 -10.65625 C 80.566406 -9.625 80.96875 -8.546875 80.96875 -7.421875 C 80.96875 -4.710938 79.6875 -2.796875 77.125 -1.671875 C 74.570312 -0.554688 70.820312 0 65.875 0 L 5.75 0 C 1.59375 0 -1.519531 -0.753906 -3.59375 -2.265625 C -5.664062 -3.785156 -6.382812 -5.90625 -5.75 -8.625 C -5.425781 -10.0625 -4.828125 -11.21875 -3.953125 -12.09375 C -3.078125 -12.96875 -1.757812 -13.96875 0 -15.09375 C 2.71875 -16.6875 4.875 -18.359375 6.46875 -20.109375 C 8.0625 -21.867188 9.335938 -24.585938 10.296875 -28.265625 L 39.515625 -131.5 C 40.160156 -133.570312 40.484375 -135.566406 40.484375 -137.484375 C 40.484375 -139.242188 40.203125 -140.722656 39.640625 -141.921875 C 39.078125 -143.117188 38.316406 -144.515625 37.359375 -146.109375 C 35.929688 -148.191406 35.21875 -149.867188 35.21875 -151.140625 C 35.21875 -151.617188 35.375 -152.5 35.6875 -153.78125 C 36.320312 -155.851562 37.71875 -157.328125 39.875 -158.203125 C 42.03125 -159.085938 45.347656 -159.53125 49.828125 -159.53125 L 130.0625 -159.53125 C 141.082031 -159.53125 150.703125 -157.851562 158.921875 -154.5 C 167.148438 -151.144531 173.457031 -146.550781 177.84375 -140.71875 C 182.238281 -134.894531 184.4375 -128.3125 184.4375 -120.96875 C 184.4375 -117.613281 183.957031 -114.257812 183 -110.90625 Z M 121.6875 -113.296875 C 122.476562 -116.972656 122.875 -119.769531 122.875 -121.6875 C 122.875 -130.144531 118.242188 -134.375 108.984375 -134.375 L 98.921875 -134.375 L 88.390625 -91.984375 L 98.453125 -91.984375 C 104.679688 -91.984375 109.585938 -93.5 113.171875 -96.53125 C 116.765625 -99.5625 119.601562 -105.148438 121.6875 -113.296875 Z M 121.6875 -113.296875 "/></g></g></g><g fill="#ffffff" fill-opacity="1"><g transform="translate(810.231128, 252.023232)"><g><path d="M 156.40625 -159.53125 C 162.320312 -159.53125 166.914062 -158.25 170.1875 -155.6875 C 173.457031 -153.132812 175.09375 -149.625 175.09375 -145.15625 C 175.09375 -142.914062 174.773438 -140.757812 174.140625 -138.6875 L 167.90625 -116.40625 C 166.789062 -112.09375 165.15625 -109.097656 163 -107.421875 C 160.84375 -105.753906 157.769531 -104.921875 153.78125 -104.921875 C 149.945312 -104.921875 146.953125 -105.753906 144.796875 -107.421875 C 142.640625 -109.097656 141.003906 -111.851562 139.890625 -115.6875 L 136.046875 -129.34375 C 135.253906 -132.21875 134.296875 -134.132812 133.171875 -135.09375 C 132.054688 -136.050781 129.90625 -136.53125 126.71875 -136.53125 L 101.5625 -136.53125 L 89.578125 -93.890625 L 100.125 -93.890625 C 101.238281 -93.890625 102.753906 -94.691406 104.671875 -96.296875 L 112.8125 -103.484375 C 115.207031 -105.554688 117.285156 -107.070312 119.046875 -108.03125 C 120.804688 -108.988281 122.960938 -109.46875 125.515625 -109.46875 C 128.390625 -109.46875 130.742188 -108.707031 132.578125 -107.1875 C 134.410156 -105.675781 135.328125 -103.722656 135.328125 -101.328125 C 135.328125 -100.679688 135.171875 -99.722656 134.859375 -98.453125 L 125.03125 -65.15625 C 124.070312 -61.644531 122.4375 -59.050781 120.125 -57.375 C 117.8125 -55.695312 115.296875 -54.859375 112.578125 -54.859375 C 108.109375 -54.859375 104.753906 -57.171875 102.515625 -61.796875 L 98.453125 -70.1875 C 97.328125 -72.582031 95.566406 -73.78125 93.171875 -73.78125 L 83.84375 -73.78125 L 69.703125 -23 L 90.78125 -23 C 93.8125 -23 96.484375 -23.597656 98.796875 -24.796875 C 101.117188 -25.992188 103.640625 -28.109375 106.359375 -31.140625 L 120.71875 -46.953125 C 123.28125 -49.660156 125.71875 -51.613281 128.03125 -52.8125 C 130.34375 -54.007812 133.175781 -54.609375 136.53125 -54.609375 C 140.039062 -54.609375 142.914062 -53.8125 145.15625 -52.21875 C 147.394531 -50.625 148.515625 -48.226562 148.515625 -45.03125 C 148.515625 -43.75 148.273438 -42.234375 147.796875 -40.484375 L 140.84375 -16.28125 C 139.082031 -10.21875 136.523438 -5.988281 133.171875 -3.59375 C 129.828125 -1.195312 124.957031 0 118.5625 0 L 4.3125 0 C 0.957031 0 -1.632812 -0.554688 -3.46875 -1.671875 C -5.3125 -2.796875 -6.234375 -4.316406 -6.234375 -6.234375 C -6.234375 -7.191406 -5.992188 -8.226562 -5.515625 -9.34375 C -4.867188 -11.101562 -3.828125 -12.457031 -2.390625 -13.40625 C -0.953125 -14.363281 -0.078125 -14.925781 0.234375 -15.09375 C 2.796875 -16.6875 4.875 -18.320312 6.46875 -20 C 8.0625 -21.675781 9.421875 -24.429688 10.546875 -28.265625 L 40 -131.5 C 40.632812 -133.570312 40.953125 -135.488281 40.953125 -137.25 C 40.953125 -139.164062 40.671875 -140.757812 40.109375 -142.03125 C 39.554688 -143.3125 38.722656 -144.671875 37.609375 -146.109375 C 36.171875 -148.191406 35.453125 -149.867188 35.453125 -151.140625 C 35.453125 -151.617188 35.613281 -152.5 35.9375 -153.78125 C 36.570312 -155.851562 38.003906 -157.328125 40.234375 -158.203125 C 42.472656 -159.085938 45.75 -159.53125 50.0625 -159.53125 Z M 156.40625 -159.53125 "/></g></g></g><g fill="#ffffff" fill-opacity="1"><g transform="translate(970.958818, 252.023232)"><g><path d="M 89.578125 -160.96875 C 98.523438 -160.96875 106.789062 -159.890625 114.375 -157.734375 C 121.957031 -155.578125 129.660156 -152.179688 137.484375 -147.546875 L 143 -152.109375 C 146.832031 -155.140625 149.984375 -157.210938 152.453125 -158.328125 C 154.929688 -159.441406 157.769531 -160 160.96875 -160 C 164.800781 -160 167.832031 -159.160156 170.0625 -157.484375 C 172.300781 -155.816406 173.421875 -153.382812 173.421875 -150.1875 C 173.421875 -148.90625 173.179688 -147.546875 172.703125 -146.109375 L 162.640625 -113.0625 C 161.523438 -109.226562 160.128906 -106.507812 158.453125 -104.90625 C 156.773438 -103.3125 154.257812 -102.515625 150.90625 -102.515625 C 147.394531 -102.515625 144.320312 -103.59375 141.6875 -105.75 C 139.050781 -107.90625 134.9375 -112.335938 129.34375 -119.046875 C 123.757812 -125.429688 118.691406 -129.941406 114.140625 -132.578125 C 109.585938 -135.210938 104.914062 -136.53125 100.125 -136.53125 C 96.613281 -136.53125 93.660156 -135.375 91.265625 -133.0625 C 88.867188 -130.75 87.671875 -127.914062 87.671875 -124.5625 C 87.671875 -120.726562 89.585938 -117.171875 93.421875 -113.890625 C 97.253906 -110.617188 103.238281 -106.507812 111.375 -101.5625 C 119.6875 -96.613281 126.554688 -92.140625 131.984375 -88.140625 C 137.410156 -84.148438 142.039062 -79.203125 145.875 -73.296875 C 149.707031 -67.390625 151.625 -60.601562 151.625 -52.9375 C 151.625 -47.988281 150.828125 -43.035156 149.234375 -38.078125 C 145.398438 -25.304688 137.972656 -15.609375 126.953125 -8.984375 C 115.929688 -2.359375 103.078125 0.953125 88.390625 0.953125 C 77.367188 0.953125 68.101562 -0.320312 60.59375 -2.875 C 53.09375 -5.425781 45.429688 -9.738281 37.609375 -15.8125 L 28.984375 -8.625 C 24.992188 -5.269531 21.71875 -2.992188 19.15625 -1.796875 C 16.601562 -0.597656 13.734375 0 10.546875 0 C 6.867188 0 3.953125 -0.875 1.796875 -2.625 C -0.359375 -4.382812 -1.4375 -6.785156 -1.4375 -9.828125 C -1.4375 -11.421875 -1.117188 -13.09375 -0.484375 -14.84375 L 11.265625 -50.546875 C 12.535156 -54.691406 14.285156 -57.640625 16.515625 -59.390625 C 18.753906 -61.148438 21.632812 -62.03125 25.15625 -62.03125 C 28.820312 -62.03125 32.128906 -60.753906 35.078125 -58.203125 C 38.035156 -55.648438 41.910156 -51.019531 46.703125 -44.3125 C 51.816406 -36.96875 56.566406 -31.859375 60.953125 -28.984375 C 65.347656 -26.109375 70.582031 -24.671875 76.65625 -24.671875 C 80.96875 -24.671875 84.28125 -25.347656 86.59375 -26.703125 C 88.90625 -28.066406 90.539062 -30.265625 91.5 -33.296875 C 91.820312 -34.097656 91.984375 -35.296875 91.984375 -36.890625 C 91.984375 -40.722656 90.144531 -44.234375 86.46875 -47.421875 C 82.800781 -50.617188 77.132812 -54.453125 69.46875 -58.921875 C 61.320312 -63.867188 54.691406 -68.300781 49.578125 -72.21875 C 44.472656 -76.132812 40.039062 -81.046875 36.28125 -86.953125 C 32.53125 -92.859375 30.65625 -99.804688 30.65625 -107.796875 C 30.65625 -113.378906 31.535156 -118.882812 33.296875 -124.3125 C 36.648438 -135.332031 43.515625 -144.195312 53.890625 -150.90625 C 64.273438 -157.613281 76.171875 -160.96875 89.578125 -160.96875 Z M 89.578125 -160.96875 "/></g></g></g><g fill="#ffffff" fill-opacity="1"><g transform="translate(1135.998174, 252.023232)"><g><path d="M 191.859375 -159.53125 C 200.640625 -159.53125 205.03125 -155.9375 205.03125 -148.75 C 205.03125 -146.507812 204.554688 -143.710938 203.609375 -140.359375 L 197.859375 -120.96875 C 196.097656 -115.050781 193.9375 -110.894531 191.375 -108.5 C 188.820312 -106.113281 185.148438 -104.921875 180.359375 -104.921875 C 176.367188 -104.921875 173.296875 -105.957031 171.140625 -108.03125 C 168.984375 -110.101562 166.945312 -113.375 165.03125 -117.84375 L 160.96875 -127.671875 C 159.6875 -130.703125 158.328125 -132.773438 156.890625 -133.890625 C 155.453125 -135.015625 153.21875 -135.578125 150.1875 -135.578125 L 144.671875 -135.578125 L 114.25 -28.5 C 113.769531 -26.425781 113.53125 -24.59375 113.53125 -23 C 113.53125 -21.082031 113.8125 -19.484375 114.375 -18.203125 C 114.9375 -16.921875 115.773438 -15.5625 116.890625 -14.125 C 118.328125 -11.894531 119.046875 -10.0625 119.046875 -8.625 C 119.046875 -8.300781 118.882812 -7.503906 118.5625 -6.234375 C 117.769531 -4.148438 116.210938 -2.628906 113.890625 -1.671875 C 111.578125 -0.710938 108.265625 -0.234375 103.953125 -0.234375 L 47.671875 -0.234375 C 44.316406 -0.234375 41.71875 -0.789062 39.875 -1.90625 C 38.039062 -3.03125 37.125 -4.628906 37.125 -6.703125 C 37.125 -7.660156 37.363281 -8.617188 37.84375 -9.578125 C 38.476562 -11.015625 39.234375 -12.09375 40.109375 -12.8125 C 40.992188 -13.53125 42.316406 -14.445312 44.078125 -15.5625 C 46.472656 -17 48.46875 -18.597656 50.0625 -20.359375 C 51.65625 -22.117188 53.015625 -24.832031 54.140625 -28.5 L 84.3125 -135.578125 L 78.8125 -135.578125 C 75.289062 -135.578125 72.410156 -135.015625 70.171875 -133.890625 C 67.941406 -132.773438 65.550781 -130.703125 63 -127.671875 L 55.09375 -117.84375 C 51.414062 -113.53125 47.859375 -110.296875 44.421875 -108.140625 C 40.992188 -105.992188 37.285156 -104.921875 33.296875 -104.921875 C 29.617188 -104.921875 26.742188 -105.875 24.671875 -107.78125 C 22.597656 -109.695312 21.5625 -112.332031 21.5625 -115.6875 C 21.5625 -117.289062 21.800781 -119.050781 22.28125 -120.96875 L 28.5 -142.765625 C 29.78125 -147.234375 31.21875 -150.625 32.8125 -152.9375 C 34.414062 -155.25 36.691406 -156.925781 39.640625 -157.96875 C 42.597656 -159.007812 46.789062 -159.53125 52.21875 -159.53125 Z M 191.859375 -159.53125 "/></g></g></g><path fill="#ffffff" d="M 247.582031 128.734375 C 245.167969 128.734375 243.191406 126.757812 243.191406 124.339844 L 243.191406 103.691406 C 243.191406 99.515625 240.113281 96.441406 235.941406 96.441406 C 231.984375 96.441406 228.691406 99.515625 228.691406 103.691406 L 228.691406 124.339844 C 228.691406 126.757812 226.714844 128.734375 224.296875 128.734375 C 221.878906 128.734375 219.902344 126.757812 219.902344 124.339844 L 219.902344 103.691406 C 219.902344 94.683594 227.152344 87.652344 235.941406 87.652344 C 244.949219 87.652344 251.976562 94.683594 251.976562 103.691406 L 251.976562 124.339844 C 251.976562 126.757812 250 128.734375 247.582031 128.734375 Z M 247.582031 128.734375 " fill-opacity="1" fill-rule="evenodd"/><path fill="#ffffff" d="M 247.582031 118.410156 L 224.296875 118.410156 C 221.878906 118.410156 219.902344 116.433594 219.902344 114.015625 C 219.902344 111.597656 221.878906 109.621094 224.296875 109.621094 L 247.582031 109.621094 C 250 109.621094 251.976562 111.597656 251.976562 114.015625 C 251.976562 116.433594 250 118.410156 247.582031 118.410156 Z M 247.582031 118.410156 " fill-opacity="1" fill-rule="evenodd"/><path fill="#ffffff" d="M 265.15625 128.734375 C 262.523438 128.734375 260.765625 126.757812 260.765625 124.339844 L 260.765625 92.046875 C 260.765625 89.632812 262.523438 87.652344 265.15625 87.652344 L 274.605469 87.652344 C 281.855469 87.652344 287.785156 93.367188 287.785156 100.613281 C 287.785156 107.863281 281.855469 113.578125 274.605469 113.578125 L 269.550781 113.578125 L 269.550781 124.339844 C 269.550781 126.757812 267.574219 128.734375 265.15625 128.734375 Z M 269.550781 104.789062 L 274.824219 104.789062 C 277.019531 104.789062 279 103.03125 279 100.613281 C 279 98.199219 277.019531 96.441406 274.824219 96.441406 L 269.550781 96.441406 Z M 269.550781 104.789062 " fill-opacity="1" fill-rule="evenodd"/><path fill="#ffffff" d="M 300.746094 128.734375 C 298.332031 128.734375 296.351562 126.757812 296.351562 124.339844 L 296.351562 92.046875 C 296.351562 89.632812 298.332031 87.652344 300.746094 87.652344 C 303.164062 87.652344 305.140625 89.632812 305.140625 92.046875 L 305.140625 124.339844 C 305.140625 126.757812 303.164062 128.734375 300.746094 128.734375 Z M 300.746094 128.734375 " fill-opacity="1" fill-rule="evenodd"/><path fill="#ffffff" d="M 74.253906 128.734375 C 71.835938 128.734375 69.859375 126.757812 69.859375 124.339844 L 69.859375 92.046875 C 69.859375 89.632812 71.835938 87.652344 74.253906 87.652344 L 83.917969 87.652344 C 90.949219 87.652344 96.878906 93.367188 96.878906 100.613281 C 96.878906 107.863281 90.949219 113.578125 83.917969 113.578125 L 78.648438 113.578125 L 78.648438 124.339844 C 78.648438 126.757812 76.667969 128.734375 74.253906 128.734375 Z M 78.648438 104.789062 L 83.917969 104.789062 C 86.117188 104.789062 88.09375 103.03125 88.09375 100.613281 C 88.09375 98.199219 86.117188 96.441406 83.917969 96.441406 L 78.648438 96.441406 Z M 78.648438 104.789062 " fill-opacity="1" fill-rule="evenodd"/><path fill="#ffffff" d="M 89.410156 128.515625 C 87.652344 128.515625 86.117188 127.417969 85.457031 125.660156 L 79.746094 110.941406 C 78.867188 108.523438 79.964844 106.105469 82.160156 105.226562 C 84.578125 104.351562 86.996094 105.449219 87.875 107.644531 L 93.585938 122.363281 C 94.464844 124.78125 93.367188 127.195312 91.167969 128.074219 C 90.507812 128.296875 90.070312 128.515625 89.410156 128.515625 Z M 89.410156 128.515625 " fill-opacity="1" fill-rule="evenodd"/><path fill="#ffffff" d="M 132.03125 128.734375 L 109.84375 128.734375 C 107.425781 128.734375 105.449219 126.757812 105.449219 124.339844 L 105.449219 92.046875 C 105.449219 89.632812 107.425781 87.652344 109.84375 87.652344 L 132.03125 87.652344 C 134.445312 87.652344 136.421875 89.632812 136.421875 92.046875 C 136.421875 94.464844 134.445312 96.441406 132.03125 96.441406 L 114.234375 96.441406 L 114.234375 103.691406 L 132.03125 103.691406 C 134.445312 103.691406 136.421875 105.667969 136.421875 108.085938 C 136.421875 110.5 134.445312 112.476562 132.03125 112.476562 L 114.234375 112.476562 L 114.234375 119.945312 L 132.03125 119.945312 C 134.445312 119.945312 136.421875 121.925781 136.421875 124.339844 C 136.421875 126.757812 134.445312 128.734375 132.03125 128.734375 Z M 132.03125 128.734375 " fill-opacity="1" fill-rule="evenodd"/><path fill="#ffffff" d="M 157.511719 128.734375 C 153.121094 128.734375 149.164062 126.539062 146.96875 122.804688 C 145.648438 120.824219 146.308594 117.96875 148.285156 116.652344 C 150.261719 115.332031 153.121094 115.992188 154.21875 118.191406 C 155.097656 119.289062 156.195312 119.945312 157.511719 119.945312 C 159.492188 119.945312 161.027344 118.191406 161.027344 116.210938 C 161.027344 114.234375 159.492188 112.476562 157.511719 112.476562 C 150.484375 112.476562 144.992188 106.984375 144.992188 99.957031 C 144.992188 93.144531 150.484375 87.652344 157.511719 87.652344 C 162.347656 87.652344 166.519531 90.070312 168.496094 94.246094 C 169.597656 96.441406 168.9375 99.078125 166.738281 100.175781 C 164.542969 101.273438 161.90625 100.394531 160.808594 98.199219 C 160.148438 97.101562 158.832031 96.441406 157.511719 96.441406 C 155.316406 96.441406 153.777344 97.980469 153.777344 99.957031 C 153.777344 102.152344 155.316406 103.691406 157.511719 103.691406 C 164.324219 103.691406 169.816406 109.402344 169.816406 116.210938 C 169.816406 123.023438 164.324219 128.734375 157.511719 128.734375 Z M 157.511719 128.734375 " fill-opacity="1" fill-rule="evenodd"/><path fill="#ffffff" d="M 194.859375 128.734375 C 192.441406 128.734375 190.464844 126.757812 190.464844 124.339844 L 190.464844 96.441406 L 182.777344 96.441406 C 180.359375 96.441406 178.382812 94.464844 178.382812 92.046875 C 178.382812 89.632812 180.359375 87.652344 182.777344 87.652344 L 206.941406 87.652344 C 209.359375 87.652344 211.335938 89.632812 211.335938 92.046875 C 211.335938 94.464844 209.359375 96.441406 206.941406 96.441406 L 199.253906 96.441406 L 199.253906 124.339844 C 199.253906 126.757812 197.277344 128.734375 194.859375 128.734375 Z M 194.859375 128.734375 " fill-opacity="1" fill-rule="evenodd"/><path fill="#ffffff" d="M 250.4375 219.464844 L 124.5625 219.464844 C 122.144531 219.464844 120.167969 217.488281 120.167969 215.070312 C 120.167969 212.652344 122.144531 210.675781 124.5625 210.675781 L 250.4375 210.675781 C 252.855469 210.675781 254.832031 212.652344 254.832031 215.070312 C 254.832031 217.488281 252.855469 219.464844 250.4375 219.464844 Z M 272.40625 174.429688 L 102.59375 174.429688 C 100.175781 174.429688 98.199219 172.453125 98.199219 170.035156 C 98.199219 167.617188 100.175781 165.640625 102.59375 165.640625 L 272.40625 165.640625 C 274.824219 165.640625 276.800781 167.617188 276.800781 170.035156 C 276.800781 172.453125 274.824219 174.429688 272.40625 174.429688 Z M 272.40625 174.429688 " fill-opacity="1" fill-rule="evenodd"/><path fill="#ffffff" d="M 344.464844 260.984375 L 30.535156 260.984375 C 28.121094 260.984375 26.140625 259.007812 26.140625 256.589844 L 26.140625 72.933594 C 26.140625 58.214844 38.003906 46.132812 52.945312 46.132812 L 322.054688 46.132812 C 336.773438 46.132812 348.859375 58.214844 348.859375 72.933594 L 348.859375 256.589844 C 348.859375 259.007812 346.878906 260.984375 344.464844 260.984375 Z M 34.929688 252.195312 L 340.070312 252.195312 L 340.070312 72.933594 C 340.070312 63.050781 331.941406 54.921875 322.054688 54.921875 L 52.945312 54.921875 C 42.839844 54.921875 34.929688 63.050781 34.929688 72.933594 Z M 34.929688 252.195312 " fill-opacity="1" fill-rule="evenodd"/><path fill="#ffffff" d="M 336.554688 328.867188 L 38.226562 328.867188 C 17.136719 328.867188 0 311.511719 0 290.421875 L 0 256.589844 C 0 254.175781 1.976562 252.195312 4.394531 252.195312 L 370.605469 252.195312 C 373.023438 252.195312 375 254.175781 375 256.589844 L 375 290.421875 C 375 311.511719 357.644531 328.867188 336.554688 328.867188 Z M 8.789062 260.984375 L 8.789062 290.421875 C 8.789062 306.679688 21.96875 320.078125 38.226562 320.078125 L 336.554688 320.078125 C 352.8125 320.078125 366.210938 306.679688 366.210938 290.421875 L 366.210938 260.984375 Z M 8.789062 260.984375 " fill-opacity="1" fill-rule="evenodd"/><path fill="#ffffff" d="M 226.054688 296.351562 L 148.726562 296.351562 C 147.40625 296.351562 146.089844 295.695312 145.210938 294.597656 L 119.949219 259.007812 C 119.070312 257.6875 118.847656 255.929688 119.726562 254.394531 C 120.386719 253.074219 121.925781 252.195312 123.460938 252.195312 L 251.316406 252.195312 C 253.074219 252.195312 254.613281 253.074219 255.273438 254.394531 C 255.929688 255.929688 255.929688 257.6875 255.050781 259.007812 L 229.789062 294.597656 C 228.910156 295.695312 227.59375 296.351562 226.054688 296.351562 Z M 151.140625 287.566406 L 223.859375 287.566406 L 242.96875 260.984375 L 132.03125 260.984375 Z M 151.140625 287.566406 " fill-opacity="1" fill-rule="evenodd"/><path fill="#ffffff" d="M 80.84375 294.816406 L 35.808594 294.816406 C 33.390625 294.816406 31.414062 292.839844 31.414062 290.421875 C 31.414062 288.003906 33.390625 286.027344 35.808594 286.027344 L 80.84375 286.027344 C 83.261719 286.027344 85.238281 288.003906 85.238281 290.421875 C 85.238281 292.839844 83.261719 294.816406 80.84375 294.816406 Z M 80.84375 294.816406 " fill-opacity="1" fill-rule="evenodd"/><path fill="#ffffff" d="M 339.191406 294.816406 L 294.15625 294.816406 C 291.738281 294.816406 289.761719 292.839844 289.761719 290.421875 C 289.761719 288.003906 291.738281 286.027344 294.15625 286.027344 L 339.191406 286.027344 C 341.609375 286.027344 343.585938 288.003906 343.585938 290.421875 C 343.585938 292.839844 341.609375 294.816406 339.191406 294.816406 Z M 339.191406 294.816406 " fill-opacity="1" fill-rule="evenodd"/></svg>