<svg xmlns="http://www.w3.org/2000/svg" xmlns:xlink="http://www.w3.org/1999/xlink" width="2000" zoomAndPan="magnify" viewBox="0 0 1500 374.999991" height="500" preserveAspectRatio="xMidYMid meet" version="1.2"><defs><clipPath id="d4967aedd4"><path d="M 39.734375 151 L 113 151 L 113 224 L 39.734375 224 Z M 39.734375 151 "/></clipPath><clipPath id="529091ecc0"><path d="M 493 38 L 1460.234375 38 L 1460.234375 260 L 493 260 Z M 493 38 "/></clipPath></defs><g id="720be936da"><g clip-rule="nonzero" clip-path="url(#d4967aedd4)"><path style=" stroke:none;fill-rule:nonzero;fill:#ff6309;fill-opacity:1;" d="M 112.597656 187.527344 C 112.597656 188.722656 112.539062 189.910156 112.421875 191.097656 C 112.304688 192.285156 112.128906 193.464844 111.894531 194.636719 C 111.664062 195.804688 111.375 196.960938 111.027344 198.105469 C 110.679688 199.246094 110.28125 200.367188 109.824219 201.46875 C 109.367188 202.574219 108.855469 203.648438 108.292969 204.703125 C 107.730469 205.753906 107.121094 206.777344 106.457031 207.769531 C 105.792969 208.761719 105.082031 209.71875 104.328125 210.640625 C 103.570312 211.5625 102.769531 212.445312 101.925781 213.289062 C 101.082031 214.132812 100.199219 214.933594 99.277344 215.691406 C 98.355469 216.445312 97.398438 217.15625 96.40625 217.820312 C 95.414062 218.484375 94.390625 219.09375 93.339844 219.65625 C 92.285156 220.21875 91.210938 220.730469 90.105469 221.1875 C 89.003906 221.644531 87.882812 222.042969 86.742188 222.390625 C 85.597656 222.738281 84.441406 223.027344 83.273438 223.257812 C 82.101562 223.492188 80.925781 223.667969 79.738281 223.785156 C 78.550781 223.902344 77.359375 223.960938 76.164062 223.960938 C 74.972656 223.960938 73.78125 223.902344 72.59375 223.785156 C 71.40625 223.667969 70.230469 223.492188 69.058594 223.257812 C 67.886719 223.027344 66.730469 222.738281 65.589844 222.390625 C 64.449219 222.042969 63.328125 221.644531 62.222656 221.1875 C 61.121094 220.730469 60.042969 220.21875 58.992188 219.65625 C 57.941406 219.09375 56.917969 218.484375 55.925781 217.820312 C 54.933594 217.15625 53.976562 216.445312 53.054688 215.691406 C 52.132812 214.933594 51.25 214.132812 50.40625 213.289062 C 49.5625 212.445312 48.761719 211.5625 48.003906 210.640625 C 47.246094 209.71875 46.539062 208.761719 45.875 207.769531 C 45.210938 206.777344 44.597656 205.753906 44.035156 204.703125 C 43.472656 203.648438 42.964844 202.574219 42.507812 201.46875 C 42.050781 200.367188 41.648438 199.246094 41.304688 198.105469 C 40.957031 196.960938 40.667969 195.804688 40.433594 194.636719 C 40.203125 193.464844 40.027344 192.285156 39.910156 191.097656 C 39.792969 189.910156 39.734375 188.722656 39.734375 187.527344 C 39.734375 186.335938 39.792969 185.144531 39.910156 183.957031 C 40.027344 182.769531 40.203125 181.589844 40.433594 180.421875 C 40.667969 179.25 40.957031 178.09375 41.304688 176.953125 C 41.648438 175.8125 42.050781 174.6875 42.507812 173.585938 C 42.964844 172.484375 43.472656 171.40625 44.035156 170.355469 C 44.597656 169.300781 45.210938 168.28125 45.875 167.289062 C 46.539062 166.296875 47.246094 165.339844 48.003906 164.417969 C 48.761719 163.496094 49.5625 162.613281 50.40625 161.769531 C 51.25 160.925781 52.132812 160.125 53.054688 159.367188 C 53.976562 158.609375 54.933594 157.898438 55.925781 157.238281 C 56.917969 156.574219 57.941406 155.960938 58.992188 155.398438 C 60.042969 154.835938 61.121094 154.328125 62.222656 153.871094 C 63.328125 153.414062 64.449219 153.011719 65.589844 152.667969 C 66.730469 152.320312 67.886719 152.03125 69.058594 151.796875 C 70.230469 151.566406 71.40625 151.390625 72.59375 151.273438 C 73.78125 151.15625 74.972656 151.097656 76.164062 151.097656 C 77.359375 151.097656 78.550781 151.15625 79.738281 151.273438 C 80.925781 151.390625 82.101562 151.566406 83.273438 151.796875 C 84.441406 152.03125 85.597656 152.320312 86.742188 152.667969 C 87.882812 153.011719 89.003906 153.414062 90.105469 153.871094 C 91.210938 154.328125 92.285156 154.835938 93.339844 155.398438 C 94.390625 155.960938 95.414062 156.574219 96.40625 157.238281 C 97.398438 157.898438 98.355469 158.609375 99.277344 159.367188 C 100.199219 160.125 101.082031 160.925781 101.925781 161.769531 C 102.769531 162.613281 103.570312 163.496094 104.328125 164.417969 C 105.082031 165.339844 105.792969 166.296875 106.457031 167.289062 C 107.121094 168.28125 107.730469 169.300781 108.292969 170.355469 C 108.855469 171.40625 109.367188 172.484375 109.824219 173.585938 C 110.28125 174.6875 110.679688 175.8125 111.027344 176.953125 C 111.375 178.09375 111.664062 179.25 111.894531 180.421875 C 112.128906 181.589844 112.304688 182.769531 112.421875 183.957031 C 112.539062 185.144531 112.597656 186.335938 112.597656 187.527344 Z M 112.597656 187.527344 "/></g><path style=" stroke:none;fill-rule:nonzero;fill:#ffb515;fill-opacity:1;" d="M 373.828125 338.3125 C 373.828125 339.507812 373.769531 340.695312 373.652344 341.882812 C 373.535156 343.070312 373.363281 344.25 373.128906 345.421875 C 372.894531 346.589844 372.605469 347.746094 372.261719 348.890625 C 371.914062 350.03125 371.511719 351.152344 371.054688 352.253906 C 370.597656 353.359375 370.089844 354.433594 369.527344 355.488281 C 368.964844 356.539062 368.351562 357.5625 367.6875 358.554688 C 367.027344 359.546875 366.316406 360.503906 365.558594 361.425781 C 364.800781 362.347656 364 363.230469 363.15625 364.074219 C 362.3125 364.917969 361.429688 365.71875 360.507812 366.476562 C 359.585938 367.234375 358.628906 367.945312 357.636719 368.605469 C 356.644531 369.269531 355.621094 369.882812 354.570312 370.445312 C 353.519531 371.007812 352.441406 371.515625 351.339844 371.972656 C 350.234375 372.429688 349.113281 372.832031 347.972656 373.179688 C 346.828125 373.523438 345.675781 373.8125 344.503906 374.046875 C 343.332031 374.28125 342.15625 374.453125 340.96875 374.570312 C 339.78125 374.6875 338.589844 374.746094 337.394531 374.746094 C 336.203125 374.746094 335.011719 374.6875 333.824219 374.570312 C 332.636719 374.453125 331.457031 374.28125 330.289062 374.046875 C 329.117188 373.8125 327.960938 373.523438 326.820312 373.179688 C 325.679688 372.832031 324.554688 372.429688 323.453125 371.972656 C 322.351562 371.515625 321.273438 371.007812 320.222656 370.445312 C 319.167969 369.882812 318.148438 369.269531 317.15625 368.605469 C 316.164062 367.945312 315.207031 367.234375 314.28125 366.476562 C 313.359375 365.71875 312.476562 364.917969 311.632812 364.074219 C 310.789062 363.230469 309.988281 362.347656 309.234375 361.425781 C 308.476562 360.503906 307.765625 359.546875 307.101562 358.554688 C 306.441406 357.5625 305.828125 356.539062 305.265625 355.488281 C 304.703125 354.433594 304.191406 353.359375 303.734375 352.253906 C 303.28125 351.152344 302.878906 350.03125 302.53125 348.890625 C 302.183594 347.746094 301.894531 346.589844 301.664062 345.421875 C 301.429688 344.25 301.253906 343.070312 301.136719 341.882812 C 301.019531 340.695312 300.960938 339.507812 300.960938 338.3125 C 300.960938 337.121094 301.019531 335.929688 301.136719 334.742188 C 301.253906 333.554688 301.429688 332.375 301.664062 331.207031 C 301.894531 330.035156 302.183594 328.878906 302.53125 327.738281 C 302.878906 326.59375 303.28125 325.472656 303.734375 324.371094 C 304.191406 323.269531 304.703125 322.191406 305.265625 321.136719 C 305.828125 320.085938 306.441406 319.0625 307.101562 318.070312 C 307.765625 317.078125 308.476562 316.121094 309.234375 315.199219 C 309.988281 314.277344 310.789062 313.394531 311.632812 312.550781 C 312.476562 311.707031 313.359375 310.90625 314.28125 310.148438 C 315.207031 309.390625 316.164062 308.683594 317.15625 308.019531 C 318.148438 307.355469 319.167969 306.742188 320.222656 306.179688 C 321.273438 305.617188 322.351562 305.109375 323.453125 304.652344 C 324.554688 304.195312 325.679688 303.792969 326.820312 303.449219 C 327.960938 303.101562 329.117188 302.8125 330.289062 302.578125 C 331.457031 302.347656 332.636719 302.171875 333.824219 302.054688 C 335.011719 301.9375 336.203125 301.878906 337.394531 301.878906 C 338.589844 301.878906 339.78125 301.9375 340.96875 302.054688 C 342.15625 302.171875 343.332031 302.347656 344.503906 302.578125 C 345.675781 302.8125 346.828125 303.101562 347.972656 303.449219 C 349.113281 303.792969 350.234375 304.195312 351.339844 304.652344 C 352.441406 305.109375 353.519531 305.617188 354.570312 306.179688 C 355.621094 306.742188 356.644531 307.355469 357.636719 308.019531 C 358.628906 308.683594 359.585938 309.390625 360.507812 310.148438 C 361.429688 310.90625 362.3125 311.707031 363.15625 312.550781 C 364 313.394531 364.800781 314.277344 365.558594 315.199219 C 366.316406 316.121094 367.027344 317.078125 367.6875 318.070312 C 368.351562 319.0625 368.964844 320.085938 369.527344 321.136719 C 370.089844 322.191406 370.597656 323.269531 371.054688 324.371094 C 371.511719 325.472656 371.914062 326.59375 372.261719 327.738281 C 372.605469 328.878906 372.894531 330.035156 373.128906 331.207031 C 373.363281 332.375 373.535156 333.554688 373.652344 334.742188 C 373.769531 335.929688 373.828125 337.121094 373.828125 338.3125 Z M 373.828125 338.3125 "/><path style=" stroke:none;fill-rule:nonzero;fill:#c90016;fill-opacity:1;" d="M 373.792969 36.683594 C 373.792969 37.878906 373.734375 39.066406 373.617188 40.253906 C 373.5 41.441406 373.328125 42.621094 373.09375 43.792969 C 372.863281 44.960938 372.570312 46.117188 372.226562 47.261719 C 371.878906 48.402344 371.476562 49.523438 371.019531 50.625 C 370.566406 51.726562 370.054688 52.804688 369.492188 53.859375 C 368.929688 54.910156 368.316406 55.933594 367.65625 56.925781 C 366.992188 57.917969 366.28125 58.875 365.523438 59.796875 C 364.769531 60.71875 363.96875 61.601562 363.125 62.445312 C 362.28125 63.289062 361.398438 64.089844 360.476562 64.847656 C 359.550781 65.601562 358.59375 66.3125 357.601562 66.976562 C 356.609375 67.640625 355.589844 68.25 354.535156 68.8125 C 353.484375 69.375 352.40625 69.886719 351.304688 70.34375 C 350.203125 70.800781 349.082031 71.199219 347.9375 71.546875 C 346.796875 71.894531 345.640625 72.183594 344.472656 72.414062 C 343.300781 72.648438 342.121094 72.824219 340.933594 72.941406 C 339.746094 73.058594 338.558594 73.117188 337.363281 73.117188 C 336.171875 73.117188 334.980469 73.058594 333.792969 72.941406 C 332.605469 72.824219 331.425781 72.648438 330.257812 72.414062 C 329.085938 72.183594 327.929688 71.894531 326.789062 71.546875 C 325.648438 71.199219 324.523438 70.800781 323.421875 70.34375 C 322.320312 69.886719 321.242188 69.375 320.191406 68.8125 C 319.136719 68.25 318.117188 67.640625 317.125 66.976562 C 316.132812 66.3125 315.175781 65.601562 314.253906 64.847656 C 313.328125 64.089844 312.445312 63.289062 311.601562 62.445312 C 310.757812 61.601562 309.960938 60.71875 309.203125 59.796875 C 308.445312 58.875 307.734375 57.917969 307.074219 56.925781 C 306.410156 55.933594 305.796875 54.910156 305.234375 53.859375 C 304.671875 52.804688 304.164062 51.726562 303.707031 50.625 C 303.25 49.523438 302.847656 48.402344 302.5 47.261719 C 302.15625 46.117188 301.867188 44.960938 301.632812 43.792969 C 301.398438 42.621094 301.226562 41.441406 301.109375 40.253906 C 300.992188 39.066406 300.933594 37.878906 300.933594 36.683594 C 300.933594 35.492188 300.992188 34.300781 301.109375 33.113281 C 301.226562 31.925781 301.398438 30.746094 301.632812 29.578125 C 301.867188 28.40625 302.15625 27.25 302.5 26.109375 C 302.847656 24.96875 303.25 23.84375 303.707031 22.742188 C 304.164062 21.640625 304.671875 20.5625 305.234375 19.511719 C 305.796875 18.457031 306.410156 17.4375 307.074219 16.445312 C 307.734375 15.453125 308.445312 14.496094 309.203125 13.574219 C 309.960938 12.648438 310.757812 11.765625 311.601562 10.921875 C 312.445312 10.078125 313.328125 9.28125 314.253906 8.523438 C 315.175781 7.765625 316.132812 7.054688 317.125 6.394531 C 318.117188 5.730469 319.136719 5.117188 320.191406 4.554688 C 321.242188 3.992188 322.320312 3.484375 323.421875 3.027344 C 324.523438 2.570312 325.648438 2.167969 326.789062 1.820312 C 327.929688 1.476562 329.085938 1.1875 330.257812 0.953125 C 331.425781 0.71875 332.605469 0.546875 333.792969 0.429688 C 334.980469 0.3125 336.171875 0.253906 337.363281 0.253906 C 338.558594 0.253906 339.746094 0.3125 340.933594 0.429688 C 342.121094 0.546875 343.300781 0.71875 344.472656 0.953125 C 345.640625 1.1875 346.796875 1.476562 347.9375 1.820312 C 349.082031 2.167969 350.203125 2.570312 351.304688 3.027344 C 352.40625 3.484375 353.484375 3.992188 354.535156 4.554688 C 355.589844 5.117188 356.609375 5.730469 357.601562 6.394531 C 358.59375 7.054688 359.550781 7.765625 360.476562 8.523438 C 361.398438 9.28125 362.28125 10.078125 363.125 10.921875 C 363.96875 11.765625 364.769531 12.648438 365.523438 13.574219 C 366.28125 14.496094 366.992188 15.453125 367.65625 16.445312 C 368.316406 17.4375 368.929688 18.457031 369.492188 19.511719 C 370.054688 20.5625 370.566406 21.640625 371.019531 22.742188 C 371.476562 23.84375 371.878906 24.96875 372.226562 26.109375 C 372.570312 27.25 372.863281 28.40625 373.09375 29.578125 C 373.328125 30.746094 373.5 31.925781 373.617188 33.113281 C 373.734375 34.300781 373.792969 35.492188 373.792969 36.683594 Z M 373.792969 36.683594 "/><path style=" stroke:none;fill-rule:nonzero;fill:#ff6309;fill-opacity:1;" d="M 250.3125 97.378906 C 295.675781 97.378906 333.3125 131.0625 339.546875 174.734375 L 401.960938 174.734375 C 399.121094 140.417969 384.902344 108.433594 361.113281 83.214844 C 345.878906 90.96875 327.148438 91.117188 311.234375 81.933594 C 295.3125 72.738281 286.074219 56.433594 285.1875 39.34375 C 273.714844 36.671875 262.089844 35.335938 250.308594 35.34375 C 227.535156 35.34375 205.523438 40.3125 185.507812 49.738281 L 216.765625 103.863281 C 222.097656 101.71875 227.582031 100.101562 233.226562 99.007812 C 238.871094 97.917969 244.566406 97.375 250.3125 97.378906 Z M 250.3125 97.378906 "/><path style=" stroke:none;fill-rule:nonzero;fill:#ffb515;fill-opacity:1;" d="M 160.171875 187.527344 C 160.171875 158.808594 173.671875 133.1875 194.652344 116.667969 L 163.410156 62.550781 C 155.996094 67.730469 149.089844 73.519531 142.695312 79.914062 C 124.613281 97.996094 111.648438 119.824219 104.515625 143.648438 C 118.890625 152.960938 128.410156 169.125 128.410156 187.527344 C 128.410156 205.925781 118.890625 222.09375 104.515625 231.402344 C 111.648438 255.226562 124.613281 277.054688 142.695312 295.140625 C 149.085938 301.53125 155.988281 307.320312 163.394531 312.5 L 194.640625 258.375 C 173.664062 241.859375 160.171875 216.238281 160.171875 187.527344 Z M 160.171875 187.527344 "/><path style=" stroke:none;fill-rule:nonzero;fill:#c90016;fill-opacity:1;" d="M 339.550781 200.28125 C 333.332031 243.964844 295.691406 277.671875 250.3125 277.671875 C 238.457031 277.671875 227.125 275.363281 216.75 271.183594 L 185.5 325.308594 C 205.511719 334.742188 227.53125 339.714844 250.3125 339.714844 C 262.210938 339.714844 273.90625 338.34375 285.214844 335.710938 C 286.085938 318.597656 295.324219 302.261719 311.261719 293.058594 C 327.175781 283.871094 345.917969 284.015625 361.152344 291.789062 C 384.917969 266.5625 399.128906 234.582031 401.953125 200.28125 Z M 339.550781 200.28125 "/><g clip-rule="nonzero" clip-path="url(#529091ecc0)"><path style=" stroke:none;fill-rule:nonzero;fill:#000000;fill-opacity:1;" d="M 629.058594 186.933594 L 629.058594 116.8125 C 629.058594 106.1875 620.558594 97.6875 609.933594 97.6875 C 599.3125 97.6875 590.8125 106.1875 590.8125 116.8125 L 590.8125 186.933594 C 590.8125 212.429688 580.1875 220.933594 561.0625 220.933594 C 541.945312 220.933594 531.320312 212.429688 531.320312 186.933594 L 531.320312 116.8125 C 531.320312 106.1875 522.820312 97.6875 512.195312 97.6875 C 501.574219 97.6875 493.070312 106.1875 493.070312 116.8125 L 493.070312 186.933594 C 493.070312 237.929688 522.820312 259.175781 561.0625 259.175781 C 599.3125 259.175781 629.058594 237.929688 629.058594 186.933594 M 807.542969 186.933594 C 807.542969 114.6875 777.800781 97.6875 739.554688 97.6875 C 720.429688 97.6875 709.804688 106.1875 709.804688 106.1875 L 709.804688 57.316406 C 709.804688 31.816406 671.558594 31.816406 671.558594 57.316406 L 671.558594 186.933594 C 671.558594 237.929688 701.308594 259.175781 739.554688 259.175781 C 777.800781 259.175781 807.542969 237.929688 807.542969 186.933594 M 709.800781 182.683594 C 709.800781 138.0625 731.046875 133.8125 739.550781 133.8125 C 752.300781 133.8125 769.292969 144.4375 769.292969 182.683594 C 769.292969 208.175781 758.671875 225.179688 739.550781 225.179688 C 720.425781 225.183594 709.800781 208.175781 709.800781 182.683594 M 1460.234375 186.933594 L 1460.234375 116.8125 C 1460.234375 106.1875 1451.734375 97.6875 1441.109375 97.6875 C 1430.488281 97.6875 1421.988281 106.1875 1421.988281 116.8125 L 1421.988281 186.933594 C 1421.988281 212.429688 1411.363281 220.933594 1392.242188 220.933594 C 1373.117188 220.933594 1362.496094 212.429688 1362.496094 186.933594 L 1362.496094 116.8125 C 1362.5 116.1875 1362.472656 115.558594 1362.414062 114.9375 C 1362.351562 114.3125 1362.261719 113.691406 1362.144531 113.078125 C 1362.023438 112.460938 1361.871094 111.851562 1361.691406 111.253906 C 1361.511719 110.652344 1361.300781 110.0625 1361.0625 109.480469 C 1360.824219 108.902344 1360.554688 108.335938 1360.261719 107.78125 C 1359.96875 107.226562 1359.644531 106.691406 1359.296875 106.167969 C 1358.949219 105.648438 1358.578125 105.144531 1358.179688 104.660156 C 1357.78125 104.175781 1357.363281 103.710938 1356.917969 103.265625 C 1356.476562 102.824219 1356.011719 102.402344 1355.527344 102.003906 C 1355.042969 101.609375 1354.539062 101.234375 1354.015625 100.886719 C 1353.496094 100.539062 1352.957031 100.21875 1352.402344 99.921875 C 1351.851562 99.628906 1351.28125 99.363281 1350.703125 99.121094 C 1350.125 98.882812 1349.535156 98.675781 1348.933594 98.492188 C 1348.332031 98.3125 1347.722656 98.164062 1347.109375 98.042969 C 1346.492188 97.921875 1345.875 97.832031 1345.25 97.773438 C 1344.625 97.714844 1344 97.683594 1343.371094 97.6875 C 1342.746094 97.683594 1342.121094 97.714844 1341.496094 97.773438 C 1340.871094 97.832031 1340.25 97.921875 1339.636719 98.042969 C 1339.019531 98.164062 1338.414062 98.3125 1337.8125 98.492188 C 1337.210938 98.671875 1336.621094 98.882812 1336.042969 99.121094 C 1335.460938 99.359375 1334.894531 99.628906 1334.339844 99.921875 C 1333.789062 100.21875 1333.25 100.539062 1332.730469 100.886719 C 1332.207031 101.234375 1331.703125 101.605469 1331.21875 102.003906 C 1330.734375 102.402344 1330.269531 102.824219 1329.828125 103.265625 C 1329.382812 103.710938 1328.964844 104.171875 1328.566406 104.660156 C 1328.167969 105.144531 1327.796875 105.648438 1327.449219 106.167969 C 1327.101562 106.691406 1326.777344 107.226562 1326.484375 107.78125 C 1326.1875 108.335938 1325.921875 108.902344 1325.683594 109.480469 C 1325.445312 110.0625 1325.234375 110.652344 1325.054688 111.253906 C 1324.875 111.851562 1324.722656 112.460938 1324.605469 113.074219 C 1324.484375 113.691406 1324.394531 114.3125 1324.335938 114.9375 C 1324.277344 115.558594 1324.246094 116.1875 1324.25 116.8125 L 1324.25 186.933594 C 1324.25 237.929688 1353.992188 259.175781 1392.242188 259.175781 C 1430.488281 259.175781 1460.234375 237.929688 1460.234375 186.933594 M 977.292969 186.933594 L 977.292969 116.816406 C 977.292969 106.191406 968.792969 97.691406 958.171875 97.691406 C 947.546875 97.691406 939.046875 106.191406 939.046875 116.816406 L 939.046875 186.933594 C 939.046875 212.429688 928.425781 220.929688 909.300781 220.929688 C 890.179688 220.929688 879.554688 212.429688 879.554688 186.933594 L 879.554688 116.816406 C 879.554688 106.191406 871.054688 97.691406 860.433594 97.691406 C 849.808594 97.691406 841.308594 106.191406 841.308594 116.816406 L 841.308594 186.933594 C 841.308594 237.929688 871.054688 259.175781 909.300781 259.175781 C 947.546875 259.175781 977.292969 237.929688 977.292969 186.933594 M 1201.730469 97.6875 C 1178.359375 97.6875 1178.359375 131.6875 1201.730469 131.6875 L 1208.105469 131.6875 L 1208.105469 205.632812 C 1208.105469 246.007812 1218.089844 259.175781 1252.515625 259.175781 C 1269.089844 259.175781 1293.308594 256.203125 1293.308594 239.203125 C 1293.308594 228.582031 1283.535156 225.8125 1280.773438 225.8125 C 1274.824219 225.8125 1268.65625 228.363281 1261.859375 228.363281 C 1249.960938 228.363281 1246.347656 222.417969 1246.347656 202.441406 L 1246.347656 131.6875 L 1263.347656 131.6875 C 1286.722656 131.6875 1286.722656 97.6875 1263.347656 97.6875 L 1246.347656 97.6875 L 1246.347656 57.316406 C 1246.347656 31.816406 1208.105469 31.816406 1208.105469 57.316406 L 1208.105469 97.6875 L 1201.730469 97.6875 M 1016.855469 169.933594 L 1016.855469 240.050781 C 1016.855469 240.679688 1016.882812 241.304688 1016.941406 241.929688 C 1017 242.554688 1017.089844 243.171875 1017.210938 243.789062 C 1017.332031 244.402344 1017.480469 245.011719 1017.664062 245.613281 C 1017.84375 246.214844 1018.050781 246.804688 1018.292969 247.382812 C 1018.53125 247.960938 1018.796875 248.53125 1019.089844 249.082031 C 1019.386719 249.636719 1019.707031 250.175781 1020.054688 250.695312 C 1020.402344 251.21875 1020.777344 251.722656 1021.171875 252.207031 C 1021.570312 252.691406 1021.992188 253.15625 1022.433594 253.597656 C 1022.878906 254.042969 1023.339844 254.460938 1023.828125 254.859375 C 1024.3125 255.257812 1024.816406 255.628906 1025.335938 255.976562 C 1025.859375 256.324219 1026.394531 256.648438 1026.949219 256.941406 C 1027.503906 257.238281 1028.070312 257.503906 1028.648438 257.742188 C 1029.230469 257.980469 1029.820312 258.191406 1030.417969 258.371094 C 1031.019531 258.550781 1031.628906 258.703125 1032.242188 258.824219 C 1032.859375 258.941406 1033.476562 259.03125 1034.101562 259.09375 C 1034.726562 259.152344 1035.351562 259.179688 1035.980469 259.175781 C 1036.605469 259.179688 1037.230469 259.152344 1037.855469 259.09375 C 1038.480469 259.03125 1039.101562 258.941406 1039.714844 258.824219 C 1040.332031 258.703125 1040.9375 258.550781 1041.539062 258.371094 C 1042.140625 258.191406 1042.730469 257.980469 1043.308594 257.742188 C 1043.890625 257.503906 1044.457031 257.238281 1045.007812 256.941406 C 1045.5625 256.648438 1046.101562 256.324219 1046.621094 255.976562 C 1047.144531 255.628906 1047.648438 255.257812 1048.132812 254.859375 C 1048.617188 254.460938 1049.082031 254.042969 1049.523438 253.597656 C 1049.96875 253.15625 1050.386719 252.691406 1050.785156 252.207031 C 1051.183594 251.722656 1051.554688 251.21875 1051.902344 250.695312 C 1052.25 250.175781 1052.574219 249.636719 1052.867188 249.082031 C 1053.160156 248.53125 1053.429688 247.960938 1053.667969 247.382812 C 1053.90625 246.804688 1054.117188 246.214844 1054.296875 245.613281 C 1054.476562 245.011719 1054.625 244.402344 1054.746094 243.789062 C 1054.867188 243.171875 1054.957031 242.554688 1055.015625 241.929688 C 1055.074219 241.304688 1055.105469 240.679688 1055.101562 240.050781 L 1055.101562 169.933594 C 1055.101562 144.4375 1065.726562 135.933594 1084.847656 135.933594 C 1103.972656 135.933594 1114.59375 144.4375 1114.59375 169.933594 L 1114.59375 240.050781 C 1114.59375 250.675781 1123.09375 259.175781 1133.71875 259.175781 C 1144.339844 259.175781 1152.839844 250.679688 1152.839844 240.050781 L 1152.839844 169.933594 C 1152.839844 118.9375 1123.09375 97.6875 1084.847656 97.6875 C 1046.601562 97.6875 1016.855469 118.9375 1016.855469 169.933594 "/></g></g></svg>