<svg xmlns="http://www.w3.org/2000/svg" xmlns:xlink="http://www.w3.org/1999/xlink" width="2000" zoomAndPan="magnify" viewBox="0 0 1500 374.999991" height="500" preserveAspectRatio="xMidYMid meet" version="1.0"><path fill="#ffffff" d="M 810.28125 113.480469 L 774.246094 113.480469 L 774.246094 196.773438 C 774.246094 218.140625 765.457031 235.21875 739.628906 235.21875 C 714.082031 235.496094 706.664062 217.910156 706.664062 195.660156 L 706.664062 113.550781 L 670.605469 113.550781 L 670.605469 204.726562 C 670.605469 231.097656 679.949219 268.597656 729.371094 268.980469 C 756.566406 269.257812 770.011719 256.070312 776.316406 244.253906 L 776.316406 264.292969 L 810.148438 264.292969 Z M 824.519531 264.199219 L 860.496094 264.199219 L 860.496094 181.007812 C 860.496094 159.871094 869.285156 142.851562 894.824219 142.5625 C 920.082031 142.5625 927.5 159.871094 927.5 182.378906 L 927.5 264.199219 L 963.476562 264.199219 L 963.476562 173.3125 C 963.476562 146.683594 954.132812 109.058594 904.992188 108.78125 C 878.082031 108.503906 864.605469 121.691406 858.042969 133.507812 L 858.320312 113.46875 L 824.53125 113.46875 L 824.53125 264.191406 Z M 977.199219 93.132812 L 1013.175781 93.132812 L 1013.175781 60.988281 L 977.199219 60.988281 Z M 977.199219 264.191406 L 1013.175781 264.191406 L 1013.175781 113.46875 L 977.199219 113.46875 Z M 1050.808594 264.210938 L 1086.785156 264.210938 L 1086.785156 141.203125 L 1112.589844 141.203125 L 1101.90625 113.46875 L 1086.875 113.46875 L 1086.875 60.988281 L 1050.820312 60.988281 L 1050.820312 113.488281 L 1025.835938 113.488281 L 1025.835938 141.222656 L 1050.820312 141.222656 Z M 1147.308594 316.925781 L 1185.738281 316.925781 L 1265.0625 113.480469 L 1226.617188 113.480469 L 1190.351562 213.6875 L 1153.632812 113.480469 L 1115.125 113.480469 L 1171.960938 258.472656 Z M 600.921875 148.929688 L 560.742188 -0.0820312 L 411.050781 39.871094 L 388.921875 78.769531 L 344.109375 78.460938 L 234.882812 187.53125 L 344.316406 296.578125 L 389.203125 296.238281 L 411.351562 335.140625 L 560.734375 375.070312 L 600.777344 226.082031 L 578.152344 187.5 Z M 507.171875 55.734375 L 441.546875 169.101562 L 310.296875 169.101562 L 392.921875 85.035156 Z M 441.546875 206.148438 L 507.171875 319.503906 L 392.816406 290.121094 L 310.195312 206.179688 L 441.445312 206.179688 Z M 473.484375 187.738281 L 539.230469 74.175781 L 570.964844 187.542969 L 539.230469 300.867188 Z M 473.484375 187.738281 " fill-opacity="1" fill-rule="nonzero"/></svg>