<svg xmlns="http://www.w3.org/2000/svg" xmlns:xlink="http://www.w3.org/1999/xlink" width="560" zoomAndPan="magnify" viewBox="0 0 420 299.999988" height="400" preserveAspectRatio="xMidYMid meet" version="1.0"><path fill="#000000" d="M 333.496094 262.332031 C 323.8125 273.371094 306.410156 273.371094 296.726562 262.332031 L 220.074219 175.277344 C 211.101562 165.09375 212.015625 149.417969 222.125 140.339844 C 232.207031 131.292969 247.902344 132.203125 256.875 142.417969 L 315.097656 208.5625 L 373.347656 142.417969 C 382.289062 132.203125 398.011719 131.292969 408.097656 140.339844 C 418.804688 150.269531 418.777344 165.148438 410.148438 175.277344 Z M 325.351562 255.191406 L 402 168.109375 C 408.066406 161.164062 406.785156 153.65625 400.863281 148.421875 C 395.136719 143.269531 386.589844 143.753906 381.492188 149.558594 C 360.527344 172.546875 339.820312 196.757812 319.199219 220.339844 C 317.035156 222.816406 313.1875 222.816406 311.023438 220.339844 C 290.542969 197.039062 268.753906 172.347656 248.929688 149.757812 C 243.832031 143.953125 235.085938 143.269531 229.359375 148.421875 C 223.636719 153.542969 223.121094 162.332031 228.222656 168.109375 L 304.871094 255.191406 C 310.398438 261.480469 319.824219 261.480469 325.351562 255.191406 Z M 325.351562 255.191406 " fill-opacity="1" fill-rule="nonzero"/><path fill="#000000" d="M 333.496094 158.492188 C 323.8125 169.53125 306.410156 169.53125 296.695312 158.492188 L 220.074219 71.4375 C 211.101562 61.25 212.015625 45.574219 222.125 36.5 C 232.207031 27.453125 247.902344 28.363281 256.875 38.546875 L 315.097656 104.722656 L 373.347656 38.546875 C 382.289062 28.363281 398.011719 27.453125 408.097656 36.5 C 418.804688 46.429688 418.777344 61.308594 410.148438 71.4375 Z M 325.351562 151.351562 L 402 64.265625 C 408.066406 57.324219 406.785156 49.8125 400.863281 44.550781 C 395.136719 39.429688 386.589844 39.914062 381.492188 45.71875 C 360.527344 68.703125 339.820312 92.886719 319.199219 116.5 C 317.035156 118.976562 313.1875 118.976562 311.023438 116.5 C 291.339844 94.082031 266.703125 66.230469 249.101562 46.058594 C 244 40.285156 235.085938 39.429688 229.359375 44.550781 C 223.636719 49.699219 223.121094 58.492188 228.222656 64.265625 L 304.871094 151.351562 C 310.398438 157.636719 319.824219 157.636719 325.351562 151.351562 Z M 325.351562 151.351562 " fill-opacity="1" fill-rule="nonzero"/><path fill="#000000" d="M 127.183594 265.089844 C 117.273438 276.421875 99.46875 276.421875 89.558594 265.089844 L 11.136719 175.734375 C 1.957031 165.28125 2.886719 149.191406 13.234375 139.878906 C 23.550781 130.59375 39.609375 131.527344 48.789062 142.007812 L 108.355469 209.902344 L 167.953125 142.007812 C 177.105469 131.527344 193.191406 130.59375 203.507812 139.878906 C 214.464844 150.070312 214.4375 165.339844 205.605469 175.734375 Z M 118.847656 257.761719 L 197.273438 168.378906 C 203.480469 161.253906 202.167969 153.542969 196.105469 148.171875 C 190.25 142.886719 181.503906 143.382812 176.289062 149.339844 C 154.839844 172.933594 133.652344 197.78125 112.554688 221.988281 C 110.339844 224.53125 106.402344 224.53125 104.1875 221.988281 C 83.234375 198.074219 60.941406 172.726562 40.65625 149.542969 C 35.441406 143.585938 26.492188 142.886719 20.636719 148.171875 C 14.777344 153.425781 14.253906 162.449219 19.46875 168.378906 L 97.894531 257.761719 C 103.546875 264.214844 113.195312 264.214844 118.847656 257.761719 Z M 118.847656 257.761719 " fill-opacity="1" fill-rule="nonzero"/><path fill="#000000" d="M 127.183594 158.507812 C 117.273438 169.835938 99.46875 169.835938 89.53125 158.507812 L 11.136719 69.152344 C 1.957031 58.699219 2.886719 42.609375 13.234375 33.292969 C 23.550781 24.007812 39.609375 24.945312 48.789062 35.398438 L 108.355469 103.316406 L 167.953125 35.398438 C 177.105469 24.945312 193.191406 24.007812 203.507812 33.292969 C 214.464844 43.484375 214.4375 58.757812 205.605469 69.152344 Z M 118.847656 151.179688 L 197.273438 61.792969 C 203.480469 54.667969 202.167969 46.960938 196.105469 41.558594 C 190.25 36.300781 181.503906 36.800781 176.289062 42.757812 C 154.839844 66.351562 133.652344 91.171875 112.554688 115.40625 C 110.339844 117.949219 106.402344 117.949219 104.1875 115.40625 C 84.050781 92.398438 58.84375 63.808594 40.832031 43.105469 C 35.617188 37.179688 26.492188 36.300781 20.636719 41.558594 C 14.777344 46.84375 14.253906 55.867188 19.46875 61.792969 L 97.894531 151.179688 C 103.546875 157.632812 113.195312 157.632812 118.847656 151.179688 Z M 118.847656 151.179688 " fill-opacity="1" fill-rule="nonzero"/></svg>