<svg xmlns="http://www.w3.org/2000/svg" xmlns:xlink="http://www.w3.org/1999/xlink" width="500" zoomAndPan="magnify" viewBox="0 0 375 374.999991" height="500" preserveAspectRatio="xMidYMid meet" version="1.0"><path fill="#000000" d="M 187.5 0 C 84.109375 0 0 84.109375 0 187.5 C 0 290.890625 84.109375 375 187.5 375 C 290.890625 375 375 290.890625 375 187.5 C 375 84.109375 290.890625 0 187.5 0 Z M 250 265.625 L 125 265.625 C 116.375 265.625 109.375 258.625 109.375 250 C 109.375 241.375 116.375 234.375 125 234.375 L 250 234.375 C 258.625 234.375 265.625 241.375 265.625 250 C 265.625 258.625 258.625 265.625 250 265.625 Z M 250 203.125 L 125 203.125 C 116.375 203.125 109.375 196.125 109.375 187.5 C 109.375 178.875 116.375 171.875 125 171.875 L 250 171.875 C 258.625 171.875 265.625 178.875 265.625 187.5 C 265.625 196.125 258.625 203.125 250 203.125 Z M 250 140.625 L 125 140.625 C 116.375 140.625 109.375 133.625 109.375 125 C 109.375 116.375 116.375 109.375 125 109.375 L 250 109.375 C 258.625 109.375 265.625 116.375 265.625 125 C 265.625 133.625 258.625 140.625 250 140.625 Z M 250 140.625 " fill-opacity="1" fill-rule="nonzero"/></svg>