<svg xmlns="http://www.w3.org/2000/svg" xmlns:xlink="http://www.w3.org/1999/xlink" width="500" zoomAndPan="magnify" viewBox="0 0 375 374.999991" height="500" preserveAspectRatio="xMidYMid meet" version="1.0"><defs><clipPath id="454c3fef7b"><path d="M 0 88.796875 L 375 88.796875 L 375 280.796875 L 0 280.796875 Z M 0 88.796875 " clip-rule="nonzero"/></clipPath></defs><g clip-path="url(#454c3fef7b)"><path fill="#fafafa" d="M 438.382812 -42.878906 C 438.382812 -52.785156 430.367188 -60.800781 420.460938 -60.800781 C 342.410156 -60.800781 32.582031 -60.800781 -45.46875 -60.800781 C -55.375 -60.800781 -63.390625 -52.785156 -63.390625 -42.878906 C -63.390625 24.671875 -63.390625 263.449219 -63.390625 331 C -63.390625 340.90625 -55.375 348.921875 -45.46875 348.921875 C 32.582031 348.921875 342.410156 348.921875 420.460938 348.921875 C 430.367188 348.921875 438.382812 340.90625 438.382812 331 C 438.382812 263.449219 438.382812 24.671875 438.382812 -42.878906 " fill-opacity="1" fill-rule="evenodd"/></g><path fill="#ffffff" d="M 187.496094 90.789062 L 17.742188 90.789062 C 7.871094 90.789062 -0.179688 98.804688 -0.179688 108.710938 L -0.179688 260.542969 C -0.179688 270.414062 7.871094 278.464844 17.742188 278.464844 L 187.496094 278.464844 L 187.496094 90.789062 " fill-opacity="1" fill-rule="evenodd"/><path fill="#000000" d="M 375.171875 108.710938 C 375.171875 98.804688 367.121094 90.789062 357.25 90.789062 L 187.496094 90.789062 L 187.496094 278.464844 L 357.25 278.464844 C 367.121094 278.464844 375.171875 270.414062 375.171875 260.542969 L 375.171875 108.710938 " fill-opacity="1" fill-rule="evenodd"/><path fill="#000000" d="M 129.324219 184.625 C 129.324219 164.921875 113.363281 148.925781 93.65625 148.925781 C 73.953125 148.925781 57.992188 164.921875 57.992188 184.625 C 57.992188 204.332031 73.953125 220.292969 93.65625 220.292969 C 113.363281 220.292969 129.324219 204.332031 129.324219 184.625 " fill-opacity="1" fill-rule="nonzero"/><path fill="#ffffff" d="M 281.332031 133.28125 C 252.980469 133.28125 229.988281 156.277344 229.988281 184.625 C 229.988281 212.976562 252.980469 235.972656 281.332031 235.972656 C 285.359375 235.972656 289.277344 235.484375 293.023438 234.574219 C 294.773438 234.1875 296.070312 232.789062 296.347656 231.039062 C 296.664062 229.289062 295.894531 227.539062 294.421875 226.558594 C 281.15625 217.351562 272.476562 202.023438 272.476562 184.625 C 272.476562 167.230469 281.15625 151.902344 294.386719 142.625 C 295.859375 141.679688 296.628906 139.964844 296.3125 138.214844 C 296.035156 136.5 294.738281 135.136719 293.023438 134.714844 C 289.277344 133.769531 285.359375 133.28125 281.332031 133.28125 " fill-opacity="1" fill-rule="nonzero"/><path fill="#000000" d="M 102.617188 128.207031 L 102.617188 121.066406 C 102.617188 116.09375 98.628906 112.105469 93.65625 112.105469 C 88.722656 112.105469 84.699219 116.09375 84.699219 121.066406 L 84.699219 128.207031 C 84.699219 133.140625 88.722656 137.164062 93.65625 137.164062 C 98.628906 137.164062 102.617188 133.140625 102.617188 128.207031 " fill-opacity="1" fill-rule="evenodd"/><path fill="#000000" d="M 102.617188 248.1875 L 102.617188 241.046875 C 102.617188 236.113281 98.628906 232.089844 93.65625 232.089844 C 88.722656 232.089844 84.699219 236.113281 84.699219 241.046875 L 84.699219 248.1875 C 84.699219 253.125 88.722656 257.148438 93.65625 257.148438 C 98.628906 257.148438 102.617188 253.125 102.617188 248.1875 " fill-opacity="1" fill-rule="evenodd"/><path fill="#000000" d="M 150.078125 193.585938 L 157.21875 193.585938 C 162.15625 193.585938 166.179688 189.5625 166.179688 184.625 C 166.179688 179.65625 162.15625 175.667969 157.21875 175.667969 L 150.078125 175.667969 C 145.144531 175.667969 141.121094 179.65625 141.121094 184.625 C 141.121094 189.5625 145.144531 193.585938 150.078125 193.585938 " fill-opacity="1" fill-rule="evenodd"/><path fill="#000000" d="M 30.097656 193.585938 L 37.238281 193.585938 C 42.171875 193.585938 46.195312 189.5625 46.195312 184.625 C 46.195312 179.65625 42.171875 175.667969 37.238281 175.667969 L 30.097656 175.667969 C 25.160156 175.667969 21.136719 179.65625 21.136719 184.625 C 21.136719 189.5625 25.160156 193.585938 30.097656 193.585938 " fill-opacity="1" fill-rule="evenodd"/><path fill="#000000" d="M 139.894531 151.0625 L 144.933594 146.019531 C 148.433594 142.519531 148.433594 136.851562 144.933594 133.351562 C 141.433594 129.851562 135.765625 129.851562 132.265625 133.351562 L 127.222656 138.390625 C 123.722656 141.890625 123.722656 147.5625 127.222656 151.0625 C 130.722656 154.5625 136.394531 154.5625 139.894531 151.0625 " fill-opacity="1" fill-rule="evenodd"/><path fill="#000000" d="M 55.050781 235.902344 L 60.09375 230.863281 C 63.59375 227.363281 63.59375 221.691406 60.09375 218.191406 C 56.59375 214.691406 50.921875 214.691406 47.421875 218.191406 L 42.382812 223.234375 C 38.882812 226.734375 38.882812 232.402344 42.382812 235.902344 C 45.882812 239.402344 51.550781 239.402344 55.050781 235.902344 " fill-opacity="1" fill-rule="evenodd"/><path fill="#000000" d="M 127.222656 230.863281 L 132.265625 235.902344 C 135.765625 239.402344 141.433594 239.402344 144.933594 235.902344 C 148.433594 232.402344 148.433594 226.734375 144.933594 223.234375 L 139.894531 218.191406 C 136.394531 214.691406 130.722656 214.691406 127.222656 218.191406 C 123.722656 221.691406 123.722656 227.363281 127.222656 230.863281 " fill-opacity="1" fill-rule="evenodd"/><path fill="#000000" d="M 42.382812 146.019531 L 47.421875 151.0625 C 50.921875 154.5625 56.59375 154.5625 60.09375 151.0625 C 63.59375 147.5625 63.59375 141.890625 60.09375 138.390625 L 55.050781 133.351562 C 51.550781 129.851562 45.882812 129.851562 42.382812 133.351562 C 38.882812 136.851562 38.882812 142.519531 42.382812 146.019531 " fill-opacity="1" fill-rule="evenodd"/></svg>