<svg xmlns="http://www.w3.org/2000/svg" xmlns:xlink="http://www.w3.org/1999/xlink" width="500" zoomAndPan="magnify" viewBox="0 0 375 374.999991" height="500" preserveAspectRatio="xMidYMid meet" version="1.0"><path fill="#000000" d="M 187.515625 0 C 83.953125 0 0 83.953125 0 187.515625 C 0 291.078125 83.953125 375.03125 187.515625 375.03125 C 291.078125 375.03125 375.03125 291.078125 375.03125 187.515625 C 375.03125 83.953125 291.078125 0 187.515625 0 Z M 242.890625 263.652344 C 242.890625 271.78125 236.285156 278.378906 228.140625 278.378906 L 104.234375 278.378906 C 96.089844 278.378906 89.484375 271.789062 89.484375 263.652344 L 89.484375 111.371094 C 89.484375 103.242188 96.089844 96.640625 104.234375 96.640625 L 228.152344 96.640625 C 236.300781 96.640625 242.898438 103.242188 242.898438 111.371094 L 242.898438 145.082031 L 223.25 145.082031 L 223.25 123.285156 C 223.25 119.375 220.082031 116.207031 216.175781 116.207031 L 116.199219 116.207031 C 112.289062 116.207031 109.121094 119.375 109.121094 123.285156 L 109.121094 251.6875 C 109.121094 255.59375 112.289062 258.761719 116.199219 258.761719 L 216.175781 258.761719 C 220.082031 258.761719 223.25 255.59375 223.25 251.6875 L 223.25 229.886719 L 242.898438 229.886719 L 242.898438 263.660156 Z M 331.246094 192.261719 L 263.949219 243.234375 C 262.910156 244.019531 261.640625 244.445312 260.332031 244.445312 C 257.023438 244.445312 254.339844 241.761719 254.339844 238.453125 L 254.339844 214.089844 L 158.257812 214.089844 C 154.878906 214.089844 152.144531 211.0625 152.144531 207.324219 L 152.144531 167.585938 C 152.144531 163.847656 154.878906 160.820312 158.257812 160.820312 L 254.339844 160.820312 L 254.339844 136.519531 C 254.339844 135.21875 254.765625 133.949219 255.550781 132.910156 C 256.550781 131.585938 257.984375 130.800781 259.503906 130.59375 C 261.019531 130.382812 262.621094 130.75 263.941406 131.75 L 331.238281 182.71875 C 331.679688 183.046875 332.066406 183.441406 332.394531 183.875 C 334.390625 186.511719 333.875 190.273438 331.238281 192.269531 Z M 331.246094 192.261719 " fill-opacity="1" fill-rule="nonzero"/></svg>