<svg xmlns="http://www.w3.org/2000/svg" xmlns:xlink="http://www.w3.org/1999/xlink" width="560" zoomAndPan="magnify" viewBox="0 0 420 299.999988" height="400" preserveAspectRatio="xMidYMid meet" version="1.0"><path fill="#000000" d="M 86.503906 38.191406 C 96.1875 27.152344 113.589844 27.152344 123.273438 38.191406 L 199.925781 125.246094 C 208.898438 135.429688 207.984375 151.105469 197.875 160.183594 C 187.792969 169.230469 172.097656 168.320312 163.125 158.105469 L 104.902344 91.960938 L 46.652344 158.105469 C 37.710938 168.320312 21.988281 169.230469 11.902344 160.183594 C 1.195312 150.253906 1.222656 135.375 9.851562 125.246094 Z M 94.648438 45.332031 L 18 132.414062 C 11.933594 139.359375 13.214844 146.867188 19.136719 152.101562 C 24.863281 157.253906 33.410156 156.769531 38.507812 150.964844 C 59.472656 127.976562 80.179688 103.765625 100.800781 80.183594 C 102.964844 77.707031 106.8125 77.707031 108.976562 80.183594 C 129.457031 103.484375 151.246094 128.175781 171.070312 150.765625 C 176.167969 156.570312 184.914062 157.253906 190.640625 152.101562 C 196.363281 146.980469 196.878906 138.191406 191.777344 132.414062 L 115.128906 45.332031 C 109.601562 39.042969 100.175781 39.042969 94.648438 45.332031 Z M 94.648438 45.332031 " fill-opacity="1" fill-rule="nonzero"/><path fill="#000000" d="M 86.503906 142.03125 C 96.1875 130.992188 113.589844 130.992188 123.304688 142.03125 L 199.925781 229.085938 C 208.898438 239.273438 207.984375 254.949219 197.875 264.023438 C 187.792969 273.070312 172.097656 272.160156 163.125 261.976562 L 104.902344 195.800781 L 46.652344 261.976562 C 37.710938 272.160156 21.988281 273.070312 11.902344 264.023438 C 1.195312 254.09375 1.222656 239.214844 9.851562 229.085938 Z M 94.648438 149.171875 L 18 236.257812 C 11.933594 243.199219 13.214844 250.710938 19.136719 255.972656 C 24.863281 261.09375 33.410156 260.609375 38.507812 254.804688 C 59.472656 231.820312 80.179688 207.636719 100.800781 184.023438 C 102.964844 181.546875 106.8125 181.546875 108.976562 184.023438 C 128.660156 206.441406 153.296875 234.292969 170.898438 254.464844 C 176 260.238281 184.914062 261.09375 190.640625 255.972656 C 196.363281 250.824219 196.878906 242.03125 191.777344 236.257812 L 115.128906 149.171875 C 109.601562 142.886719 100.175781 142.886719 94.648438 149.171875 Z M 94.648438 149.171875 " fill-opacity="1" fill-rule="nonzero"/><path fill="#000000" d="M 292.816406 35.433594 C 302.726562 24.101562 320.53125 24.101562 330.441406 35.433594 L 408.863281 124.789062 C 418.042969 135.242188 417.113281 151.332031 406.765625 160.644531 C 396.449219 169.929688 380.390625 168.996094 371.210938 158.515625 L 311.644531 90.621094 L 252.046875 158.515625 C 242.894531 168.996094 226.808594 169.929688 216.492188 160.644531 C 205.535156 150.453125 205.5625 135.183594 214.394531 124.789062 Z M 301.152344 42.761719 L 222.726562 132.144531 C 216.519531 139.269531 217.832031 146.980469 223.894531 152.351562 C 229.75 157.636719 238.496094 157.140625 243.710938 151.183594 C 265.160156 127.589844 286.347656 102.742188 307.445312 78.535156 C 309.660156 75.992188 313.597656 75.992188 315.8125 78.535156 C 336.765625 102.449219 359.058594 127.792969 379.34375 150.980469 C 384.558594 156.9375 393.507812 157.636719 399.363281 152.351562 C 405.222656 147.097656 405.746094 138.074219 400.53125 132.144531 L 322.105469 42.761719 C 316.453125 36.308594 306.804688 36.308594 301.152344 42.761719 Z M 301.152344 42.761719 " fill-opacity="1" fill-rule="nonzero"/><path fill="#000000" d="M 292.816406 142.015625 C 302.726562 130.6875 320.53125 130.6875 330.46875 142.015625 L 408.863281 231.371094 C 418.042969 241.824219 417.113281 257.914062 406.765625 267.230469 C 396.449219 276.515625 380.390625 275.578125 371.210938 265.125 L 311.644531 197.207031 L 252.046875 265.125 C 242.894531 275.578125 226.808594 276.515625 216.492188 267.230469 C 205.535156 257.039062 205.5625 241.765625 214.394531 231.371094 Z M 301.152344 149.34375 L 222.726562 238.730469 C 216.519531 245.855469 217.832031 253.5625 223.894531 258.964844 C 229.75 264.222656 238.496094 263.722656 243.710938 257.765625 C 265.160156 234.171875 286.347656 209.351562 307.445312 185.117188 C 309.660156 182.574219 313.597656 182.574219 315.8125 185.117188 C 335.949219 208.125 361.15625 236.714844 379.167969 257.417969 C 384.382812 263.34375 393.507812 264.222656 399.363281 258.964844 C 405.222656 253.679688 405.746094 244.65625 400.53125 238.730469 L 322.105469 149.34375 C 316.453125 142.890625 306.804688 142.890625 301.152344 149.34375 Z M 301.152344 149.34375 " fill-opacity="1" fill-rule="nonzero"/></svg>