<svg xmlns="http://www.w3.org/2000/svg" xmlns:xlink="http://www.w3.org/1999/xlink" width="500" zoomAndPan="magnify" viewBox="0 0 375 374.999991" height="500" preserveAspectRatio="xMidYMid meet" version="1.0"><defs><g/><clipPath id="63533820ef"><path d="M 14.378906 157.644531 L 364.21875 157.644531 L 364.21875 198.234375 L 14.378906 198.234375 Z M 14.378906 157.644531 " clip-rule="nonzero"/></clipPath></defs><g fill="#000000" fill-opacity="1"><g transform="translate(181.129167, 252.727177)"><g><path d="M 6.234375 -3.703125 L 6.234375 0 L 49.671875 0 L 49.671875 -3.703125 L 29.796875 -3.703125 L 29.796875 -144.84375 L 119.203125 1.84375 L 127.0625 1.84375 L 127.0625 -151.546875 L 146.921875 -151.546875 L 146.921875 -155.25 L 103.5 -155.25 L 103.5 -151.546875 L 123.359375 -151.546875 L 123.359375 -38.125 L 51.75 -155.25 L 6.234375 -155.25 L 6.234375 -151.546875 L 26.109375 -151.546875 L 26.109375 -3.703125 Z M 6.234375 -3.703125 "/></g></g></g><g fill="#000000" fill-opacity="1"><g transform="translate(34.498655, 256.140685)"><g><path d="M 68.296875 -153.953125 L 68.296875 -157.703125 L 7.984375 -157.703125 L 7.984375 -153.953125 L 26.75 -153.953125 L 26.75 -3.75 L 7.984375 -3.75 L 7.984375 0 L 68.296875 0 L 68.296875 -3.75 L 49.515625 -3.75 L 49.515625 -153.953125 Z M 118.75 -153.953125 L 51.15625 -86.359375 L 109.125 -3.75 L 88.71875 -3.75 L 88.71875 0 L 155.125 0 L 155.125 -3.75 L 136.359375 -3.75 L 69.9375 -99.03125 L 124.859375 -153.953125 L 144.796875 -153.953125 L 144.796875 -157.703125 L 98.5625 -157.703125 L 98.5625 -153.953125 Z M 118.75 -153.953125 "/></g></g></g><g clip-path="url(#63533820ef)"><path fill="#fafafa" d="M 14.378906 157.644531 L 364.296875 157.644531 L 364.296875 198.234375 L 14.378906 198.234375 Z M 14.378906 157.644531 " fill-opacity="1" fill-rule="nonzero"/></g><g fill="#000000" fill-opacity="1"><g transform="translate(38.483853, 189.131468)"><g><path d="M 8.25 -8.1875 L 4.6875 -4.578125 L 4.6875 0 L 2.84375 0 L 2.84375 -17.4375 L 4.6875 -17.4375 L 4.6875 -6.90625 L 14.921875 -17.4375 L 17.03125 -17.4375 L 9.484375 -9.53125 L 17.5625 0 L 15.359375 0 Z M 8.25 -8.1875 "/></g></g></g><g fill="#000000" fill-opacity="1"><g transform="translate(64.807427, 189.131468)"><g><path d="M 15.171875 -1.59375 L 15.171875 0 L 2.84375 0 L 2.84375 -17.4375 L 14.796875 -17.4375 L 14.796875 -15.84375 L 4.6875 -15.84375 L 4.6875 -9.640625 L 13.703125 -9.640625 L 13.703125 -8.0625 L 4.6875 -8.0625 L 4.6875 -1.59375 Z M 15.171875 -1.59375 "/></g></g></g><g fill="#000000" fill-opacity="1"><g transform="translate(90.085299, 189.131468)"><g><path d="M 17.328125 -17.4375 L 9.609375 0 L 7.796875 0 L 0.078125 -17.4375 L 2.0625 -17.4375 L 8.734375 -2.296875 L 15.46875 -17.4375 Z M 17.328125 -17.4375 "/></g></g></g><g fill="#000000" fill-opacity="1"><g transform="translate(116.085214, 189.131468)"><g><path d="M 2.84375 -17.4375 L 4.6875 -17.4375 L 4.6875 0 L 2.84375 0 Z M 2.84375 -17.4375 "/></g></g></g><g fill="#000000" fill-opacity="1"><g transform="translate(132.225579, 189.131468)"><g><path d="M 17.40625 -17.4375 L 17.40625 0 L 15.890625 0 L 4.6875 -14.140625 L 4.6875 0 L 2.84375 0 L 2.84375 -17.4375 L 4.359375 -17.4375 L 15.59375 -3.28125 L 15.59375 -17.4375 Z M 17.40625 -17.4375 "/></g></g></g><g fill="#000000" fill-opacity="1"><g transform="translate(161.088738, 189.131468)"><g/></g></g><g fill="#000000" fill-opacity="1"><g transform="translate(176.233197, 189.131468)"><g><path d="M 17.40625 -17.4375 L 17.40625 0 L 15.890625 0 L 4.6875 -14.140625 L 4.6875 0 L 2.84375 0 L 2.84375 -17.4375 L 4.359375 -17.4375 L 15.59375 -3.28125 L 15.59375 -17.4375 Z M 17.40625 -17.4375 "/></g></g></g><g fill="#000000" fill-opacity="1"><g transform="translate(205.096364, 189.131468)"><g><path d="M 15.125 -8.71875 L 16.890625 -8.71875 L 16.890625 -2.0625 C 16.078125 -1.351562 15.113281 -0.804688 14 -0.421875 C 12.882812 -0.0351562 11.710938 0.15625 10.484375 0.15625 C 8.742188 0.15625 7.175781 -0.222656 5.78125 -0.984375 C 4.382812 -1.753906 3.285156 -2.816406 2.484375 -4.171875 C 1.691406 -5.523438 1.296875 -7.039062 1.296875 -8.71875 C 1.296875 -10.394531 1.691406 -11.910156 2.484375 -13.265625 C 3.285156 -14.617188 4.382812 -15.675781 5.78125 -16.4375 C 7.175781 -17.195312 8.753906 -17.578125 10.515625 -17.578125 C 11.835938 -17.578125 13.054688 -17.363281 14.171875 -16.9375 C 15.285156 -16.519531 16.222656 -15.894531 16.984375 -15.0625 L 15.84375 -13.890625 C 14.457031 -15.253906 12.703125 -15.9375 10.578125 -15.9375 C 9.171875 -15.9375 7.898438 -15.625 6.765625 -15 C 5.628906 -14.382812 4.734375 -13.523438 4.078125 -12.421875 C 3.429688 -11.316406 3.109375 -10.082031 3.109375 -8.71875 C 3.109375 -7.351562 3.429688 -6.125 4.078125 -5.03125 C 4.734375 -3.9375 5.625 -3.070312 6.75 -2.4375 C 7.875 -1.8125 9.144531 -1.5 10.5625 -1.5 C 12.351562 -1.5 13.875 -1.945312 15.125 -2.84375 Z M 15.125 -8.71875 "/></g></g></g><g fill="#000000" fill-opacity="1"><g transform="translate(232.963618, 189.131468)"><g><path d="M 9.859375 0.15625 C 7.597656 0.15625 5.835938 -0.488281 4.578125 -1.78125 C 3.316406 -3.082031 2.6875 -4.972656 2.6875 -7.453125 L 2.6875 -17.4375 L 4.53125 -17.4375 L 4.53125 -7.515625 C 4.53125 -5.492188 4.984375 -3.984375 5.890625 -2.984375 C 6.804688 -1.992188 8.128906 -1.5 9.859375 -1.5 C 11.609375 -1.5 12.9375 -1.992188 13.84375 -2.984375 C 14.757812 -3.984375 15.21875 -5.492188 15.21875 -7.515625 L 15.21875 -17.4375 L 17.015625 -17.4375 L 17.015625 -7.453125 C 17.015625 -4.972656 16.382812 -3.082031 15.125 -1.78125 C 13.875 -0.488281 12.117188 0.15625 9.859375 0.15625 Z M 9.859375 0.15625 "/></g></g></g><g fill="#000000" fill-opacity="1"><g transform="translate(261.303927, 189.131468)"><g><path d="M 8.8125 -6.03125 L 8.8125 0 L 7 0 L 7 -6.03125 L 0.03125 -17.4375 L 2 -17.4375 L 7.96875 -7.640625 L 13.953125 -17.4375 L 15.796875 -17.4375 Z M 8.8125 -6.03125 "/></g></g></g><g fill="#000000" fill-opacity="1"><g transform="translate(285.735269, 189.131468)"><g><path d="M 15.171875 -1.59375 L 15.171875 0 L 2.84375 0 L 2.84375 -17.4375 L 14.796875 -17.4375 L 14.796875 -15.84375 L 4.6875 -15.84375 L 4.6875 -9.640625 L 13.703125 -9.640625 L 13.703125 -8.0625 L 4.6875 -8.0625 L 4.6875 -1.59375 Z M 15.171875 -1.59375 "/></g></g></g><g fill="#000000" fill-opacity="1"><g transform="translate(311.013132, 189.131468)"><g><path d="M 17.40625 -17.4375 L 17.40625 0 L 15.890625 0 L 4.6875 -14.140625 L 4.6875 0 L 2.84375 0 L 2.84375 -17.4375 L 4.359375 -17.4375 L 15.59375 -3.28125 L 15.59375 -17.4375 Z M 17.40625 -17.4375 "/></g></g></g><g fill="#000000" fill-opacity="1"><g transform="translate(107.612553, 280.7921)"><g><path d="M 1.546875 -9.53125 L 5.4375 -9.53125 C 6.4375 -9.53125 7.320312 -9.328125 8.09375 -8.921875 C 8.863281 -8.515625 9.460938 -7.953125 9.890625 -7.234375 C 10.316406 -6.515625 10.53125 -5.691406 10.53125 -4.765625 C 10.53125 -3.835938 10.316406 -3.015625 9.890625 -2.296875 C 9.460938 -1.578125 8.863281 -1.015625 8.09375 -0.609375 C 7.320312 -0.203125 6.4375 0 5.4375 0 L 1.546875 0 Z M 5.375 -0.875 C 6.207031 -0.875 6.9375 -1.035156 7.5625 -1.359375 C 8.1875 -1.691406 8.671875 -2.148438 9.015625 -2.734375 C 9.367188 -3.328125 9.546875 -4.003906 9.546875 -4.765625 C 9.546875 -5.523438 9.367188 -6.195312 9.015625 -6.78125 C 8.671875 -7.363281 8.1875 -7.820312 7.5625 -8.15625 C 6.9375 -8.488281 6.207031 -8.65625 5.375 -8.65625 L 2.5625 -8.65625 L 2.5625 -0.875 Z M 5.375 -0.875 "/></g></g></g><g fill="#000000" fill-opacity="1"><g transform="translate(128.34136, 280.7921)"><g><path d="M 7.53125 -2.546875 L 2.21875 -2.546875 L 1.078125 0 L 0.03125 0 L 4.375 -9.53125 L 5.375 -9.53125 L 9.734375 0 L 8.671875 0 Z M 7.15625 -3.359375 L 4.875 -8.484375 L 2.578125 -3.359375 Z M 7.15625 -3.359375 "/></g></g></g><g fill="#000000" fill-opacity="1"><g transform="translate(147.587174, 280.7921)"><g><path d="M 1.546875 -9.53125 L 2.5625 -9.53125 L 2.5625 -0.875 L 7.890625 -0.875 L 7.890625 0 L 1.546875 0 Z M 1.546875 -9.53125 "/></g></g></g><g fill="#000000" fill-opacity="1"><g transform="translate(165.091495, 280.7921)"><g><path d="M 9.515625 -9.53125 L 9.515625 0 L 8.515625 0 L 8.515625 -4.390625 L 2.5625 -4.390625 L 2.5625 0 L 1.546875 0 L 1.546875 -9.53125 L 2.5625 -9.53125 L 2.5625 -5.28125 L 8.515625 -5.28125 L 8.515625 -9.53125 Z M 9.515625 -9.53125 "/></g></g></g><g fill="#000000" fill-opacity="1"><g transform="translate(185.643435, 280.7921)"><g><path d="M 5.71875 0.078125 C 4.769531 0.078125 3.910156 -0.128906 3.140625 -0.546875 C 2.378906 -0.972656 1.78125 -1.550781 1.34375 -2.28125 C 0.914062 -3.019531 0.703125 -3.847656 0.703125 -4.765625 C 0.703125 -5.679688 0.914062 -6.503906 1.34375 -7.234375 C 1.78125 -7.972656 2.378906 -8.550781 3.140625 -8.96875 C 3.910156 -9.394531 4.769531 -9.609375 5.71875 -9.609375 C 6.65625 -9.609375 7.503906 -9.398438 8.265625 -8.984375 C 9.023438 -8.566406 9.617188 -7.988281 10.046875 -7.25 C 10.484375 -6.507812 10.703125 -5.679688 10.703125 -4.765625 C 10.703125 -3.847656 10.484375 -3.019531 10.046875 -2.28125 C 9.617188 -1.539062 9.023438 -0.960938 8.265625 -0.546875 C 7.503906 -0.128906 6.65625 0.078125 5.71875 0.078125 Z M 5.71875 -0.8125 C 6.46875 -0.8125 7.144531 -0.984375 7.75 -1.328125 C 8.363281 -1.671875 8.84375 -2.140625 9.1875 -2.734375 C 9.53125 -3.335938 9.703125 -4.015625 9.703125 -4.765625 C 9.703125 -5.503906 9.53125 -6.175781 9.1875 -6.78125 C 8.84375 -7.382812 8.363281 -7.851562 7.75 -8.1875 C 7.144531 -8.53125 6.46875 -8.703125 5.71875 -8.703125 C 4.96875 -8.703125 4.285156 -8.53125 3.671875 -8.1875 C 3.054688 -7.851562 2.570312 -7.382812 2.21875 -6.78125 C 1.875 -6.175781 1.703125 -5.503906 1.703125 -4.765625 C 1.703125 -4.015625 1.875 -3.335938 2.21875 -2.734375 C 2.570312 -2.140625 3.054688 -1.671875 3.671875 -1.328125 C 4.285156 -0.984375 4.96875 -0.8125 5.71875 -0.8125 Z M 5.71875 -0.8125 "/></g></g></g><g fill="#000000" fill-opacity="1"><g transform="translate(206.549111, 280.7921)"><g><path d="M 5.390625 0.078125 C 4.148438 0.078125 3.1875 -0.273438 2.5 -0.984375 C 1.8125 -1.691406 1.46875 -2.71875 1.46875 -4.0625 L 1.46875 -9.53125 L 2.484375 -9.53125 L 2.484375 -4.109375 C 2.484375 -3.003906 2.726562 -2.175781 3.21875 -1.625 C 3.71875 -1.082031 4.441406 -0.8125 5.390625 -0.8125 C 6.335938 -0.8125 7.0625 -1.082031 7.5625 -1.625 C 8.0625 -2.175781 8.3125 -3.003906 8.3125 -4.109375 L 8.3125 -9.53125 L 9.296875 -9.53125 L 9.296875 -4.0625 C 9.296875 -2.71875 8.953125 -1.691406 8.265625 -0.984375 C 7.578125 -0.273438 6.617188 0.078125 5.390625 0.078125 Z M 5.390625 0.078125 "/></g></g></g><g fill="#000000" fill-opacity="1"><g transform="translate(226.815338, 280.7921)"><g><path d="M 4.171875 0.078125 C 3.460938 0.078125 2.785156 -0.03125 2.140625 -0.25 C 1.492188 -0.476562 0.992188 -0.78125 0.640625 -1.15625 L 1.03125 -1.9375 C 1.375 -1.59375 1.832031 -1.3125 2.40625 -1.09375 C 2.976562 -0.882812 3.566406 -0.78125 4.171875 -0.78125 C 5.023438 -0.78125 5.664062 -0.9375 6.09375 -1.25 C 6.519531 -1.5625 6.734375 -1.96875 6.734375 -2.46875 C 6.734375 -2.84375 6.617188 -3.144531 6.390625 -3.375 C 6.160156 -3.601562 5.875 -3.773438 5.53125 -3.890625 C 5.195312 -4.015625 4.734375 -4.148438 4.140625 -4.296875 C 3.421875 -4.484375 2.847656 -4.660156 2.421875 -4.828125 C 1.992188 -4.992188 1.628906 -5.25 1.328125 -5.59375 C 1.023438 -5.9375 0.875 -6.40625 0.875 -7 C 0.875 -7.476562 1 -7.914062 1.25 -8.3125 C 1.507812 -8.707031 1.898438 -9.019531 2.421875 -9.25 C 2.953125 -9.488281 3.601562 -9.609375 4.375 -9.609375 C 4.925781 -9.609375 5.460938 -9.53125 5.984375 -9.375 C 6.503906 -9.226562 6.953125 -9.023438 7.328125 -8.765625 L 7 -7.96875 C 6.59375 -8.226562 6.160156 -8.421875 5.703125 -8.546875 C 5.253906 -8.679688 4.8125 -8.75 4.375 -8.75 C 3.539062 -8.75 2.910156 -8.585938 2.484375 -8.265625 C 2.066406 -7.941406 1.859375 -7.523438 1.859375 -7.015625 C 1.859375 -6.640625 1.972656 -6.332031 2.203125 -6.09375 C 2.441406 -5.863281 2.734375 -5.6875 3.078125 -5.5625 C 3.429688 -5.445312 3.898438 -5.316406 4.484375 -5.171875 C 5.179688 -4.992188 5.742188 -4.820312 6.171875 -4.65625 C 6.609375 -4.488281 6.976562 -4.234375 7.28125 -3.890625 C 7.582031 -3.554688 7.734375 -3.097656 7.734375 -2.515625 C 7.734375 -2.035156 7.601562 -1.597656 7.34375 -1.203125 C 7.082031 -0.804688 6.679688 -0.492188 6.140625 -0.265625 C 5.609375 -0.0351562 4.953125 0.078125 4.171875 0.078125 Z M 4.171875 0.078125 "/></g></g></g><g fill="#000000" fill-opacity="1"><g transform="translate(244.673407, 280.7921)"><g><path d="M 1.546875 -9.53125 L 2.5625 -9.53125 L 2.5625 0 L 1.546875 0 Z M 1.546875 -9.53125 "/></g></g></g><g fill="#000000" fill-opacity="1"><g transform="translate(258.272981, 280.7921)"><g><path d="M 8.28125 -0.875 L 8.28125 0 L 1.546875 0 L 1.546875 -9.53125 L 8.078125 -9.53125 L 8.078125 -8.65625 L 2.5625 -8.65625 L 2.5625 -5.265625 L 7.484375 -5.265625 L 7.484375 -4.40625 L 2.5625 -4.40625 L 2.5625 -0.875 Z M 8.28125 -0.875 "/></g></g></g></svg>