<svg xmlns="http://www.w3.org/2000/svg" version="1.1" xmlns:xlink="http://www.w3.org/1999/xlink" width="630.2158475206679" height="200" viewBox="-0.07999999821186066 16.68000030517578 147.6800079345703 40.040000915527344"><path d="M13.40 28.76L13.40 28.76Q13.40 28.40 12.90 28.40Q12.40 28.40 10.92 29.46Q9.44 30.52 8.24 31.60L8.24 31.60L7.08 32.64Q7.08 32.72 7.32 32.72L7.32 32.72Q7.72 32.72 7.84 33.34Q7.96 33.96 8.28 33.96L8.28 33.96Q9.32 33.96 11.36 31.84Q13.40 29.72 13.40 28.76ZM16.20 34.16L17.20 33.36Q17.48 33.16 17.72 33.16Q17.96 33.16 17.96 33.44L17.96 33.44L17.96 33.52Q14.80 36.32 11.64 38.32L11.64 38.32Q9.28 40.08 7.82 40.08Q6.36 40.08 5.78 39Q5.20 37.92 5.20 36.74Q5.20 35.56 5.44 35.12Q5.68 34.68 5.68 34.58Q5.68 34.48 5.44 34.48L5.44 34.48Q5.08 34.48 2.96 37.24Q0.84 40 0.60 40Q0.36 40 0.14 39.86Q-0.08 39.72-0.08 39.48Q-0.08 39.24 0.50 38.32Q1.08 37.40 4.28 32.92Q7.48 28.44 7.60 28.22Q7.72 28 7.72 27.92Q7.72 27.84 7.58 27.84Q7.44 27.84 7.36 27.90Q7.28 27.96 6.16 28.72L6.16 28.72Q3.64 30.44 2.68 30.44Q1.72 30.44 1.72 29.68L1.72 29.68Q1.72 29.04 2.14 28.56Q2.56 28.08 3.08 28.08L3.08 28.08Q3.32 28.08 3.48 28.62Q3.64 29.16 4 29.16Q4.36 29.16 4.88 28.88Q5.40 28.60 5.94 28.20Q6.48 27.80 7.18 27.22Q7.88 26.64 8.32 26.24L8.32 26.24Q9.64 25.04 9.92 24.76L9.92 24.76Q10.68 23.48 15.68 17.44L15.68 17.44Q16.28 16.68 16.86 16.68Q17.44 16.68 17.44 16.96Q17.44 17.24 17.24 17.50Q17.04 17.76 14.24 21.38Q11.44 25 8.60 28.78Q5.76 32.56 5.76 32.80Q5.76 33.04 5.96 33.04L5.96 33.04Q6.56 32.40 7.50 31.46Q8.44 30.52 10.72 28.94Q13 27.36 14.34 27.36Q15.68 27.36 15.68 28.08L15.68 28.08Q15.68 29.40 12.60 32Q9.52 34.60 8.32 34.60L8.32 34.60L7.56 34.44Q7.20 34.44 6.96 35.06Q6.72 35.68 6.72 36.48L6.72 36.48Q6.72 38.92 8.56 38.92L8.56 38.92Q9.52 38.92 10.72 38.16L10.72 38.16Q13.28 36.60 16.20 34.16L16.20 34.16ZM26.48 34.20L27.48 33.36Q27.76 33.16 28 33.16Q28.24 33.16 28.24 33.44L28.24 33.44L28.24 33.52Q24.08 36.96 21.32 38.68Q18.56 40.40 16.32 40.40L16.32 40.40Q14.52 40.40 14.52 38.64L14.52 38.64Q14.52 36.04 17.16 33.30Q19.80 30.56 21.60 30.56L21.60 30.56Q22.60 30.56 22.60 31.68L22.60 31.68Q22.40 33.88 16.28 37.60L16.28 37.60L16.28 38Q16.28 39.32 17.66 39.32Q19.04 39.32 20.64 38.40L20.64 38.40Q23.76 36.56 26.48 34.20L26.48 34.20ZM20.56 31.80L20.56 31.80Q19.68 31.80 18.30 33.28Q16.92 34.76 16.44 36.64L16.44 36.64Q18.36 35.48 19.68 34.18Q21 32.88 21 32.34Q21 31.80 20.56 31.80ZM34.56 33.64L34.56 33.64L33.92 33.36Q33.16 33.36 25.64 39.88L25.64 39.88Q24.92 40.52 24.58 40.52Q24.24 40.52 24.06 40.28Q23.88 40.04 23.88 39.74Q23.88 39.44 25.24 37.02Q26.60 34.60 26.60 34.42Q26.60 34.24 26.44 34.24L26.44 34.24Q25.88 34.52 25.60 34.52Q25.32 34.52 25.32 34.34Q25.32 34.16 25.48 34L25.48 34Q27.16 32.68 27.82 32.68Q28.48 32.68 28.48 33.44Q28.48 34.20 27.48 35.90Q26.48 37.60 26.48 37.88Q26.48 38.16 26.62 38.16Q26.76 38.16 26.96 38Q27.16 37.84 29.08 36.16L29.08 36.16Q35.60 31.04 36.20 31.04L36.20 31.04Q36.24 31.04 36.24 31.04L36.24 31.04Q36.48 31.04 36.72 31.20Q36.96 31.36 36.96 31.68Q36.96 32 36.04 32.82Q35.12 33.64 34.56 33.64ZM42.06 27.92Q42.44 27.92 42.66 28.16Q42.88 28.40 42.88 28.84Q42.88 29.28 42.28 29.96Q41.68 30.64 41.24 30.64Q40.80 30.64 40.60 30.38Q40.40 30.12 40.40 29.78Q40.40 29.44 41.04 28.68Q41.68 27.92 42.06 27.92ZM44.48 34.04L45.36 33.32Q45.68 33.12 45.86 33.12Q46.04 33.12 46.04 33.36L46.04 33.36L46.04 33.48Q46.20 33.48 43.90 35.24Q41.60 37 38.98 38.76Q36.36 40.52 35.68 40.52L35.68 40.52Q34.52 40.52 34.52 39.56L34.52 39.56Q34.52 38.40 36.52 35.18Q38.52 31.96 39.44 31.96L39.44 31.96Q40.12 31.96 40.12 32.48Q40.12 33 38.28 35.32Q36.44 37.64 36.44 38.64L36.44 38.64Q36.44 39.20 36.86 39.20Q37.28 39.20 38.96 38.08L38.96 38.08Q41.96 36.08 44.48 34.04L44.48 34.04ZM61.52 33.36L61.52 33.48Q53.08 40.52 51.08 40.52L51.08 40.52Q49.92 40.52 49.92 39.56Q49.92 38.60 50.78 37.28Q51.64 35.96 52.50 34.94Q53.36 33.92 53.36 33.72Q53.36 33.52 53.24 33.52L53.24 33.52Q49.52 36 48.82 36.56Q48.12 37.12 46.54 38.40Q44.96 39.68 44.48 40Q44.00 40.32 43.44 40.32L43.44 40.32Q42.88 40.32 42.88 39.84L42.88 39.84Q42.88 39.28 45.12 36.32L45.12 36.32Q47.28 33.36 47.28 33L47.28 33Q47.28 32.92 47.14 32.92Q47.00 32.92 43.68 35.36L43.68 35.36L43.52 34.76Q46.36 32.48 47.36 31.84Q48.36 31.20 48.98 31.20Q49.60 31.20 49.60 31.80L49.60 31.80Q49.60 32.20 47.34 35.06Q45.08 37.92 45.08 38.14Q45.08 38.36 45.22 38.36Q45.36 38.36 49.78 35.14Q54.20 31.92 55.16 31.92L55.16 31.92Q55.44 31.92 55.70 32.14Q55.96 32.36 55.96 32.56L55.96 32.56Q55.96 33.04 53.84 35.74Q51.72 38.44 51.72 38.80Q51.72 39.16 52.22 39.16Q52.72 39.16 54.36 38.08L54.36 38.08Q57.36 36.12 59.88 34.04L59.88 34.04L60.76 33.32Q61.04 33.12 61.28 33.12Q61.52 33.12 61.52 33.36L61.52 33.36ZM84.96 33.36L84.96 33.48Q76.52 40.52 74.52 40.52L74.52 40.52Q73.36 40.52 73.36 39.56Q73.36 38.60 74.22 37.28Q75.08 35.96 75.94 34.94Q76.80 33.92 76.80 33.72Q76.80 33.52 76.68 33.52L76.68 33.52Q72.96 36 72.26 36.56Q71.56 37.12 69.98 38.40Q68.40 39.68 67.92 40Q67.44 40.32 66.88 40.32L66.88 40.32Q66.32 40.32 66.32 39.84L66.32 39.84Q66.32 39.28 68.56 36.32L68.56 36.32Q70.72 33.36 70.72 33L70.72 33Q70.72 32.92 70.58 32.92Q70.44 32.92 67.12 35.36L67.12 35.36L66.96 34.76Q69.80 32.48 70.80 31.84Q71.80 31.20 72.42 31.20Q73.04 31.20 73.04 31.80L73.04 31.80Q73.04 32.20 70.78 35.06Q68.52 37.92 68.52 38.14Q68.52 38.36 68.66 38.36Q68.80 38.36 73.22 35.14Q77.64 31.92 78.60 31.92L78.60 31.92Q78.88 31.92 79.14 32.14Q79.40 32.36 79.40 32.56L79.40 32.56Q79.40 33.04 77.28 35.74Q75.16 38.44 75.16 38.80Q75.16 39.16 75.66 39.16Q76.16 39.16 77.80 38.08L77.80 38.08Q80.80 36.12 83.32 34.04L83.32 34.04L84.20 33.32Q84.48 33.12 84.72 33.12Q84.96 33.12 84.96 33.36L84.96 33.36ZM95.12 34.16L96.04 33.36Q96.32 33.16 96.56 33.16Q96.80 33.16 96.80 33.44L96.80 33.44L96.80 33.52Q92.92 36.72 90.72 38.16L90.72 38.16L82.72 43.36L80.24 46.84Q74.48 54.72 74.48 55.32L74.48 55.32Q73.84 56.72 73.24 56.72L73.24 56.72Q72.48 56.72 72.48 55.72Q72.48 54.72 73.46 53.04Q74.44 51.36 75.40 50.32L75.40 50.32L79.20 46.32Q79.68 45.56 81.16 43.52Q82.64 41.48 83.12 40.80L83.12 40.80L84.84 38.24L84.92 38.08Q84.92 38 84.84 38L84.84 38Q82.48 39.96 80.92 39.96Q79.36 39.96 79.36 39.06Q79.36 38.16 80.56 36.68Q81.76 35.20 83.46 33.80Q85.16 32.40 87.22 31.38Q89.28 30.36 90.86 30.36Q92.44 30.36 92.44 31.48L92.44 31.48Q92.44 32.28 90.94 33.40Q89.44 34.52 89.10 34.52Q88.76 34.52 88.76 34.36L88.76 34.36Q88.76 34.12 89.08 33.92L89.08 33.92Q90.44 32.96 90.44 32.10Q90.44 31.24 89.72 31.24L89.72 31.24Q87.96 31.24 84.82 34.22Q81.68 37.20 81.68 38.44L81.68 38.44Q81.68 38.80 82.26 38.80Q82.84 38.80 84.24 37.86Q85.64 36.92 86.36 36.04L86.36 36.04L87.44 34.68Q87.64 34.40 87.96 34.40Q88.28 34.40 88.52 34.60Q88.76 34.80 88.76 35L88.76 35L83.92 41.72L89.84 38Q92.48 36.40 95.12 34.16L95.12 34.16ZM96.84 39.48L96.84 39.48Q96.84 38.88 97.42 37.92Q98 36.96 98.04 36.80Q98.08 36.64 97.96 36.64Q97.84 36.64 97.62 36.86Q97.40 37.08 95.18 38.54Q92.96 40 92.12 40L92.12 40Q91.56 40 91.56 39.28Q91.56 38.56 93.80 35.56Q96.04 32.56 96.96 32.56L96.96 32.56Q97.16 32.56 97.34 32.74Q97.52 32.92 97.52 33.02Q97.52 33.12 95.46 35.48Q93.40 37.84 93.40 38.52L93.40 38.52Q93.40 38.68 93.56 38.68L93.56 38.68Q94.32 38.68 96.84 36.64Q99.36 34.60 100.42 33.48Q101.48 32.36 102.08 32.36Q102.68 32.36 102.68 32.88L102.68 32.88Q102.68 33.20 102.44 33.52Q102.20 33.84 101.54 34.66Q100.88 35.48 100.32 36.20L100.32 36.20Q98.76 38.20 98.76 38.70Q98.76 39.20 99.18 39.20Q99.60 39.20 101.24 38.08L101.24 38.08Q104.28 36.08 106.80 34.04L106.80 34.04L107.68 33.32Q107.96 33.12 108.16 33.12Q108.36 33.12 108.36 33.36L108.36 33.36L108.36 33.48Q108.52 33.48 106.22 35.24Q103.92 37 101.30 38.76Q98.68 40.52 98 40.52L98 40.52Q96.84 40.52 96.84 39.48ZM104.56 43.84L105.76 44.56L106.28 43.88Q106.92 43.12 107.08 42.88L107.08 42.88Q105.92 43.40 105.24 43.58Q104.56 43.76 104.56 43.84L104.56 43.84ZM105.96 46.96L105.96 46.96Q105.96 46.56 105.84 46.12L105.84 46.12Q99.96 53.48 99.96 54.92L99.96 54.92Q99.96 55.04 100.08 55.04L100.08 55.04Q100.76 55.04 102.16 53.72Q103.56 52.40 104.76 50.44Q105.96 48.48 105.96 46.96ZM102.76 43.88L102.76 43.88Q102.88 43.56 102.94 43.52Q103 43.48 103.24 43.46Q103.48 43.44 104.76 43.10Q106.04 42.76 107.80 42L107.80 42Q112.92 35.48 113.22 34.90Q113.52 34.32 113.52 34.20Q113.52 34.08 113.36 34.08Q113.20 34.08 113 34.36L113 34.36Q112.92 34.40 111.94 35.30Q110.96 36.20 110.02 36.96Q109.08 37.72 107.84 38.42Q106.60 39.12 105.72 39.12Q104.84 39.12 104.84 38.48L104.84 38.48Q104.88 37 106.86 34.40Q108.84 31.80 109.52 31.80Q110.20 31.80 110.20 32.16L110.20 32.16Q110.20 32.36 108.38 34.64Q106.56 36.92 106.56 37.48Q106.56 38.04 106.92 38.04L106.92 38.04Q107.64 38.04 111.06 35.12Q114.48 32.20 115.28 32.20L115.28 32.20Q115.52 32.20 115.74 32.44Q115.96 32.68 115.96 32.96L115.96 32.96Q115.96 33.84 110.20 40.84L110.20 40.84Q115.60 37.84 120.24 34.04L120.24 34.04L121.12 33.32Q121.44 33.12 121.64 33.12Q121.84 33.12 121.84 33.32L121.84 33.32L121.80 33.48Q122 33.48 119.68 35.24Q117.36 37 115.40 38.36Q113.44 39.72 109.36 41.80L109.36 41.80L106.52 45.28Q107.08 46.08 107.08 47.16L107.08 47.16Q107.08 49 105.52 51.26Q103.96 53.52 102.02 55.02Q100.08 56.52 98.84 56.52L98.84 56.52Q98.48 56.52 98.18 56.26Q97.88 56 97.88 55.54Q97.88 55.08 98.34 54.16Q98.80 53.24 99.70 52.02Q100.60 50.80 101.40 49.82Q102.20 48.84 103.44 47.36Q104.68 45.88 105.28 45.16L105.28 45.16Q104.56 44.52 103.66 44.36Q102.76 44.20 102.76 43.88ZM130.32 34.20L131.32 33.36Q131.60 33.16 131.84 33.16Q132.08 33.16 132.08 33.44L132.08 33.44L132.08 33.52Q127.92 36.96 125.16 38.68Q122.40 40.40 120.16 40.40L120.16 40.40Q118.36 40.40 118.36 38.64L118.36 38.64Q118.36 36.04 121 33.30Q123.64 30.56 125.44 30.56L125.44 30.56Q126.44 30.56 126.44 31.68L126.44 31.68Q126.24 33.88 120.12 37.60L120.12 37.60L120.12 38Q120.12 39.32 121.50 39.32Q122.88 39.32 124.48 38.40L124.48 38.40Q127.60 36.56 130.32 34.20L130.32 34.20ZM124.40 31.80L124.40 31.80Q123.52 31.80 122.14 33.28Q120.76 34.76 120.28 36.64L120.28 36.64Q122.20 35.48 123.52 34.18Q124.84 32.88 124.84 32.34Q124.84 31.80 124.40 31.80ZM147.60 33.36L147.60 33.48Q139.16 40.52 137.16 40.52L137.16 40.52Q136 40.52 136 39.56Q136 38.60 136.86 37.28Q137.72 35.96 138.58 34.94Q139.44 33.92 139.44 33.72Q139.44 33.52 139.32 33.52L139.32 33.52Q135.60 36 134.90 36.56Q134.20 37.12 132.62 38.40Q131.04 39.68 130.56 40Q130.08 40.32 129.52 40.32L129.52 40.32Q128.96 40.32 128.96 39.84L128.96 39.84Q128.96 39.28 131.20 36.32L131.20 36.32Q133.36 33.36 133.36 33L133.36 33Q133.36 32.92 133.22 32.92Q133.08 32.92 129.76 35.36L129.76 35.36L129.60 34.76Q132.44 32.48 133.44 31.84Q134.44 31.20 135.06 31.20Q135.68 31.20 135.68 31.80L135.68 31.80Q135.68 32.20 133.42 35.06Q131.16 37.92 131.16 38.14Q131.16 38.36 131.30 38.36Q131.44 38.36 135.86 35.14Q140.28 31.92 141.24 31.92L141.24 31.92Q141.52 31.92 141.78 32.14Q142.04 32.36 142.04 32.56L142.04 32.56Q142.04 33.04 139.92 35.74Q137.80 38.44 137.80 38.80Q137.80 39.16 138.30 39.16Q138.80 39.16 140.44 38.08L140.44 38.08Q143.44 36.12 145.96 34.04L145.96 34.04L146.84 33.32Q147.12 33.12 147.36 33.12Q147.60 33.12 147.60 33.36L147.60 33.36Z" fill="black"></path></svg>