<svg xmlns="http://www.w3.org/2000/svg" xmlns:xlink="http://www.w3.org/1999/xlink" width="1330" zoomAndPan="magnify" viewBox="0 0 997.5 561.000005" height="748" preserveAspectRatio="xMidYMid meet" version="1.0"><defs><clipPath id="2c41e823b7"><path d="M 16.804688 193.660156 L 996.363281 193.660156 L 996.363281 310.753906 L 16.804688 310.753906 Z M 16.804688 193.660156 " clip-rule="nonzero"/></clipPath></defs><path fill="#000000" d="M 515.839844 457.277344 L 515.839844 467.957031 L 641.152344 467.957031 L 641.152344 457.277344 L 583.816406 457.277344 L 583.816406 50.105469 L 841.738281 473.277344 L 864.414062 473.277344 L 864.414062 30.769531 L 921.703125 30.769531 L 921.703125 20.085938 L 796.4375 20.085938 L 796.4375 30.769531 L 853.730469 30.769531 L 853.730469 357.972656 L 647.148438 20.085938 L 515.839844 20.085938 L 515.839844 30.769531 L 573.179688 30.769531 L 573.179688 457.277344 Z M 515.839844 457.277344 " fill-opacity="1" fill-rule="nonzero"/><path fill="#000000" d="M 271.875 33.671875 L 271.875 22.855469 L 97.882812 22.855469 L 97.882812 33.671875 L 152.019531 33.671875 L 152.019531 466.988281 L 97.882812 466.988281 L 97.882812 477.804688 L 271.875 477.804688 L 271.875 466.988281 L 217.695312 466.988281 L 217.695312 33.671875 Z M 417.425781 33.671875 L 222.425781 228.671875 L 389.65625 466.988281 L 330.789062 466.988281 L 330.789062 477.804688 L 522.363281 477.804688 L 522.363281 466.988281 L 468.226562 466.988281 L 276.609375 192.113281 L 435.050781 33.671875 L 492.566406 33.671875 L 492.566406 22.855469 L 359.1875 22.855469 L 359.1875 33.671875 Z M 417.425781 33.671875 " fill-opacity="1" fill-rule="nonzero"/><g clip-path="url(#2c41e823b7)"><path fill="#fafafa" d="M 16.804688 193.660156 L 1026.269531 193.660156 L 1026.269531 310.753906 L 16.804688 310.753906 Z M 16.804688 193.660156 " fill-opacity="1" fill-rule="nonzero"/></g><path fill="#000000" d="M 110.144531 260.875 L 99.867188 271.285156 L 99.867188 284.496094 L 94.546875 284.496094 L 94.546875 234.191406 L 99.867188 234.191406 L 99.867188 264.570312 L 129.390625 234.191406 L 135.476562 234.191406 L 113.707031 256.996094 L 137.011719 284.496094 L 130.652344 284.496094 Z M 110.144531 260.875 " fill-opacity="1" fill-rule="nonzero"/><path fill="#000000" d="M 206.054688 279.898438 L 206.054688 284.496094 L 170.488281 284.496094 L 170.488281 234.191406 L 204.972656 234.191406 L 204.972656 238.789062 L 175.808594 238.789062 L 175.808594 256.683594 L 201.816406 256.683594 L 201.816406 261.234375 L 175.808594 261.234375 L 175.808594 279.898438 Z M 206.054688 279.898438 " fill-opacity="1" fill-rule="nonzero"/><path fill="#000000" d="M 285.195312 234.191406 L 262.929688 284.496094 L 257.699219 284.496094 L 235.433594 234.191406 L 241.15625 234.191406 L 260.40625 277.867188 L 279.832031 234.191406 Z M 285.195312 234.191406 " fill-opacity="1" fill-rule="nonzero"/><path fill="#000000" d="M 318.417969 234.191406 L 323.734375 234.191406 L 323.734375 284.496094 L 318.417969 284.496094 Z M 318.417969 234.191406 " fill-opacity="1" fill-rule="nonzero"/><path fill="#000000" d="M 406.992188 234.191406 L 406.992188 284.496094 L 402.617188 284.496094 L 370.300781 243.699219 L 370.300781 284.496094 L 364.980469 284.496094 L 364.980469 234.191406 L 369.351562 234.191406 L 401.761719 275.027344 L 401.761719 234.191406 Z M 406.992188 234.191406 " fill-opacity="1" fill-rule="nonzero"/><path fill="#000000" d="M 533.945312 234.191406 L 533.945312 284.496094 L 529.574219 284.496094 L 497.253906 243.699219 L 497.253906 284.496094 L 491.9375 284.496094 L 491.9375 234.191406 L 496.308594 234.191406 L 528.71875 275.027344 L 528.71875 234.191406 Z M 533.945312 234.191406 " fill-opacity="1" fill-rule="nonzero"/><path fill="#000000" d="M 610.632812 259.34375 L 615.726562 259.34375 L 615.726562 278.542969 C 613.382812 280.59375 610.597656 282.171875 607.386719 283.277344 C 604.164062 284.394531 600.78125 284.945312 597.242188 284.945312 C 592.21875 284.945312 587.699219 283.851562 583.675781 281.65625 C 579.640625 279.433594 576.476562 276.371094 574.164062 272.457031 C 571.878906 268.558594 570.738281 264.1875 570.738281 259.34375 C 570.738281 254.507812 571.878906 250.136719 574.164062 246.226562 C 576.476562 242.324219 579.640625 239.273438 583.675781 237.074219 C 587.699219 234.886719 592.25 233.785156 597.335938 233.785156 C 601.144531 233.785156 604.660156 234.402344 607.882812 235.632812 C 611.09375 236.835938 613.796875 238.640625 615.996094 241.042969 L 612.703125 244.421875 C 608.703125 240.488281 603.644531 238.515625 597.515625 238.515625 C 593.457031 238.515625 589.785156 239.417969 586.515625 241.222656 C 583.238281 243 580.65625 245.480469 578.761719 248.660156 C 576.890625 251.847656 575.96875 255.410156 575.96875 259.34375 C 575.96875 263.285156 576.890625 266.824219 578.761719 269.980469 C 580.65625 273.136719 583.226562 275.636719 586.472656 277.460938 C 589.714844 279.265625 593.378906 280.167969 597.46875 280.167969 C 602.628906 280.167969 607.023438 278.882812 610.632812 276.289062 Z M 610.632812 259.34375 " fill-opacity="1" fill-rule="nonzero"/><path fill="#000000" d="M 675.832031 284.945312 C 669.308594 284.945312 664.226562 283.085938 660.597656 279.355469 C 656.957031 275.601562 655.144531 270.148438 655.144531 262.992188 L 655.144531 234.191406 L 660.464844 234.191406 L 660.464844 262.8125 C 660.464844 268.648438 661.769531 273 664.382812 275.882812 C 667.023438 278.746094 670.839844 280.167969 675.832031 280.167969 C 680.882812 280.167969 684.714844 278.746094 687.328125 275.882812 C 689.964844 273 691.296875 268.648438 691.296875 262.8125 L 691.296875 234.191406 L 696.480469 234.191406 L 696.480469 262.992188 C 696.480469 270.148438 694.652344 275.601562 691.023438 279.355469 C 687.417969 283.085938 682.347656 284.945312 675.832031 284.945312 Z M 675.832031 284.945312 " fill-opacity="1" fill-rule="nonzero"/><path fill="#000000" d="M 754.570312 267.09375 L 754.570312 284.496094 L 749.34375 284.496094 L 749.34375 267.09375 L 729.238281 234.191406 L 734.917969 234.191406 L 752.136719 262.453125 L 769.402344 234.191406 L 774.71875 234.191406 Z M 754.570312 267.09375 " fill-opacity="1" fill-rule="nonzero"/><path fill="#000000" d="M 843.398438 279.898438 L 843.398438 284.496094 L 807.832031 284.496094 L 807.832031 234.191406 L 842.316406 234.191406 L 842.316406 238.789062 L 813.152344 238.789062 L 813.152344 256.683594 L 839.160156 256.683594 L 839.160156 261.234375 L 813.152344 261.234375 L 813.152344 279.898438 Z M 843.398438 279.898438 " fill-opacity="1" fill-rule="nonzero"/><path fill="#000000" d="M 922.765625 234.191406 L 922.765625 284.496094 L 918.394531 284.496094 L 886.074219 243.699219 L 886.074219 284.496094 L 880.757812 284.496094 L 880.757812 234.191406 L 885.128906 234.191406 L 917.539062 275.027344 L 917.539062 234.191406 Z M 922.765625 234.191406 " fill-opacity="1" fill-rule="nonzero"/><path fill="#000000" d="M 290.234375 521.425781 L 301.457031 521.425781 C 304.34375 521.425781 306.890625 522.011719 309.121094 523.183594 C 311.339844 524.355469 313.066406 525.980469 314.304688 528.050781 C 315.53125 530.125 316.152344 532.503906 316.152344 535.175781 C 316.152344 537.855469 315.53125 540.222656 314.304688 542.296875 C 313.066406 544.371094 311.339844 545.992188 309.121094 547.164062 C 306.890625 548.335938 304.34375 548.921875 301.457031 548.921875 L 290.234375 548.921875 Z M 301.277344 546.398438 C 303.675781 546.398438 305.785156 545.9375 307.585938 545 C 309.390625 544.042969 310.789062 542.722656 311.78125 541.035156 C 312.792969 539.320312 313.3125 537.371094 313.3125 535.175781 C 313.3125 532.988281 312.792969 531.050781 311.78125 529.359375 C 310.789062 527.679688 309.390625 526.363281 307.585938 525.390625 C 305.785156 524.433594 303.675781 523.949219 301.277344 523.949219 L 293.164062 523.949219 L 293.164062 546.398438 Z M 301.277344 546.398438 " fill-opacity="1" fill-rule="nonzero"/><path fill="#000000" d="M 367.296875 541.574219 L 351.972656 541.574219 L 348.679688 548.921875 L 345.660156 548.921875 L 358.191406 521.425781 L 361.078125 521.425781 L 373.652344 548.921875 L 370.585938 548.921875 Z M 366.214844 539.230469 L 359.632812 524.445312 L 353.007812 539.230469 Z M 366.214844 539.230469 " fill-opacity="1" fill-rule="nonzero"/><path fill="#000000" d="M 405.554688 521.425781 L 408.484375 521.425781 L 408.484375 546.398438 L 423.855469 546.398438 L 423.855469 548.921875 L 405.554688 548.921875 Z M 405.554688 521.425781 " fill-opacity="1" fill-rule="nonzero"/><path fill="#000000" d="M 479.039062 521.425781 L 479.039062 548.921875 L 476.15625 548.921875 L 476.15625 536.253906 L 458.980469 536.253906 L 458.980469 548.921875 L 456.050781 548.921875 L 456.050781 521.425781 L 458.980469 521.425781 L 458.980469 533.6875 L 476.15625 533.6875 L 476.15625 521.425781 Z M 479.039062 521.425781 " fill-opacity="1" fill-rule="nonzero"/><path fill="#000000" d="M 527.375 549.148438 C 524.636719 549.148438 522.160156 548.550781 519.9375 547.34375 C 517.742188 546.117188 516.019531 544.449219 514.753906 542.339844 C 513.515625 540.210938 512.90625 537.820312 512.90625 535.175781 C 512.90625 532.535156 513.515625 530.160156 514.753906 528.050781 C 516.019531 525.921875 517.742188 524.253906 519.9375 523.046875 C 522.160156 521.820312 524.636719 521.199219 527.375 521.199219 C 530.082031 521.199219 532.527344 521.808594 534.722656 523.003906 C 536.910156 524.210938 538.625 525.878906 539.863281 528.007812 C 541.125 530.148438 541.757812 532.535156 541.757812 535.175781 C 541.757812 537.820312 541.125 540.210938 539.863281 542.339844 C 538.625 544.480469 536.910156 546.148438 534.722656 547.34375 C 532.527344 548.550781 530.082031 549.148438 527.375 549.148438 Z M 527.375 546.578125 C 529.539062 546.578125 531.488281 546.082031 533.238281 545.089844 C 535.007812 544.097656 536.390625 542.746094 537.382812 541.035156 C 538.375 539.296875 538.871094 537.335938 538.871094 535.175781 C 538.871094 533.042969 538.375 531.105469 537.382812 529.359375 C 536.390625 527.625 535.007812 526.273438 533.238281 525.300781 C 531.488281 524.3125 529.539062 523.816406 527.375 523.816406 C 525.214844 523.816406 523.242188 524.3125 521.472656 525.300781 C 519.691406 526.273438 518.292969 527.625 517.28125 529.359375 C 516.289062 531.105469 515.792969 533.042969 515.792969 535.175781 C 515.792969 537.335938 516.289062 539.296875 517.28125 541.035156 C 518.292969 542.746094 519.691406 544.097656 521.472656 545.089844 C 523.242188 546.082031 525.214844 546.578125 527.375 546.578125 Z M 527.375 546.578125 " fill-opacity="1" fill-rule="nonzero"/><path fill="#000000" d="M 586.738281 549.148438 C 583.15625 549.148438 580.382812 548.132812 578.402344 546.082031 C 576.417969 544.042969 575.425781 541.078125 575.425781 537.203125 L 575.425781 521.425781 L 578.355469 521.425781 L 578.355469 537.066406 C 578.355469 540.257812 579.054688 542.644531 580.472656 544.234375 C 581.917969 545.800781 584 546.578125 586.738281 546.578125 C 589.46875 546.578125 591.5625 545.800781 593.003906 544.234375 C 594.449219 542.644531 595.167969 540.257812 595.167969 537.066406 L 595.167969 521.425781 L 598.007812 521.425781 L 598.007812 537.203125 C 598.007812 541.078125 597.015625 544.042969 595.035156 546.082031 C 593.050781 548.132812 590.277344 549.148438 586.738281 549.148438 Z M 586.738281 549.148438 " fill-opacity="1" fill-rule="nonzero"/><path fill="#000000" d="M 641.6875 549.148438 C 639.636719 549.148438 637.6875 548.832031 635.828125 548.199219 C 633.957031 547.546875 632.515625 546.667969 631.503906 545.585938 L 632.628906 543.332031 C 633.621094 544.324219 634.9375 545.136719 636.597656 545.765625 C 638.242188 546.375 639.941406 546.667969 641.6875 546.667969 C 644.144531 546.667969 645.996094 546.21875 647.234375 545.316406 C 648.460938 544.414062 649.082031 543.242188 649.082031 541.800781 C 649.082031 540.71875 648.742188 539.851562 648.089844 539.1875 C 647.425781 538.53125 646.601562 538.035156 645.609375 537.699219 C 644.640625 537.335938 643.3125 536.953125 641.597656 536.527344 C 639.527344 535.984375 637.871094 535.476562 636.640625 534.992188 C 635.402344 534.519531 634.351562 533.777344 633.484375 532.785156 C 632.605469 531.792969 632.179688 530.441406 632.179688 528.726562 C 632.179688 527.351562 632.539062 526.089844 633.261719 524.941406 C 634.003906 523.804688 635.132812 522.902344 636.640625 522.238281 C 638.171875 521.550781 640.042969 521.199219 642.277344 521.199219 C 643.863281 521.199219 645.40625 521.425781 646.917969 521.875 C 648.417969 522.304688 649.714844 522.890625 650.792969 523.632812 L 649.847656 525.933594 C 648.675781 525.191406 647.425781 524.625 646.105469 524.265625 C 644.8125 523.882812 643.539062 523.679688 642.277344 523.679688 C 639.863281 523.679688 638.050781 524.152344 636.820312 525.078125 C 635.617188 526.011719 635.019531 527.21875 635.019531 528.683594 C 635.019531 529.765625 635.34375 530.65625 636.011719 531.34375 C 636.695312 532.007812 637.542969 532.515625 638.535156 532.875 C 639.546875 533.214844 640.902344 533.585938 642.589844 534.003906 C 644.597656 534.519531 646.21875 535.015625 647.460938 535.488281 C 648.722656 535.972656 649.78125 536.707031 650.660156 537.699219 C 651.527344 538.667969 651.964844 539.984375 651.964844 541.664062 C 651.964844 543.050781 651.582031 544.3125 650.839844 545.453125 C 650.085938 546.601562 648.925781 547.503906 647.367188 548.15625 C 645.835938 548.820312 643.941406 549.148438 641.6875 549.148438 Z M 641.6875 549.148438 " fill-opacity="1" fill-rule="nonzero"/><path fill="#000000" d="M 685.632812 521.425781 L 688.566406 521.425781 L 688.566406 548.921875 L 685.632812 548.921875 Z M 685.632812 521.425781 " fill-opacity="1" fill-rule="nonzero"/><path fill="#000000" d="M 744.296875 546.398438 L 744.296875 548.921875 L 724.867188 548.921875 L 724.867188 521.425781 L 743.710938 521.425781 L 743.710938 523.949219 L 727.796875 523.949219 L 727.796875 533.730469 L 741.996094 533.730469 L 741.996094 536.210938 L 727.796875 536.210938 L 727.796875 546.398438 Z M 744.296875 546.398438 " fill-opacity="1" fill-rule="nonzero"/></svg>