<svg xmlns="http://www.w3.org/2000/svg" xmlns:xlink="http://www.w3.org/1999/xlink" width="1330" zoomAndPan="magnify" viewBox="0 0 997.5 561.000005" height="748" preserveAspectRatio="xMidYMid meet" version="1.0"><defs><clipPath id="84486b680e"><path d="M 239.972656 235.417969 L 762.402344 235.417969 L 762.402344 296.03125 L 239.972656 296.03125 Z M 239.972656 235.417969 " clip-rule="nonzero"/></clipPath></defs><path fill="#000000" d="M 498.296875 371.878906 L 498.296875 377.40625 L 563.164062 377.40625 L 563.164062 371.878906 L 533.484375 371.878906 L 533.484375 161.105469 L 666.996094 380.160156 L 678.734375 380.160156 L 678.734375 151.097656 L 708.390625 151.097656 L 708.390625 145.566406 L 643.546875 145.566406 L 643.546875 151.097656 L 673.203125 151.097656 L 673.203125 320.472656 L 566.265625 145.566406 L 498.296875 145.566406 L 498.296875 151.097656 L 527.976562 151.097656 L 527.976562 371.878906 Z M 498.296875 371.878906 " fill-opacity="1" fill-rule="nonzero"/><path fill="#000000" d="M 372.007812 152.601562 L 372.007812 147 L 281.941406 147 L 281.941406 152.601562 L 309.964844 152.601562 L 309.964844 376.90625 L 281.941406 376.90625 L 281.941406 382.503906 L 372.007812 382.503906 L 372.007812 376.90625 L 343.960938 376.90625 L 343.960938 152.601562 Z M 447.351562 152.601562 L 346.410156 253.539062 L 432.976562 376.90625 L 402.503906 376.90625 L 402.503906 382.503906 L 501.671875 382.503906 L 501.671875 376.90625 L 473.648438 376.90625 L 374.457031 234.617188 L 456.476562 152.601562 L 486.25 152.601562 L 486.25 147 L 417.203125 147 L 417.203125 152.601562 Z M 447.351562 152.601562 " fill-opacity="1" fill-rule="nonzero"/><g clip-path="url(#84486b680e)"><path fill="#fafafa" d="M 239.972656 235.417969 L 762.519531 235.417969 L 762.519531 296.03125 L 239.972656 296.03125 Z M 239.972656 235.417969 " fill-opacity="1" fill-rule="nonzero"/></g><path fill="#000000" d="M 288.289062 270.210938 L 282.96875 275.601562 L 282.96875 282.4375 L 280.214844 282.4375 L 280.214844 256.398438 L 282.96875 256.398438 L 282.96875 272.125 L 298.253906 256.398438 L 301.402344 256.398438 L 290.132812 268.203125 L 302.195312 282.4375 L 298.90625 282.4375 Z M 288.289062 270.210938 " fill-opacity="1" fill-rule="nonzero"/><path fill="#000000" d="M 337.9375 280.058594 L 337.9375 282.4375 L 319.527344 282.4375 L 319.527344 256.398438 L 337.375 256.398438 L 337.375 258.777344 L 322.277344 258.777344 L 322.277344 268.039062 L 335.742188 268.039062 L 335.742188 270.398438 L 322.277344 270.398438 L 322.277344 280.058594 Z M 337.9375 280.058594 " fill-opacity="1" fill-rule="nonzero"/><path fill="#000000" d="M 378.902344 256.398438 L 367.378906 282.4375 L 364.671875 282.4375 L 353.144531 256.398438 L 356.105469 256.398438 L 366.070312 279.007812 L 376.128906 256.398438 Z M 378.902344 256.398438 " fill-opacity="1" fill-rule="nonzero"/><path fill="#000000" d="M 396.101562 256.398438 L 398.855469 256.398438 L 398.855469 282.4375 L 396.101562 282.4375 Z M 396.101562 256.398438 " fill-opacity="1" fill-rule="nonzero"/><path fill="#000000" d="M 441.949219 256.398438 L 441.949219 282.4375 L 439.6875 282.4375 L 422.957031 261.320312 L 422.957031 282.4375 L 420.203125 282.4375 L 420.203125 256.398438 L 422.46875 256.398438 L 439.242188 277.539062 L 439.242188 256.398438 Z M 441.949219 256.398438 " fill-opacity="1" fill-rule="nonzero"/><path fill="#000000" d="M 507.667969 256.398438 L 507.667969 282.4375 L 505.40625 282.4375 L 488.675781 261.320312 L 488.675781 282.4375 L 485.921875 282.4375 L 485.921875 256.398438 L 488.183594 256.398438 L 504.960938 277.539062 L 504.960938 256.398438 Z M 507.667969 256.398438 " fill-opacity="1" fill-rule="nonzero"/><path fill="#000000" d="M 547.363281 269.417969 L 550 269.417969 L 550 279.355469 C 548.789062 280.417969 547.347656 281.234375 545.683594 281.808594 C 544.015625 282.382812 542.265625 282.671875 540.433594 282.671875 C 537.832031 282.671875 535.492188 282.105469 533.410156 280.96875 C 531.324219 279.816406 529.683594 278.230469 528.488281 276.207031 C 527.304688 274.1875 526.714844 271.925781 526.714844 269.417969 C 526.714844 266.914062 527.304688 264.652344 528.488281 262.628906 C 529.683594 260.609375 531.324219 259.027344 533.410156 257.890625 C 535.492188 256.757812 537.851562 256.1875 540.480469 256.1875 C 542.453125 256.1875 544.273438 256.507812 545.941406 257.144531 C 547.605469 257.769531 549.003906 258.703125 550.140625 259.945312 L 548.4375 261.695312 C 546.367188 259.65625 543.746094 258.636719 540.574219 258.636719 C 538.472656 258.636719 536.574219 259.105469 534.882812 260.039062 C 533.183594 260.957031 531.847656 262.242188 530.867188 263.886719 C 529.898438 265.539062 529.421875 267.382812 529.421875 269.417969 C 529.421875 271.457031 529.898438 273.289062 530.867188 274.925781 C 531.847656 276.558594 533.179688 277.851562 534.859375 278.796875 C 536.539062 279.730469 538.433594 280.195312 540.550781 280.195312 C 543.222656 280.195312 545.496094 279.53125 547.363281 278.191406 Z M 547.363281 269.417969 " fill-opacity="1" fill-rule="nonzero"/><path fill="#000000" d="M 581.117188 282.671875 C 577.738281 282.671875 575.109375 281.707031 573.230469 279.777344 C 571.34375 277.835938 570.40625 275.011719 570.40625 271.308594 L 570.40625 256.398438 L 573.160156 256.398438 L 573.160156 271.214844 C 573.160156 274.234375 573.835938 276.488281 575.191406 277.980469 C 576.554688 279.460938 578.53125 280.195312 581.117188 280.195312 C 583.730469 280.195312 585.714844 279.460938 587.066406 277.980469 C 588.429688 276.488281 589.121094 274.234375 589.121094 271.214844 L 589.121094 256.398438 L 591.804688 256.398438 L 591.804688 271.308594 C 591.804688 275.011719 590.859375 277.835938 588.980469 279.777344 C 587.113281 281.707031 584.488281 282.671875 581.117188 282.671875 Z M 581.117188 282.671875 " fill-opacity="1" fill-rule="nonzero"/><path fill="#000000" d="M 621.875 273.429688 L 621.875 282.4375 L 619.167969 282.4375 L 619.167969 273.429688 L 608.761719 256.398438 L 611.703125 256.398438 L 620.613281 271.027344 L 629.550781 256.398438 L 632.304688 256.398438 Z M 621.875 273.429688 " fill-opacity="1" fill-rule="nonzero"/><path fill="#000000" d="M 667.855469 280.058594 L 667.855469 282.4375 L 649.445312 282.4375 L 649.445312 256.398438 L 667.296875 256.398438 L 667.296875 258.777344 L 652.199219 258.777344 L 652.199219 268.039062 L 665.664062 268.039062 L 665.664062 270.398438 L 652.199219 270.398438 L 652.199219 280.058594 Z M 667.855469 280.058594 " fill-opacity="1" fill-rule="nonzero"/><path fill="#000000" d="M 708.941406 256.398438 L 708.941406 282.4375 L 706.675781 282.4375 L 689.949219 261.320312 L 689.949219 282.4375 L 687.195312 282.4375 L 687.195312 256.398438 L 689.457031 256.398438 L 706.234375 277.539062 L 706.234375 256.398438 Z M 708.941406 256.398438 " fill-opacity="1" fill-rule="nonzero"/><path fill="#000000" d="M 381.511719 405.085938 L 387.320312 405.085938 C 388.816406 405.085938 390.132812 405.386719 391.289062 405.996094 C 392.4375 406.601562 393.328125 407.441406 393.972656 408.515625 C 394.605469 409.585938 394.929688 410.820312 394.929688 412.199219 C 394.929688 413.589844 394.605469 414.8125 393.972656 415.886719 C 393.328125 416.960938 392.4375 417.800781 391.289062 418.40625 C 390.132812 419.015625 388.816406 419.316406 387.320312 419.316406 L 381.511719 419.316406 Z M 387.226562 418.011719 C 388.46875 418.011719 389.5625 417.773438 390.496094 417.289062 C 391.429688 416.792969 392.152344 416.109375 392.664062 415.234375 C 393.191406 414.347656 393.457031 413.339844 393.457031 412.199219 C 393.457031 411.070312 393.191406 410.066406 392.664062 409.191406 C 392.152344 408.320312 391.429688 407.640625 390.496094 407.136719 C 389.5625 406.640625 388.46875 406.390625 387.226562 406.390625 L 383.027344 406.390625 L 383.027344 418.011719 Z M 387.226562 418.011719 " fill-opacity="1" fill-rule="nonzero"/><path fill="#000000" d="M 421.402344 415.515625 L 413.46875 415.515625 L 411.765625 419.316406 L 410.203125 419.316406 L 416.691406 405.085938 L 418.183594 405.085938 L 424.691406 419.316406 L 423.105469 419.316406 Z M 420.84375 414.300781 L 417.4375 406.648438 L 414.007812 414.300781 Z M 420.84375 414.300781 " fill-opacity="1" fill-rule="nonzero"/><path fill="#000000" d="M 441.207031 405.085938 L 442.722656 405.085938 L 442.722656 418.011719 L 450.679688 418.011719 L 450.679688 419.316406 L 441.207031 419.316406 Z M 441.207031 405.085938 " fill-opacity="1" fill-rule="nonzero"/><path fill="#000000" d="M 479.246094 405.085938 L 479.246094 419.316406 L 477.753906 419.316406 L 477.753906 412.761719 L 468.863281 412.761719 L 468.863281 419.316406 L 467.347656 419.316406 L 467.347656 405.085938 L 468.863281 405.085938 L 468.863281 411.429688 L 477.753906 411.429688 L 477.753906 405.085938 Z M 479.246094 405.085938 " fill-opacity="1" fill-rule="nonzero"/><path fill="#000000" d="M 504.269531 419.433594 C 502.851562 419.433594 501.566406 419.125 500.417969 418.5 C 499.28125 417.863281 498.386719 417 497.734375 415.910156 C 497.09375 414.808594 496.777344 413.570312 496.777344 412.199219 C 496.777344 410.835938 497.09375 409.605469 497.734375 408.515625 C 498.386719 407.410156 499.28125 406.546875 500.417969 405.925781 C 501.566406 405.289062 502.851562 404.96875 504.269531 404.96875 C 505.667969 404.96875 506.933594 405.28125 508.070312 405.902344 C 509.203125 406.523438 510.089844 407.386719 510.730469 408.492188 C 511.382812 409.597656 511.710938 410.835938 511.710938 412.199219 C 511.710938 413.570312 511.382812 414.808594 510.730469 415.910156 C 510.089844 417.019531 509.203125 417.882812 508.070312 418.5 C 506.933594 419.125 505.667969 419.433594 504.269531 419.433594 Z M 504.269531 418.105469 C 505.386719 418.105469 506.398438 417.847656 507.300781 417.335938 C 508.21875 416.820312 508.933594 416.121094 509.449219 415.234375 C 509.960938 414.335938 510.21875 413.320312 510.21875 412.199219 C 510.21875 411.097656 509.960938 410.09375 509.449219 409.191406 C 508.933594 408.292969 508.21875 407.59375 507.300781 407.089844 C 506.398438 406.578125 505.386719 406.320312 504.269531 406.320312 C 503.148438 406.320312 502.128906 406.578125 501.210938 407.089844 C 500.289062 407.59375 499.566406 408.292969 499.042969 409.191406 C 498.527344 410.09375 498.269531 411.097656 498.269531 412.199219 C 498.269531 413.320312 498.527344 414.335938 499.042969 415.234375 C 499.566406 416.121094 500.289062 416.820312 501.210938 417.335938 C 502.128906 417.847656 503.148438 418.105469 504.269531 418.105469 Z M 504.269531 418.105469 " fill-opacity="1" fill-rule="nonzero"/><path fill="#000000" d="M 534.996094 419.433594 C 533.140625 419.433594 531.707031 418.910156 530.679688 417.847656 C 529.652344 416.792969 529.140625 415.257812 529.140625 413.25 L 529.140625 405.085938 L 530.65625 405.085938 L 530.65625 413.179688 C 530.65625 414.832031 531.019531 416.070312 531.753906 416.890625 C 532.5 417.703125 533.578125 418.105469 534.996094 418.105469 C 536.410156 418.105469 537.492188 417.703125 538.242188 416.890625 C 538.988281 416.070312 539.359375 414.832031 539.359375 413.179688 L 539.359375 405.085938 L 540.832031 405.085938 L 540.832031 413.25 C 540.832031 415.257812 540.316406 416.792969 539.289062 417.847656 C 538.265625 418.910156 536.828125 419.433594 534.996094 419.433594 Z M 534.996094 419.433594 " fill-opacity="1" fill-rule="nonzero"/><path fill="#000000" d="M 563.441406 419.433594 C 562.378906 419.433594 561.371094 419.269531 560.40625 418.945312 C 559.441406 418.605469 558.691406 418.152344 558.167969 417.589844 L 558.75 416.425781 C 559.265625 416.9375 559.949219 417.359375 560.804688 417.683594 C 561.65625 418 562.539062 418.152344 563.441406 418.152344 C 564.714844 418.152344 565.667969 417.917969 566.3125 417.449219 C 566.949219 416.984375 567.269531 416.378906 567.269531 415.632812 C 567.269531 415.070312 567.09375 414.621094 566.753906 414.277344 C 566.410156 413.9375 565.984375 413.683594 565.472656 413.507812 C 564.96875 413.320312 564.28125 413.121094 563.394531 412.902344 C 562.320312 412.621094 561.464844 412.359375 560.828125 412.109375 C 560.1875 411.863281 559.644531 411.476562 559.195312 410.964844 C 558.738281 410.449219 558.519531 409.75 558.519531 408.863281 C 558.519531 408.152344 558.703125 407.5 559.078125 406.902344 C 559.464844 406.316406 560.046875 405.847656 560.828125 405.503906 C 561.621094 405.148438 562.589844 404.96875 563.746094 404.96875 C 564.566406 404.96875 565.367188 405.085938 566.148438 405.316406 C 566.925781 405.539062 567.59375 405.84375 568.15625 406.226562 L 567.664062 407.417969 C 567.058594 407.03125 566.410156 406.742188 565.726562 406.554688 C 565.058594 406.355469 564.398438 406.25 563.746094 406.25 C 562.496094 406.25 561.558594 406.496094 560.921875 406.972656 C 560.296875 407.457031 559.988281 408.082031 559.988281 408.839844 C 559.988281 409.402344 560.15625 409.863281 560.5 410.21875 C 560.855469 410.5625 561.292969 410.824219 561.808594 411.011719 C 562.332031 411.1875 563.03125 411.378906 563.90625 411.59375 C 564.945312 411.863281 565.785156 412.121094 566.429688 412.363281 C 567.082031 412.613281 567.628906 412.996094 568.085938 413.507812 C 568.535156 414.007812 568.761719 414.691406 568.761719 415.5625 C 568.761719 416.277344 568.5625 416.933594 568.179688 417.519531 C 567.789062 418.117188 567.1875 418.582031 566.382812 418.921875 C 565.589844 419.265625 564.609375 419.433594 563.441406 419.433594 Z M 563.441406 419.433594 " fill-opacity="1" fill-rule="nonzero"/><path fill="#000000" d="M 586.191406 405.085938 L 587.707031 405.085938 L 587.707031 419.316406 L 586.191406 419.316406 Z M 586.191406 405.085938 " fill-opacity="1" fill-rule="nonzero"/><path fill="#000000" d="M 616.554688 418.011719 L 616.554688 419.316406 L 606.5 419.316406 L 606.5 405.085938 L 616.25 405.085938 L 616.25 406.390625 L 608.015625 406.390625 L 608.015625 411.453125 L 615.363281 411.453125 L 615.363281 412.738281 L 608.015625 412.738281 L 608.015625 418.011719 Z M 616.554688 418.011719 " fill-opacity="1" fill-rule="nonzero"/></svg>