<svg xmlns="http://www.w3.org/2000/svg" xmlns:xlink="http://www.w3.org/1999/xlink" width="2000" zoomAndPan="magnify" viewBox="0 0 1500 374.999991" height="500" preserveAspectRatio="xMidYMid meet" version="1.0"><defs><g/><clipPath id="46bd3cdc66"><path d="M 0 0 L 371 0 L 371 372 L 0 372 Z M 0 0 " clip-rule="nonzero"/></clipPath><clipPath id="ea3d11614f"><path d="M 59.457031 -0.472656 L 310.949219 -0.472656 C 312.917969 -0.472656 314.878906 -0.378906 316.832031 -0.183594 C 318.789062 0.0078125 320.730469 0.292969 322.660156 0.675781 C 324.585938 1.058594 326.492188 1.535156 328.371094 2.105469 C 330.253906 2.675781 332.101562 3.335938 333.917969 4.085938 C 335.734375 4.839844 337.507812 5.675781 339.242188 6.601562 C 340.976562 7.527344 342.660156 8.535156 344.292969 9.625 C 345.925781 10.714844 347.503906 11.882812 349.023438 13.128906 C 350.542969 14.371094 351.996094 15.6875 353.386719 17.074219 C 354.777344 18.464844 356.097656 19.914062 357.34375 21.433594 C 358.589844 22.949219 359.757812 24.523438 360.851562 26.15625 C 361.945312 27.789062 362.953125 29.46875 363.878906 31.199219 C 364.804688 32.929688 365.644531 34.703125 366.398438 36.515625 C 367.148438 38.328125 367.8125 40.171875 368.382812 42.050781 C 368.953125 43.929688 369.429688 45.832031 369.8125 47.753906 C 370.195312 49.679688 370.484375 51.617188 370.675781 53.570312 C 370.871094 55.523438 370.964844 57.484375 370.964844 59.445312 L 370.964844 312.070312 C 370.964844 314.03125 370.871094 315.992188 370.675781 317.945312 C 370.484375 319.894531 370.195312 321.835938 369.8125 323.757812 C 369.429688 325.683594 368.953125 327.585938 368.382812 329.464844 C 367.8125 331.339844 367.148438 333.1875 366.398438 335 C 365.644531 336.8125 364.804688 338.585938 363.878906 340.316406 C 362.953125 342.046875 361.945312 343.726562 360.851562 345.359375 C 359.757812 346.992188 358.589844 348.566406 357.34375 350.082031 C 356.097656 351.597656 354.777344 353.050781 353.386719 354.4375 C 351.996094 355.828125 350.542969 357.144531 349.023438 358.386719 C 347.503906 359.632812 345.925781 360.800781 344.292969 361.890625 C 342.660156 362.980469 340.976562 363.988281 339.242188 364.914062 C 337.507812 365.839844 335.734375 366.675781 333.917969 367.425781 C 332.101562 368.179688 330.253906 368.839844 328.371094 369.410156 C 326.492188 369.976562 324.585938 370.453125 322.660156 370.835938 C 320.730469 371.21875 318.789062 371.507812 316.832031 371.699219 C 314.878906 371.894531 312.917969 371.988281 310.949219 371.988281 L 59.457031 371.988281 C 57.492188 371.988281 55.53125 371.894531 53.574219 371.699219 C 51.621094 371.507812 49.675781 371.21875 47.75 370.835938 C 45.820312 370.453125 43.917969 369.980469 42.035156 369.410156 C 40.15625 368.839844 38.308594 368.179688 36.492188 367.429688 C 34.675781 366.675781 32.902344 365.839844 31.167969 364.914062 C 29.433594 363.988281 27.75 362.980469 26.117188 361.890625 C 24.480469 360.800781 22.90625 359.632812 21.386719 358.386719 C 19.867188 357.144531 18.410156 355.828125 17.019531 354.4375 C 15.632812 353.050781 14.3125 351.597656 13.066406 350.082031 C 11.820312 348.566406 10.648438 346.992188 9.558594 345.359375 C 8.464844 343.726562 7.457031 342.046875 6.53125 340.316406 C 5.601562 338.585938 4.765625 336.8125 4.011719 335 C 3.257812 333.1875 2.597656 331.339844 2.027344 329.464844 C 1.457031 327.585938 0.980469 325.683594 0.597656 323.757812 C 0.214844 321.835938 -0.0742188 319.894531 -0.269531 317.945312 C -0.460938 315.992188 -0.554688 314.03125 -0.554688 312.070312 L -0.554688 59.445312 C -0.554688 57.484375 -0.460938 55.523438 -0.269531 53.570312 C -0.0742188 51.617188 0.214844 49.679688 0.597656 47.753906 C 0.980469 45.832031 1.457031 43.929688 2.027344 42.050781 C 2.597656 40.171875 3.257812 38.328125 4.011719 36.515625 C 4.765625 34.703125 5.601562 32.929688 6.53125 31.199219 C 7.457031 29.46875 8.464844 27.789062 9.558594 26.15625 C 10.648438 24.523438 11.820312 22.949219 13.066406 21.433594 C 14.3125 19.914062 15.632812 18.464844 17.019531 17.074219 C 18.410156 15.6875 19.867188 14.371094 21.386719 13.128906 C 22.90625 11.882812 24.480469 10.714844 26.117188 9.625 C 27.75 8.535156 29.433594 7.527344 31.167969 6.601562 C 32.902344 5.675781 34.675781 4.839844 36.492188 4.085938 C 38.308594 3.335938 40.15625 2.675781 42.035156 2.105469 C 43.917969 1.535156 45.820312 1.0625 47.75 0.675781 C 49.675781 0.292969 51.621094 0.0078125 53.574219 -0.183594 C 55.53125 -0.378906 57.492188 -0.472656 59.457031 -0.472656 Z M 59.457031 -0.472656 " clip-rule="nonzero"/></clipPath><linearGradient x1="255.75369" gradientTransform="matrix(2.902065, 0, 0, 2.897415, -741.279684, -1232.83108)" y1="554.19629" x2="382.744546" gradientUnits="userSpaceOnUse" y2="424.986799" id="9cc0c209d6"><stop stop-opacity="1" stop-color="rgb(2.69928%, 0.39978%, 20.799255%)" offset="0"/><stop stop-opacity="1" stop-color="rgb(2.867126%, 0.480652%, 20.849609%)" offset="0.0625"/><stop stop-opacity="1" stop-color="rgb(3.189087%, 0.637817%, 20.94574%)" offset="0.0703125"/><stop stop-opacity="1" stop-color="rgb(3.500366%, 0.788879%, 21.038818%)" offset="0.078125"/><stop stop-opacity="1" stop-color="rgb(3.81012%, 0.939941%, 21.131897%)" offset="0.0859375"/><stop stop-opacity="1" stop-color="rgb(4.121399%, 1.091003%, 21.224976%)" offset="0.09375"/><stop stop-opacity="1" stop-color="rgb(4.431152%, 1.243591%, 21.31958%)" offset="0.101562"/><stop stop-opacity="1" stop-color="rgb(4.742432%, 1.394653%, 21.412659%)" offset="0.109375"/><stop stop-opacity="1" stop-color="rgb(5.052185%, 1.545715%, 21.505737%)" offset="0.117187"/><stop stop-opacity="1" stop-color="rgb(5.363464%, 1.696777%, 21.598816%)" offset="0.125"/><stop stop-opacity="1" stop-color="rgb(5.674744%, 1.847839%, 21.691895%)" offset="0.132812"/><stop stop-opacity="1" stop-color="rgb(5.984497%, 1.998901%, 21.784973%)" offset="0.140625"/><stop stop-opacity="1" stop-color="rgb(6.295776%, 2.151489%, 21.878052%)" offset="0.148437"/><stop stop-opacity="1" stop-color="rgb(6.60553%, 2.302551%, 21.97113%)" offset="0.15625"/><stop stop-opacity="1" stop-color="rgb(6.916809%, 2.453613%, 22.065735%)" offset="0.164062"/><stop stop-opacity="1" stop-color="rgb(7.226562%, 2.604675%, 22.158813%)" offset="0.171875"/><stop stop-opacity="1" stop-color="rgb(7.537842%, 2.755737%, 22.251892%)" offset="0.179687"/><stop stop-opacity="1" stop-color="rgb(7.847595%, 2.908325%, 22.344971%)" offset="0.1875"/><stop stop-opacity="1" stop-color="rgb(8.158875%, 3.059387%, 22.438049%)" offset="0.195312"/><stop stop-opacity="1" stop-color="rgb(8.468628%, 3.210449%, 22.531128%)" offset="0.203125"/><stop stop-opacity="1" stop-color="rgb(8.779907%, 3.361511%, 22.624207%)" offset="0.210937"/><stop stop-opacity="1" stop-color="rgb(9.091187%, 3.512573%, 22.717285%)" offset="0.21875"/><stop stop-opacity="1" stop-color="rgb(9.40094%, 3.663635%, 22.810364%)" offset="0.226562"/><stop stop-opacity="1" stop-color="rgb(9.712219%, 3.816223%, 22.904968%)" offset="0.234375"/><stop stop-opacity="1" stop-color="rgb(10.021973%, 3.967285%, 22.998047%)" offset="0.242187"/><stop stop-opacity="1" stop-color="rgb(10.333252%, 4.118347%, 23.091125%)" offset="0.25"/><stop stop-opacity="1" stop-color="rgb(10.643005%, 4.269409%, 23.184204%)" offset="0.257812"/><stop stop-opacity="1" stop-color="rgb(10.954285%, 4.420471%, 23.277283%)" offset="0.265625"/><stop stop-opacity="1" stop-color="rgb(11.264038%, 4.571533%, 23.370361%)" offset="0.273437"/><stop stop-opacity="1" stop-color="rgb(11.575317%, 4.724121%, 23.46344%)" offset="0.28125"/><stop stop-opacity="1" stop-color="rgb(11.885071%, 4.875183%, 23.556519%)" offset="0.289062"/><stop stop-opacity="1" stop-color="rgb(12.19635%, 5.026245%, 23.651123%)" offset="0.296875"/><stop stop-opacity="1" stop-color="rgb(12.507629%, 5.177307%, 23.744202%)" offset="0.304688"/><stop stop-opacity="1" stop-color="rgb(12.817383%, 5.328369%, 23.83728%)" offset="0.3125"/><stop stop-opacity="1" stop-color="rgb(13.128662%, 5.480957%, 23.930359%)" offset="0.320312"/><stop stop-opacity="1" stop-color="rgb(13.438416%, 5.632019%, 24.023438%)" offset="0.328125"/><stop stop-opacity="1" stop-color="rgb(13.749695%, 5.783081%, 24.116516%)" offset="0.335937"/><stop stop-opacity="1" stop-color="rgb(14.059448%, 5.934143%, 24.209595%)" offset="0.34375"/><stop stop-opacity="1" stop-color="rgb(14.370728%, 6.085205%, 24.302673%)" offset="0.351562"/><stop stop-opacity="1" stop-color="rgb(14.680481%, 6.236267%, 24.397278%)" offset="0.359375"/><stop stop-opacity="1" stop-color="rgb(14.99176%, 6.388855%, 24.490356%)" offset="0.367187"/><stop stop-opacity="1" stop-color="rgb(15.301514%, 6.539917%, 24.583435%)" offset="0.375"/><stop stop-opacity="1" stop-color="rgb(15.612793%, 6.690979%, 24.676514%)" offset="0.382812"/><stop stop-opacity="1" stop-color="rgb(15.924072%, 6.842041%, 24.769592%)" offset="0.390625"/><stop stop-opacity="1" stop-color="rgb(16.233826%, 6.993103%, 24.862671%)" offset="0.398437"/><stop stop-opacity="1" stop-color="rgb(16.545105%, 7.145691%, 24.95575%)" offset="0.40625"/><stop stop-opacity="1" stop-color="rgb(16.854858%, 7.296753%, 25.048828%)" offset="0.414062"/><stop stop-opacity="1" stop-color="rgb(17.166138%, 7.447815%, 25.143433%)" offset="0.421875"/><stop stop-opacity="1" stop-color="rgb(17.475891%, 7.598877%, 25.236511%)" offset="0.429687"/><stop stop-opacity="1" stop-color="rgb(17.78717%, 7.749939%, 25.32959%)" offset="0.4375"/><stop stop-opacity="1" stop-color="rgb(18.096924%, 7.901001%, 25.422668%)" offset="0.445312"/><stop stop-opacity="1" stop-color="rgb(18.408203%, 8.053589%, 25.515747%)" offset="0.453125"/><stop stop-opacity="1" stop-color="rgb(18.717957%, 8.204651%, 25.608826%)" offset="0.460937"/><stop stop-opacity="1" stop-color="rgb(19.029236%, 8.355713%, 25.701904%)" offset="0.46875"/><stop stop-opacity="1" stop-color="rgb(19.340515%, 8.506775%, 25.794983%)" offset="0.476562"/><stop stop-opacity="1" stop-color="rgb(19.650269%, 8.657837%, 25.889587%)" offset="0.484375"/><stop stop-opacity="1" stop-color="rgb(19.961548%, 8.808899%, 25.982666%)" offset="0.492187"/><stop stop-opacity="1" stop-color="rgb(20.271301%, 8.961487%, 26.075745%)" offset="0.494581"/><stop stop-opacity="1" stop-color="rgb(20.426941%, 9.037781%, 26.123047%)" offset="0.5"/><stop stop-opacity="1" stop-color="rgb(20.582581%, 9.112549%, 26.168823%)" offset="0.505419"/><stop stop-opacity="1" stop-color="rgb(20.73822%, 9.188843%, 26.216125%)" offset="0.507812"/><stop stop-opacity="1" stop-color="rgb(20.892334%, 9.263611%, 26.261902%)" offset="0.515625"/><stop stop-opacity="1" stop-color="rgb(21.203613%, 9.414673%, 26.35498%)" offset="0.523437"/><stop stop-opacity="1" stop-color="rgb(21.513367%, 9.565735%, 26.448059%)" offset="0.53125"/><stop stop-opacity="1" stop-color="rgb(21.824646%, 9.718323%, 26.541138%)" offset="0.539062"/><stop stop-opacity="1" stop-color="rgb(22.134399%, 9.869385%, 26.634216%)" offset="0.546875"/><stop stop-opacity="1" stop-color="rgb(22.445679%, 10.020447%, 26.728821%)" offset="0.554687"/><stop stop-opacity="1" stop-color="rgb(22.756958%, 10.171509%, 26.821899%)" offset="0.5625"/><stop stop-opacity="1" stop-color="rgb(23.066711%, 10.322571%, 26.914978%)" offset="0.570312"/><stop stop-opacity="1" stop-color="rgb(23.377991%, 10.473633%, 27.008057%)" offset="0.578125"/><stop stop-opacity="1" stop-color="rgb(23.687744%, 10.626221%, 27.101135%)" offset="0.585937"/><stop stop-opacity="1" stop-color="rgb(23.999023%, 10.777283%, 27.194214%)" offset="0.59375"/><stop stop-opacity="1" stop-color="rgb(24.308777%, 10.928345%, 27.287292%)" offset="0.601562"/><stop stop-opacity="1" stop-color="rgb(24.620056%, 11.079407%, 27.380371%)" offset="0.609375"/><stop stop-opacity="1" stop-color="rgb(24.92981%, 11.230469%, 27.474976%)" offset="0.617187"/><stop stop-opacity="1" stop-color="rgb(25.241089%, 11.381531%, 27.568054%)" offset="0.625"/><stop stop-opacity="1" stop-color="rgb(25.550842%, 11.534119%, 27.661133%)" offset="0.632812"/><stop stop-opacity="1" stop-color="rgb(25.862122%, 11.685181%, 27.754211%)" offset="0.640625"/><stop stop-opacity="1" stop-color="rgb(26.173401%, 11.836243%, 27.84729%)" offset="0.648437"/><stop stop-opacity="1" stop-color="rgb(26.483154%, 11.987305%, 27.940369%)" offset="0.65625"/><stop stop-opacity="1" stop-color="rgb(26.794434%, 12.138367%, 28.033447%)" offset="0.664062"/><stop stop-opacity="1" stop-color="rgb(27.104187%, 12.290955%, 28.126526%)" offset="0.671875"/><stop stop-opacity="1" stop-color="rgb(27.415466%, 12.442017%, 28.22113%)" offset="0.679687"/><stop stop-opacity="1" stop-color="rgb(27.72522%, 12.593079%, 28.314209%)" offset="0.6875"/><stop stop-opacity="1" stop-color="rgb(28.036499%, 12.744141%, 28.407288%)" offset="0.695312"/><stop stop-opacity="1" stop-color="rgb(28.346252%, 12.895203%, 28.500366%)" offset="0.703125"/><stop stop-opacity="1" stop-color="rgb(28.657532%, 13.046265%, 28.593445%)" offset="0.710937"/><stop stop-opacity="1" stop-color="rgb(28.967285%, 13.198853%, 28.686523%)" offset="0.71875"/><stop stop-opacity="1" stop-color="rgb(29.278564%, 13.349915%, 28.779602%)" offset="0.726562"/><stop stop-opacity="1" stop-color="rgb(29.589844%, 13.500977%, 28.872681%)" offset="0.734375"/><stop stop-opacity="1" stop-color="rgb(29.899597%, 13.652039%, 28.967285%)" offset="0.742187"/><stop stop-opacity="1" stop-color="rgb(30.210876%, 13.803101%, 29.060364%)" offset="0.75"/><stop stop-opacity="1" stop-color="rgb(30.52063%, 13.955688%, 29.153442%)" offset="0.757812"/><stop stop-opacity="1" stop-color="rgb(30.831909%, 14.10675%, 29.246521%)" offset="0.765625"/><stop stop-opacity="1" stop-color="rgb(31.141663%, 14.257812%, 29.3396%)" offset="0.773438"/><stop stop-opacity="1" stop-color="rgb(31.452942%, 14.408875%, 29.432678%)" offset="0.78125"/><stop stop-opacity="1" stop-color="rgb(31.762695%, 14.559937%, 29.525757%)" offset="0.789062"/><stop stop-opacity="1" stop-color="rgb(32.073975%, 14.710999%, 29.618835%)" offset="0.796875"/><stop stop-opacity="1" stop-color="rgb(32.383728%, 14.863586%, 29.711914%)" offset="0.804687"/><stop stop-opacity="1" stop-color="rgb(32.695007%, 15.014648%, 29.806519%)" offset="0.8125"/><stop stop-opacity="1" stop-color="rgb(33.006287%, 15.16571%, 29.899597%)" offset="0.820312"/><stop stop-opacity="1" stop-color="rgb(33.31604%, 15.316772%, 29.992676%)" offset="0.828125"/><stop stop-opacity="1" stop-color="rgb(33.627319%, 15.467834%, 30.085754%)" offset="0.835937"/><stop stop-opacity="1" stop-color="rgb(33.937073%, 15.618896%, 30.178833%)" offset="0.84375"/><stop stop-opacity="1" stop-color="rgb(34.248352%, 15.771484%, 30.271912%)" offset="0.851562"/><stop stop-opacity="1" stop-color="rgb(34.558105%, 15.922546%, 30.36499%)" offset="0.859375"/><stop stop-opacity="1" stop-color="rgb(34.869385%, 16.073608%, 30.458069%)" offset="0.867188"/><stop stop-opacity="1" stop-color="rgb(35.179138%, 16.22467%, 30.552673%)" offset="0.875"/><stop stop-opacity="1" stop-color="rgb(35.490417%, 16.375732%, 30.645752%)" offset="0.882812"/><stop stop-opacity="1" stop-color="rgb(35.800171%, 16.52832%, 30.738831%)" offset="0.890625"/><stop stop-opacity="1" stop-color="rgb(36.11145%, 16.679382%, 30.831909%)" offset="0.898438"/><stop stop-opacity="1" stop-color="rgb(36.422729%, 16.830444%, 30.924988%)" offset="0.90625"/><stop stop-opacity="1" stop-color="rgb(36.732483%, 16.981506%, 31.018066%)" offset="0.914062"/><stop stop-opacity="1" stop-color="rgb(37.043762%, 17.132568%, 31.111145%)" offset="0.921875"/><stop stop-opacity="1" stop-color="rgb(37.353516%, 17.28363%, 31.204224%)" offset="0.929687"/><stop stop-opacity="1" stop-color="rgb(37.664795%, 17.436218%, 31.298828%)" offset="0.9375"/><stop stop-opacity="1" stop-color="rgb(37.908936%, 17.555237%, 31.37207%)" offset="1"/></linearGradient></defs><g fill="#ffffff" fill-opacity="1"><g transform="translate(445.594061, 239.355618)"><g><path d="M 102.0625 -119.875 C 110.21875 -119.875 117.328125 -118.644531 123.390625 -116.1875 C 129.453125 -113.726562 134.070312 -110.367188 137.25 -106.109375 C 140.425781 -101.847656 142.015625 -96.957031 142.015625 -91.4375 C 142.015625 -88.320312 141.597656 -85.441406 140.765625 -82.796875 C 137.285156 -70.679688 127.265625 -63.003906 110.703125 -59.765625 C 116.460938 -58.078125 121.019531 -55.285156 124.375 -51.390625 C 127.738281 -47.492188 129.421875 -42.664062 129.421875 -36.90625 C 129.421875 -34.257812 128.941406 -31.140625 127.984375 -27.546875 C 125.335938 -18.179688 120.023438 -11.25 112.046875 -6.75 C 104.066406 -2.25 92.757812 0 78.125 0 L 3.234375 0 C 0.710938 0 -1.234375 -0.414062 -2.609375 -1.25 C -3.992188 -2.09375 -4.6875 -3.238281 -4.6875 -4.6875 C -4.6875 -5.40625 -4.503906 -6.179688 -4.140625 -7.015625 C -3.660156 -8.335938 -2.878906 -9.359375 -1.796875 -10.078125 C -0.722656 -10.796875 -0.0625 -11.21875 0.1875 -11.34375 C 2.101562 -12.539062 3.660156 -13.769531 4.859375 -15.03125 C 6.054688 -16.289062 7.078125 -18.359375 7.921875 -21.234375 L 29.875 -98.8125 C 30.351562 -100.375 30.59375 -101.875 30.59375 -103.3125 C 30.59375 -104.632812 30.382812 -105.742188 29.96875 -106.640625 C 29.550781 -107.546875 28.984375 -108.597656 28.265625 -109.796875 C 27.179688 -111.359375 26.640625 -112.617188 26.640625 -113.578125 C 26.640625 -113.941406 26.757812 -114.601562 27 -115.5625 C 27.476562 -117.125 28.523438 -118.234375 30.140625 -118.890625 C 31.765625 -119.546875 34.257812 -119.875 37.625 -119.875 Z M 93.953125 -86.9375 C 94.796875 -89.582031 95.21875 -92.039062 95.21875 -94.3125 C 95.21875 -100.5625 91.675781 -103.6875 84.59375 -103.6875 L 76.5 -103.6875 L 66.953125 -70.015625 L 74.875 -70.015625 C 79.914062 -70.015625 83.90625 -71.242188 86.84375 -73.703125 C 89.789062 -76.171875 92.160156 -80.582031 93.953125 -86.9375 Z M 80.8125 -34.015625 C 81.65625 -36.898438 82.078125 -39.539062 82.078125 -41.9375 C 82.078125 -48.414062 78.359375 -51.65625 70.921875 -51.65625 L 61.921875 -51.65625 L 51.65625 -16.203125 L 60.84375 -16.203125 C 66 -16.203125 70.132812 -17.488281 73.25 -20.0625 C 76.375 -22.644531 78.894531 -27.296875 80.8125 -34.015625 Z M 80.8125 -34.015625 "/></g></g></g><g fill="#ffffff" fill-opacity="1"><g transform="translate(582.57406, 239.355618)"><g><path d="M 69.65625 -95.21875 C 85.976562 -95.21875 98.007812 -91.914062 105.75 -85.3125 C 113.488281 -78.71875 117.359375 -70.082031 117.359375 -59.40625 C 117.359375 -55.800781 116.878906 -51.78125 115.921875 -47.34375 C 113.640625 -37.5 109.378906 -28.882812 103.140625 -21.5 C 96.898438 -14.125 89.25 -8.425781 80.1875 -4.40625 C 71.125 -0.382812 61.316406 1.625 50.765625 1.625 C 34.078125 1.625 21.742188 -1.703125 13.765625 -8.359375 C 5.785156 -15.023438 1.796875 -23.878906 1.796875 -34.921875 C 1.796875 -38.640625 2.273438 -42.78125 3.234375 -47.34375 C 5.515625 -56.695312 9.863281 -65.003906 16.28125 -72.265625 C 22.707031 -79.523438 30.566406 -85.164062 39.859375 -89.1875 C 49.160156 -93.207031 59.09375 -95.21875 69.65625 -95.21875 Z M 69.125 -79.203125 C 66.601562 -79.203125 63.929688 -76.953125 61.109375 -72.453125 C 58.285156 -67.953125 54.957031 -59.460938 51.125 -46.984375 C 47.28125 -34.503906 45.359375 -25.742188 45.359375 -20.703125 C 45.359375 -18.054688 45.773438 -16.285156 46.609375 -15.390625 C 47.453125 -14.492188 48.597656 -14.046875 50.046875 -14.046875 C 52.554688 -13.804688 55.160156 -15.960938 57.859375 -20.515625 C 60.566406 -25.078125 63.960938 -33.957031 68.046875 -47.15625 C 71.765625 -58.800781 73.625 -67.265625 73.625 -72.546875 C 73.625 -75.054688 73.234375 -76.789062 72.453125 -77.75 C 71.671875 -78.71875 70.5625 -79.203125 69.125 -79.203125 Z M 69.125 -79.203125 "/></g></g><g transform="translate(700.654052, 239.355618)"><g><path d="M 69.65625 -95.21875 C 85.976562 -95.21875 98.007812 -91.914062 105.75 -85.3125 C 113.488281 -78.71875 117.359375 -70.082031 117.359375 -59.40625 C 117.359375 -55.800781 116.878906 -51.78125 115.921875 -47.34375 C 113.640625 -37.5 109.378906 -28.882812 103.140625 -21.5 C 96.898438 -14.125 89.25 -8.425781 80.1875 -4.40625 C 71.125 -0.382812 61.316406 1.625 50.765625 1.625 C 34.078125 1.625 21.742188 -1.703125 13.765625 -8.359375 C 5.785156 -15.023438 1.796875 -23.878906 1.796875 -34.921875 C 1.796875 -38.640625 2.273438 -42.78125 3.234375 -47.34375 C 5.515625 -56.695312 9.863281 -65.003906 16.28125 -72.265625 C 22.707031 -79.523438 30.566406 -85.164062 39.859375 -89.1875 C 49.160156 -93.207031 59.09375 -95.21875 69.65625 -95.21875 Z M 69.125 -79.203125 C 66.601562 -79.203125 63.929688 -76.953125 61.109375 -72.453125 C 58.285156 -67.953125 54.957031 -59.460938 51.125 -46.984375 C 47.28125 -34.503906 45.359375 -25.742188 45.359375 -20.703125 C 45.359375 -18.054688 45.773438 -16.285156 46.609375 -15.390625 C 47.453125 -14.492188 48.597656 -14.046875 50.046875 -14.046875 C 52.554688 -13.804688 55.160156 -15.960938 57.859375 -20.515625 C 60.566406 -25.078125 63.960938 -33.957031 68.046875 -47.15625 C 71.765625 -58.800781 73.625 -67.265625 73.625 -72.546875 C 73.625 -75.054688 73.234375 -76.789062 72.453125 -77.75 C 71.671875 -78.71875 70.5625 -79.203125 69.125 -79.203125 Z M 69.125 -79.203125 "/></g></g><g transform="translate(818.734044, 239.355618)"><g><path d="M 80.453125 -92.875 C 82.734375 -92.875 84.503906 -92.394531 85.765625 -91.4375 C 87.023438 -90.476562 87.65625 -89.160156 87.65625 -87.484375 C 87.65625 -87.003906 87.535156 -86.160156 87.296875 -84.953125 C 85.734375 -79.679688 82.132812 -77.046875 76.5 -77.046875 L 66.0625 -77.046875 L 52.5625 -32.578125 C 51.957031 -30.773438 51.65625 -28.914062 51.65625 -27 C 51.65625 -24.84375 52.253906 -23.34375 53.453125 -22.5 C 54.660156 -21.65625 56.34375 -21.234375 58.5 -21.234375 C 60.414062 -21.234375 62.816406 -21.472656 65.703125 -21.953125 C 67.140625 -22.316406 68.398438 -22.5 69.484375 -22.5 C 70.316406 -22.5 70.941406 -22.226562 71.359375 -21.6875 C 71.785156 -21.144531 72 -20.457031 72 -19.625 C 72.125 -17.21875 70.351562 -14.304688 66.6875 -10.890625 C 63.03125 -7.472656 58.082031 -4.53125 51.84375 -2.0625 C 45.601562 0.394531 38.703125 1.625 31.140625 1.625 C 22.984375 1.625 16.441406 -0.234375 11.515625 -3.953125 C 6.597656 -7.679688 4.140625 -12.785156 4.140625 -19.265625 C 4.140625 -22.265625 4.617188 -25.144531 5.578125 -27.90625 L 17.09375 -63.546875 C 17.695312 -65.578125 18 -67.195312 18 -68.40625 C 18 -70.800781 17.425781 -72.835938 16.28125 -74.515625 C 15.144531 -76.203125 13.554688 -77.941406 11.515625 -79.734375 C 9.710938 -81.421875 8.453125 -82.832031 7.734375 -83.96875 C 7.015625 -85.113281 6.835938 -86.460938 7.203125 -88.015625 C 7.679688 -89.578125 8.695312 -90.773438 10.25 -91.609375 C 11.8125 -92.453125 14.273438 -92.875 17.640625 -92.875 L 27.71875 -92.875 L 39.0625 -104.21875 C 43.019531 -108.175781 46.648438 -110.9375 49.953125 -112.5 C 53.253906 -114.0625 57.539062 -114.84375 62.8125 -114.84375 C 70.375 -114.84375 74.15625 -111.960938 74.15625 -106.203125 C 74.15625 -104.398438 73.914062 -102.71875 73.4375 -101.15625 L 70.921875 -92.875 Z M 80.453125 -92.875 "/></g></g><g transform="translate(896.134039, 239.355618)"><g><path d="M 59.21875 -96.84375 C 69.175781 -96.84375 77.785156 -95.941406 85.046875 -94.140625 C 92.304688 -92.335938 97.882812 -89.816406 101.78125 -86.578125 C 105.6875 -83.335938 107.640625 -79.675781 107.640625 -75.59375 C 107.640625 -71.394531 105.988281 -67.972656 102.6875 -65.328125 C 99.382812 -62.691406 94.796875 -61.375 88.921875 -61.375 C 82.921875 -61.375 77.847656 -62.875 73.703125 -65.875 C 69.566406 -68.875 67.5 -72.65625 67.5 -77.21875 C 67.5 -78.78125 67.738281 -80.28125 68.21875 -81.71875 C 66.0625 -82.320312 64.140625 -82.625 62.453125 -82.625 C 59.453125 -82.625 56.960938 -81.898438 54.984375 -80.453125 C 53.003906 -79.015625 52.078125 -76.976562 52.203125 -74.34375 C 52.203125 -71.21875 53.757812 -68.578125 56.875 -66.421875 C 60 -64.265625 65.039062 -61.5625 72 -58.3125 C 78 -55.675781 82.945312 -53.25 86.84375 -51.03125 C 90.75 -48.8125 94.050781 -46.019531 96.75 -42.65625 C 99.445312 -39.300781 100.796875 -35.34375 100.796875 -30.78125 C 100.796875 -29.820312 100.554688 -28.019531 100.078125 -25.375 C 98.160156 -17.332031 92.820312 -10.972656 84.0625 -6.296875 C 75.300781 -1.617188 63.78125 0.71875 49.5 0.71875 C 33.414062 0.71875 20.664062 -1.4375 11.25 -5.75 C 1.832031 -10.070312 -2.875 -16.015625 -2.875 -23.578125 C -2.875 -28.734375 -1.316406 -32.628906 1.796875 -35.265625 C 4.921875 -37.910156 9.0625 -39.234375 14.21875 -39.234375 C 20.21875 -39.234375 25.347656 -37.375 29.609375 -33.65625 C 33.867188 -29.9375 36 -25.195312 36 -19.4375 C 36 -17.875 35.816406 -16.253906 35.453125 -14.578125 C 38.335938 -13.859375 41.097656 -13.5 43.734375 -13.5 C 46.859375 -13.5 49.441406 -14.335938 51.484375 -16.015625 C 53.523438 -17.703125 54.546875 -20.046875 54.546875 -23.046875 C 54.421875 -25.804688 53.035156 -28.175781 50.390625 -30.15625 C 47.753906 -32.132812 43.554688 -34.503906 37.796875 -37.265625 C 32.398438 -39.785156 27.960938 -42.15625 24.484375 -44.375 C 21.003906 -46.59375 18.03125 -49.378906 15.5625 -52.734375 C 13.101562 -56.097656 11.875 -60.0625 11.875 -64.625 C 11.875 -74.457031 15.984375 -82.285156 24.203125 -88.109375 C 32.429688 -93.929688 44.101562 -96.84375 59.21875 -96.84375 Z M 59.21875 -96.84375 "/></g></g><g transform="translate(1002.874032, 239.355618)"><g><path d="M 80.453125 -92.875 C 82.734375 -92.875 84.503906 -92.394531 85.765625 -91.4375 C 87.023438 -90.476562 87.65625 -89.160156 87.65625 -87.484375 C 87.65625 -87.003906 87.535156 -86.160156 87.296875 -84.953125 C 85.734375 -79.679688 82.132812 -77.046875 76.5 -77.046875 L 66.0625 -77.046875 L 52.5625 -32.578125 C 51.957031 -30.773438 51.65625 -28.914062 51.65625 -27 C 51.65625 -24.84375 52.253906 -23.34375 53.453125 -22.5 C 54.660156 -21.65625 56.34375 -21.234375 58.5 -21.234375 C 60.414062 -21.234375 62.816406 -21.472656 65.703125 -21.953125 C 67.140625 -22.316406 68.398438 -22.5 69.484375 -22.5 C 70.316406 -22.5 70.941406 -22.226562 71.359375 -21.6875 C 71.785156 -21.144531 72 -20.457031 72 -19.625 C 72.125 -17.21875 70.351562 -14.304688 66.6875 -10.890625 C 63.03125 -7.472656 58.082031 -4.53125 51.84375 -2.0625 C 45.601562 0.394531 38.703125 1.625 31.140625 1.625 C 22.984375 1.625 16.441406 -0.234375 11.515625 -3.953125 C 6.597656 -7.679688 4.140625 -12.785156 4.140625 -19.265625 C 4.140625 -22.265625 4.617188 -25.144531 5.578125 -27.90625 L 17.09375 -63.546875 C 17.695312 -65.578125 18 -67.195312 18 -68.40625 C 18 -70.800781 17.425781 -72.835938 16.28125 -74.515625 C 15.144531 -76.203125 13.554688 -77.941406 11.515625 -79.734375 C 9.710938 -81.421875 8.453125 -82.832031 7.734375 -83.96875 C 7.015625 -85.113281 6.835938 -86.460938 7.203125 -88.015625 C 7.679688 -89.578125 8.695312 -90.773438 10.25 -91.609375 C 11.8125 -92.453125 14.273438 -92.875 17.640625 -92.875 L 27.71875 -92.875 L 39.0625 -104.21875 C 43.019531 -108.175781 46.648438 -110.9375 49.953125 -112.5 C 53.253906 -114.0625 57.539062 -114.84375 62.8125 -114.84375 C 70.375 -114.84375 74.15625 -111.960938 74.15625 -106.203125 C 74.15625 -104.398438 73.914062 -102.71875 73.4375 -101.15625 L 70.921875 -92.875 Z M 80.453125 -92.875 "/></g></g><g transform="translate(1080.274027, 239.355618)"><g><path d="M 88.375 -95.21875 C 95.09375 -95.21875 100.460938 -93.175781 104.484375 -89.09375 C 108.503906 -85.019531 110.515625 -79.984375 110.515625 -73.984375 C 110.515625 -71.703125 110.273438 -69.601562 109.796875 -67.6875 C 108.597656 -62.757812 106.316406 -58.972656 102.953125 -56.328125 C 99.597656 -53.691406 95.582031 -52.375 90.90625 -52.375 C 86.34375 -52.375 82.890625 -53.453125 80.546875 -55.609375 C 78.210938 -57.773438 76.144531 -60.660156 74.34375 -64.265625 C 73.382812 -66.296875 72.484375 -67.789062 71.640625 -68.75 C 70.796875 -69.71875 69.835938 -70.203125 68.765625 -70.203125 C 67.554688 -70.203125 66.503906 -69.71875 65.609375 -68.75 C 64.710938 -67.789062 63.90625 -66.113281 63.1875 -63.71875 L 49.3125 -18.71875 C 49.070312 -18.113281 48.953125 -17.210938 48.953125 -16.015625 C 48.953125 -14.460938 49.398438 -13.175781 50.296875 -12.15625 C 51.203125 -11.132812 52.4375 -10.144531 54 -9.1875 C 55.4375 -8.21875 56.394531 -7.429688 56.875 -6.828125 C 57.351562 -6.234375 57.535156 -5.457031 57.421875 -4.5 C 57.179688 -2.9375 56.3125 -1.796875 54.8125 -1.078125 C 53.3125 -0.359375 50.757812 0 47.15625 0 L 1.078125 0 C -2.035156 0 -4.28125 -0.507812 -5.65625 -1.53125 C -7.039062 -2.550781 -7.554688 -3.898438 -7.203125 -5.578125 C -6.722656 -7.015625 -5.460938 -8.273438 -3.421875 -9.359375 C -1.617188 -10.316406 -0.117188 -11.457031 1.078125 -12.78125 C 2.273438 -14.101562 3.296875 -16.203125 4.140625 -19.078125 L 20.15625 -71.09375 C 20.394531 -71.695312 20.515625 -72.539062 20.515625 -73.625 C 20.515625 -74.9375 20.242188 -75.953125 19.703125 -76.671875 C 19.171875 -77.398438 18.300781 -78.300781 17.09375 -79.375 C 15.894531 -80.332031 15.054688 -81.171875 14.578125 -81.890625 C 14.097656 -82.617188 14.039062 -83.582031 14.40625 -84.78125 C 15.125 -87.539062 18.898438 -89.96875 25.734375 -92.0625 C 32.578125 -94.164062 39.71875 -95.21875 47.15625 -95.21875 C 52.082031 -95.21875 56.164062 -94.109375 59.40625 -91.890625 C 62.644531 -89.671875 64.742188 -86.519531 65.703125 -82.4375 C 71.460938 -90.957031 79.019531 -95.21875 88.375 -95.21875 Z M 88.375 -95.21875 "/></g></g><g transform="translate(1184.49402, 239.355618)"><g><path d="M 64.265625 -95.21875 C 78.054688 -95.21875 89.09375 -92.664062 97.375 -87.5625 C 105.65625 -82.46875 109.796875 -74.703125 109.796875 -64.265625 C 109.796875 -60.296875 109.078125 -55.796875 107.640625 -50.765625 L 100.265625 -25.921875 C 100.140625 -25.441406 100.078125 -24.84375 100.078125 -24.125 C 100.078125 -22.195312 100.859375 -21.234375 102.421875 -21.234375 C 103.859375 -21.234375 105.085938 -21.863281 106.109375 -23.125 C 107.128906 -24.382812 107.820312 -25.015625 108.1875 -25.015625 C 108.78125 -25.015625 109.285156 -24.59375 109.703125 -23.75 C 110.128906 -22.914062 110.34375 -21.957031 110.34375 -20.875 C 110.457031 -17.632812 109.222656 -14.332031 106.640625 -10.96875 C 104.066406 -7.613281 100.617188 -4.851562 96.296875 -2.6875 C 91.972656 -0.53125 87.234375 0.546875 82.078125 0.546875 C 75.835938 0.546875 70.5 -0.59375 66.0625 -2.875 C 61.625 -5.15625 58.5625 -8.515625 56.875 -12.953125 C 53.28125 -8.640625 49.019531 -5.3125 44.09375 -2.96875 C 39.175781 -0.625 33.898438 0.546875 28.265625 0.546875 C 21.898438 0.546875 16.554688 -0.679688 12.234375 -3.140625 C 7.921875 -5.609375 4.710938 -8.789062 2.609375 -12.6875 C 0.503906 -16.59375 -0.546875 -20.703125 -0.546875 -25.015625 C -0.546875 -26.941406 -0.363281 -28.800781 0 -30.59375 C 1.914062 -38.875 6.082031 -45.113281 12.5 -49.3125 C 18.925781 -53.519531 26.578125 -55.625 35.453125 -55.625 C 45.421875 -55.625 55.203125 -54.0625 64.796875 -50.9375 L 69.296875 -62.8125 C 70.859375 -67.851562 71.640625 -71.753906 71.640625 -74.515625 C 71.515625 -77.398438 70.550781 -79.5625 68.75 -81 C 66.957031 -82.4375 64.203125 -83.15625 60.484375 -83.15625 C 61.203125 -81.238281 61.5625 -79.257812 61.5625 -77.21875 C 61.5625 -72.78125 59.878906 -68.941406 56.515625 -65.703125 C 53.160156 -62.460938 48.363281 -60.84375 42.125 -60.84375 C 36.238281 -60.84375 31.644531 -62.128906 28.34375 -64.703125 C 25.050781 -67.285156 23.40625 -70.5 23.40625 -74.34375 C 23.40625 -80.34375 26.765625 -85.320312 33.484375 -89.28125 C 40.203125 -93.238281 50.460938 -95.21875 64.265625 -95.21875 Z M 54.1875 -40.6875 C 50.820312 -40.6875 48.085938 -39.394531 45.984375 -36.8125 C 43.890625 -34.226562 42.84375 -31.4375 42.84375 -28.4375 C 42.84375 -26.519531 43.289062 -24.957031 44.1875 -23.75 C 45.09375 -22.550781 46.382812 -21.953125 48.0625 -21.953125 C 49.625 -21.953125 51.332031 -22.582031 53.1875 -23.84375 C 55.050781 -25.101562 56.398438 -26.992188 57.234375 -29.515625 L 61.015625 -40.140625 C 58.972656 -40.503906 56.695312 -40.6875 54.1875 -40.6875 Z M 54.1875 -40.6875 "/></g></g><g transform="translate(1302.214012, 239.355618)"><g><path d="M 94.140625 -95.9375 C 103.378906 -95.9375 110.640625 -92.875 115.921875 -86.75 C 121.203125 -80.632812 123.84375 -72.296875 123.84375 -61.734375 C 123.84375 -56.097656 123.0625 -50.160156 121.5 -43.921875 C 117.894531 -29.035156 111.171875 -17.722656 101.328125 -9.984375 C 91.492188 -2.242188 80.097656 1.625 67.140625 1.625 C 58.859375 1.625 51.660156 -0.113281 45.546875 -3.59375 L 39.78125 15.65625 C 39.300781 16.976562 39.0625 18.238281 39.0625 19.4375 C 39.0625 20.757812 39.359375 21.867188 39.953125 22.765625 C 40.554688 23.671875 41.335938 24.539062 42.296875 25.375 C 43.253906 26.332031 43.882812 27.113281 44.1875 27.71875 C 44.488281 28.320312 44.519531 29.039062 44.28125 29.875 C 43.800781 31.4375 42.660156 32.546875 40.859375 33.203125 C 39.054688 33.867188 36.296875 34.203125 32.578125 34.203125 L -8.640625 34.203125 C -11.753906 34.203125 -14 33.691406 -15.375 32.671875 C -16.757812 31.648438 -17.15625 30.359375 -16.5625 28.796875 C -16.320312 27.835938 -15.898438 27.054688 -15.296875 26.453125 C -14.703125 25.859375 -13.863281 25.320312 -12.78125 24.84375 C -10.976562 23.644531 -9.535156 22.414062 -8.453125 21.15625 C -7.378906 19.894531 -6.421875 17.882812 -5.578125 15.125 L 20.703125 -71.09375 C 21.054688 -72.175781 21.234375 -73.078125 21.234375 -73.796875 C 21.234375 -75.117188 20.929688 -76.171875 20.328125 -76.953125 C 19.734375 -77.734375 18.835938 -78.539062 17.640625 -79.375 C 16.441406 -80.332031 15.601562 -81.171875 15.125 -81.890625 C 14.644531 -82.617188 14.582031 -83.582031 14.9375 -84.78125 C 15.65625 -87.539062 19.4375 -89.96875 26.28125 -92.0625 C 33.125 -94.164062 40.265625 -95.21875 47.703125 -95.21875 C 52.984375 -95.21875 57.332031 -93.894531 60.75 -91.25 C 64.164062 -88.613281 66.113281 -84.957031 66.59375 -80.28125 C 74.757812 -90.71875 83.941406 -95.9375 94.140625 -95.9375 Z M 73.265625 -42.484375 C 76.140625 -53.160156 77.578125 -60.539062 77.578125 -64.625 C 77.578125 -67.144531 77.1875 -68.789062 76.40625 -69.5625 C 75.625 -70.34375 74.515625 -70.734375 73.078125 -70.734375 C 71.992188 -70.734375 70.613281 -70.222656 68.9375 -69.203125 C 67.257812 -68.191406 65.582031 -66.484375 63.90625 -64.078125 L 49.6875 -16.921875 C 51.125 -15.484375 52.863281 -14.765625 54.90625 -14.765625 C 58.144531 -14.765625 61.234375 -16.59375 64.171875 -20.25 C 67.109375 -23.90625 70.140625 -31.316406 73.265625 -42.484375 Z M 73.265625 -42.484375 "/></g></g></g><g clip-path="url(#46bd3cdc66)"><g clip-path="url(#ea3d11614f)"><path fill="url(#9cc0c209d6)" d="M 0 0 L 0 371.988281 L 370.964844 371.988281 L 370.964844 0 Z M 0 0 " fill-rule="nonzero"/></g></g><path fill="#ffffff" d="M 187.992188 159.839844 C 197.480469 159.839844 204.671875 157.8125 209.574219 153.660156 C 214.476562 149.507812 216.925781 143.460938 216.925781 135.425781 C 216.925781 127.492188 214.476562 121.46875 209.574219 117.347656 C 204.640625 113.121094 197.476562 111.011719 187.992188 111.011719 L 154.675781 111.011719 L 154.675781 159.84375 L 187.992188 159.84375 M 190.023438 260.75 C 202.113281 260.75 211.1875 258.230469 217.234375 253.179688 C 223.386719 248.132812 226.464844 240.511719 226.464844 230.3125 C 226.464844 220.316406 223.4375 212.847656 217.390625 207.90625 C 211.34375 202.859375 202.222656 200.335938 190.023438 200.335938 L 154.679688 200.335938 L 154.679688 260.757812 L 190.023438 260.757812 M 246.015625 177.777344 C 258.941406 181.484375 268.953125 188.335938 276.042969 198.328125 C 283.132812 208.316406 286.675781 220.578125 286.679688 235.105469 C 286.679688 257.359375 279.066406 273.945312 263.84375 284.867188 C 248.625 295.785156 225.480469 301.246094 194.40625 301.246094 L 94.472656 301.246094 L 94.472656 70.582031 L 184.871094 70.582031 C 217.296875 70.582031 240.757812 75.421875 255.246094 85.109375 C 269.84375 94.789062 277.140625 110.296875 277.140625 131.621094 C 277.140625 142.851562 274.484375 152.433594 269.167969 160.363281 C 263.851562 168.195312 256.109375 173.984375 246.019531 177.828125 " fill-opacity="1" fill-rule="nonzero"/></svg>