<svg xmlns="http://www.w3.org/2000/svg" xmlns:xlink="http://www.w3.org/1999/xlink" width="2000" zoomAndPan="magnify" viewBox="0 0 1500 374.999991" height="500" preserveAspectRatio="xMidYMid meet" version="1.0"><defs><g/></defs><g fill="#ffffff" fill-opacity="1"><g transform="translate(479.753896, 251.999983)"><g><path d="M 83.515625 1.4375 C 70.078125 1.4375 58 -1.039062 47.28125 -6 C 36.5625 -10.957031 28.039062 -18.273438 21.71875 -27.953125 C 15.394531 -37.640625 12.234375 -49.363281 12.234375 -63.125 C 12.234375 -72.71875 13.914062 -83.113281 17.28125 -94.3125 C 24.632812 -118.3125 35.75 -135.628906 50.625 -146.265625 C 65.507812 -156.910156 81.4375 -162.234375 98.40625 -162.234375 C 107.519531 -162.234375 115.597656 -160.875 122.640625 -158.15625 C 129.679688 -155.4375 136.160156 -151.519531 142.078125 -146.40625 L 148.5625 -151.4375 C 152.882812 -154.800781 156.523438 -157.117188 159.484375 -158.390625 C 162.441406 -159.671875 165.757812 -160.3125 169.4375 -160.3125 C 173.4375 -160.3125 176.632812 -159.429688 179.03125 -157.671875 C 181.4375 -155.921875 182.640625 -153.363281 182.640625 -150 C 182.640625 -148.238281 182.320312 -146.476562 181.6875 -144.71875 L 168.234375 -107.28125 C 166.796875 -102.957031 165.078125 -99.914062 163.078125 -98.15625 C 161.078125 -96.394531 158.078125 -95.515625 154.078125 -95.515625 C 149.921875 -95.515625 146.519531 -96.992188 143.875 -99.953125 C 141.238281 -102.921875 138.238281 -108.003906 134.875 -115.203125 C 131.039062 -122.722656 127.921875 -127.679688 125.515625 -130.078125 C 123.117188 -132.484375 119.597656 -133.6875 114.953125 -133.6875 C 108.398438 -133.6875 102.082031 -129.644531 96 -121.5625 C 89.914062 -113.476562 84.394531 -101.359375 79.4375 -85.203125 C 75.28125 -71.597656 73.203125 -60.238281 73.203125 -51.125 C 73.203125 -43.125 74.71875 -37.160156 77.75 -33.234375 C 80.789062 -29.316406 84.875 -27.359375 90 -27.359375 C 97.519531 -27.359375 103.71875 -29.035156 108.59375 -32.390625 C 113.476562 -35.753906 118.476562 -40.316406 123.59375 -46.078125 C 126.800781 -49.597656 129.40625 -52.195312 131.40625 -53.875 C 133.40625 -55.5625 135.523438 -56.40625 137.765625 -56.40625 C 140.640625 -56.40625 143.675781 -54.960938 146.875 -52.078125 C 150.082031 -49.203125 151.601562 -46.320312 151.4375 -43.4375 C 151.601562 -39.914062 148.765625 -34.472656 142.921875 -27.109375 C 137.078125 -19.753906 128.992188 -13.15625 118.671875 -7.3125 C 108.359375 -1.476562 96.640625 1.4375 83.515625 1.4375 Z M 83.515625 1.4375 "/></g></g></g><g fill="#ffffff" fill-opacity="1"><g transform="translate(645.833578, 251.999983)"><g><path d="M 89.765625 -161.28125 C 98.722656 -161.28125 107 -160.195312 114.59375 -158.03125 C 122.195312 -155.875 129.921875 -152.476562 137.765625 -147.84375 L 143.28125 -152.40625 C 147.125 -155.4375 150.285156 -157.507812 152.765625 -158.625 C 155.242188 -159.75 158.082031 -160.3125 161.28125 -160.3125 C 165.125 -160.3125 168.164062 -159.472656 170.40625 -157.796875 C 172.644531 -156.117188 173.765625 -153.679688 173.765625 -150.484375 C 173.765625 -149.203125 173.523438 -147.84375 173.046875 -146.40625 L 162.953125 -113.28125 C 161.835938 -109.4375 160.4375 -106.710938 158.75 -105.109375 C 157.070312 -103.515625 154.554688 -102.71875 151.203125 -102.71875 C 147.679688 -102.71875 144.597656 -103.796875 141.953125 -105.953125 C 139.316406 -108.117188 135.195312 -112.5625 129.59375 -119.28125 C 124 -125.675781 118.921875 -130.191406 114.359375 -132.828125 C 109.796875 -135.472656 105.113281 -136.796875 100.3125 -136.796875 C 96.800781 -136.796875 93.84375 -135.632812 91.4375 -133.3125 C 89.039062 -131 87.84375 -128.160156 87.84375 -124.796875 C 87.84375 -120.960938 89.757812 -117.40625 93.59375 -114.125 C 97.4375 -110.84375 103.4375 -106.722656 111.59375 -101.765625 C 119.914062 -96.796875 126.796875 -92.3125 132.234375 -88.3125 C 137.679688 -84.3125 142.320312 -79.351562 146.15625 -73.4375 C 150 -67.519531 151.921875 -60.722656 151.921875 -53.046875 C 151.921875 -48.078125 151.117188 -43.113281 149.515625 -38.15625 C 145.679688 -25.351562 138.242188 -15.632812 127.203125 -9 C 116.160156 -2.363281 103.28125 0.953125 88.5625 0.953125 C 77.519531 0.953125 68.238281 -0.320312 60.71875 -2.875 C 53.195312 -5.4375 45.519531 -9.757812 37.6875 -15.84375 L 29.046875 -8.640625 C 25.046875 -5.273438 21.765625 -2.992188 19.203125 -1.796875 C 16.640625 -0.597656 13.757812 0 10.5625 0 C 6.882812 0 3.960938 -0.878906 1.796875 -2.640625 C -0.359375 -4.398438 -1.4375 -6.800781 -1.4375 -9.84375 C -1.4375 -11.4375 -1.117188 -13.113281 -0.484375 -14.875 L 11.28125 -50.640625 C 12.5625 -54.796875 14.320312 -57.753906 16.5625 -59.515625 C 18.800781 -61.273438 21.679688 -62.15625 25.203125 -62.15625 C 28.878906 -62.15625 32.195312 -60.875 35.15625 -58.3125 C 38.113281 -55.757812 41.992188 -51.125 46.796875 -44.40625 C 51.921875 -37.039062 56.679688 -31.914062 61.078125 -29.03125 C 65.484375 -26.15625 70.722656 -24.71875 76.796875 -24.71875 C 81.117188 -24.71875 84.4375 -25.394531 86.75 -26.75 C 89.070312 -28.113281 90.71875 -30.316406 91.6875 -33.359375 C 92 -34.160156 92.15625 -35.359375 92.15625 -36.953125 C 92.15625 -40.796875 90.316406 -44.316406 86.640625 -47.515625 C 82.960938 -50.710938 77.28125 -54.554688 69.59375 -59.046875 C 61.4375 -64.003906 54.796875 -68.441406 49.671875 -72.359375 C 44.554688 -76.273438 40.117188 -81.191406 36.359375 -87.109375 C 32.597656 -93.035156 30.71875 -100 30.71875 -108 C 30.71875 -113.601562 31.597656 -119.125 33.359375 -124.5625 C 36.722656 -135.601562 43.601562 -144.484375 54 -151.203125 C 64.394531 -157.921875 76.316406 -161.28125 89.765625 -161.28125 Z M 89.765625 -161.28125 "/></g></g></g><g fill="#ffffff" fill-opacity="1"><g transform="translate(811.193312, 251.999983)"><g><path d="M 89.765625 -161.28125 C 98.722656 -161.28125 107 -160.195312 114.59375 -158.03125 C 122.195312 -155.875 129.921875 -152.476562 137.765625 -147.84375 L 143.28125 -152.40625 C 147.125 -155.4375 150.285156 -157.507812 152.765625 -158.625 C 155.242188 -159.75 158.082031 -160.3125 161.28125 -160.3125 C 165.125 -160.3125 168.164062 -159.472656 170.40625 -157.796875 C 172.644531 -156.117188 173.765625 -153.679688 173.765625 -150.484375 C 173.765625 -149.203125 173.523438 -147.84375 173.046875 -146.40625 L 162.953125 -113.28125 C 161.835938 -109.4375 160.4375 -106.710938 158.75 -105.109375 C 157.070312 -103.515625 154.554688 -102.71875 151.203125 -102.71875 C 147.679688 -102.71875 144.597656 -103.796875 141.953125 -105.953125 C 139.316406 -108.117188 135.195312 -112.5625 129.59375 -119.28125 C 124 -125.675781 118.921875 -130.191406 114.359375 -132.828125 C 109.796875 -135.472656 105.113281 -136.796875 100.3125 -136.796875 C 96.800781 -136.796875 93.84375 -135.632812 91.4375 -133.3125 C 89.039062 -131 87.84375 -128.160156 87.84375 -124.796875 C 87.84375 -120.960938 89.757812 -117.40625 93.59375 -114.125 C 97.4375 -110.84375 103.4375 -106.722656 111.59375 -101.765625 C 119.914062 -96.796875 126.796875 -92.3125 132.234375 -88.3125 C 137.679688 -84.3125 142.320312 -79.351562 146.15625 -73.4375 C 150 -67.519531 151.921875 -60.722656 151.921875 -53.046875 C 151.921875 -48.078125 151.117188 -43.113281 149.515625 -38.15625 C 145.679688 -25.351562 138.242188 -15.632812 127.203125 -9 C 116.160156 -2.363281 103.28125 0.953125 88.5625 0.953125 C 77.519531 0.953125 68.238281 -0.320312 60.71875 -2.875 C 53.195312 -5.4375 45.519531 -9.757812 37.6875 -15.84375 L 29.046875 -8.640625 C 25.046875 -5.273438 21.765625 -2.992188 19.203125 -1.796875 C 16.640625 -0.597656 13.757812 0 10.5625 0 C 6.882812 0 3.960938 -0.878906 1.796875 -2.640625 C -0.359375 -4.398438 -1.4375 -6.800781 -1.4375 -9.84375 C -1.4375 -11.4375 -1.117188 -13.113281 -0.484375 -14.875 L 11.28125 -50.640625 C 12.5625 -54.796875 14.320312 -57.753906 16.5625 -59.515625 C 18.800781 -61.273438 21.679688 -62.15625 25.203125 -62.15625 C 28.878906 -62.15625 32.195312 -60.875 35.15625 -58.3125 C 38.113281 -55.757812 41.992188 -51.125 46.796875 -44.40625 C 51.921875 -37.039062 56.679688 -31.914062 61.078125 -29.03125 C 65.484375 -26.15625 70.722656 -24.71875 76.796875 -24.71875 C 81.117188 -24.71875 84.4375 -25.394531 86.75 -26.75 C 89.070312 -28.113281 90.71875 -30.316406 91.6875 -33.359375 C 92 -34.160156 92.15625 -35.359375 92.15625 -36.953125 C 92.15625 -40.796875 90.316406 -44.316406 86.640625 -47.515625 C 82.960938 -50.710938 77.28125 -54.554688 69.59375 -59.046875 C 61.4375 -64.003906 54.796875 -68.441406 49.671875 -72.359375 C 44.554688 -76.273438 40.117188 -81.191406 36.359375 -87.109375 C 32.597656 -93.035156 30.71875 -100 30.71875 -108 C 30.71875 -113.601562 31.597656 -119.125 33.359375 -124.5625 C 36.722656 -135.601562 43.601562 -144.484375 54 -151.203125 C 64.394531 -157.921875 76.316406 -161.28125 89.765625 -161.28125 Z M 89.765625 -161.28125 "/></g></g></g><path fill="#3747d6" d="M 16.96875 0.847656 C 12.101562 0.847656 7.46875 2.9375 4.246094 6.585938 C 1.027344 10.234375 -0.472656 15.09375 0.132812 19.921875 L 34.066406 291.414062 C 34.773438 297.042969 38.242188 301.949219 43.316406 304.488281 L 179.0625 372.359375 C 183.839844 374.75 189.464844 374.75 194.238281 372.359375 L 329.988281 304.488281 C 335.0625 301.949219 338.53125 297.042969 339.234375 291.414062 L 373.171875 19.921875 C 373.777344 15.09375 372.277344 10.234375 369.054688 6.585938 C 365.835938 2.9375 361.203125 0.847656 356.335938 0.847656 Z M 16.96875 0.847656 " fill-opacity="1" fill-rule="nonzero"/><path fill="#90caea" d="M 84.84375 51.753906 L 305.429688 51.753906 C 313.300781 51.753906 320.136719 57.164062 321.945312 64.824219 C 323.753906 72.480469 320.058594 80.378906 313.019531 83.898438 L 190.65625 145.078125 L 288.464844 145.078125 C 293.496094 145.078125 298.265625 147.3125 301.488281 151.175781 C 304.714844 155.039062 306.058594 160.132812 305.15625 165.082031 L 288.1875 258.410156 C 287.316406 263.214844 284.414062 267.410156 280.226562 269.921875 L 195.382812 320.828125 C 190.007812 324.050781 183.296875 324.050781 177.921875 320.828125 L 93.082031 269.921875 C 88.816406 267.363281 85.890625 263.066406 85.074219 258.164062 L 76.589844 207.257812 L 110.0625 201.679688 L 117.261719 244.855469 L 186.652344 286.488281 L 256.175781 244.777344 L 268.132812 179.015625 L 118.78125 179.015625 C 110.910156 179.015625 104.074219 173.605469 102.265625 165.945312 C 100.457031 158.289062 104.152344 150.390625 111.191406 146.871094 L 233.550781 85.691406 L 84.84375 85.691406 Z M 84.84375 51.753906 " fill-opacity="1" fill-rule="evenodd"/></svg>