<svg xmlns="http://www.w3.org/2000/svg" xmlns:xlink="http://www.w3.org/1999/xlink" width="2000" zoomAndPan="magnify" viewBox="0 0 1500 374.999991" height="500" preserveAspectRatio="xMidYMid meet" version="1.0"><defs><g/><clipPath id="a2b1a7c93b"><path d="M 0 185 L 298 185 L 298 265.84375 L 0 265.84375 Z M 0 185 " clip-rule="nonzero"/></clipPath><clipPath id="6cead5650d"><path d="M 54 91.09375 L 351.75 91.09375 L 351.75 172 L 54 172 Z M 54 91.09375 " clip-rule="nonzero"/></clipPath></defs><g fill="#ffffff" fill-opacity="1"><g transform="translate(333.131906, 242.318166)"><g><path d="M 123.78125 -126.234375 C 128.445312 -126.234375 132.078125 -125.222656 134.671875 -123.203125 C 137.265625 -121.179688 138.5625 -118.398438 138.5625 -114.859375 C 138.5625 -113.097656 138.304688 -111.394531 137.796875 -109.75 L 132.875 -92.125 C 131.988281 -88.707031 130.691406 -86.332031 128.984375 -85 C 127.273438 -83.675781 124.84375 -83.015625 121.6875 -83.015625 C 118.65625 -83.015625 116.285156 -83.675781 114.578125 -85 C 112.867188 -86.332031 111.578125 -88.515625 110.703125 -91.546875 L 107.65625 -102.359375 C 107.03125 -104.628906 106.273438 -106.144531 105.390625 -106.90625 C 104.503906 -107.664062 102.796875 -108.046875 100.265625 -108.046875 L 80.375 -108.046875 L 70.890625 -74.296875 L 79.234375 -74.296875 C 80.117188 -74.296875 81.316406 -74.929688 82.828125 -76.203125 L 89.28125 -81.890625 C 91.175781 -83.523438 92.816406 -84.722656 94.203125 -85.484375 C 95.597656 -86.242188 97.304688 -86.625 99.328125 -86.625 C 101.597656 -86.625 103.457031 -86.019531 104.90625 -84.8125 C 106.363281 -83.613281 107.09375 -82.066406 107.09375 -80.171875 C 107.09375 -79.671875 106.96875 -78.914062 106.71875 -77.90625 L 98.9375 -51.5625 C 98.1875 -48.78125 96.894531 -46.722656 95.0625 -45.390625 C 93.226562 -44.066406 91.238281 -43.40625 89.09375 -43.40625 C 85.550781 -43.40625 82.894531 -45.238281 81.125 -48.90625 L 77.90625 -55.53125 C 77.019531 -57.425781 75.628906 -58.375 73.734375 -58.375 L 66.34375 -58.375 L 55.15625 -18.203125 L 71.84375 -18.203125 C 74.238281 -18.203125 76.351562 -18.675781 78.1875 -19.625 C 80.019531 -20.570312 82.007812 -22.242188 84.15625 -24.640625 L 95.53125 -37.15625 C 97.550781 -39.300781 99.476562 -40.847656 101.3125 -41.796875 C 103.144531 -42.742188 105.390625 -43.21875 108.046875 -43.21875 C 110.828125 -43.21875 113.097656 -42.582031 114.859375 -41.3125 C 116.628906 -40.050781 117.515625 -38.160156 117.515625 -35.640625 C 117.515625 -34.628906 117.328125 -33.425781 116.953125 -32.03125 L 111.453125 -12.890625 C 110.066406 -8.085938 108.046875 -4.738281 105.390625 -2.84375 C 102.734375 -0.945312 98.878906 0 93.828125 0 L 3.40625 0 C 0.757812 0 -1.285156 -0.441406 -2.734375 -1.328125 C -4.191406 -2.210938 -4.921875 -3.410156 -4.921875 -4.921875 C -4.921875 -5.679688 -4.734375 -6.503906 -4.359375 -7.390625 C -3.847656 -8.785156 -3.023438 -9.859375 -1.890625 -10.609375 C -0.753906 -11.367188 -0.0625 -11.8125 0.1875 -11.9375 C 2.207031 -13.207031 3.847656 -14.503906 5.109375 -15.828125 C 6.378906 -17.148438 7.457031 -19.328125 8.34375 -22.359375 L 31.65625 -104.0625 C 32.15625 -105.707031 32.40625 -107.222656 32.40625 -108.609375 C 32.40625 -110.128906 32.179688 -111.394531 31.734375 -112.40625 C 31.296875 -113.414062 30.640625 -114.488281 29.765625 -115.625 C 28.617188 -117.269531 28.046875 -118.597656 28.046875 -119.609375 C 28.046875 -119.984375 28.175781 -120.675781 28.4375 -121.6875 C 28.9375 -123.332031 30.070312 -124.5 31.84375 -125.1875 C 33.613281 -125.882812 36.203125 -126.234375 39.609375 -126.234375 Z M 123.78125 -126.234375 "/></g></g></g><g fill="#ffffff" fill-opacity="1"><g transform="translate(460.31257, 242.318166)"><g><path d="M 180.265625 -26.15625 C 180.003906 -25.65625 179.875 -24.898438 179.875 -23.890625 C 179.875 -23.003906 180.09375 -22.304688 180.53125 -21.796875 C 180.976562 -21.296875 181.582031 -21.046875 182.34375 -21.046875 C 183.863281 -21.046875 185.160156 -21.707031 186.234375 -23.03125 C 187.304688 -24.351562 188.03125 -25.015625 188.40625 -25.015625 C 189.039062 -25.015625 189.546875 -24.601562 189.921875 -23.78125 C 190.304688 -22.96875 190.5 -21.988281 190.5 -20.84375 C 190.625 -17.1875 189.421875 -13.617188 186.890625 -10.140625 C 184.367188 -6.660156 180.671875 -3.816406 175.796875 -1.609375 C 170.929688 0.597656 165.085938 1.703125 158.265625 1.703125 C 149.929688 1.703125 143.300781 -0.222656 138.375 -4.078125 C 133.445312 -7.929688 130.914062 -13.078125 130.78125 -19.515625 C 130.78125 -24.191406 131.921875 -29.4375 134.203125 -35.25 L 144.625 -62.546875 C 145.257812 -64.191406 145.578125 -65.519531 145.578125 -66.53125 C 145.578125 -68.175781 145.035156 -69.472656 143.953125 -70.421875 C 142.878906 -71.367188 141.585938 -71.84375 140.078125 -71.84375 C 137.929688 -71.84375 135.71875 -70.894531 133.4375 -69 C 131.164062 -67.101562 129.144531 -64.132812 127.375 -60.09375 L 116.953125 -26.15625 C 116.703125 -25.65625 116.578125 -24.898438 116.578125 -23.890625 C 116.578125 -23.003906 116.796875 -22.304688 117.234375 -21.796875 C 117.671875 -21.296875 118.269531 -21.046875 119.03125 -21.046875 C 120.550781 -21.046875 121.847656 -21.707031 122.921875 -23.03125 C 123.992188 -24.351562 124.71875 -25.015625 125.09375 -25.015625 C 125.726562 -25.015625 126.234375 -24.601562 126.609375 -23.78125 C 126.992188 -22.96875 127.1875 -21.988281 127.1875 -20.84375 C 127.3125 -17.1875 126.109375 -13.617188 123.578125 -10.140625 C 121.054688 -6.660156 117.363281 -3.816406 112.5 -1.609375 C 107.632812 0.597656 101.789062 1.703125 94.96875 1.703125 C 86.625 1.703125 79.988281 -0.222656 75.0625 -4.078125 C 70.132812 -7.929688 67.609375 -13.078125 67.484375 -19.515625 C 67.484375 -24.191406 68.617188 -29.4375 70.890625 -35.25 L 81.3125 -62.546875 C 81.945312 -64.191406 82.265625 -65.519531 82.265625 -66.53125 C 82.265625 -68.175781 81.726562 -69.472656 80.65625 -70.421875 C 79.582031 -71.367188 78.285156 -71.84375 76.765625 -71.84375 C 74.617188 -71.84375 72.40625 -70.925781 70.125 -69.09375 C 67.851562 -67.257812 65.960938 -64.320312 64.453125 -60.28125 L 51.9375 -19.71875 C 51.425781 -18.320312 51.171875 -16.992188 51.171875 -15.734375 C 51.171875 -14.210938 51.488281 -12.976562 52.125 -12.03125 C 52.757812 -11.082031 53.644531 -10.101562 54.78125 -9.09375 C 55.664062 -8.34375 56.296875 -7.648438 56.671875 -7.015625 C 57.054688 -6.378906 57.117188 -5.617188 56.859375 -4.734375 C 56.359375 -3.097656 55.160156 -1.898438 53.265625 -1.140625 C 51.367188 -0.378906 48.398438 0 44.359375 0 L 1.140625 0 C -2.148438 0 -4.519531 -0.535156 -5.96875 -1.609375 C -7.425781 -2.679688 -7.960938 -4.101562 -7.578125 -5.875 C -7.078125 -7.394531 -5.75 -8.722656 -3.59375 -9.859375 C -1.707031 -10.867188 -0.132812 -12.066406 1.125 -13.453125 C 2.394531 -14.847656 3.472656 -17.0625 4.359375 -20.09375 L 21.234375 -74.875 C 21.484375 -75.5 21.609375 -76.382812 21.609375 -77.53125 C 21.609375 -78.914062 21.320312 -79.988281 20.75 -80.75 C 20.1875 -81.507812 19.269531 -82.457031 18 -83.59375 C 16.738281 -84.601562 15.851562 -85.484375 15.34375 -86.234375 C 14.84375 -86.992188 14.78125 -88.007812 15.15625 -89.28125 C 15.914062 -92.1875 19.894531 -94.742188 27.09375 -96.953125 C 34.300781 -99.160156 41.820312 -100.265625 49.65625 -100.265625 C 55.851562 -100.265625 60.75 -98.554688 64.34375 -95.140625 C 67.945312 -91.734375 69.6875 -87.0625 69.5625 -81.125 C 74.738281 -88.332031 80.203125 -93.320312 85.953125 -96.09375 C 91.703125 -98.875 97.925781 -100.265625 104.625 -100.265625 C 111.957031 -100.265625 117.925781 -98.148438 122.53125 -93.921875 C 127.144531 -89.691406 129.707031 -84.160156 130.21875 -77.328125 C 135.65625 -85.921875 141.46875 -91.890625 147.65625 -95.234375 C 153.84375 -98.585938 160.601562 -100.265625 167.9375 -100.265625 C 175.644531 -100.265625 181.867188 -97.925781 186.609375 -93.25 C 191.347656 -88.582031 193.71875 -82.519531 193.71875 -75.0625 C 193.71875 -71.144531 193.085938 -67.289062 191.828125 -63.5 Z M 180.265625 -26.15625 "/></g></g></g><g fill="#ffffff" fill-opacity="1"><g transform="translate(658.949442, 242.318166)"><g><path d="M 96.671875 -101.03125 C 106.023438 -101.03125 113.507812 -97.679688 119.125 -90.984375 C 124.75 -84.285156 127.5625 -75.441406 127.5625 -64.453125 C 127.5625 -58.765625 126.867188 -53.203125 125.484375 -47.765625 C 121.441406 -31.460938 114.519531 -19.140625 104.71875 -10.796875 C 94.925781 -2.460938 83.648438 1.703125 70.890625 1.703125 C 63.691406 1.703125 57.46875 0.472656 52.21875 -1.984375 C 46.976562 -4.453125 42.773438 -7.960938 39.609375 -12.515625 L 32.796875 -6.640625 C 30.140625 -4.359375 27.546875 -2.679688 25.015625 -1.609375 C 22.492188 -0.535156 19.585938 0 16.296875 0 L 7.96875 0 C 4.800781 0 2.363281 -0.660156 0.65625 -1.984375 C -1.039062 -3.316406 -1.890625 -5.242188 -1.890625 -7.765625 C -1.890625 -8.910156 -1.703125 -10.238281 -1.328125 -11.75 L 30.328125 -114.671875 C 30.703125 -115.804688 30.890625 -116.753906 30.890625 -117.515625 C 30.890625 -119.660156 29.566406 -121.679688 26.921875 -123.578125 C 25.648438 -124.722656 24.757812 -125.640625 24.25 -126.328125 C 23.75 -127.023438 23.691406 -127.941406 24.078125 -129.078125 C 24.960938 -131.984375 28.972656 -134.539062 36.109375 -136.75 C 43.242188 -138.96875 50.726562 -140.078125 58.5625 -140.078125 C 65.894531 -140.078125 71.296875 -138.65625 74.765625 -135.8125 C 78.242188 -132.96875 79.984375 -129.144531 79.984375 -124.34375 C 79.984375 -121.6875 79.539062 -119.03125 78.65625 -116.375 L 70.703125 -90.609375 C 78.023438 -97.554688 86.679688 -101.03125 96.671875 -101.03125 Z M 75.25 -48.90625 C 77.78125 -57.5 79.046875 -64.445312 79.046875 -69.75 C 79.046875 -75.5625 77.335938 -78.46875 73.921875 -78.46875 C 70.890625 -78.46875 68.046875 -76.890625 65.390625 -73.734375 L 53.078125 -33.546875 L 51.9375 -29.953125 C 51.300781 -28.054688 50.984375 -26.097656 50.984375 -24.078125 C 50.984375 -19.648438 53.070312 -17.4375 57.25 -17.4375 C 60.28125 -17.4375 63.179688 -19.644531 65.953125 -24.0625 C 68.734375 -28.488281 71.832031 -36.769531 75.25 -48.90625 Z M 75.25 -48.90625 "/></g></g></g><g fill="#ffffff" fill-opacity="1"><g transform="translate(787.267323, 242.318166)"><g><path d="M 64.25 -101.21875 C 80.300781 -101.21875 91.925781 -98.65625 99.125 -93.53125 C 106.332031 -88.414062 109.9375 -81.878906 109.9375 -73.921875 C 109.9375 -71.523438 109.679688 -69.316406 109.171875 -67.296875 C 107.273438 -58.953125 102 -52.976562 93.34375 -49.375 C 84.695312 -45.769531 74.492188 -43.96875 62.734375 -43.96875 C 56.796875 -43.96875 51.238281 -44.347656 46.0625 -45.109375 C 45.9375 -38.535156 47.703125 -33.921875 51.359375 -31.265625 C 55.023438 -28.617188 60.144531 -27.296875 66.71875 -27.296875 C 69.75 -27.296875 72.65625 -27.640625 75.4375 -28.328125 C 78.21875 -29.023438 81.753906 -30.070312 86.046875 -31.46875 C 89.585938 -32.726562 91.988281 -33.359375 93.25 -33.359375 C 94.644531 -33.359375 95.34375 -32.535156 95.34375 -30.890625 C 95.46875 -26.472656 93.820312 -21.832031 90.40625 -16.96875 C 87 -12.101562 81.945312 -7.960938 75.25 -4.546875 C 68.550781 -1.140625 60.460938 0.5625 50.984375 0.5625 C 36.960938 0.5625 25.460938 -2.972656 16.484375 -10.046875 C 7.515625 -17.117188 3.03125 -27.414062 3.03125 -40.9375 C 3.03125 -44.726562 3.535156 -49.148438 4.546875 -54.203125 C 7.703125 -69.753906 14.617188 -81.476562 25.296875 -89.375 C 35.984375 -97.269531 48.96875 -101.21875 64.25 -101.21875 Z M 47.390625 -56.484375 C 47.890625 -56.359375 48.582031 -56.296875 49.46875 -56.296875 C 54.78125 -56.296875 58.820312 -58.757812 61.59375 -63.6875 C 64.375 -68.613281 65.703125 -74.109375 65.578125 -80.171875 C 65.453125 -83.710938 64.441406 -85.484375 62.546875 -85.484375 C 61.160156 -85.484375 59.519531 -84.375 57.625 -82.15625 C 55.726562 -79.945312 53.863281 -76.628906 52.03125 -72.203125 C 50.195312 -67.785156 48.648438 -62.546875 47.390625 -56.484375 Z M 47.390625 -56.484375 "/></g></g></g><g fill="#ffffff" fill-opacity="1"><g transform="translate(893.409162, 242.318166)"><g><path d="M 105.953125 -27.296875 C 105.703125 -26.285156 105.578125 -25.585938 105.578125 -25.203125 C 105.578125 -24.328125 105.828125 -23.632812 106.328125 -23.125 C 106.835938 -22.613281 107.472656 -22.359375 108.234375 -22.359375 C 109.742188 -22.359375 111.035156 -23.019531 112.109375 -24.34375 C 113.191406 -25.675781 113.921875 -26.34375 114.296875 -26.34375 C 114.929688 -26.34375 115.4375 -25.898438 115.8125 -25.015625 C 116.1875 -24.128906 116.375 -23.117188 116.375 -21.984375 C 116.507812 -18.578125 115.21875 -15.101562 112.5 -11.5625 C 109.78125 -8.019531 106.144531 -5.113281 101.59375 -2.84375 C 97.039062 -0.570312 92.113281 0.5625 86.8125 0.5625 C 80.488281 0.5625 74.988281 -0.632812 70.3125 -3.03125 C 65.644531 -5.4375 62.425781 -8.597656 60.65625 -12.515625 C 57.238281 -8.085938 53.316406 -4.800781 48.890625 -2.65625 C 44.472656 -0.507812 39.800781 0.5625 34.875 0.5625 C 29.0625 0.5625 23.660156 -0.890625 18.671875 -3.796875 C 13.679688 -6.703125 9.703125 -10.835938 6.734375 -16.203125 C 3.765625 -21.578125 2.28125 -27.675781 2.28125 -34.5 C 2.28125 -46 4.457031 -56.832031 8.8125 -67 C 13.175781 -77.175781 19.273438 -85.390625 27.109375 -91.640625 C 34.941406 -97.898438 43.847656 -101.03125 53.828125 -101.03125 C 59.265625 -101.03125 63.910156 -100.394531 67.765625 -99.125 C 71.617188 -97.863281 75.125 -95.972656 78.28125 -93.453125 L 84.734375 -114.671875 C 85.109375 -115.804688 85.296875 -116.753906 85.296875 -117.515625 C 85.296875 -118.910156 84.945312 -120.046875 84.25 -120.921875 C 83.5625 -121.804688 82.644531 -122.691406 81.5 -123.578125 C 80.238281 -124.585938 79.320312 -125.472656 78.75 -126.234375 C 78.1875 -126.992188 78.09375 -128.003906 78.46875 -129.265625 C 79.226562 -132.171875 83.207031 -134.695312 90.40625 -136.84375 C 97.613281 -139 105.132812 -140.078125 112.96875 -140.078125 C 120.300781 -140.078125 125.703125 -138.6875 129.171875 -135.90625 C 132.648438 -133.125 134.390625 -129.332031 134.390625 -124.53125 C 134.390625 -121.75 133.945312 -119.03125 133.0625 -116.375 Z M 74.296875 -80.5625 C 72.273438 -82.332031 70.066406 -83.21875 67.671875 -83.21875 C 64.003906 -83.21875 60.398438 -80.5 56.859375 -75.0625 C 53.328125 -69.625 50.484375 -63.050781 48.328125 -55.34375 C 46.179688 -47.632812 45.171875 -40.6875 45.296875 -34.5 C 45.296875 -27.550781 47.570312 -24.078125 52.125 -24.078125 C 53.769531 -24.078125 55.160156 -24.738281 56.296875 -26.0625 C 57.429688 -27.382812 58.503906 -29.566406 59.515625 -32.609375 Z M 74.296875 -80.5625 "/></g></g></g><g fill="#ffffff" fill-opacity="1"><g transform="translate(1017.557225, 242.318166)"><g><path d="M 64.25 -101.21875 C 80.300781 -101.21875 91.925781 -98.65625 99.125 -93.53125 C 106.332031 -88.414062 109.9375 -81.878906 109.9375 -73.921875 C 109.9375 -71.523438 109.679688 -69.316406 109.171875 -67.296875 C 107.273438 -58.953125 102 -52.976562 93.34375 -49.375 C 84.695312 -45.769531 74.492188 -43.96875 62.734375 -43.96875 C 56.796875 -43.96875 51.238281 -44.347656 46.0625 -45.109375 C 45.9375 -38.535156 47.703125 -33.921875 51.359375 -31.265625 C 55.023438 -28.617188 60.144531 -27.296875 66.71875 -27.296875 C 69.75 -27.296875 72.65625 -27.640625 75.4375 -28.328125 C 78.21875 -29.023438 81.753906 -30.070312 86.046875 -31.46875 C 89.585938 -32.726562 91.988281 -33.359375 93.25 -33.359375 C 94.644531 -33.359375 95.34375 -32.535156 95.34375 -30.890625 C 95.46875 -26.472656 93.820312 -21.832031 90.40625 -16.96875 C 87 -12.101562 81.945312 -7.960938 75.25 -4.546875 C 68.550781 -1.140625 60.460938 0.5625 50.984375 0.5625 C 36.960938 0.5625 25.460938 -2.972656 16.484375 -10.046875 C 7.515625 -17.117188 3.03125 -27.414062 3.03125 -40.9375 C 3.03125 -44.726562 3.535156 -49.148438 4.546875 -54.203125 C 7.703125 -69.753906 14.617188 -81.476562 25.296875 -89.375 C 35.984375 -97.269531 48.96875 -101.21875 64.25 -101.21875 Z M 47.390625 -56.484375 C 47.890625 -56.359375 48.582031 -56.296875 49.46875 -56.296875 C 54.78125 -56.296875 58.820312 -58.757812 61.59375 -63.6875 C 64.375 -68.613281 65.703125 -74.109375 65.578125 -80.171875 C 65.453125 -83.710938 64.441406 -85.484375 62.546875 -85.484375 C 61.160156 -85.484375 59.519531 -84.375 57.625 -82.15625 C 55.726562 -79.945312 53.863281 -76.628906 52.03125 -72.203125 C 50.195312 -67.785156 48.648438 -62.546875 47.390625 -56.484375 Z M 47.390625 -56.484375 "/></g></g></g><g fill="#ffffff" fill-opacity="1"><g transform="translate(1123.699064, 242.318166)"><g><path d="M 105.953125 -27.296875 C 105.703125 -26.285156 105.578125 -25.585938 105.578125 -25.203125 C 105.578125 -24.328125 105.828125 -23.632812 106.328125 -23.125 C 106.835938 -22.613281 107.472656 -22.359375 108.234375 -22.359375 C 109.742188 -22.359375 111.035156 -23.019531 112.109375 -24.34375 C 113.191406 -25.675781 113.921875 -26.34375 114.296875 -26.34375 C 114.929688 -26.34375 115.4375 -25.898438 115.8125 -25.015625 C 116.1875 -24.128906 116.375 -23.117188 116.375 -21.984375 C 116.507812 -18.578125 115.21875 -15.101562 112.5 -11.5625 C 109.78125 -8.019531 106.144531 -5.113281 101.59375 -2.84375 C 97.039062 -0.570312 92.113281 0.5625 86.8125 0.5625 C 80.488281 0.5625 74.988281 -0.632812 70.3125 -3.03125 C 65.644531 -5.4375 62.425781 -8.597656 60.65625 -12.515625 C 57.238281 -8.085938 53.316406 -4.800781 48.890625 -2.65625 C 44.472656 -0.507812 39.800781 0.5625 34.875 0.5625 C 29.0625 0.5625 23.660156 -0.890625 18.671875 -3.796875 C 13.679688 -6.703125 9.703125 -10.835938 6.734375 -16.203125 C 3.765625 -21.578125 2.28125 -27.675781 2.28125 -34.5 C 2.28125 -46 4.457031 -56.832031 8.8125 -67 C 13.175781 -77.175781 19.273438 -85.390625 27.109375 -91.640625 C 34.941406 -97.898438 43.847656 -101.03125 53.828125 -101.03125 C 59.265625 -101.03125 63.910156 -100.394531 67.765625 -99.125 C 71.617188 -97.863281 75.125 -95.972656 78.28125 -93.453125 L 84.734375 -114.671875 C 85.109375 -115.804688 85.296875 -116.753906 85.296875 -117.515625 C 85.296875 -118.910156 84.945312 -120.046875 84.25 -120.921875 C 83.5625 -121.804688 82.644531 -122.691406 81.5 -123.578125 C 80.238281 -124.585938 79.320312 -125.472656 78.75 -126.234375 C 78.1875 -126.992188 78.09375 -128.003906 78.46875 -129.265625 C 79.226562 -132.171875 83.207031 -134.695312 90.40625 -136.84375 C 97.613281 -139 105.132812 -140.078125 112.96875 -140.078125 C 120.300781 -140.078125 125.703125 -138.6875 129.171875 -135.90625 C 132.648438 -133.125 134.390625 -129.332031 134.390625 -124.53125 C 134.390625 -121.75 133.945312 -119.03125 133.0625 -116.375 Z M 74.296875 -80.5625 C 72.273438 -82.332031 70.066406 -83.21875 67.671875 -83.21875 C 64.003906 -83.21875 60.398438 -80.5 56.859375 -75.0625 C 53.328125 -69.625 50.484375 -63.050781 48.328125 -55.34375 C 46.179688 -47.632812 45.171875 -40.6875 45.296875 -34.5 C 45.296875 -27.550781 47.570312 -24.078125 52.125 -24.078125 C 53.769531 -24.078125 55.160156 -24.738281 56.296875 -26.0625 C 57.429688 -27.382812 58.503906 -29.566406 59.515625 -32.609375 Z M 74.296875 -80.5625 "/></g></g></g><g fill="#ffffff" fill-opacity="1"><g transform="translate(1247.847127, 242.318166)"><g><path d="M 66.53125 -102.359375 C 66.78125 -103.117188 66.90625 -104.128906 66.90625 -105.390625 C 66.90625 -107.410156 66.367188 -109.050781 65.296875 -110.3125 C 64.222656 -111.582031 62.550781 -112.972656 60.28125 -114.484375 C 58.382812 -115.878906 57.023438 -117.082031 56.203125 -118.09375 C 55.378906 -119.101562 55.15625 -120.300781 55.53125 -121.6875 C 55.914062 -123.457031 56.863281 -124.65625 58.375 -125.28125 C 59.894531 -125.914062 62.296875 -126.234375 65.578125 -126.234375 L 119.421875 -126.234375 C 122.066406 -126.234375 124.113281 -125.789062 125.5625 -124.90625 C 127.019531 -124.019531 127.75 -122.882812 127.75 -121.5 C 127.75 -120.863281 127.5625 -120.039062 127.1875 -119.03125 C 126.8125 -118.144531 126.273438 -117.351562 125.578125 -116.65625 C 124.878906 -115.96875 124.242188 -115.460938 123.671875 -115.140625 C 123.109375 -114.828125 122.703125 -114.546875 122.453125 -114.296875 C 120.429688 -113.160156 118.785156 -111.894531 117.515625 -110.5 C 116.253906 -109.113281 115.179688 -106.96875 114.296875 -104.0625 L 95.71875 -38.484375 C 91.925781 -25.085938 85.476562 -15.132812 76.375 -8.625 C 67.28125 -2.113281 55.46875 1.140625 40.9375 1.140625 C 31.207031 1.140625 22.960938 -0.28125 16.203125 -3.125 C 9.441406 -5.96875 4.351562 -9.789062 0.9375 -14.59375 C -2.46875 -19.394531 -4.171875 -24.640625 -4.171875 -30.328125 C -4.171875 -33.109375 -3.789062 -35.828125 -3.03125 -38.484375 C -1.382812 -44.160156 1.425781 -48.453125 5.40625 -51.359375 C 9.382812 -54.273438 13.835938 -55.734375 18.765625 -55.734375 C 24.453125 -55.734375 28.8125 -54.023438 31.84375 -50.609375 C 34.875 -47.191406 36.390625 -42.832031 36.390625 -37.53125 C 36.390625 -34.875 36.007812 -32.21875 35.25 -29.5625 C 33.738281 -24.257812 30.894531 -20.34375 26.71875 -17.8125 C 28.75 -16.550781 31.085938 -15.921875 33.734375 -15.921875 C 36.390625 -15.921875 38.726562 -17.25 40.75 -19.90625 C 42.769531 -22.5625 44.476562 -26.285156 45.875 -31.078125 Z M 66.53125 -102.359375 "/></g></g></g><g fill="#ffffff" fill-opacity="1"><g transform="translate(1359.675123, 242.318166)"><g><path d="M 70.890625 -127.375 C 77.960938 -127.375 84.5 -126.519531 90.5 -124.8125 C 96.507812 -123.101562 102.609375 -120.421875 108.796875 -116.765625 L 113.15625 -120.359375 C 116.1875 -122.765625 118.679688 -124.410156 120.640625 -125.296875 C 122.597656 -126.179688 124.84375 -126.625 127.375 -126.625 C 130.40625 -126.625 132.804688 -125.957031 134.578125 -124.625 C 136.347656 -123.300781 137.234375 -121.375 137.234375 -118.84375 C 137.234375 -117.832031 137.039062 -116.757812 136.65625 -115.625 L 128.703125 -89.46875 C 127.816406 -86.4375 126.707031 -84.285156 125.375 -83.015625 C 124.050781 -81.753906 122.066406 -81.125 119.421875 -81.125 C 116.640625 -81.125 114.203125 -81.976562 112.109375 -83.6875 C 110.023438 -85.394531 106.773438 -88.898438 102.359375 -94.203125 C 97.929688 -99.253906 93.914062 -102.820312 90.3125 -104.90625 C 86.71875 -107 83.023438 -108.046875 79.234375 -108.046875 C 76.453125 -108.046875 74.113281 -107.128906 72.21875 -105.296875 C 70.320312 -103.460938 69.375 -101.21875 69.375 -98.5625 C 69.375 -95.53125 70.890625 -92.71875 73.921875 -90.125 C 76.953125 -87.539062 81.691406 -84.289062 88.140625 -80.375 C 94.710938 -76.445312 100.144531 -72.90625 104.4375 -69.75 C 108.738281 -66.59375 112.40625 -62.675781 115.4375 -58 C 118.46875 -53.320312 119.984375 -47.953125 119.984375 -41.890625 C 119.984375 -37.972656 119.351562 -34.054688 118.09375 -30.140625 C 115.050781 -20.023438 109.171875 -12.34375 100.453125 -7.09375 C 91.734375 -1.851562 81.5625 0.765625 69.9375 0.765625 C 61.21875 0.765625 53.890625 -0.242188 47.953125 -2.265625 C 42.015625 -4.296875 35.953125 -7.710938 29.765625 -12.515625 L 22.9375 -6.828125 C 19.78125 -4.171875 17.1875 -2.367188 15.15625 -1.421875 C 13.132812 -0.472656 10.863281 0 8.34375 0 C 5.4375 0 3.128906 -0.691406 1.421875 -2.078125 C -0.285156 -3.472656 -1.140625 -5.367188 -1.140625 -7.765625 C -1.140625 -9.035156 -0.882812 -10.363281 -0.375 -11.75 L 8.90625 -40 C 9.914062 -43.28125 11.304688 -45.613281 13.078125 -47 C 14.847656 -48.394531 17.125 -49.09375 19.90625 -49.09375 C 22.8125 -49.09375 25.429688 -48.082031 27.765625 -46.0625 C 30.109375 -44.039062 33.175781 -40.375 36.96875 -35.0625 C 41.007812 -29.25 44.765625 -25.203125 48.234375 -22.921875 C 51.710938 -20.648438 55.851562 -19.515625 60.65625 -19.515625 C 64.0625 -19.515625 66.679688 -20.050781 68.515625 -21.125 C 70.347656 -22.207031 71.644531 -23.945312 72.40625 -26.34375 C 72.65625 -26.976562 72.78125 -27.925781 72.78125 -29.1875 C 72.78125 -32.21875 71.328125 -35 68.421875 -37.53125 C 65.515625 -40.0625 61.03125 -43.09375 54.96875 -46.625 C 48.519531 -50.539062 43.273438 -54.046875 39.234375 -57.140625 C 35.191406 -60.242188 31.6875 -64.128906 28.71875 -68.796875 C 25.75 -73.472656 24.265625 -78.972656 24.265625 -85.296875 C 24.265625 -89.722656 24.957031 -94.082031 26.34375 -98.375 C 29 -107.09375 34.429688 -114.101562 42.640625 -119.40625 C 50.859375 -124.71875 60.273438 -127.375 70.890625 -127.375 Z M 70.890625 -127.375 "/></g></g></g><g clip-path="url(#a2b1a7c93b)"><path fill="#f7a120" d="M 99.40625 220.273438 L 165.941406 220.273438 L 165.941406 263.054688 L 54.15625 263.054688 L 54.15625 209.980469 L 0.0585938 185.792969 L 154.171875 185.792969 L 154.171875 195.625 L 99.40625 195.625 Z M 223.804688 265.824219 C 264.984375 265.824219 297.710938 235.84375 297.710938 196.90625 L 297.632812 185.792969 L 251.839844 185.792969 L 251.929688 196.699219 C 251.929688 210.46875 239.410156 222.835938 223.578125 222.835938 L 222.824219 222.835938 C 214.375 222.835938 210.207031 221.023438 204 216.332031 L 180.894531 253.988281 C 193.417969 262.097656 206.253906 265.832031 222.507812 265.832031 L 223.804688 265.832031 Z M 223.804688 265.824219 " fill-opacity="1" fill-rule="nonzero"/></g><g clip-path="url(#6cead5650d)"><path fill="#00a69c" d="M 54.15625 91.09375 L 165.933594 91.09375 L 165.933594 133.546875 L 99.394531 133.546875 L 99.394531 157.554688 L 154.164062 157.554688 L 154.164062 171.132812 L 54.15625 171.132812 Z M 296.972656 91.191406 L 251.078125 91.09375 L 251.730469 171.125 L 351.71875 171.125 L 297.367188 147.351562 Z M 296.972656 91.191406 " fill-opacity="1" fill-rule="nonzero"/></g></svg>