<svg xmlns="http://www.w3.org/2000/svg" xmlns:xlink="http://www.w3.org/1999/xlink" width="2000" zoomAndPan="magnify" viewBox="0 0 1500 374.999991" height="500" preserveAspectRatio="xMidYMid meet" version="1.0"><defs><g/><clipPath id="09a9c316b9"><path d="M 0 1 L 328.5 1 L 328.5 374 L 0 374 Z M 0 1 " clip-rule="nonzero"/></clipPath></defs><g clip-path="url(#09a9c316b9)"><path fill="#e44d26" d="M 29.820312 336.6875 L -0.09375 1.054688 L 328.59375 1.054688 L 298.65625 336.640625 L 164.039062 373.957031 Z M 29.820312 336.6875 " fill-opacity="1" fill-rule="nonzero"/></g><path fill="#f16529" d="M 273.015625 315.269531 L 298.609375 28.5 L 164.25 28.5 L 164.25 345.441406 Z M 273.015625 315.269531 " fill-opacity="1" fill-rule="nonzero"/><path fill="#ebebeb" d="M 164.109375 69.660156 L 61.0625 69.660156 L 72.164062 194.140625 L 164.25 194.140625 L 164.25 152.980469 L 109.804688 152.980469 L 106.039062 110.832031 L 164.25 110.832031 L 164.25 69.660156 Z M 164.25 259.75 L 164.074219 259.796875 L 118.25 247.421875 L 115.335938 214.59375 L 74.003906 214.59375 L 79.773438 279.226562 L 164.0625 302.53125 L 164.25 302.472656 Z M 164.25 259.75 " fill-opacity="1" fill-rule="nonzero"/><path fill="#ffffff" d="M 164.109375 194.140625 L 214.78125 194.140625 L 210.125 247.515625 L 164.226562 259.902344 L 164.226562 302.730469 L 248.589844 279.339844 L 259.886719 152.957031 L 164.25 152.957031 Z M 266.203125 80.707031 L 267.179688 69.660156 L 164.085938 69.660156 L 164.085938 110.820312 L 263.476562 110.820312 L 264.292969 101.566406 Z M 266.203125 80.707031 " fill-opacity="1" fill-rule="nonzero"/><g fill="#ffffff" fill-opacity="1"><g transform="translate(475.812149, 251.999983)"><g><path d="M 209.765625 -159.84375 C 213.117188 -159.84375 215.710938 -159.28125 217.546875 -158.15625 C 219.390625 -157.039062 220.3125 -155.601562 220.3125 -153.84375 C 220.3125 -153.039062 220.070312 -152 219.59375 -150.71875 C 219.113281 -149.601562 218.429688 -148.601562 217.546875 -147.71875 C 216.671875 -146.84375 215.875 -146.203125 215.15625 -145.796875 C 214.4375 -145.398438 213.914062 -145.039062 213.59375 -144.71875 C 211.039062 -143.28125 208.960938 -141.679688 207.359375 -139.921875 C 205.753906 -138.160156 204.394531 -135.441406 203.28125 -131.765625 L 173.765625 -28.3125 C 173.117188 -26.238281 172.796875 -24.238281 172.796875 -22.3125 C 172.796875 -20.394531 173.078125 -18.875 173.640625 -17.75 C 174.203125 -16.632812 175.039062 -15.195312 176.15625 -13.4375 C 176.320312 -13.28125 176.765625 -12.679688 177.484375 -11.640625 C 178.203125 -10.597656 178.5625 -9.519531 178.5625 -8.40625 C 178.5625 -8.082031 178.398438 -7.28125 178.078125 -6 C 177.273438 -3.757812 175.753906 -2.195312 173.515625 -1.3125 C 171.273438 -0.4375 167.914062 0 163.4375 0 L 107.046875 0 C 103.679688 0 101.078125 -0.554688 99.234375 -1.671875 C 97.398438 -2.796875 96.484375 -4.316406 96.484375 -6.234375 C 96.484375 -7.203125 96.722656 -8.242188 97.203125 -9.359375 C 97.835938 -10.640625 98.710938 -11.71875 99.828125 -12.59375 C 100.953125 -13.476562 102.078125 -14.238281 103.203125 -14.875 C 105.765625 -16.320312 107.84375 -17.960938 109.4375 -19.796875 C 111.039062 -21.640625 112.398438 -24.476562 113.515625 -28.3125 L 125.046875 -68.40625 L 82.5625 -68.40625 L 71.046875 -28.3125 C 70.398438 -26.238281 70.078125 -24.238281 70.078125 -22.3125 C 70.078125 -20.394531 70.359375 -18.875 70.921875 -17.75 C 71.484375 -16.632812 72.320312 -15.195312 73.4375 -13.4375 C 73.601562 -13.28125 74.046875 -12.679688 74.765625 -11.640625 C 75.484375 -10.597656 75.84375 -9.519531 75.84375 -8.40625 C 75.84375 -8.082031 75.679688 -7.28125 75.359375 -6 C 74.554688 -3.757812 73.035156 -2.195312 70.796875 -1.3125 C 68.554688 -0.4375 65.195312 0 60.71875 0 L 4.3125 0 C 0.957031 0 -1.632812 -0.554688 -3.46875 -1.671875 C -5.3125 -2.796875 -6.234375 -4.316406 -6.234375 -6.234375 C -6.234375 -7.203125 -5.992188 -8.242188 -5.515625 -9.359375 C -4.878906 -10.640625 -4 -11.71875 -2.875 -12.59375 C -1.757812 -13.476562 -0.640625 -14.238281 0.484375 -14.875 C 3.035156 -16.320312 5.113281 -17.960938 6.71875 -19.796875 C 8.320312 -21.640625 9.679688 -24.476562 10.796875 -28.3125 L 40.3125 -131.765625 C 40.957031 -133.835938 41.28125 -135.835938 41.28125 -137.765625 C 41.28125 -139.523438 41 -141.003906 40.4375 -142.203125 C 39.875 -143.398438 39.113281 -144.800781 38.15625 -146.40625 C 37.519531 -147.195312 36.960938 -148.03125 36.484375 -148.90625 C 36.003906 -149.789062 35.765625 -150.71875 35.765625 -151.6875 C 35.765625 -152 35.921875 -152.796875 36.234375 -154.078125 C 36.878906 -156.160156 38.320312 -157.640625 40.5625 -158.515625 C 42.800781 -159.398438 46.160156 -159.84375 50.640625 -159.84375 L 107.046875 -159.84375 C 110.398438 -159.84375 112.992188 -159.28125 114.828125 -158.15625 C 116.671875 -157.039062 117.59375 -155.601562 117.59375 -153.84375 C 117.59375 -153.039062 117.351562 -152 116.875 -150.71875 C 116.394531 -149.601562 115.710938 -148.601562 114.828125 -147.71875 C 113.953125 -146.84375 113.15625 -146.203125 112.4375 -145.796875 C 111.71875 -145.398438 111.195312 -145.039062 110.875 -144.71875 C 108.320312 -143.28125 106.242188 -141.679688 104.640625 -139.921875 C 103.035156 -138.160156 101.675781 -135.441406 100.5625 -131.765625 L 89.28125 -92.40625 L 131.765625 -92.40625 L 143.046875 -131.765625 C 143.679688 -133.835938 144 -135.835938 144 -137.765625 C 144 -139.523438 143.71875 -141.003906 143.15625 -142.203125 C 142.59375 -143.398438 141.832031 -144.800781 140.875 -146.40625 C 140.238281 -147.195312 139.679688 -148.03125 139.203125 -148.90625 C 138.722656 -149.789062 138.484375 -150.71875 138.484375 -151.6875 C 138.484375 -152 138.640625 -152.796875 138.953125 -154.078125 C 139.597656 -156.160156 141.039062 -157.640625 143.28125 -158.515625 C 145.519531 -159.398438 148.878906 -159.84375 153.359375 -159.84375 Z M 209.765625 -159.84375 "/></g></g></g><g fill="#ffffff" fill-opacity="1"><g transform="translate(675.971821, 251.999983)"><g><path d="M 192.234375 -159.84375 C 201.035156 -159.84375 205.4375 -156.242188 205.4375 -149.046875 C 205.4375 -146.804688 204.957031 -144.003906 204 -140.640625 L 198.234375 -121.203125 C 196.472656 -115.273438 194.3125 -111.113281 191.75 -108.71875 C 189.195312 -106.320312 185.519531 -105.125 180.71875 -105.125 C 176.71875 -105.125 173.632812 -106.160156 171.46875 -108.234375 C 169.3125 -110.316406 167.273438 -113.597656 165.359375 -118.078125 L 161.28125 -127.921875 C 160 -130.960938 158.640625 -133.039062 157.203125 -134.15625 C 155.765625 -135.28125 153.523438 -135.84375 150.484375 -135.84375 L 144.953125 -135.84375 L 114.484375 -28.5625 C 114.003906 -26.476562 113.765625 -24.640625 113.765625 -23.046875 C 113.765625 -21.117188 114.039062 -19.515625 114.59375 -18.234375 C 115.15625 -16.953125 116 -15.59375 117.125 -14.15625 C 118.5625 -11.914062 119.28125 -10.078125 119.28125 -8.640625 C 119.28125 -8.316406 119.117188 -7.515625 118.796875 -6.234375 C 117.992188 -4.160156 116.429688 -2.640625 114.109375 -1.671875 C 111.796875 -0.710938 108.476562 -0.234375 104.15625 -0.234375 L 47.765625 -0.234375 C 44.398438 -0.234375 41.796875 -0.789062 39.953125 -1.90625 C 38.117188 -3.03125 37.203125 -4.632812 37.203125 -6.71875 C 37.203125 -7.675781 37.441406 -8.632812 37.921875 -9.59375 C 38.554688 -11.039062 39.3125 -12.125 40.1875 -12.84375 C 41.070312 -13.5625 42.394531 -14.476562 44.15625 -15.59375 C 46.5625 -17.039062 48.5625 -18.644531 50.15625 -20.40625 C 51.757812 -22.164062 53.117188 -24.882812 54.234375 -28.5625 L 84.484375 -135.84375 L 78.953125 -135.84375 C 75.441406 -135.84375 72.5625 -135.28125 70.3125 -134.15625 C 68.070312 -133.039062 65.675781 -130.960938 63.125 -127.921875 L 55.203125 -118.078125 C 51.523438 -113.753906 47.960938 -110.515625 44.515625 -108.359375 C 41.078125 -106.203125 37.359375 -105.125 33.359375 -105.125 C 29.679688 -105.125 26.800781 -106.082031 24.71875 -108 C 22.632812 -109.914062 21.59375 -112.554688 21.59375 -115.921875 C 21.59375 -117.515625 21.832031 -119.273438 22.3125 -121.203125 L 28.5625 -143.046875 C 29.84375 -147.523438 31.28125 -150.921875 32.875 -153.234375 C 34.476562 -155.554688 36.757812 -157.238281 39.71875 -158.28125 C 42.675781 -159.320312 46.875 -159.84375 52.3125 -159.84375 Z M 192.234375 -159.84375 "/></g></g></g><g fill="#ffffff" fill-opacity="1"><g transform="translate(858.131494, 251.999983)"><g><path d="M 257.765625 -159.84375 C 261.117188 -159.84375 263.710938 -159.320312 265.546875 -158.28125 C 267.390625 -157.238281 268.3125 -155.757812 268.3125 -153.84375 C 268.3125 -153.039062 268.070312 -152 267.59375 -150.71875 C 267.113281 -149.28125 266.429688 -148.203125 265.546875 -147.484375 C 264.671875 -146.765625 263.351562 -145.84375 261.59375 -144.71875 C 259.039062 -143.28125 257.003906 -141.679688 255.484375 -139.921875 C 253.960938 -138.160156 252.640625 -135.441406 251.515625 -131.765625 L 222.234375 -28.5625 C 221.597656 -26.476562 221.28125 -24.476562 221.28125 -22.5625 C 221.28125 -20.800781 221.554688 -19.316406 222.109375 -18.109375 C 222.671875 -16.910156 223.4375 -15.515625 224.40625 -13.921875 C 225.039062 -13.117188 225.597656 -12.273438 226.078125 -11.390625 C 226.554688 -10.515625 226.796875 -9.597656 226.796875 -8.640625 C 226.796875 -8.316406 226.632812 -7.515625 226.3125 -6.234375 C 225.675781 -4.160156 224.195312 -2.640625 221.875 -1.671875 C 219.5625 -0.710938 216.242188 -0.234375 211.921875 -0.234375 L 155.515625 -0.234375 C 152.160156 -0.234375 149.5625 -0.789062 147.71875 -1.90625 C 145.875 -3.03125 144.953125 -4.554688 144.953125 -6.484375 C 144.953125 -7.441406 145.195312 -8.476562 145.6875 -9.59375 C 146.164062 -10.71875 146.84375 -11.71875 147.71875 -12.59375 C 148.601562 -13.476562 149.40625 -14.117188 150.125 -14.515625 C 150.84375 -14.921875 151.363281 -15.28125 151.6875 -15.59375 C 154.238281 -17.039062 156.3125 -18.644531 157.90625 -20.40625 C 159.507812 -22.164062 160.875 -24.882812 162 -28.5625 L 180.234375 -93.359375 L 118.078125 -16.3125 C 112.960938 -10.070312 108.84375 -5.789062 105.71875 -3.46875 C 102.601562 -1.15625 99.046875 0 95.046875 0 C 91.203125 0 88.195312 -1.238281 86.03125 -3.71875 C 83.875 -6.195312 81.914062 -10.394531 80.15625 -16.3125 L 57.59375 -90.484375 L 39.84375 -28.3125 C 39.195312 -26.238281 38.875 -24.238281 38.875 -22.3125 C 38.875 -20.394531 39.15625 -18.796875 39.71875 -17.515625 C 40.28125 -16.234375 41.117188 -14.875 42.234375 -13.4375 C 43.679688 -11.351562 44.40625 -9.675781 44.40625 -8.40625 C 44.40625 -8.082031 44.242188 -7.28125 43.921875 -6 C 43.273438 -3.757812 41.832031 -2.195312 39.59375 -1.3125 C 37.351562 -0.4375 33.992188 0 29.515625 0 L 9.59375 0 C 6.238281 0 3.640625 -0.554688 1.796875 -1.671875 C -0.0351562 -2.796875 -0.953125 -4.316406 -0.953125 -6.234375 C -0.953125 -7.203125 -0.710938 -8.242188 -0.234375 -9.359375 C 0.398438 -11.117188 1.4375 -12.476562 2.875 -13.4375 C 4.320312 -14.394531 5.203125 -14.957031 5.515625 -15.125 C 8.078125 -16.71875 10.15625 -18.351562 11.75 -20.03125 C 13.351562 -21.71875 14.71875 -24.476562 15.84375 -28.3125 L 45.125 -132 L 41.28125 -144.71875 C 40.476562 -147.113281 40.078125 -149.4375 40.078125 -151.6875 C 40.078125 -154.5625 40.992188 -156.640625 42.828125 -157.921875 C 44.671875 -159.203125 47.515625 -159.84375 51.359375 -159.84375 L 88.5625 -159.84375 C 93.363281 -159.84375 96.921875 -158.800781 99.234375 -156.71875 C 101.554688 -154.632812 103.4375 -151.035156 104.875 -145.921875 L 128.875 -66.234375 L 193.921875 -147.125 C 198.078125 -152.238281 202.15625 -155.632812 206.15625 -157.3125 C 210.15625 -159 215.4375 -159.84375 222 -159.84375 Z M 257.765625 -159.84375 "/></g></g></g><g fill="#ffffff" fill-opacity="1"><g transform="translate(1106.531028, 251.999983)"><g><path d="M 137.515625 -61.921875 C 141.992188 -61.921875 145.394531 -61 147.71875 -59.15625 C 150.039062 -57.320312 151.203125 -54.722656 151.203125 -51.359375 C 151.203125 -49.921875 150.960938 -48.320312 150.484375 -46.5625 L 142.5625 -18.484375 C 140.476562 -11.597656 137.554688 -6.796875 133.796875 -4.078125 C 130.035156 -1.359375 124.476562 0 117.125 0 L 4.3125 0 C 0.957031 0 -1.632812 -0.554688 -3.46875 -1.671875 C -5.3125 -2.796875 -6.234375 -4.316406 -6.234375 -6.234375 C -6.234375 -7.203125 -5.992188 -8.242188 -5.515625 -9.359375 C -5.035156 -10.640625 -4.234375 -11.71875 -3.109375 -12.59375 C -1.992188 -13.476562 -0.796875 -14.320312 0.484375 -15.125 C 3.035156 -16.71875 5.113281 -18.351562 6.71875 -20.03125 C 8.320312 -21.71875 9.679688 -24.476562 10.796875 -28.3125 L 40.078125 -131.765625 C 40.722656 -133.835938 41.046875 -135.835938 41.046875 -137.765625 C 41.046875 -139.523438 40.765625 -141.003906 40.203125 -142.203125 C 39.640625 -143.398438 38.878906 -144.800781 37.921875 -146.40625 C 36.484375 -148.476562 35.765625 -150.15625 35.765625 -151.4375 C 35.765625 -151.914062 35.921875 -152.796875 36.234375 -154.078125 C 36.878906 -156.160156 38.28125 -157.640625 40.4375 -158.515625 C 42.601562 -159.398438 45.925781 -159.84375 50.40625 -159.84375 L 106.796875 -159.84375 C 110.160156 -159.84375 112.757812 -159.320312 114.59375 -158.28125 C 116.4375 -157.238281 117.359375 -155.757812 117.359375 -153.84375 C 117.359375 -153.039062 117.117188 -152 116.640625 -150.71875 C 116.160156 -149.601562 115.476562 -148.601562 114.59375 -147.71875 C 113.71875 -146.84375 112.921875 -146.203125 112.203125 -145.796875 C 111.484375 -145.398438 110.960938 -145.039062 110.640625 -144.71875 C 108.078125 -143.28125 105.992188 -141.679688 104.390625 -139.921875 C 102.796875 -138.160156 101.4375 -135.441406 100.3125 -131.765625 L 69.359375 -23.046875 L 84.234375 -23.046875 C 87.921875 -23.046875 91.082031 -23.679688 93.71875 -24.953125 C 96.363281 -26.234375 99.125 -28.632812 102 -32.15625 L 118.5625 -51.84375 C 121.601562 -55.363281 124.519531 -57.921875 127.3125 -59.515625 C 130.113281 -61.117188 133.515625 -61.921875 137.515625 -61.921875 Z M 137.515625 -61.921875 "/></g></g></g></svg>