<svg xmlns="http://www.w3.org/2000/svg" xmlns:xlink="http://www.w3.org/1999/xlink" width="2000" zoomAndPan="magnify" viewBox="0 0 1500 374.999991" height="500" preserveAspectRatio="xMidYMid meet" version="1.0"><defs><g/></defs><path fill="#000000" d="M 163.128906 223.65625 C 141.304688 223.65625 32.511719 222.21875 32.511719 193.820312 C 32.511719 165.421875 141.304688 163.949219 163.128906 163.949219 C 163.644531 163.949219 164.152344 164 164.65625 164.101562 C 165.160156 164.199219 165.648438 164.347656 166.125 164.546875 C 166.597656 164.742188 167.050781 164.984375 167.476562 165.269531 C 167.902344 165.554688 168.300781 165.878906 168.664062 166.242188 C 169.027344 166.605469 169.351562 167 169.636719 167.425781 C 169.921875 167.855469 170.164062 168.304688 170.359375 168.78125 C 170.554688 169.253906 170.703125 169.742188 170.804688 170.246094 C 170.90625 170.75 170.953125 171.257812 170.953125 171.773438 C 170.953125 172.285156 170.90625 172.796875 170.804688 173.300781 C 170.703125 173.804688 170.554688 174.292969 170.359375 174.765625 C 170.164062 175.242188 169.921875 175.691406 169.636719 176.121094 C 169.351562 176.546875 169.027344 176.941406 168.664062 177.304688 C 168.300781 177.667969 167.902344 177.992188 167.476562 178.277344 C 167.050781 178.5625 166.597656 178.804688 166.125 179 C 165.648438 179.199219 165.160156 179.347656 164.65625 179.445312 C 164.152344 179.546875 163.644531 179.597656 163.128906 179.597656 C 98.296875 179.597656 59.949219 188.164062 49.957031 193.820312 C 59.949219 199.429688 98.296875 208.027344 163.128906 208.027344 C 233.378906 208.027344 272.566406 197.941406 278.257812 192.476562 C 278.332031 192.027344 278.449219 191.585938 278.601562 191.15625 C 278.753906 190.726562 278.945312 190.3125 279.171875 189.917969 C 279.398438 189.519531 279.65625 189.144531 279.949219 188.792969 C 280.242188 188.445312 280.5625 188.121094 280.914062 187.828125 C 281.265625 187.535156 281.636719 187.273438 282.03125 187.046875 C 282.429688 186.816406 282.84375 186.625 283.273438 186.472656 C 283.703125 186.316406 284.140625 186.199219 284.59375 186.125 C 285.042969 186.046875 285.496094 186.007812 285.953125 186.011719 C 286.46875 186.015625 286.976562 186.066406 287.480469 186.167969 C 287.984375 186.269531 288.476562 186.417969 288.949219 186.613281 C 289.425781 186.8125 289.875 187.054688 290.300781 187.339844 C 290.730469 187.625 291.125 187.949219 291.488281 188.316406 C 291.851562 188.679688 292.175781 189.074219 292.460938 189.503906 C 292.746094 189.929688 292.988281 190.382812 293.183594 190.855469 C 293.378906 191.332031 293.527344 191.820312 293.628906 192.324219 C 293.730469 192.828125 293.777344 193.339844 293.777344 193.851562 C 293.777344 222.21875 184.941406 223.65625 163.128906 223.65625 Z M 163.128906 223.65625 " fill-opacity="1" fill-rule="nonzero"/><path fill="#000000" d="M 163.128906 261.429688 C 136.597656 261.429688 50.054688 259.507812 50.054688 234.726562 C 50.050781 234.25 50.09375 233.777344 50.179688 233.308594 C 50.261719 232.839844 50.390625 232.382812 50.558594 231.9375 C 50.726562 231.492188 50.933594 231.066406 51.179688 230.65625 C 51.425781 230.25 51.710938 229.867188 52.027344 229.511719 C 52.34375 229.152344 52.6875 228.828125 53.066406 228.535156 C 53.441406 228.242188 53.839844 227.988281 54.265625 227.769531 C 54.6875 227.546875 55.125 227.367188 55.582031 227.230469 C 56.039062 227.089844 56.503906 226.992188 56.976562 226.9375 C 57.449219 226.886719 57.925781 226.875 58.402344 226.90625 C 58.875 226.941406 59.34375 227.015625 59.808594 227.132812 C 60.269531 227.253906 60.714844 227.414062 61.148438 227.613281 C 61.582031 227.8125 61.992188 228.050781 62.378906 228.328125 C 62.769531 228.601562 63.128906 228.910156 63.460938 229.253906 C 63.792969 229.59375 64.09375 229.964844 64.359375 230.359375 C 64.621094 230.757812 64.847656 231.175781 65.039062 231.613281 C 65.226562 232.050781 65.371094 232.5 65.476562 232.964844 C 71.121094 237.558594 104.75 245.785156 163.128906 245.785156 C 221.511719 245.785156 255.105469 237.558594 260.78125 232.964844 C 260.886719 232.5 261.035156 232.046875 261.222656 231.609375 C 261.410156 231.171875 261.636719 230.753906 261.902344 230.355469 C 262.167969 229.957031 262.46875 229.589844 262.800781 229.246094 C 263.132812 228.902344 263.496094 228.59375 263.882812 228.316406 C 264.273438 228.042969 264.683594 227.800781 265.117188 227.601562 C 265.550781 227.398438 266 227.242188 266.460938 227.121094 C 266.925781 227.003906 267.394531 226.925781 267.871094 226.894531 C 268.347656 226.859375 268.824219 226.871094 269.296875 226.925781 C 269.773438 226.980469 270.238281 227.074219 270.695312 227.214844 C 271.152344 227.355469 271.59375 227.535156 272.015625 227.753906 C 272.441406 227.972656 272.84375 228.230469 273.21875 228.523438 C 273.597656 228.816406 273.941406 229.144531 274.261719 229.5 C 274.578125 229.855469 274.859375 230.238281 275.109375 230.648438 C 275.355469 231.058594 275.5625 231.484375 275.730469 231.933594 C 275.902344 232.378906 276.027344 232.835938 276.113281 233.308594 C 276.199219 233.777344 276.238281 234.25 276.238281 234.726562 C 276.238281 259.507812 189.644531 261.429688 163.128906 261.429688 Z M 163.128906 261.429688 " fill-opacity="1" fill-rule="nonzero"/><path fill="#000000" d="M 163.128906 299.21875 C 135.289062 299.21875 70.523438 296.972656 70.523438 276.171875 C 70.523438 275.707031 70.5625 275.246094 70.644531 274.789062 C 70.722656 274.332031 70.84375 273.886719 71.007812 273.449219 C 71.167969 273.015625 71.363281 272.597656 71.601562 272.195312 C 71.835938 271.796875 72.105469 271.421875 72.40625 271.066406 C 72.707031 270.714844 73.039062 270.390625 73.398438 270.097656 C 73.757812 269.804688 74.140625 269.546875 74.546875 269.320312 C 74.953125 269.09375 75.375 268.90625 75.816406 268.757812 C 76.253906 268.605469 76.703125 268.496094 77.160156 268.425781 C 77.621094 268.355469 78.082031 268.328125 78.546875 268.339844 C 79.011719 268.351562 79.46875 268.402344 79.925781 268.496094 C 80.378906 268.589844 80.824219 268.722656 81.253906 268.894531 C 81.683594 269.066406 82.097656 269.277344 82.492188 269.523438 C 82.886719 269.769531 83.253906 270.046875 83.597656 270.359375 C 83.941406 270.667969 84.257812 271.007812 84.539062 271.375 C 84.824219 271.742188 85.074219 272.132812 85.289062 272.542969 C 85.503906 272.957031 85.679688 273.382812 85.816406 273.828125 C 91.214844 277.464844 117.617188 283.523438 163.128906 283.523438 C 208.640625 283.523438 235.042969 277.414062 240.476562 273.828125 C 240.617188 273.386719 240.792969 272.960938 241.007812 272.554688 C 241.226562 272.144531 241.476562 271.757812 241.761719 271.394531 C 242.042969 271.03125 242.359375 270.695312 242.703125 270.386719 C 243.046875 270.078125 243.414062 269.800781 243.808594 269.558594 C 244.199219 269.316406 244.613281 269.109375 245.042969 268.9375 C 245.472656 268.769531 245.910156 268.636719 246.363281 268.542969 C 246.816406 268.453125 247.273438 268.398438 247.738281 268.390625 C 248.199219 268.378906 248.65625 268.40625 249.113281 268.476562 C 249.570312 268.546875 250.019531 268.65625 250.457031 268.804688 C 250.894531 268.953125 251.3125 269.140625 251.71875 269.367188 C 252.121094 269.589844 252.503906 269.847656 252.863281 270.136719 C 253.222656 270.429688 253.550781 270.75 253.851562 271.101562 C 254.15625 271.449219 254.421875 271.824219 254.660156 272.21875 C 254.894531 272.617188 255.09375 273.03125 255.257812 273.464844 C 255.417969 273.898438 255.539062 274.339844 255.625 274.796875 C 255.707031 275.25 255.75 275.707031 255.753906 276.171875 C 255.753906 296.972656 190.953125 299.21875 163.128906 299.21875 Z M 163.128906 299.21875 " fill-opacity="1" fill-rule="nonzero"/><path fill="#000000" d="M 163.128906 332.351562 C 130.210938 332.351562 91.007812 328.992188 91.007812 312.957031 C 91.007812 312.511719 91.042969 312.066406 91.121094 311.628906 C 91.195312 311.1875 91.308594 310.757812 91.457031 310.335938 C 91.605469 309.914062 91.789062 309.511719 92.007812 309.121094 C 92.226562 308.730469 92.476562 308.363281 92.757812 308.019531 C 93.042969 307.671875 93.351562 307.351562 93.6875 307.058594 C 94.023438 306.765625 94.382812 306.5 94.765625 306.269531 C 95.144531 306.035156 95.542969 305.839844 95.960938 305.675781 C 96.375 305.511719 96.800781 305.382812 97.238281 305.292969 C 97.675781 305.203125 98.117188 305.148438 98.5625 305.132812 C 99.011719 305.117188 99.453125 305.140625 99.898438 305.203125 C 100.339844 305.261719 100.773438 305.359375 101.199219 305.496094 C 101.625 305.628906 102.035156 305.800781 102.433594 306.007812 C 102.828125 306.210938 103.203125 306.449219 103.5625 306.71875 C 103.917969 306.988281 104.246094 307.289062 104.550781 307.613281 C 104.855469 307.941406 105.132812 308.289062 105.375 308.664062 C 105.621094 309.035156 105.832031 309.429688 106.011719 309.839844 C 115.257812 312.636719 124.675781 314.613281 134.269531 315.761719 C 143.863281 316.910156 153.484375 317.214844 163.128906 316.675781 C 172.78125 317.210938 182.40625 316.90625 192.003906 315.757812 C 201.601562 314.609375 211.027344 312.636719 220.28125 309.839844 C 220.460938 309.429688 220.671875 309.035156 220.914062 308.664062 C 221.160156 308.289062 221.433594 307.941406 221.738281 307.613281 C 222.042969 307.289062 222.375 306.988281 222.730469 306.71875 C 223.085938 306.449219 223.460938 306.210938 223.859375 306.007812 C 224.253906 305.800781 224.667969 305.628906 225.09375 305.496094 C 225.519531 305.359375 225.953125 305.261719 226.394531 305.203125 C 226.835938 305.140625 227.28125 305.117188 227.726562 305.132812 C 228.175781 305.148438 228.617188 305.203125 229.054688 305.292969 C 229.492188 305.382812 229.917969 305.511719 230.332031 305.675781 C 230.746094 305.839844 231.144531 306.035156 231.527344 306.269531 C 231.910156 306.5 232.269531 306.765625 232.605469 307.058594 C 232.941406 307.351562 233.25 307.671875 233.53125 308.019531 C 233.8125 308.363281 234.0625 308.730469 234.28125 309.121094 C 234.5 309.511719 234.683594 309.914062 234.835938 310.335938 C 234.984375 310.757812 235.097656 311.1875 235.171875 311.628906 C 235.246094 312.066406 235.285156 312.511719 235.285156 312.957031 C 235.285156 328.992188 196.046875 332.351562 163.128906 332.351562 Z M 163.128906 332.351562 " fill-opacity="1" fill-rule="nonzero"/><path fill="#000000" d="M 163.128906 373.375 C 146.378906 373.375 -0.628906 372.371094 -0.628906 337.558594 C -0.628906 328.765625 5.835938 317.613281 56.554688 309.238281 L 64.296875 307.964844 L 66.835938 323.414062 L 59.09375 324.660156 C 51.476562 325.160156 44.011719 326.5 36.699219 328.679688 C 29.382812 330.863281 22.40625 333.832031 15.761719 337.589844 C 23.847656 344.960938 72.980469 357.664062 163.128906 357.664062 C 253.277344 357.664062 302.332031 344.960938 310.527344 337.589844 C 303.878906 333.839844 296.898438 330.871094 289.582031 328.6875 C 282.265625 326.507812 274.800781 325.164062 267.183594 324.660156 L 259.457031 323.398438 L 262.027344 307.964844 L 269.738281 309.238281 C 320.390625 317.597656 326.875 328.765625 326.875 337.542969 C 326.875 372.371094 179.910156 373.375 163.128906 373.375 Z M 163.128906 373.375 " fill-opacity="1" fill-rule="nonzero"/><path fill="#000000" d="M 302.332031 261.429688 C 301.816406 261.429688 301.308594 261.378906 300.804688 261.28125 C 300.300781 261.179688 299.8125 261.03125 299.335938 260.835938 C 298.863281 260.636719 298.410156 260.398438 297.984375 260.109375 C 297.558594 259.824219 297.160156 259.5 296.796875 259.136719 C 296.433594 258.773438 296.109375 258.378906 295.824219 257.953125 C 295.539062 257.527344 295.296875 257.074219 295.101562 256.601562 C 294.90625 256.125 294.757812 255.636719 294.65625 255.132812 C 294.554688 254.628906 294.507812 254.121094 294.507812 253.605469 C 294.507812 253.09375 294.554688 252.585938 294.65625 252.082031 C 294.757812 251.578125 294.90625 251.085938 295.101562 250.613281 C 295.296875 250.136719 295.539062 249.6875 295.824219 249.261719 C 296.109375 248.832031 296.433594 248.4375 296.796875 248.074219 C 297.160156 247.710938 297.558594 247.386719 297.984375 247.101562 C 298.410156 246.816406 298.863281 246.574219 299.335938 246.378906 C 299.8125 246.183594 300.300781 246.035156 300.804688 245.933594 C 301.308594 245.832031 301.816406 245.785156 302.332031 245.785156 C 303.054688 245.785156 303.777344 245.75 304.496094 245.675781 C 305.214844 245.605469 305.929688 245.5 306.640625 245.359375 C 307.347656 245.21875 308.050781 245.042969 308.742188 244.832031 C 309.433594 244.625 310.113281 244.378906 310.78125 244.101562 C 311.449219 243.828125 312.105469 243.519531 312.742188 243.175781 C 313.378906 242.835938 314 242.464844 314.601562 242.0625 C 315.203125 241.660156 315.78125 241.230469 316.339844 240.773438 C 316.902344 240.3125 317.4375 239.828125 317.949219 239.316406 C 318.460938 238.804688 318.945312 238.269531 319.402344 237.710938 C 319.863281 237.152344 320.292969 236.574219 320.695312 235.972656 C 321.097656 235.371094 321.46875 234.75 321.808594 234.113281 C 322.148438 233.476562 322.457031 232.824219 322.734375 232.15625 C 323.011719 231.484375 323.253906 230.804688 323.464844 230.113281 C 323.675781 229.421875 323.851562 228.722656 323.992188 228.011719 C 324.132812 227.304688 324.238281 226.589844 324.308594 225.871094 C 324.378906 225.148438 324.417969 224.429688 324.417969 223.707031 C 324.417969 222.980469 324.378906 222.261719 324.308594 221.542969 C 324.238281 220.820312 324.132812 220.105469 323.992188 219.398438 C 323.851562 218.6875 323.675781 217.988281 323.464844 217.296875 C 323.253906 216.605469 323.011719 215.925781 322.734375 215.257812 C 322.457031 214.589844 322.148438 213.933594 321.808594 213.296875 C 321.46875 212.660156 321.097656 212.039062 320.695312 211.4375 C 320.292969 210.835938 319.863281 210.257812 319.402344 209.699219 C 318.945312 209.140625 318.460938 208.605469 317.949219 208.09375 C 317.4375 207.582031 316.902344 207.097656 316.339844 206.636719 C 315.78125 206.179688 315.203125 205.75 314.601562 205.347656 C 314 204.945312 313.378906 204.574219 312.742188 204.234375 C 312.105469 203.894531 311.449219 203.582031 310.78125 203.308594 C 310.113281 203.03125 309.433594 202.785156 308.742188 202.578125 C 308.050781 202.367188 307.347656 202.191406 306.640625 202.050781 C 305.929688 201.910156 305.214844 201.804688 304.496094 201.734375 C 303.777344 201.660156 303.054688 201.625 302.332031 201.625 L 285.953125 201.625 C 285.441406 201.625 284.929688 201.578125 284.425781 201.476562 C 283.921875 201.375 283.433594 201.226562 282.960938 201.03125 C 282.484375 200.835938 282.035156 200.59375 281.605469 200.308594 C 281.179688 200.023438 280.785156 199.699219 280.421875 199.335938 C 280.058594 198.972656 279.734375 198.578125 279.449219 198.148438 C 279.160156 197.722656 278.921875 197.273438 278.722656 196.796875 C 278.527344 196.324219 278.378906 195.832031 278.277344 195.328125 C 278.179688 194.824219 278.128906 194.316406 278.128906 193.804688 C 278.128906 193.289062 278.179688 192.78125 278.277344 192.277344 C 278.378906 191.773438 278.527344 191.285156 278.722656 190.808594 C 278.921875 190.335938 279.160156 189.882812 279.449219 189.457031 C 279.734375 189.03125 280.058594 188.636719 280.421875 188.273438 C 280.785156 187.910156 281.179688 187.585938 281.605469 187.300781 C 282.035156 187.011719 282.484375 186.773438 282.960938 186.574219 C 283.433594 186.378906 283.921875 186.230469 284.425781 186.132812 C 284.929688 186.03125 285.441406 185.980469 285.953125 185.980469 L 302.332031 185.980469 C 303.566406 185.980469 304.800781 186.039062 306.03125 186.160156 C 307.261719 186.28125 308.484375 186.460938 309.695312 186.699219 C 310.910156 186.941406 312.109375 187.242188 313.289062 187.597656 C 314.472656 187.957031 315.636719 188.371094 316.78125 188.84375 C 317.921875 189.316406 319.039062 189.84375 320.128906 190.425781 C 321.21875 191.007812 322.28125 191.644531 323.308594 192.328125 C 324.335938 193.015625 325.328125 193.75 326.285156 194.535156 C 327.242188 195.316406 328.15625 196.148438 329.03125 197.019531 C 329.90625 197.894531 330.734375 198.808594 331.519531 199.765625 C 332.304688 200.71875 333.039062 201.710938 333.726562 202.738281 C 334.414062 203.765625 335.050781 204.824219 335.632812 205.914062 C 336.214844 207.003906 336.742188 208.121094 337.21875 209.261719 C 337.691406 210.40625 338.105469 211.566406 338.464844 212.75 C 338.824219 213.933594 339.125 215.128906 339.367188 216.34375 C 339.609375 217.554688 339.789062 218.777344 339.910156 220.007812 C 340.03125 221.234375 340.09375 222.46875 340.09375 223.707031 C 340.09375 224.941406 340.03125 226.175781 339.910156 227.40625 C 339.789062 228.632812 339.609375 229.855469 339.367188 231.066406 C 339.125 232.28125 338.824219 233.476562 338.464844 234.660156 C 338.105469 235.84375 337.691406 237.003906 337.21875 238.148438 C 336.742188 239.289062 336.214844 240.40625 335.632812 241.496094 C 335.050781 242.585938 334.414062 243.644531 333.726562 244.671875 C 333.039062 245.699219 332.304688 246.691406 331.519531 247.644531 C 330.734375 248.601562 329.90625 249.515625 329.03125 250.390625 C 328.15625 251.261719 327.242188 252.09375 326.285156 252.875 C 325.328125 253.660156 324.335938 254.394531 323.308594 255.082031 C 322.28125 255.765625 321.21875 256.402344 320.128906 256.984375 C 319.039062 257.566406 317.921875 258.09375 316.78125 258.566406 C 315.636719 259.039062 314.472656 259.453125 313.289062 259.8125 C 312.109375 260.167969 310.910156 260.46875 309.695312 260.710938 C 308.484375 260.949219 307.261719 261.128906 306.03125 261.25 C 304.800781 261.371094 303.566406 261.429688 302.332031 261.429688 Z M 302.332031 261.429688 " fill-opacity="1" fill-rule="nonzero"/><path fill="#000000" d="M 163.160156 98.410156 C 162.128906 98.414062 161.128906 98.21875 160.171875 97.828125 C 159.214844 97.433594 158.367188 96.875 157.632812 96.148438 C 156.875 95.394531 156.140625 94.621094 155.421875 93.832031 C 154.703125 93.039062 154.003906 92.234375 153.324219 91.410156 C 152.648438 90.585938 151.988281 89.742188 151.351562 88.886719 C 150.714844 88.03125 150.097656 87.15625 149.503906 86.269531 C 148.910156 85.382812 148.339844 84.480469 147.789062 83.566406 C 147.238281 82.652344 146.710938 81.722656 146.207031 80.78125 C 145.703125 79.839844 145.222656 78.886719 144.765625 77.921875 C 144.308594 76.957031 143.875 75.984375 143.464844 74.996094 C 143.054688 74.011719 142.671875 73.015625 142.308594 72.011719 C 141.949219 71.003906 141.613281 69.992188 141.304688 68.96875 C 140.992188 67.949219 140.707031 66.921875 140.449219 65.882812 C 140.1875 64.847656 139.953125 63.808594 139.746094 62.761719 C 139.535156 61.714844 139.351562 60.660156 139.195312 59.605469 C 139.039062 58.550781 138.90625 57.492188 138.804688 56.429688 C 138.699219 55.367188 138.621094 54.300781 138.566406 53.234375 C 138.515625 52.167969 138.488281 51.101562 138.488281 50.035156 C 138.488281 48.964844 138.515625 47.898438 138.566406 46.832031 C 138.621094 45.765625 138.699219 44.703125 138.804688 43.640625 C 138.90625 42.578125 139.039062 41.515625 139.195312 40.460938 C 139.351562 39.40625 139.535156 38.351562 139.746094 37.304688 C 139.953125 36.257812 140.1875 35.21875 140.449219 34.183594 C 140.707031 33.148438 140.992188 32.117188 141.304688 31.097656 C 141.613281 30.074219 141.949219 29.0625 142.308594 28.054688 C 142.671875 27.050781 143.054688 26.054688 143.464844 25.070312 C 143.875 24.082031 144.308594 23.109375 144.765625 22.144531 C 145.222656 21.179688 145.703125 20.226562 146.207031 19.285156 C 146.710938 18.34375 147.238281 17.414062 147.789062 16.5 C 148.339844 15.585938 148.910156 14.683594 149.503906 13.796875 C 150.097656 12.910156 150.714844 12.039062 151.351562 11.179688 C 151.988281 10.324219 152.648438 9.484375 153.324219 8.660156 C 154.003906 7.832031 154.703125 7.027344 155.421875 6.238281 C 156.140625 5.445312 156.875 4.675781 157.632812 3.921875 C 158 3.578125 158.398438 3.277344 158.824219 3.011719 C 159.25 2.746094 159.695312 2.523438 160.164062 2.347656 C 160.632812 2.167969 161.113281 2.035156 161.609375 1.949219 C 162.101562 1.863281 162.601562 1.824219 163.101562 1.832031 C 163.601562 1.84375 164.097656 1.898438 164.589844 2.003906 C 165.078125 2.109375 165.554688 2.257812 166.015625 2.457031 C 166.476562 2.652344 166.917969 2.890625 167.332031 3.171875 C 167.75 3.453125 168.132812 3.769531 168.488281 4.125 C 168.84375 4.476562 169.160156 4.863281 169.441406 5.277344 C 169.722656 5.695312 169.960938 6.132812 170.15625 6.59375 C 170.351562 7.054688 170.503906 7.53125 170.605469 8.019531 C 170.710938 8.511719 170.769531 9.007812 170.777344 9.507812 C 170.789062 10.011719 170.75 10.507812 170.664062 11 C 170.578125 11.496094 170.445312 11.976562 170.265625 12.445312 C 170.085938 12.914062 169.863281 13.359375 169.601562 13.785156 C 169.335938 14.210938 169.03125 14.609375 168.691406 14.976562 C 167.539062 16.121094 166.449219 17.324219 165.417969 18.578125 C 164.382812 19.832031 163.417969 21.132812 162.511719 22.480469 C 161.609375 23.832031 160.773438 25.222656 160.003906 26.652344 C 159.238281 28.085938 158.542969 29.550781 157.921875 31.050781 C 157.296875 32.550781 156.75 34.078125 156.277344 35.632812 C 155.804688 37.183594 155.410156 38.757812 155.09375 40.351562 C 154.773438 41.945312 154.535156 43.546875 154.375 45.164062 C 154.21875 46.78125 154.136719 48.402344 154.136719 50.023438 C 154.136719 51.648438 154.21875 53.269531 154.375 54.886719 C 154.535156 56.503906 154.773438 58.105469 155.09375 59.699219 C 155.410156 61.292969 155.804688 62.867188 156.277344 64.417969 C 156.75 65.972656 157.296875 67.5 157.921875 69 C 158.542969 70.5 159.238281 71.964844 160.003906 73.398438 C 160.773438 74.828125 161.609375 76.21875 162.511719 77.570312 C 163.417969 78.917969 164.382812 80.21875 165.417969 81.472656 C 166.449219 82.726562 167.539062 83.929688 168.691406 85.074219 C 169.238281 85.621094 169.695312 86.234375 170.058594 86.914062 C 170.425781 87.597656 170.683594 88.316406 170.835938 89.074219 C 170.988281 89.832031 171.023438 90.597656 170.949219 91.367188 C 170.871094 92.136719 170.6875 92.878906 170.390625 93.59375 C 170.09375 94.304688 169.699219 94.960938 169.210938 95.558594 C 168.71875 96.15625 168.152344 96.667969 167.507812 97.097656 C 166.863281 97.527344 166.171875 97.851562 165.433594 98.078125 C 164.691406 98.300781 163.933594 98.410156 163.160156 98.410156 Z M 163.160156 98.410156 " fill-opacity="1" fill-rule="nonzero"/><path fill="#000000" d="M 163.160156 179.597656 C 162.390625 179.589844 161.636719 179.476562 160.898438 179.25 C 160.160156 179.019531 159.472656 178.691406 158.832031 178.261719 C 158.191406 177.832031 157.628906 177.316406 157.140625 176.722656 C 156.652344 176.125 156.257812 175.46875 155.964844 174.757812 C 155.667969 174.042969 155.484375 173.304688 155.40625 172.535156 C 155.328125 171.769531 155.363281 171.007812 155.515625 170.25 C 155.664062 169.492188 155.917969 168.773438 156.277344 168.089844 C 156.636719 167.410156 157.089844 166.792969 157.632812 166.246094 C 158.777344 165.09375 159.863281 163.890625 160.890625 162.636719 C 161.917969 161.378906 162.878906 160.074219 163.78125 158.722656 C 164.679688 157.375 165.511719 155.980469 166.273438 154.550781 C 167.035156 153.117188 167.726562 151.652344 168.347656 150.152344 C 168.964844 148.652344 169.511719 147.125 169.980469 145.570312 C 170.449219 144.019531 170.84375 142.445312 171.15625 140.855469 C 171.472656 139.261719 171.710938 137.660156 171.871094 136.042969 C 172.027344 134.429688 172.109375 132.8125 172.109375 131.1875 C 172.109375 129.566406 172.027344 127.945312 171.871094 126.332031 C 171.710938 124.714844 171.472656 123.113281 171.15625 121.523438 C 170.84375 119.929688 170.449219 118.359375 169.980469 116.804688 C 169.511719 115.25 168.964844 113.722656 168.347656 112.222656 C 167.726562 110.726562 167.035156 109.257812 166.273438 107.828125 C 165.511719 106.394531 164.679688 105.003906 163.78125 103.652344 C 162.878906 102.300781 161.917969 100.996094 160.890625 99.742188 C 159.863281 98.484375 158.777344 97.28125 157.632812 96.128906 C 157.246094 95.773438 156.902344 95.378906 156.59375 94.953125 C 156.289062 94.523438 156.027344 94.070312 155.8125 93.589844 C 155.597656 93.109375 155.433594 92.613281 155.316406 92.101562 C 155.203125 91.585938 155.140625 91.066406 155.132812 90.542969 C 155.121094 90.015625 155.164062 89.496094 155.257812 88.976562 C 155.355469 88.460938 155.5 87.957031 155.699219 87.46875 C 155.894531 86.980469 156.136719 86.519531 156.429688 86.078125 C 156.71875 85.640625 157.050781 85.234375 157.421875 84.863281 C 157.792969 84.492188 158.199219 84.160156 158.636719 83.871094 C 159.078125 83.582031 159.539062 83.335938 160.027344 83.140625 C 160.515625 82.945312 161.019531 82.796875 161.535156 82.703125 C 162.054688 82.605469 162.574219 82.5625 163.101562 82.574219 C 163.628906 82.582031 164.148438 82.644531 164.660156 82.761719 C 165.175781 82.875 165.671875 83.039062 166.152344 83.253906 C 166.632812 83.46875 167.085938 83.730469 167.511719 84.035156 C 167.941406 84.34375 168.332031 84.6875 168.691406 85.074219 C 169.445312 85.828125 170.179688 86.601562 170.894531 87.394531 C 171.613281 88.183594 172.308594 88.992188 172.984375 89.820312 C 173.660156 90.644531 174.316406 91.484375 174.949219 92.34375 C 175.585938 93.199219 176.199219 94.074219 176.792969 94.960938 C 177.382812 95.847656 177.953125 96.75 178.5 97.664062 C 179.050781 98.578125 179.574219 99.507812 180.078125 100.449219 C 180.578125 101.390625 181.058594 102.34375 181.515625 103.308594 C 181.96875 104.273438 182.402344 105.246094 182.808594 106.234375 C 183.21875 107.21875 183.601562 108.214844 183.960938 109.21875 C 184.320312 110.222656 184.652344 111.234375 184.964844 112.257812 C 185.273438 113.277344 185.558594 114.304688 185.816406 115.339844 C 186.074219 116.375 186.308594 117.417969 186.515625 118.460938 C 186.722656 119.507812 186.90625 120.558594 187.0625 121.613281 C 187.21875 122.671875 187.347656 123.730469 187.453125 124.789062 C 187.558594 125.851562 187.636719 126.914062 187.6875 127.980469 C 187.742188 129.046875 187.765625 130.113281 187.765625 131.179688 C 187.765625 132.246094 187.742188 133.3125 187.6875 134.378906 C 187.636719 135.445312 187.558594 136.507812 187.453125 137.570312 C 187.347656 138.628906 187.21875 139.6875 187.0625 140.746094 C 186.90625 141.800781 186.722656 142.851562 186.515625 143.898438 C 186.308594 144.945312 186.074219 145.984375 185.816406 147.019531 C 185.558594 148.054688 185.273438 149.082031 184.964844 150.101562 C 184.652344 151.125 184.320312 152.136719 183.960938 153.140625 C 183.601562 154.144531 183.21875 155.140625 182.808594 156.125 C 182.402344 157.113281 181.96875 158.085938 181.515625 159.050781 C 181.058594 160.015625 180.578125 160.96875 180.078125 161.910156 C 179.574219 162.851562 179.050781 163.78125 178.5 164.695312 C 177.953125 165.609375 177.382812 166.511719 176.792969 167.398438 C 176.199219 168.289062 175.585938 169.160156 174.949219 170.015625 C 174.316406 170.875 173.660156 171.714844 172.984375 172.542969 C 172.308594 173.367188 171.613281 174.175781 170.894531 174.964844 C 170.179688 175.757812 169.445312 176.53125 168.691406 177.285156 C 167.960938 178.023438 167.113281 178.589844 166.15625 178.992188 C 165.199219 179.390625 164.199219 179.59375 163.160156 179.597656 Z M 163.160156 179.597656 " fill-opacity="1" fill-rule="nonzero"/><path fill="#000000" d="M 219.148438 107.800781 C 218.113281 107.804688 217.117188 107.605469 216.15625 107.210938 C 215.199219 106.816406 214.355469 106.253906 213.621094 105.519531 C 212.441406 104.347656 211.328125 103.117188 210.269531 101.832031 C 209.214844 100.546875 208.222656 99.214844 207.296875 97.832031 C 206.371094 96.453125 205.519531 95.027344 204.734375 93.5625 C 203.949219 92.09375 203.238281 90.59375 202.597656 89.058594 C 201.960938 87.523438 201.402344 85.960938 200.917969 84.367188 C 200.433594 82.777344 200.03125 81.167969 199.707031 79.535156 C 199.378906 77.90625 199.136719 76.261719 198.972656 74.609375 C 198.808594 72.953125 198.726562 71.292969 198.726562 69.632812 C 198.726562 67.96875 198.808594 66.308594 198.972656 64.65625 C 199.136719 63 199.378906 61.355469 199.707031 59.726562 C 200.03125 58.09375 200.433594 56.484375 200.917969 54.894531 C 201.402344 53.304688 201.960938 51.738281 202.597656 50.203125 C 203.238281 48.667969 203.949219 47.167969 204.734375 45.699219 C 205.519531 44.234375 206.371094 42.8125 207.296875 41.429688 C 208.222656 40.046875 209.214844 38.714844 210.269531 37.429688 C 211.328125 36.144531 212.441406 34.914062 213.621094 33.742188 C 213.984375 33.378906 214.378906 33.054688 214.804688 32.769531 C 215.230469 32.484375 215.683594 32.246094 216.15625 32.050781 C 216.632812 31.855469 217.121094 31.707031 217.621094 31.605469 C 218.125 31.507812 218.632812 31.457031 219.148438 31.457031 C 219.660156 31.457031 220.167969 31.507812 220.671875 31.609375 C 221.175781 31.707031 221.664062 31.855469 222.136719 32.054688 C 222.609375 32.25 223.0625 32.492188 223.488281 32.777344 C 223.914062 33.0625 224.308594 33.386719 224.671875 33.75 C 225.035156 34.113281 225.355469 34.507812 225.640625 34.933594 C 225.925781 35.359375 226.167969 35.8125 226.363281 36.285156 C 226.558594 36.757812 226.707031 37.246094 226.804688 37.75 C 226.90625 38.253906 226.957031 38.761719 226.957031 39.273438 C 226.957031 39.789062 226.90625 40.296875 226.804688 40.796875 C 226.703125 41.300781 226.554688 41.789062 226.359375 42.261719 C 226.160156 42.738281 225.921875 43.1875 225.636719 43.613281 C 225.351562 44.039062 225.027344 44.433594 224.664062 44.796875 C 223.851562 45.609375 223.078125 46.460938 222.347656 47.351562 C 221.621094 48.238281 220.9375 49.160156 220.296875 50.117188 C 219.660156 51.074219 219.070312 52.058594 218.527344 53.074219 C 217.984375 54.085938 217.492188 55.125 217.054688 56.1875 C 216.613281 57.25 216.226562 58.332031 215.894531 59.433594 C 215.558594 60.53125 215.28125 61.644531 215.054688 62.773438 C 214.832031 63.902344 214.664062 65.039062 214.550781 66.183594 C 214.4375 67.328125 214.382812 68.472656 214.382812 69.621094 C 214.382812 70.773438 214.4375 71.917969 214.550781 73.0625 C 214.664062 74.207031 214.832031 75.34375 215.054688 76.472656 C 215.28125 77.601562 215.558594 78.714844 215.894531 79.8125 C 216.226562 80.914062 216.613281 81.996094 217.054688 83.058594 C 217.492188 84.121094 217.984375 85.160156 218.527344 86.171875 C 219.070312 87.1875 219.660156 88.171875 220.296875 89.128906 C 220.9375 90.085938 221.621094 91.007812 222.347656 91.894531 C 223.078125 92.785156 223.851562 93.636719 224.664062 94.449219 C 225.207031 94.996094 225.664062 95.609375 226.027344 96.292969 C 226.390625 96.972656 226.648438 97.691406 226.800781 98.449219 C 226.949219 99.207031 226.988281 99.96875 226.914062 100.738281 C 226.839844 101.507812 226.652344 102.25 226.359375 102.960938 C 226.0625 103.675781 225.671875 104.332031 225.183594 104.929688 C 224.695312 105.527344 224.128906 106.042969 223.488281 106.472656 C 222.84375 106.902344 222.15625 107.230469 221.417969 107.457031 C 220.679688 107.683594 219.921875 107.796875 219.148438 107.800781 Z M 219.148438 107.800781 " fill-opacity="1" fill-rule="nonzero"/><path fill="#000000" d="M 219.148438 168.507812 C 218.378906 168.507812 217.625 168.390625 216.886719 168.167969 C 216.148438 167.941406 215.457031 167.613281 214.816406 167.183594 C 214.175781 166.753906 213.609375 166.242188 213.121094 165.644531 C 212.632812 165.046875 212.242188 164.394531 211.945312 163.679688 C 211.648438 162.96875 211.464844 162.230469 211.386719 161.460938 C 211.3125 160.695312 211.347656 159.929688 211.496094 159.175781 C 211.644531 158.417969 211.902344 157.699219 212.261719 157.015625 C 212.625 156.335938 213.078125 155.722656 213.621094 155.175781 C 214.433594 154.359375 215.203125 153.507812 215.929688 152.621094 C 216.660156 151.730469 217.34375 150.808594 217.980469 149.851562 C 218.617188 148.898438 219.207031 147.910156 219.75 146.898438 C 220.289062 145.882812 220.78125 144.847656 221.21875 143.785156 C 221.660156 142.722656 222.042969 141.640625 222.378906 140.542969 C 222.710938 139.441406 222.988281 138.328125 223.214844 137.199219 C 223.4375 136.074219 223.605469 134.9375 223.71875 133.792969 C 223.832031 132.652344 223.886719 131.503906 223.886719 130.355469 C 223.886719 129.207031 223.832031 128.058594 223.71875 126.917969 C 223.605469 125.773438 223.4375 124.636719 223.214844 123.511719 C 222.988281 122.382812 222.710938 121.269531 222.378906 120.167969 C 222.042969 119.070312 221.660156 117.988281 221.21875 116.925781 C 220.78125 115.867188 220.289062 114.828125 219.75 113.8125 C 219.207031 112.800781 218.617188 111.816406 217.980469 110.859375 C 217.34375 109.902344 216.660156 108.980469 215.929688 108.089844 C 215.203125 107.203125 214.433594 106.351562 213.621094 105.539062 C 213.277344 105.171875 212.976562 104.773438 212.710938 104.347656 C 212.445312 103.921875 212.222656 103.476562 212.042969 103.007812 C 211.863281 102.539062 211.730469 102.058594 211.644531 101.566406 C 211.554688 101.070312 211.515625 100.574219 211.523438 100.074219 C 211.535156 99.570312 211.589844 99.074219 211.695312 98.585938 C 211.796875 98.09375 211.949219 97.617188 212.144531 97.15625 C 212.339844 96.695312 212.578125 96.257812 212.855469 95.839844 C 213.136719 95.425781 213.453125 95.039062 213.808594 94.683594 C 214.160156 94.328125 214.546875 94.011719 214.960938 93.730469 C 215.378906 93.449219 215.816406 93.210938 216.277344 93.011719 C 216.738281 92.816406 217.214844 92.664062 217.703125 92.558594 C 218.195312 92.453125 218.691406 92.398438 219.191406 92.386719 C 219.691406 92.375 220.191406 92.414062 220.683594 92.5 C 221.179688 92.585938 221.660156 92.71875 222.128906 92.894531 C 222.597656 93.074219 223.046875 93.292969 223.472656 93.558594 C 223.898438 93.824219 224.292969 94.125 224.664062 94.464844 C 225.835938 95.640625 226.953125 96.871094 228.007812 98.15625 C 229.058594 99.441406 230.050781 100.777344 230.972656 102.160156 C 231.894531 103.542969 232.75 104.964844 233.53125 106.429688 C 234.316406 107.898438 235.023438 109.398438 235.660156 110.933594 C 236.296875 112.46875 236.855469 114.035156 237.335938 115.625 C 237.820312 117.214844 238.222656 118.824219 238.546875 120.453125 C 238.871094 122.085938 239.113281 123.726562 239.277344 125.382812 C 239.441406 127.035156 239.519531 128.695312 239.519531 130.355469 C 239.519531 132.019531 239.441406 133.675781 239.277344 135.328125 C 239.113281 136.984375 238.871094 138.625 238.546875 140.257812 C 238.222656 141.886719 237.820312 143.496094 237.335938 145.085938 C 236.855469 146.679688 236.296875 148.242188 235.660156 149.777344 C 235.023438 151.3125 234.316406 152.8125 233.53125 154.28125 C 232.75 155.746094 231.894531 157.171875 230.972656 158.550781 C 230.050781 159.933594 229.058594 161.269531 228.007812 162.554688 C 226.953125 163.839844 225.835938 165.070312 224.664062 166.246094 C 223.929688 166.972656 223.085938 167.535156 222.132812 167.925781 C 221.175781 168.320312 220.183594 168.511719 219.148438 168.507812 Z M 219.148438 168.507812 " fill-opacity="1" fill-rule="nonzero"/><path fill="#000000" d="M 255.816406 185.414062 C 254.777344 185.421875 253.78125 185.222656 252.820312 184.824219 C 251.863281 184.425781 251.019531 183.859375 250.289062 183.121094 C 249.925781 182.757812 249.601562 182.363281 249.3125 181.9375 C 249.027344 181.507812 248.785156 181.058594 248.589844 180.585938 C 248.394531 180.109375 248.246094 179.621094 248.144531 179.117188 C 248.042969 178.613281 247.992188 178.105469 247.992188 177.59375 C 247.992188 177.078125 248.042969 176.570312 248.144531 176.066406 C 248.246094 175.5625 248.394531 175.074219 248.589844 174.597656 C 248.785156 174.125 249.027344 173.675781 249.3125 173.25 C 249.601562 172.820312 249.925781 172.425781 250.289062 172.0625 C 251.050781 171.300781 251.796875 170.515625 252.519531 169.714844 C 253.246094 168.910156 253.949219 168.09375 254.636719 167.253906 C 255.320312 166.417969 255.984375 165.566406 256.625 164.699219 C 257.269531 163.828125 257.890625 162.945312 258.492188 162.046875 C 259.089844 161.144531 259.667969 160.230469 260.222656 159.304688 C 260.777344 158.378906 261.308594 157.4375 261.816406 156.484375 C 262.328125 155.527344 262.8125 154.5625 263.273438 153.585938 C 263.734375 152.609375 264.171875 151.621094 264.585938 150.621094 C 264.996094 149.621094 265.386719 148.613281 265.75 147.597656 C 266.113281 146.578125 266.453125 145.550781 266.765625 144.515625 C 267.078125 143.484375 267.367188 142.441406 267.628906 141.394531 C 267.890625 140.34375 268.125 139.289062 268.335938 138.230469 C 268.546875 137.167969 268.730469 136.105469 268.890625 135.035156 C 269.046875 133.964844 269.179688 132.894531 269.285156 131.820312 C 269.390625 130.742188 269.472656 129.664062 269.523438 128.585938 C 269.578125 127.507812 269.605469 126.425781 269.605469 125.34375 C 269.605469 124.265625 269.578125 123.183594 269.523438 122.105469 C 269.472656 121.023438 269.390625 119.949219 269.285156 118.871094 C 269.179688 117.796875 269.046875 116.722656 268.890625 115.65625 C 268.730469 114.585938 268.546875 113.519531 268.335938 112.460938 C 268.125 111.398438 267.890625 110.347656 267.628906 109.296875 C 267.367188 108.25 267.078125 107.207031 266.765625 106.171875 C 266.453125 105.136719 266.113281 104.113281 265.75 103.09375 C 265.386719 102.074219 264.996094 101.066406 264.585938 100.070312 C 264.171875 99.070312 263.734375 98.082031 263.273438 97.105469 C 262.8125 96.125 262.328125 95.160156 261.816406 94.207031 C 261.308594 93.253906 260.777344 92.3125 260.222656 91.386719 C 259.667969 90.457031 259.089844 89.542969 258.492188 88.644531 C 257.890625 87.746094 257.269531 86.859375 256.625 85.992188 C 255.984375 85.125 255.320312 84.269531 254.636719 83.433594 C 253.949219 82.597656 253.246094 81.777344 252.519531 80.976562 C 251.796875 80.175781 251.050781 79.390625 250.289062 78.625 C 249.925781 78.261719 249.601562 77.867188 249.3125 77.441406 C 249.027344 77.015625 248.785156 76.5625 248.589844 76.089844 C 248.394531 75.613281 248.246094 75.125 248.144531 74.621094 C 248.042969 74.117188 247.992188 73.609375 247.992188 73.097656 C 247.992188 72.582031 248.042969 72.074219 248.140625 71.570312 C 248.242188 71.066406 248.390625 70.578125 248.585938 70.101562 C 248.78125 69.625 249.023438 69.175781 249.308594 68.75 C 249.59375 68.320312 249.917969 67.925781 250.28125 67.5625 C 250.644531 67.199219 251.039062 66.875 251.464844 66.589844 C 251.890625 66.304688 252.34375 66.0625 252.816406 65.863281 C 253.292969 65.667969 253.78125 65.519531 254.285156 65.417969 C 254.789062 65.316406 255.296875 65.265625 255.8125 65.265625 C 256.324219 65.265625 256.835938 65.316406 257.339844 65.417969 C 257.84375 65.515625 258.332031 65.664062 258.808594 65.859375 C 259.28125 66.054688 259.734375 66.296875 260.160156 66.582031 C 260.585938 66.867188 260.984375 67.191406 261.347656 67.554688 C 262.289062 68.5 263.210938 69.46875 264.109375 70.460938 C 265.003906 71.453125 265.875 72.46875 266.722656 73.5 C 267.570312 74.535156 268.390625 75.589844 269.183594 76.664062 C 269.980469 77.742188 270.75 78.832031 271.492188 79.945312 C 272.230469 81.058594 272.945312 82.1875 273.632812 83.335938 C 274.316406 84.484375 274.976562 85.648438 275.605469 86.828125 C 276.234375 88.003906 276.832031 89.199219 277.40625 90.410156 C 277.976562 91.617188 278.515625 92.839844 279.027344 94.074219 C 279.535156 95.3125 280.015625 96.558594 280.464844 97.816406 C 280.917969 99.074219 281.335938 100.34375 281.722656 101.625 C 282.109375 102.902344 282.464844 104.191406 282.789062 105.488281 C 283.113281 106.785156 283.40625 108.089844 283.667969 109.402344 C 283.925781 110.710938 284.15625 112.03125 284.351562 113.351562 C 284.546875 114.675781 284.710938 116 284.839844 117.332031 C 284.972656 118.660156 285.070312 119.992188 285.136719 121.328125 C 285.199219 122.664062 285.234375 124 285.234375 125.335938 C 285.234375 126.671875 285.199219 128.007812 285.136719 129.34375 C 285.070312 130.679688 284.972656 132.011719 284.839844 133.34375 C 284.710938 134.671875 284.546875 136 284.351562 137.324219 C 284.15625 138.644531 283.925781 139.960938 283.667969 141.273438 C 283.40625 142.582031 283.113281 143.886719 282.789062 145.183594 C 282.464844 146.480469 282.109375 147.769531 281.722656 149.050781 C 281.335938 150.328125 280.917969 151.597656 280.464844 152.855469 C 280.015625 154.117188 279.535156 155.363281 279.027344 156.597656 C 278.515625 157.832031 277.976562 159.054688 277.40625 160.265625 C 276.832031 161.472656 276.234375 162.667969 275.605469 163.847656 C 274.976562 165.027344 274.316406 166.191406 273.632812 167.339844 C 272.945312 168.484375 272.230469 169.617188 271.492188 170.726562 C 270.75 171.839844 269.980469 172.933594 269.183594 174.007812 C 268.390625 175.082031 267.570312 176.136719 266.722656 177.171875 C 265.875 178.207031 265.003906 179.21875 264.109375 180.210938 C 263.210938 181.203125 262.289062 182.171875 261.347656 183.121094 C 260.617188 183.855469 259.769531 184.421875 258.8125 184.820312 C 257.851562 185.21875 256.855469 185.417969 255.816406 185.414062 Z M 255.816406 185.414062 " fill-opacity="1" fill-rule="nonzero"/><g fill="#ffffff" fill-opacity="1"><g transform="translate(450.35622, 263.999983)"><g><path d="M 84.234375 -129.59375 C 84.554688 -130.5625 84.71875 -131.84375 84.71875 -133.4375 C 84.71875 -136 84.035156 -138.078125 82.671875 -139.671875 C 81.316406 -141.273438 79.195312 -143.035156 76.3125 -144.953125 C 73.914062 -146.710938 72.195312 -148.234375 71.15625 -149.515625 C 70.113281 -150.796875 69.832031 -152.316406 70.3125 -154.078125 C 70.800781 -156.316406 72.003906 -157.835938 73.921875 -158.640625 C 75.835938 -159.441406 78.878906 -159.84375 83.046875 -159.84375 L 151.203125 -159.84375 C 154.554688 -159.84375 157.15625 -159.28125 159 -158.15625 C 160.84375 -157.039062 161.765625 -155.601562 161.765625 -153.84375 C 161.765625 -153.039062 161.523438 -152 161.046875 -150.71875 C 160.554688 -149.601562 159.875 -148.601562 159 -147.71875 C 158.125 -146.84375 157.320312 -146.203125 156.59375 -145.796875 C 155.875 -145.398438 155.359375 -145.039062 155.046875 -144.71875 C 152.484375 -143.28125 150.398438 -141.679688 148.796875 -139.921875 C 147.203125 -138.160156 145.84375 -135.441406 144.71875 -131.765625 L 121.203125 -48.71875 C 116.398438 -31.757812 108.238281 -19.160156 96.71875 -10.921875 C 85.195312 -2.679688 70.238281 1.4375 51.84375 1.4375 C 39.519531 1.4375 29.078125 -0.359375 20.515625 -3.953125 C 11.960938 -7.554688 5.523438 -12.394531 1.203125 -18.46875 C -3.117188 -24.550781 -5.28125 -31.195312 -5.28125 -38.40625 C -5.28125 -41.925781 -4.800781 -45.363281 -3.84375 -48.71875 C -1.757812 -55.914062 1.800781 -61.351562 6.84375 -65.03125 C 11.882812 -68.71875 17.523438 -70.5625 23.765625 -70.5625 C 30.960938 -70.5625 36.476562 -68.398438 40.3125 -64.078125 C 44.15625 -59.753906 46.078125 -54.234375 46.078125 -47.515625 C 46.078125 -44.160156 45.597656 -40.800781 44.640625 -37.4375 C 42.722656 -30.71875 39.125 -25.757812 33.84375 -22.5625 C 36.40625 -20.957031 39.363281 -20.15625 42.71875 -20.15625 C 46.082031 -20.15625 49.039062 -21.832031 51.59375 -25.1875 C 54.15625 -28.550781 56.316406 -33.273438 58.078125 -39.359375 Z M 84.234375 -129.59375 "/></g></g></g><g fill="#ffffff" fill-opacity="1"><g transform="translate(591.955964, 263.999983)"><g><path d="M 85.6875 -126.953125 C 104.082031 -126.953125 118.800781 -123.550781 129.84375 -116.75 C 140.882812 -109.957031 146.40625 -99.601562 146.40625 -85.6875 C 146.40625 -80.40625 145.441406 -74.40625 143.515625 -67.6875 L 133.6875 -34.5625 C 133.519531 -33.914062 133.4375 -33.113281 133.4375 -32.15625 C 133.4375 -29.59375 134.476562 -28.3125 136.5625 -28.3125 C 138.476562 -28.3125 140.113281 -29.148438 141.46875 -30.828125 C 142.832031 -32.515625 143.753906 -33.359375 144.234375 -33.359375 C 145.035156 -33.359375 145.71875 -32.796875 146.28125 -31.671875 C 146.84375 -30.554688 147.125 -29.28125 147.125 -27.84375 C 147.28125 -23.519531 145.640625 -19.117188 142.203125 -14.640625 C 138.765625 -10.160156 134.164062 -6.476562 128.40625 -3.59375 C 122.644531 -0.71875 116.320312 0.71875 109.4375 0.71875 C 101.113281 0.71875 93.992188 -0.800781 88.078125 -3.84375 C 82.160156 -6.882812 78.082031 -11.363281 75.84375 -17.28125 C 71.039062 -11.519531 65.359375 -7.078125 58.796875 -3.953125 C 52.234375 -0.835938 45.195312 0.71875 37.6875 0.71875 C 29.195312 0.71875 22.070312 -0.921875 16.3125 -4.203125 C 10.5625 -7.484375 6.285156 -11.722656 3.484375 -16.921875 C 0.679688 -22.117188 -0.71875 -27.597656 -0.71875 -33.359375 C -0.71875 -35.921875 -0.476562 -38.398438 0 -40.796875 C 2.5625 -51.835938 8.117188 -60.15625 16.671875 -65.75 C 25.234375 -71.351562 35.4375 -74.15625 47.28125 -74.15625 C 60.5625 -74.15625 73.601562 -72.078125 86.40625 -67.921875 L 92.40625 -83.765625 C 94.476562 -90.484375 95.515625 -95.679688 95.515625 -99.359375 C 95.359375 -103.203125 94.078125 -106.082031 91.671875 -108 C 89.273438 -109.914062 85.597656 -110.875 80.640625 -110.875 C 81.597656 -108.320312 82.078125 -105.679688 82.078125 -102.953125 C 82.078125 -97.035156 79.835938 -91.914062 75.359375 -87.59375 C 70.878906 -83.28125 64.476562 -81.125 56.15625 -81.125 C 48.320312 -81.125 42.203125 -82.84375 37.796875 -86.28125 C 33.398438 -89.71875 31.203125 -94 31.203125 -99.125 C 31.203125 -107.125 35.679688 -113.757812 44.640625 -119.03125 C 53.597656 -124.3125 67.28125 -126.953125 85.6875 -126.953125 Z M 72.234375 -54.234375 C 67.753906 -54.234375 64.113281 -52.515625 61.3125 -49.078125 C 58.519531 -45.640625 57.125 -41.921875 57.125 -37.921875 C 57.125 -35.359375 57.722656 -33.273438 58.921875 -31.671875 C 60.117188 -30.078125 61.835938 -29.28125 64.078125 -29.28125 C 66.160156 -29.28125 68.441406 -30.117188 70.921875 -31.796875 C 73.398438 -33.472656 75.195312 -35.992188 76.3125 -39.359375 L 81.359375 -53.515625 C 78.640625 -53.992188 75.597656 -54.234375 72.234375 -54.234375 Z M 72.234375 -54.234375 "/></g></g></g><g fill="#ffffff" fill-opacity="1"><g transform="translate(748.915668, 263.999983)"><g><path d="M 117.125 -126.953125 C 125.601562 -126.953125 132.640625 -123.910156 138.234375 -117.828125 C 143.835938 -111.753906 146.640625 -103.4375 146.640625 -92.875 C 146.640625 -78.632812 141.675781 -64.070312 131.75 -49.1875 C 121.832031 -34.3125 109.273438 -22.035156 94.078125 -12.359375 C 78.878906 -2.679688 64.082031 2.15625 49.6875 2.15625 C 35.925781 2.15625 24.765625 -0.640625 16.203125 -6.234375 C 7.640625 -11.835938 3.359375 -19.835938 3.359375 -30.234375 C 3.359375 -34.078125 4.078125 -38.398438 5.515625 -43.203125 L 20.640625 -94.796875 C 20.960938 -96.078125 21.125 -97.039062 21.125 -97.6875 C 21.125 -99.28125 20.722656 -100.632812 19.921875 -101.75 C 19.117188 -102.875 18 -104.078125 16.5625 -105.359375 C 14.15625 -107.441406 12.953125 -109.28125 12.953125 -110.875 C 12.796875 -113.113281 14.15625 -115.515625 17.03125 -118.078125 C 19.914062 -120.640625 23.957031 -122.757812 29.15625 -124.4375 C 34.351562 -126.113281 40.234375 -126.953125 46.796875 -126.953125 C 57.515625 -126.953125 65.875 -124.351562 71.875 -119.15625 C 77.875 -113.957031 80.875 -107.195312 80.875 -98.875 C 80.875 -95.195312 80.234375 -91.195312 78.953125 -86.875 L 63.359375 -35.515625 C 62.878906 -34.078125 62.640625 -32.878906 62.640625 -31.921875 C 62.640625 -29.835938 63.359375 -28.234375 64.796875 -27.109375 C 66.234375 -25.992188 68.234375 -25.4375 70.796875 -25.4375 C 74.316406 -25.4375 78.4375 -26.992188 83.15625 -30.109375 C 87.875 -33.234375 92.550781 -37.710938 97.1875 -43.546875 C 101.832031 -49.390625 105.597656 -56.3125 108.484375 -64.3125 C 102.078125 -69.914062 97.550781 -75.4375 94.90625 -80.875 C 92.269531 -86.320312 90.953125 -91.925781 90.953125 -97.6875 C 90.953125 -105.84375 93.191406 -112.757812 97.671875 -118.4375 C 102.160156 -124.113281 108.644531 -126.953125 117.125 -126.953125 Z M 117.125 -126.953125 "/></g></g></g><g fill="#ffffff" fill-opacity="1"><g transform="translate(892.675426, 263.999983)"><g><path d="M 85.6875 -126.953125 C 104.082031 -126.953125 118.800781 -123.550781 129.84375 -116.75 C 140.882812 -109.957031 146.40625 -99.601562 146.40625 -85.6875 C 146.40625 -80.40625 145.441406 -74.40625 143.515625 -67.6875 L 133.6875 -34.5625 C 133.519531 -33.914062 133.4375 -33.113281 133.4375 -32.15625 C 133.4375 -29.59375 134.476562 -28.3125 136.5625 -28.3125 C 138.476562 -28.3125 140.113281 -29.148438 141.46875 -30.828125 C 142.832031 -32.515625 143.753906 -33.359375 144.234375 -33.359375 C 145.035156 -33.359375 145.71875 -32.796875 146.28125 -31.671875 C 146.84375 -30.554688 147.125 -29.28125 147.125 -27.84375 C 147.28125 -23.519531 145.640625 -19.117188 142.203125 -14.640625 C 138.765625 -10.160156 134.164062 -6.476562 128.40625 -3.59375 C 122.644531 -0.71875 116.320312 0.71875 109.4375 0.71875 C 101.113281 0.71875 93.992188 -0.800781 88.078125 -3.84375 C 82.160156 -6.882812 78.082031 -11.363281 75.84375 -17.28125 C 71.039062 -11.519531 65.359375 -7.078125 58.796875 -3.953125 C 52.234375 -0.835938 45.195312 0.71875 37.6875 0.71875 C 29.195312 0.71875 22.070312 -0.921875 16.3125 -4.203125 C 10.5625 -7.484375 6.285156 -11.722656 3.484375 -16.921875 C 0.679688 -22.117188 -0.71875 -27.597656 -0.71875 -33.359375 C -0.71875 -35.921875 -0.476562 -38.398438 0 -40.796875 C 2.5625 -51.835938 8.117188 -60.15625 16.671875 -65.75 C 25.234375 -71.351562 35.4375 -74.15625 47.28125 -74.15625 C 60.5625 -74.15625 73.601562 -72.078125 86.40625 -67.921875 L 92.40625 -83.765625 C 94.476562 -90.484375 95.515625 -95.679688 95.515625 -99.359375 C 95.359375 -103.203125 94.078125 -106.082031 91.671875 -108 C 89.273438 -109.914062 85.597656 -110.875 80.640625 -110.875 C 81.597656 -108.320312 82.078125 -105.679688 82.078125 -102.953125 C 82.078125 -97.035156 79.835938 -91.914062 75.359375 -87.59375 C 70.878906 -83.28125 64.476562 -81.125 56.15625 -81.125 C 48.320312 -81.125 42.203125 -82.84375 37.796875 -86.28125 C 33.398438 -89.71875 31.203125 -94 31.203125 -99.125 C 31.203125 -107.125 35.679688 -113.757812 44.640625 -119.03125 C 53.597656 -124.3125 67.28125 -126.953125 85.6875 -126.953125 Z M 72.234375 -54.234375 C 67.753906 -54.234375 64.113281 -52.515625 61.3125 -49.078125 C 58.519531 -45.640625 57.125 -41.921875 57.125 -37.921875 C 57.125 -35.359375 57.722656 -33.273438 58.921875 -31.671875 C 60.117188 -30.078125 61.835938 -29.28125 64.078125 -29.28125 C 66.160156 -29.28125 68.441406 -30.117188 70.921875 -31.796875 C 73.398438 -33.472656 75.195312 -35.992188 76.3125 -39.359375 L 81.359375 -53.515625 C 78.640625 -53.992188 75.597656 -54.234375 72.234375 -54.234375 Z M 72.234375 -54.234375 "/></g></g></g></svg>