<svg xmlns="http://www.w3.org/2000/svg" xmlns:xlink="http://www.w3.org/1999/xlink" width="2000" zoomAndPan="magnify" viewBox="0 0 1500 374.999991" height="500" preserveAspectRatio="xMidYMid meet" version="1.0"><defs><g/><clipPath id="c416542af8"><path d="M 60 1 L 182 1 L 182 188 L 60 188 Z M 60 1 " clip-rule="nonzero"/></clipPath><clipPath id="79feb3dc30"><path d="M 181.878906 132.667969 C 180.808594 131.597656 179.765625 130.5 178.75 129.378906 C 177.730469 128.253906 176.742188 127.109375 175.78125 125.9375 C 174.820312 124.765625 173.886719 123.574219 172.984375 122.355469 C 172.082031 121.140625 171.210938 119.902344 170.367188 118.640625 C 169.527344 117.382812 168.714844 116.105469 167.9375 114.804688 C 167.15625 113.507812 166.410156 112.1875 165.695312 110.851562 C 164.976562 109.515625 164.296875 108.164062 163.648438 106.796875 C 162.996094 105.425781 162.382812 104.042969 161.800781 102.644531 C 161.21875 101.246094 160.671875 99.832031 160.160156 98.40625 C 159.648438 96.980469 159.167969 95.542969 158.726562 94.09375 C 158.285156 92.644531 157.878906 91.183594 157.507812 89.714844 C 157.136719 88.246094 156.800781 86.769531 156.503906 85.285156 C 156.203125 83.796875 155.941406 82.304688 155.714844 80.808594 C 155.488281 79.308594 155.300781 77.804688 155.148438 76.296875 C 154.996094 74.789062 154.878906 73.28125 154.800781 71.765625 C 154.722656 70.253906 154.679688 68.738281 154.675781 67.222656 C 154.671875 65.707031 154.703125 64.195312 154.773438 62.679688 C 154.84375 61.167969 154.949219 59.65625 155.09375 58.148438 C 155.234375 56.636719 155.417969 55.132812 155.632812 53.632812 C 155.851562 52.132812 156.101562 50.640625 156.390625 49.152344 C 156.683594 47.667969 157.007812 46.1875 157.371094 44.714844 C 157.730469 43.242188 158.128906 41.78125 158.5625 40.332031 C 158.996094 38.878906 159.464844 37.4375 159.96875 36.007812 C 160.472656 34.578125 161.011719 33.164062 161.582031 31.761719 C 162.15625 30.359375 162.765625 28.972656 163.40625 27.597656 C 164.046875 26.226562 164.71875 24.867188 165.425781 23.527344 C 166.132812 22.1875 166.875 20.867188 167.644531 19.5625 C 168.417969 18.257812 169.21875 16.976562 170.054688 15.710938 C 170.886719 14.445312 171.753906 13.203125 172.648438 11.980469 C 173.542969 10.757812 174.46875 9.558594 175.421875 8.382812 C 176.375 7.207031 177.359375 6.054688 178.367188 4.925781 C 179.378906 3.796875 180.414062 2.691406 181.480469 1.613281 L 60.417969 122.019531 L 126.105469 187.769531 Z M 181.878906 132.667969 " clip-rule="nonzero"/></clipPath><linearGradient x1="42.625499" gradientTransform="matrix(36.430957, 0, 0, 36.464995, -1338.52998, -986.806436)" y1="27.997503" x2="38.405998" gradientUnits="userSpaceOnUse" y2="32.217" id="b28c558215"><stop stop-opacity="1" stop-color="rgb(0%, 32.199097%, 79.998779%)" offset="0"/><stop stop-opacity="1" stop-color="rgb(0%, 32.199097%, 79.998779%)" offset="0.25"/><stop stop-opacity="1" stop-color="rgb(0%, 32.199097%, 79.998779%)" offset="0.3125"/><stop stop-opacity="1" stop-color="rgb(0%, 32.199097%, 79.998779%)" offset="0.34375"/><stop stop-opacity="1" stop-color="rgb(0%, 32.199097%, 79.998779%)" offset="0.359375"/><stop stop-opacity="1" stop-color="rgb(0.0305176%, 32.240295%, 80.041504%)" offset="0.367188"/><stop stop-opacity="1" stop-color="rgb(0.202942%, 32.467651%, 80.273438%)" offset="0.375"/><stop stop-opacity="1" stop-color="rgb(0.486755%, 32.841492%, 80.653381%)" offset="0.382812"/><stop stop-opacity="1" stop-color="rgb(0.770569%, 33.213806%, 81.033325%)" offset="0.390625"/><stop stop-opacity="1" stop-color="rgb(1.054382%, 33.586121%, 81.414795%)" offset="0.395071"/><stop stop-opacity="1" stop-color="rgb(1.196289%, 33.772278%, 81.60553%)" offset="0.398438"/><stop stop-opacity="1" stop-color="rgb(1.33667%, 33.958435%, 81.794739%)" offset="0.40625"/><stop stop-opacity="1" stop-color="rgb(1.620483%, 34.332275%, 82.174683%)" offset="0.414062"/><stop stop-opacity="1" stop-color="rgb(1.904297%, 34.70459%, 82.554626%)" offset="0.421875"/><stop stop-opacity="1" stop-color="rgb(2.186584%, 35.076904%, 82.936096%)" offset="0.429688"/><stop stop-opacity="1" stop-color="rgb(2.470398%, 35.450745%, 83.31604%)" offset="0.4375"/><stop stop-opacity="1" stop-color="rgb(2.754211%, 35.823059%, 83.695984%)" offset="0.445312"/><stop stop-opacity="1" stop-color="rgb(3.036499%, 36.195374%, 84.077454%)" offset="0.453125"/><stop stop-opacity="1" stop-color="rgb(3.320312%, 36.567688%, 84.457397%)" offset="0.460938"/><stop stop-opacity="1" stop-color="rgb(3.604126%, 36.941528%, 84.837341%)" offset="0.46875"/><stop stop-opacity="1" stop-color="rgb(3.887939%, 37.313843%, 85.217285%)" offset="0.476562"/><stop stop-opacity="1" stop-color="rgb(4.170227%, 37.686157%, 85.598755%)" offset="0.484375"/><stop stop-opacity="1" stop-color="rgb(4.454041%, 38.058472%, 85.978699%)" offset="0.492188"/><stop stop-opacity="1" stop-color="rgb(4.737854%, 38.432312%, 86.358643%)" offset="0.5"/><stop stop-opacity="1" stop-color="rgb(5.020142%, 38.804626%, 86.738586%)" offset="0.507813"/><stop stop-opacity="1" stop-color="rgb(5.303955%, 39.176941%, 87.120056%)" offset="0.515625"/><stop stop-opacity="1" stop-color="rgb(5.587769%, 39.550781%, 87.5%)" offset="0.523438"/><stop stop-opacity="1" stop-color="rgb(5.870056%, 39.923096%, 87.879944%)" offset="0.53125"/><stop stop-opacity="1" stop-color="rgb(6.15387%, 40.29541%, 88.259888%)" offset="0.539063"/><stop stop-opacity="1" stop-color="rgb(6.437683%, 40.667725%, 88.641357%)" offset="0.546875"/><stop stop-opacity="1" stop-color="rgb(6.719971%, 41.041565%, 89.021301%)" offset="0.554688"/><stop stop-opacity="1" stop-color="rgb(7.003784%, 41.413879%, 89.401245%)" offset="0.5625"/><stop stop-opacity="1" stop-color="rgb(7.287598%, 41.786194%, 89.781189%)" offset="0.570313"/><stop stop-opacity="1" stop-color="rgb(7.571411%, 42.158508%, 90.162659%)" offset="0.578125"/><stop stop-opacity="1" stop-color="rgb(7.853699%, 42.532349%, 90.542603%)" offset="0.585938"/><stop stop-opacity="1" stop-color="rgb(8.137512%, 42.904663%, 90.922546%)" offset="0.59375"/><stop stop-opacity="1" stop-color="rgb(8.421326%, 43.276978%, 91.30249%)" offset="0.601563"/><stop stop-opacity="1" stop-color="rgb(8.703613%, 43.649292%, 91.68396%)" offset="0.604929"/><stop stop-opacity="1" stop-color="rgb(8.84552%, 43.836975%, 91.874695%)" offset="0.609375"/><stop stop-opacity="1" stop-color="rgb(8.987427%, 44.023132%, 92.063904%)" offset="0.617188"/><stop stop-opacity="1" stop-color="rgb(9.27124%, 44.395447%, 92.443848%)" offset="0.625"/><stop stop-opacity="1" stop-color="rgb(9.553528%, 44.767761%, 92.823792%)" offset="0.632813"/><stop stop-opacity="1" stop-color="rgb(9.837341%, 45.141602%, 93.205261%)" offset="0.640625"/><stop stop-opacity="1" stop-color="rgb(10.121155%, 45.513916%, 93.585205%)" offset="0.648438"/><stop stop-opacity="1" stop-color="rgb(10.403442%, 45.88623%, 93.965149%)" offset="0.65625"/><stop stop-opacity="1" stop-color="rgb(10.687256%, 46.258545%, 94.345093%)" offset="0.664063"/><stop stop-opacity="1" stop-color="rgb(10.971069%, 46.632385%, 94.726562%)" offset="0.671875"/><stop stop-opacity="1" stop-color="rgb(11.254883%, 47.0047%, 95.106506%)" offset="0.679688"/><stop stop-opacity="1" stop-color="rgb(11.53717%, 47.377014%, 95.48645%)" offset="0.6875"/><stop stop-opacity="1" stop-color="rgb(11.820984%, 47.749329%, 95.866394%)" offset="0.695313"/><stop stop-opacity="1" stop-color="rgb(12.104797%, 48.123169%, 96.247864%)" offset="0.703125"/><stop stop-opacity="1" stop-color="rgb(12.387085%, 48.495483%, 96.627808%)" offset="0.710938"/><stop stop-opacity="1" stop-color="rgb(12.670898%, 48.867798%, 97.007751%)" offset="0.71875"/><stop stop-opacity="1" stop-color="rgb(12.954712%, 49.240112%, 97.387695%)" offset="0.726563"/><stop stop-opacity="1" stop-color="rgb(13.237%, 49.613953%, 97.769165%)" offset="0.734375"/><stop stop-opacity="1" stop-color="rgb(13.520813%, 49.986267%, 98.149109%)" offset="0.742188"/><stop stop-opacity="1" stop-color="rgb(13.804626%, 50.358582%, 98.529053%)" offset="0.75"/><stop stop-opacity="1" stop-color="rgb(14.086914%, 50.732422%, 98.908997%)" offset="0.757813"/><stop stop-opacity="1" stop-color="rgb(14.370728%, 51.104736%, 99.290466%)" offset="0.765625"/><stop stop-opacity="1" stop-color="rgb(14.654541%, 51.477051%, 99.67041%)" offset="0.773438"/><stop stop-opacity="1" stop-color="rgb(14.846802%, 51.730347%, 99.92981%)" offset="0.78125"/><stop stop-opacity="1" stop-color="rgb(14.898682%, 51.799011%, 100%)" offset="0.8125"/><stop stop-opacity="1" stop-color="rgb(14.898682%, 51.799011%, 100%)" offset="0.875"/><stop stop-opacity="1" stop-color="rgb(14.898682%, 51.799011%, 100%)" offset="1"/></linearGradient><clipPath id="874a6cb1ff"><path d="M 181 187 L 303 187 L 303 375 L 181 375 Z M 181 187 " clip-rule="nonzero"/></clipPath><clipPath id="b88ac7844e"><path d="M 237.183594 187.367188 L 181.878906 242.71875 C 182.953125 243.796875 184.003906 244.898438 185.023438 246.023438 C 186.046875 247.152344 187.039062 248.304688 188.003906 249.480469 C 188.96875 250.65625 189.902344 251.855469 190.808594 253.078125 C 191.714844 254.300781 192.589844 255.542969 193.4375 256.808594 C 194.28125 258.074219 195.09375 259.359375 195.878906 260.664062 C 196.660156 261.96875 197.410156 263.292969 198.125 264.632812 C 198.84375 265.976562 199.527344 267.335938 200.175781 268.710938 C 200.828125 270.085938 201.441406 271.476562 202.023438 272.882812 C 202.605469 274.289062 203.152344 275.707031 203.667969 277.140625 C 204.179688 278.574219 204.65625 280.019531 205.097656 281.472656 C 205.539062 282.929688 205.945312 284.398438 206.3125 285.871094 C 206.683594 287.347656 207.015625 288.832031 207.3125 290.324219 C 207.609375 291.820312 207.871094 293.316406 208.09375 294.824219 C 208.316406 296.328125 208.503906 297.839844 208.652344 299.351562 C 208.800781 300.867188 208.914062 302.382812 208.988281 303.902344 C 209.0625 305.425781 209.097656 306.945312 209.097656 308.46875 C 209.097656 309.988281 209.0625 311.507812 208.988281 313.03125 C 208.914062 314.550781 208.800781 316.066406 208.652344 317.582031 C 208.503906 319.09375 208.316406 320.605469 208.09375 322.109375 C 207.871094 323.617188 207.609375 325.113281 207.3125 326.609375 C 207.015625 328.101562 206.683594 329.585938 206.3125 331.0625 C 205.945312 332.535156 205.539062 334.003906 205.097656 335.460938 C 204.65625 336.914062 204.179688 338.359375 203.667969 339.792969 C 203.152344 341.226562 202.605469 342.644531 202.023438 344.050781 C 201.441406 345.457031 200.828125 346.847656 200.175781 348.222656 C 199.527344 349.597656 198.84375 350.957031 198.125 352.300781 C 197.410156 353.640625 196.660156 354.964844 195.878906 356.269531 C 195.09375 357.574219 194.28125 358.859375 193.4375 360.125 C 192.589844 361.390625 191.714844 362.632812 190.808594 363.855469 C 189.902344 365.078125 188.96875 366.277344 188.003906 367.453125 C 187.039062 368.628906 186.046875 369.78125 185.023438 370.910156 C 184.003906 372.035156 182.953125 373.136719 181.878906 374.214844 L 302.832031 253.148438 Z M 237.183594 187.367188 " clip-rule="nonzero"/></clipPath><linearGradient x1="40.832495" gradientTransform="matrix(36.430957, 0, 0, 36.464995, -1338.52998, -986.806436)" y1="36.4225" x2="45.054498" gradientUnits="userSpaceOnUse" y2="32.200505" id="e722ac5bab"><stop stop-opacity="1" stop-color="rgb(0%, 32.199097%, 79.998779%)" offset="0"/><stop stop-opacity="1" stop-color="rgb(0%, 32.199097%, 79.998779%)" offset="0.25"/><stop stop-opacity="1" stop-color="rgb(0.0549316%, 32.272339%, 80.073547%)" offset="0.375"/><stop stop-opacity="1" stop-color="rgb(0.253296%, 32.531738%, 80.33905%)" offset="0.382812"/><stop stop-opacity="1" stop-color="rgb(0.537109%, 32.905579%, 80.72052%)" offset="0.390625"/><stop stop-opacity="1" stop-color="rgb(0.820923%, 33.279419%, 81.10199%)" offset="0.393179"/><stop stop-opacity="1" stop-color="rgb(0.96283%, 33.467102%, 81.292725%)" offset="0.398438"/><stop stop-opacity="1" stop-color="rgb(1.104736%, 33.653259%, 81.483459%)" offset="0.40625"/><stop stop-opacity="1" stop-color="rgb(1.38855%, 34.0271%, 81.864929%)" offset="0.414063"/><stop stop-opacity="1" stop-color="rgb(1.672363%, 34.40094%, 82.246399%)" offset="0.421875"/><stop stop-opacity="1" stop-color="rgb(1.957703%, 34.773254%, 82.627869%)" offset="0.429688"/><stop stop-opacity="1" stop-color="rgb(2.241516%, 35.147095%, 83.007812%)" offset="0.4375"/><stop stop-opacity="1" stop-color="rgb(2.52533%, 35.520935%, 83.389282%)" offset="0.445312"/><stop stop-opacity="1" stop-color="rgb(2.809143%, 35.894775%, 83.770752%)" offset="0.453125"/><stop stop-opacity="1" stop-color="rgb(3.092957%, 36.268616%, 84.152222%)" offset="0.460938"/><stop stop-opacity="1" stop-color="rgb(3.37677%, 36.642456%, 84.533691%)" offset="0.46875"/><stop stop-opacity="1" stop-color="rgb(3.660583%, 37.016296%, 84.915161%)" offset="0.476562"/><stop stop-opacity="1" stop-color="rgb(3.945923%, 37.390137%, 85.296631%)" offset="0.484375"/><stop stop-opacity="1" stop-color="rgb(4.229736%, 37.762451%, 85.676575%)" offset="0.492188"/><stop stop-opacity="1" stop-color="rgb(4.51355%, 38.136292%, 86.058044%)" offset="0.5"/><stop stop-opacity="1" stop-color="rgb(4.797363%, 38.510132%, 86.439514%)" offset="0.507813"/><stop stop-opacity="1" stop-color="rgb(5.081177%, 38.883972%, 86.820984%)" offset="0.515625"/><stop stop-opacity="1" stop-color="rgb(5.36499%, 39.257812%, 87.202454%)" offset="0.523438"/><stop stop-opacity="1" stop-color="rgb(5.65033%, 39.631653%, 87.583923%)" offset="0.53125"/><stop stop-opacity="1" stop-color="rgb(5.934143%, 40.005493%, 87.965393%)" offset="0.539062"/><stop stop-opacity="1" stop-color="rgb(6.217957%, 40.379333%, 88.346863%)" offset="0.546875"/><stop stop-opacity="1" stop-color="rgb(6.50177%, 40.753174%, 88.726807%)" offset="0.554688"/><stop stop-opacity="1" stop-color="rgb(6.785583%, 41.125488%, 89.108276%)" offset="0.5625"/><stop stop-opacity="1" stop-color="rgb(7.069397%, 41.499329%, 89.489746%)" offset="0.570312"/><stop stop-opacity="1" stop-color="rgb(7.35321%, 41.873169%, 89.871216%)" offset="0.578125"/><stop stop-opacity="1" stop-color="rgb(7.63855%, 42.247009%, 90.252686%)" offset="0.585938"/><stop stop-opacity="1" stop-color="rgb(7.922363%, 42.62085%, 90.634155%)" offset="0.59375"/><stop stop-opacity="1" stop-color="rgb(8.206177%, 42.99469%, 91.015625%)" offset="0.601562"/><stop stop-opacity="1" stop-color="rgb(8.48999%, 43.36853%, 91.397095%)" offset="0.606821"/><stop stop-opacity="1" stop-color="rgb(8.631897%, 43.556213%, 91.58783%)" offset="0.609375"/><stop stop-opacity="1" stop-color="rgb(8.773804%, 43.742371%, 91.777039%)" offset="0.617187"/><stop stop-opacity="1" stop-color="rgb(9.057617%, 44.114685%, 92.158508%)" offset="0.625"/><stop stop-opacity="1" stop-color="rgb(9.342957%, 44.488525%, 92.539978%)" offset="0.632812"/><stop stop-opacity="1" stop-color="rgb(9.62677%, 44.862366%, 92.921448%)" offset="0.640625"/><stop stop-opacity="1" stop-color="rgb(9.910583%, 45.236206%, 93.302917%)" offset="0.648438"/><stop stop-opacity="1" stop-color="rgb(10.194397%, 45.610046%, 93.684387%)" offset="0.65625"/><stop stop-opacity="1" stop-color="rgb(10.47821%, 45.983887%, 94.065857%)" offset="0.664062"/><stop stop-opacity="1" stop-color="rgb(10.762024%, 46.357727%, 94.447327%)" offset="0.671875"/><stop stop-opacity="1" stop-color="rgb(11.047363%, 46.731567%, 94.827271%)" offset="0.679688"/><stop stop-opacity="1" stop-color="rgb(11.331177%, 47.103882%, 95.20874%)" offset="0.6875"/><stop stop-opacity="1" stop-color="rgb(11.61499%, 47.477722%, 95.59021%)" offset="0.695312"/><stop stop-opacity="1" stop-color="rgb(11.898804%, 47.851562%, 95.97168%)" offset="0.703125"/><stop stop-opacity="1" stop-color="rgb(12.182617%, 48.225403%, 96.353149%)" offset="0.710938"/><stop stop-opacity="1" stop-color="rgb(12.466431%, 48.599243%, 96.734619%)" offset="0.71875"/><stop stop-opacity="1" stop-color="rgb(12.750244%, 48.973083%, 97.116089%)" offset="0.726562"/><stop stop-opacity="1" stop-color="rgb(13.035583%, 49.346924%, 97.497559%)" offset="0.734375"/><stop stop-opacity="1" stop-color="rgb(13.319397%, 49.720764%, 97.877502%)" offset="0.742188"/><stop stop-opacity="1" stop-color="rgb(13.60321%, 50.093079%, 98.258972%)" offset="0.75"/><stop stop-opacity="1" stop-color="rgb(13.887024%, 50.466919%, 98.640442%)" offset="0.757812"/><stop stop-opacity="1" stop-color="rgb(14.170837%, 50.840759%, 99.021912%)" offset="0.765625"/><stop stop-opacity="1" stop-color="rgb(14.454651%, 51.2146%, 99.403381%)" offset="0.773437"/><stop stop-opacity="1" stop-color="rgb(14.73999%, 51.58844%, 99.784851%)" offset="0.78125"/><stop stop-opacity="1" stop-color="rgb(14.889526%, 51.786804%, 99.987793%)" offset="0.8125"/><stop stop-opacity="1" stop-color="rgb(14.898682%, 51.799011%, 100%)" offset="0.875"/><stop stop-opacity="1" stop-color="rgb(14.898682%, 51.799011%, 100%)" offset="1"/></linearGradient></defs><g fill="#ffffff" fill-opacity="1"><g transform="translate(638.108418, 126.90239)"><g><path d="M 52.65625 -81.015625 C 52.851562 -81.609375 52.953125 -82.40625 52.953125 -83.40625 C 52.953125 -85.007812 52.523438 -86.3125 51.671875 -87.3125 C 50.828125 -88.3125 49.503906 -89.410156 47.703125 -90.609375 C 46.203125 -91.710938 45.125 -92.660156 44.46875 -93.453125 C 43.820312 -94.253906 43.648438 -95.207031 43.953125 -96.3125 C 44.253906 -97.707031 45.003906 -98.65625 46.203125 -99.15625 C 47.398438 -99.65625 49.300781 -99.90625 51.90625 -99.90625 L 94.515625 -99.90625 C 96.609375 -99.90625 98.226562 -99.554688 99.375 -98.859375 C 100.53125 -98.160156 101.109375 -97.257812 101.109375 -96.15625 C 101.109375 -95.65625 100.957031 -95.003906 100.65625 -94.203125 C 100.351562 -93.503906 99.925781 -92.878906 99.375 -92.328125 C 98.832031 -91.785156 98.332031 -91.390625 97.875 -91.140625 C 97.425781 -90.890625 97.101562 -90.660156 96.90625 -90.453125 C 95.3125 -89.554688 94.015625 -88.554688 93.015625 -87.453125 C 92.015625 -86.359375 91.160156 -84.660156 90.453125 -82.359375 L 75.765625 -30.453125 C 72.753906 -19.847656 67.648438 -11.96875 60.453125 -6.8125 C 53.253906 -1.664062 43.90625 0.90625 32.40625 0.90625 C 24.707031 0.90625 18.179688 -0.21875 12.828125 -2.46875 C 7.472656 -4.71875 3.445312 -7.742188 0.75 -11.546875 C -1.945312 -15.347656 -3.296875 -19.5 -3.296875 -24 C -3.296875 -26.195312 -3 -28.347656 -2.40625 -30.453125 C -1.101562 -34.953125 1.117188 -38.351562 4.265625 -40.65625 C 7.421875 -42.957031 10.945312 -44.109375 14.84375 -44.109375 C 19.351562 -44.109375 22.804688 -42.753906 25.203125 -40.046875 C 27.597656 -37.347656 28.796875 -33.898438 28.796875 -29.703125 C 28.796875 -27.597656 28.5 -25.5 27.90625 -23.40625 C 26.707031 -19.207031 24.457031 -16.101562 21.15625 -14.09375 C 22.75 -13.09375 24.597656 -12.59375 26.703125 -12.59375 C 28.804688 -12.59375 30.65625 -13.644531 32.25 -15.75 C 33.851562 -17.851562 35.203125 -20.804688 36.296875 -24.609375 Z M 52.65625 -81.015625 "/></g></g></g><g fill="#ffffff" fill-opacity="1"><g transform="translate(726.615291, 126.90239)"><g><path d="M 66.609375 -99.90625 C 68.703125 -99.90625 70.320312 -99.578125 71.46875 -98.921875 C 72.625 -98.273438 73.203125 -97.351562 73.203125 -96.15625 C 73.203125 -95.65625 73.050781 -95.003906 72.75 -94.203125 C 72.457031 -93.503906 72.035156 -92.878906 71.484375 -92.328125 C 70.929688 -91.785156 70.429688 -91.390625 69.984375 -91.140625 C 69.535156 -90.890625 69.207031 -90.660156 69 -90.453125 C 67.40625 -89.554688 66.109375 -88.554688 65.109375 -87.453125 C 64.109375 -86.359375 63.257812 -84.660156 62.5625 -82.359375 L 44.40625 -17.703125 C 44 -16.398438 43.796875 -15.148438 43.796875 -13.953125 C 43.796875 -12.753906 43.972656 -11.753906 44.328125 -10.953125 C 44.679688 -10.148438 45.207031 -9.300781 45.90625 -8.40625 C 46.800781 -7.101562 47.25 -6.050781 47.25 -5.25 C 47.25 -5.050781 47.148438 -4.550781 46.953125 -3.75 C 46.554688 -2.351562 45.65625 -1.378906 44.25 -0.828125 C 42.851562 -0.273438 40.753906 0 37.953125 0 L 2.703125 0 C 0.597656 0 -1.023438 -0.347656 -2.171875 -1.046875 C -3.328125 -1.742188 -3.90625 -2.695312 -3.90625 -3.90625 C -3.90625 -4.5 -3.753906 -5.144531 -3.453125 -5.84375 C -3.046875 -6.945312 -2.394531 -7.796875 -1.5 -8.390625 C -0.601562 -8.992188 -0.0507812 -9.347656 0.15625 -9.453125 C 1.75 -10.453125 3.046875 -11.472656 4.046875 -12.515625 C 5.046875 -13.566406 5.894531 -15.296875 6.59375 -17.703125 L 24.90625 -82.359375 C 25.300781 -83.660156 25.5 -84.910156 25.5 -86.109375 C 25.5 -87.210938 25.320312 -88.140625 24.96875 -88.890625 C 24.625 -89.640625 24.148438 -90.515625 23.546875 -91.515625 C 22.648438 -92.804688 22.203125 -93.851562 22.203125 -94.65625 C 22.203125 -94.957031 22.300781 -95.507812 22.5 -96.3125 C 22.90625 -97.613281 23.78125 -98.535156 25.125 -99.078125 C 26.476562 -99.628906 28.554688 -99.90625 31.359375 -99.90625 Z M 66.609375 -99.90625 "/></g></g></g><g fill="#ffffff" fill-opacity="1"><g transform="translate(787.219992, 126.90239)"><g><path d="M 114.609375 -69.453125 C 113.015625 -63.648438 110.015625 -59.125 105.609375 -55.875 C 101.210938 -52.625 95.660156 -50.601562 88.953125 -49.8125 C 93.753906 -49.40625 97.351562 -48 99.75 -45.59375 C 102.15625 -43.195312 103.359375 -40.050781 103.359375 -36.15625 C 103.359375 -34.65625 103.109375 -32.804688 102.609375 -30.609375 L 100.953125 -23.25 C 100.753906 -22.25 100.65625 -21.550781 100.65625 -21.15625 C 100.65625 -19.851562 100.953125 -18.875 101.546875 -18.21875 C 102.148438 -17.570312 103.003906 -17.25 104.109375 -17.25 C 106.210938 -17.25 107.738281 -16.945312 108.6875 -16.34375 C 109.632812 -15.75 109.957031 -14.648438 109.65625 -13.046875 C 109.257812 -10.742188 108.0625 -8.492188 106.0625 -6.296875 C 104.0625 -4.097656 101.234375 -2.273438 97.578125 -0.828125 C 93.929688 0.617188 89.507812 1.34375 84.3125 1.34375 C 77.707031 1.34375 72.453125 -0.128906 68.546875 -3.078125 C 64.648438 -6.023438 62.703125 -10.25 62.703125 -15.75 C 62.703125 -17.851562 63.003906 -20.101562 63.609375 -22.5 L 66 -32.109375 C 66.40625 -33.398438 66.609375 -34.75 66.609375 -36.15625 C 66.609375 -38.457031 65.832031 -40.109375 64.28125 -41.109375 C 62.726562 -42.109375 60.253906 -42.609375 56.859375 -42.609375 L 51.15625 -42.609375 L 44.25 -17.703125 C 44.050781 -17.097656 43.953125 -16.347656 43.953125 -15.453125 C 43.953125 -14.046875 44.300781 -12.84375 45 -11.84375 C 45.707031 -10.84375 46.660156 -9.796875 47.859375 -8.703125 C 48.753906 -8.003906 49.453125 -7.328125 49.953125 -6.671875 C 50.453125 -6.023438 50.703125 -5.351562 50.703125 -4.65625 C 50.703125 -2.945312 49.898438 -1.742188 48.296875 -1.046875 C 46.703125 -0.347656 44.351562 0 41.25 0 L 3.59375 0 C 1 0 -0.945312 -0.472656 -2.25 -1.421875 C -3.550781 -2.367188 -4 -3.695312 -3.59375 -5.40625 C -3.394531 -6.300781 -3.019531 -7.023438 -2.46875 -7.578125 C -1.925781 -8.128906 -1.101562 -8.753906 0 -9.453125 C 1.695312 -10.453125 3.046875 -11.5 4.046875 -12.59375 C 5.046875 -13.695312 5.847656 -15.398438 6.453125 -17.703125 L 24.75 -82.359375 C 25.15625 -83.660156 25.359375 -84.910156 25.359375 -86.109375 C 25.359375 -87.210938 25.179688 -88.140625 24.828125 -88.890625 C 24.472656 -89.640625 24 -90.515625 23.40625 -91.515625 C 22.5 -92.804688 22.046875 -93.851562 22.046875 -94.65625 C 22.046875 -94.957031 22.148438 -95.507812 22.359375 -96.3125 C 22.753906 -97.613281 23.625 -98.535156 24.96875 -99.078125 C 26.320312 -99.628906 28.398438 -99.90625 31.203125 -99.90625 L 81.453125 -99.90625 C 88.359375 -99.90625 94.382812 -98.851562 99.53125 -96.75 C 104.6875 -94.65625 108.640625 -91.78125 111.390625 -88.125 C 114.140625 -84.476562 115.515625 -80.359375 115.515625 -75.765625 C 115.515625 -73.660156 115.210938 -71.554688 114.609375 -69.453125 Z M 76.203125 -70.953125 C 76.703125 -73.253906 76.953125 -75.003906 76.953125 -76.203125 C 76.953125 -81.503906 74.050781 -84.15625 68.25 -84.15625 L 61.953125 -84.15625 L 55.359375 -57.609375 L 61.65625 -57.609375 C 65.550781 -57.609375 68.625 -58.554688 70.875 -60.453125 C 73.125 -62.359375 74.898438 -65.859375 76.203125 -70.953125 Z M 76.203125 -70.953125 "/></g></g></g><g fill="#ffffff" fill-opacity="1"><g transform="translate(901.078844, 126.90239)"><g><path d="M 91.65625 -17.703125 C 91.257812 -16.398438 91.0625 -15.097656 91.0625 -13.796875 C 91.0625 -12.703125 91.207031 -11.78125 91.5 -11.03125 C 91.800781 -10.28125 92.128906 -9.675781 92.484375 -9.21875 C 92.835938 -8.769531 93.0625 -8.445312 93.15625 -8.25 C 94.15625 -7.25 94.65625 -6.25 94.65625 -5.25 C 94.65625 -5.050781 94.554688 -4.550781 94.359375 -3.75 C 93.960938 -2.351562 93.085938 -1.378906 91.734375 -0.828125 C 90.378906 -0.273438 88.304688 0 85.515625 0 L 49.953125 0 C 47.859375 0 46.234375 -0.347656 45.078125 -1.046875 C 43.929688 -1.742188 43.359375 -2.695312 43.359375 -3.90625 C 43.359375 -4.5 43.503906 -5.144531 43.796875 -5.84375 C 44.097656 -6.644531 44.523438 -7.269531 45.078125 -7.71875 C 45.628906 -8.175781 46.40625 -8.703125 47.40625 -9.296875 C 49.007812 -10.203125 50.3125 -11.203125 51.3125 -12.296875 C 52.3125 -13.398438 53.160156 -15.203125 53.859375 -17.703125 L 57.75 -30.609375 L 34.359375 -30.609375 L 30.296875 -22.046875 C 28.597656 -18.347656 27.75 -15.445312 27.75 -13.34375 C 27.75 -12.144531 27.945312 -11.171875 28.34375 -10.421875 C 28.75 -9.671875 29.351562 -8.894531 30.15625 -8.09375 C 30.851562 -7.300781 31.328125 -6.628906 31.578125 -6.078125 C 31.828125 -5.523438 31.851562 -4.800781 31.65625 -3.90625 C 31.25 -2.40625 30.421875 -1.378906 29.171875 -0.828125 C 27.921875 -0.273438 25.945312 0 23.25 0 L 0.90625 0 C -1.394531 0 -3.144531 -0.421875 -4.34375 -1.265625 C -5.550781 -2.117188 -6.15625 -3.25 -6.15625 -4.65625 C -6.15625 -6.25 -5.578125 -7.519531 -4.421875 -8.46875 C -3.273438 -9.425781 -1.550781 -10.453125 0.75 -11.546875 C 3.75 -13.046875 6.148438 -14.519531 7.953125 -15.96875 C 9.753906 -17.425781 11.300781 -19.453125 12.59375 -22.046875 L 39.296875 -77.40625 C 43.398438 -86.007812 48.226562 -92.234375 53.78125 -96.078125 C 59.332031 -99.929688 66.660156 -101.859375 75.765625 -101.859375 C 85.960938 -101.859375 93.859375 -99.78125 99.453125 -95.625 C 105.054688 -91.476562 107.859375 -85.707031 107.859375 -78.3125 C 107.859375 -75.207031 107.359375 -72.003906 106.359375 -68.703125 Z M 62.25 -45.609375 L 70.203125 -72 C 70.609375 -73.207031 70.8125 -74.460938 70.8125 -75.765625 C 70.8125 -77.660156 70.285156 -79.082031 69.234375 -80.03125 C 68.179688 -80.976562 66.707031 -81.453125 64.8125 -81.453125 C 62.40625 -81.453125 60.351562 -80.753906 58.65625 -79.359375 C 56.957031 -77.960938 55.257812 -75.460938 53.5625 -71.859375 L 41.25 -45.609375 Z M 62.25 -45.609375 "/></g></g></g><g fill="#ffffff" fill-opacity="1"><g transform="translate(1005.786967, 126.90239)"><g><path d="M 11.40625 5.25 C 10.101562 7.25 8.800781 8.695312 7.5 9.59375 C 6.195312 10.5 4.847656 10.953125 3.453125 10.953125 C 1.347656 10.953125 -0.300781 10.375 -1.5 9.21875 C -2.695312 8.070312 -3.296875 6.648438 -3.296875 4.953125 C -3.296875 3.546875 -2.847656 2.144531 -1.953125 0.75 L 67.359375 -105.15625 C 69.753906 -108.957031 72.503906 -110.859375 75.609375 -110.859375 C 77.609375 -110.859375 79.179688 -110.257812 80.328125 -109.0625 C 81.484375 -107.863281 82.0625 -106.410156 82.0625 -104.703125 C 82.0625 -103.203125 81.609375 -101.753906 80.703125 -100.359375 Z M 11.40625 5.25 "/></g></g></g><g fill="#ffffff" fill-opacity="1"><g transform="translate(412.417023, 336.902377)"><g><path d="M 52.203125 0.90625 C 43.804688 0.90625 36.253906 -0.644531 29.546875 -3.75 C 22.847656 -6.851562 17.523438 -11.425781 13.578125 -17.46875 C 9.628906 -23.519531 7.65625 -30.847656 7.65625 -39.453125 C 7.65625 -45.453125 8.703125 -51.953125 10.796875 -58.953125 C 15.398438 -73.953125 22.351562 -84.773438 31.65625 -91.421875 C 40.957031 -98.078125 50.90625 -101.40625 61.5 -101.40625 C 67.207031 -101.40625 72.257812 -100.554688 76.65625 -98.859375 C 81.0625 -97.160156 85.113281 -94.710938 88.8125 -91.515625 L 92.859375 -94.65625 C 95.554688 -96.757812 97.828125 -98.207031 99.671875 -99 C 101.523438 -99.800781 103.601562 -100.203125 105.90625 -100.203125 C 108.40625 -100.203125 110.40625 -99.648438 111.90625 -98.546875 C 113.40625 -97.453125 114.15625 -95.859375 114.15625 -93.765625 C 114.15625 -92.660156 113.957031 -91.554688 113.5625 -90.453125 L 105.15625 -67.0625 C 104.257812 -64.351562 103.1875 -62.445312 101.9375 -61.34375 C 100.6875 -60.25 98.8125 -59.703125 96.3125 -59.703125 C 93.707031 -59.703125 91.578125 -60.625 89.921875 -62.46875 C 88.273438 -64.320312 86.40625 -67.5 84.3125 -72 C 81.90625 -76.707031 79.953125 -79.8125 78.453125 -81.3125 C 76.953125 -82.8125 74.753906 -83.5625 71.859375 -83.5625 C 67.753906 -83.5625 63.800781 -81.035156 60 -75.984375 C 56.207031 -70.929688 52.757812 -63.351562 49.65625 -53.25 C 47.050781 -44.75 45.75 -37.648438 45.75 -31.953125 C 45.75 -26.953125 46.695312 -23.226562 48.59375 -20.78125 C 50.5 -18.332031 53.050781 -17.109375 56.25 -17.109375 C 60.957031 -17.109375 64.832031 -18.15625 67.875 -20.25 C 70.925781 -22.351562 74.054688 -25.203125 77.265625 -28.796875 C 79.265625 -31.003906 80.890625 -32.628906 82.140625 -33.671875 C 83.390625 -34.722656 84.710938 -35.25 86.109375 -35.25 C 87.910156 -35.25 89.8125 -34.347656 91.8125 -32.546875 C 93.8125 -30.753906 94.757812 -28.957031 94.65625 -27.15625 C 94.757812 -24.957031 92.984375 -21.554688 89.328125 -16.953125 C 85.679688 -12.347656 80.628906 -8.21875 74.171875 -4.5625 C 67.722656 -0.914062 60.398438 0.90625 52.203125 0.90625 Z M 52.203125 0.90625 "/></g></g></g><g fill="#ffffff" fill-opacity="1"><g transform="translate(516.225079, 336.902377)"><g><path d="M 58.0625 -79.359375 C 71.65625 -79.359375 81.675781 -76.609375 88.125 -71.109375 C 94.582031 -65.609375 97.8125 -58.40625 97.8125 -49.5 C 97.8125 -46.5 97.410156 -43.148438 96.609375 -39.453125 C 94.710938 -31.253906 91.160156 -24.078125 85.953125 -17.921875 C 80.753906 -11.773438 74.378906 -7.023438 66.828125 -3.671875 C 59.273438 -0.328125 51.097656 1.34375 42.296875 1.34375 C 28.398438 1.34375 18.125 -1.425781 11.46875 -6.96875 C 4.820312 -12.519531 1.5 -19.898438 1.5 -29.109375 C 1.5 -32.203125 1.898438 -35.648438 2.703125 -39.453125 C 4.597656 -47.253906 8.222656 -54.179688 13.578125 -60.234375 C 18.929688 -66.285156 25.484375 -70.984375 33.234375 -74.328125 C 40.984375 -77.679688 49.257812 -79.359375 58.0625 -79.359375 Z M 57.609375 -66 C 55.503906 -66 53.273438 -64.125 50.921875 -60.375 C 48.578125 -56.625 45.804688 -49.550781 42.609375 -39.15625 C 39.398438 -28.75 37.796875 -21.445312 37.796875 -17.25 C 37.796875 -15.050781 38.144531 -13.578125 38.84375 -12.828125 C 39.550781 -12.078125 40.503906 -11.703125 41.703125 -11.703125 C 43.804688 -11.503906 45.984375 -13.300781 48.234375 -17.09375 C 50.484375 -20.894531 53.304688 -28.296875 56.703125 -39.296875 C 59.804688 -49.003906 61.359375 -56.054688 61.359375 -60.453125 C 61.359375 -62.554688 61.03125 -64.003906 60.375 -64.796875 C 59.726562 -65.597656 58.804688 -66 57.609375 -66 Z M 57.609375 -66 "/></g></g></g><g fill="#ffffff" fill-opacity="1"><g transform="translate(614.632738, 336.902377)"><g><path d="M 92.859375 -20.703125 C 92.660156 -20.304688 92.5625 -19.707031 92.5625 -18.90625 C 92.5625 -18.207031 92.734375 -17.65625 93.078125 -17.25 C 93.429688 -16.851562 93.910156 -16.65625 94.515625 -16.65625 C 95.710938 -16.65625 96.734375 -17.175781 97.578125 -18.21875 C 98.429688 -19.269531 99.007812 -19.796875 99.3125 -19.796875 C 99.8125 -19.796875 100.207031 -19.472656 100.5 -18.828125 C 100.800781 -18.179688 100.953125 -17.40625 100.953125 -16.5 C 101.054688 -13.601562 100.109375 -10.78125 98.109375 -8.03125 C 96.109375 -5.28125 93.179688 -3.03125 89.328125 -1.28125 C 85.484375 0.46875 80.859375 1.34375 75.453125 1.34375 C 68.859375 1.34375 63.609375 -0.175781 59.703125 -3.21875 C 55.804688 -6.269531 53.804688 -10.347656 53.703125 -15.453125 C 53.703125 -19.148438 54.601562 -23.300781 56.40625 -27.90625 L 64.65625 -49.5 C 65.15625 -50.800781 65.40625 -51.851562 65.40625 -52.65625 C 65.40625 -53.957031 64.976562 -54.984375 64.125 -55.734375 C 63.28125 -56.484375 62.257812 -56.859375 61.0625 -56.859375 C 58.851562 -56.859375 56.75 -55.832031 54.75 -53.78125 C 52.75 -51.726562 51.300781 -49.203125 50.40625 -46.203125 L 41.109375 -15.609375 C 40.703125 -14.503906 40.5 -13.453125 40.5 -12.453125 C 40.5 -11.253906 40.75 -10.28125 41.25 -9.53125 C 41.75 -8.78125 42.453125 -8.003906 43.359375 -7.203125 C 44.054688 -6.597656 44.554688 -6.046875 44.859375 -5.546875 C 45.160156 -5.046875 45.207031 -4.445312 45 -3.75 C 44.601562 -2.445312 43.65625 -1.492188 42.15625 -0.890625 C 40.65625 -0.296875 38.304688 0 35.109375 0 L 0.90625 0 C -1.695312 0 -3.570312 -0.421875 -4.71875 -1.265625 C -5.875 -2.117188 -6.300781 -3.25 -6 -4.65625 C -5.601562 -5.851562 -4.550781 -6.898438 -2.84375 -7.796875 C -1.34375 -8.597656 -0.09375 -9.546875 0.90625 -10.640625 C 1.90625 -11.742188 2.753906 -13.5 3.453125 -15.90625 L 16.796875 -59.25 C 17.003906 -59.75 17.109375 -60.453125 17.109375 -61.359375 C 17.109375 -62.453125 16.878906 -63.300781 16.421875 -63.90625 C 15.972656 -64.507812 15.25 -65.257812 14.25 -66.15625 C 13.25 -66.957031 12.546875 -67.65625 12.140625 -68.25 C 11.742188 -68.851562 11.695312 -69.65625 12 -70.65625 C 12.601562 -72.957031 15.753906 -74.984375 21.453125 -76.734375 C 27.148438 -78.484375 33.097656 -79.359375 39.296875 -79.359375 C 44.304688 -79.359375 48.257812 -77.984375 51.15625 -75.234375 C 54.050781 -72.484375 55.351562 -68.65625 55.0625 -63.75 C 59.15625 -69.65625 63.5 -73.734375 68.09375 -75.984375 C 72.695312 -78.234375 77.703125 -79.359375 83.109375 -79.359375 C 89.210938 -79.359375 94.140625 -77.503906 97.890625 -73.796875 C 101.640625 -70.097656 103.515625 -65.300781 103.515625 -59.40625 C 103.515625 -56.300781 103.015625 -53.25 102.015625 -50.25 Z M 92.859375 -20.703125 "/></g></g></g><g fill="#ffffff" fill-opacity="1"><g transform="translate(722.041072, 336.902377)"><g><path d="M 61.203125 -110.859375 C 71.910156 -110.859375 79.9375 -109.234375 85.28125 -105.984375 C 90.632812 -102.734375 93.3125 -98.757812 93.3125 -94.0625 C 93.3125 -90.257812 91.734375 -87.332031 88.578125 -85.28125 C 85.429688 -83.226562 81.304688 -82.203125 76.203125 -82.203125 C 71.503906 -82.203125 67.851562 -83.351562 65.25 -85.65625 C 62.65625 -87.957031 61.359375 -90.804688 61.359375 -94.203125 C 61.359375 -96.304688 62.007812 -98.507812 63.3125 -100.8125 C 60.3125 -100.8125 57.8125 -100.082031 55.8125 -98.625 C 53.8125 -97.175781 52.257812 -94.703125 51.15625 -91.203125 C 50.550781 -89.003906 50.25 -86.957031 50.25 -85.0625 C 50.25 -82.65625 50.675781 -80.773438 51.53125 -79.421875 C 52.382812 -78.078125 53.609375 -77.40625 55.203125 -77.40625 L 64.0625 -77.40625 C 69.257812 -77.40625 71.859375 -75.804688 71.859375 -72.609375 C 71.859375 -72.203125 71.757812 -71.601562 71.5625 -70.8125 C 70.957031 -68.601562 69.726562 -66.945312 67.875 -65.84375 C 66.03125 -64.75 63.257812 -64.203125 59.5625 -64.203125 L 55.0625 -64.203125 L 40.203125 -15.609375 C 39.898438 -14.398438 39.75 -13.347656 39.75 -12.453125 C 39.75 -11.148438 40 -10.125 40.5 -9.375 C 41 -8.625 41.703125 -7.898438 42.609375 -7.203125 C 43.304688 -6.503906 43.800781 -5.925781 44.09375 -5.46875 C 44.394531 -5.019531 44.445312 -4.445312 44.25 -3.75 C 43.75 -2.445312 42.75 -1.492188 41.25 -0.890625 C 39.75 -0.296875 37.453125 0 34.359375 0 L 0.15625 0 C -2.445312 0 -4.347656 -0.421875 -5.546875 -1.265625 C -6.742188 -2.117188 -7.144531 -3.25 -6.75 -4.65625 C -6.351562 -5.851562 -5.300781 -6.898438 -3.59375 -7.796875 C -2.09375 -8.597656 -0.84375 -9.546875 0.15625 -10.640625 C 1.15625 -11.742188 2.003906 -13.5 2.703125 -15.90625 L 14.40625 -54.3125 C 14.90625 -55.8125 15.15625 -57.359375 15.15625 -58.953125 C 15.15625 -60.953125 14.726562 -62.523438 13.875 -63.671875 C 13.019531 -64.828125 11.742188 -66.101562 10.046875 -67.5 C 8.953125 -68.40625 8.128906 -69.179688 7.578125 -69.828125 C 7.023438 -70.484375 6.75 -71.257812 6.75 -72.15625 C 6.644531 -74.050781 7.316406 -75.398438 8.765625 -76.203125 C 10.222656 -77.003906 13.003906 -77.40625 17.109375 -77.40625 L 20.859375 -77.40625 C 20.148438 -79.90625 19.796875 -82.40625 19.796875 -84.90625 C 19.796875 -87.40625 20.25 -90.003906 21.15625 -92.703125 C 23.050781 -97.804688 27.125 -102.109375 33.375 -105.609375 C 39.625 -109.109375 48.898438 -110.859375 61.203125 -110.859375 Z M 61.203125 -110.859375 "/></g></g></g><g fill="#ffffff" fill-opacity="1"><g transform="translate(784.445929, 336.902377)"><g><path d="M 47.859375 -110.859375 C 53.660156 -110.859375 57.9375 -109.757812 60.6875 -107.5625 C 63.4375 -105.363281 64.8125 -102.363281 64.8125 -98.5625 C 64.8125 -96.363281 64.457031 -94.210938 63.75 -92.109375 L 40.203125 -15.609375 C 39.898438 -14.398438 39.75 -13.347656 39.75 -12.453125 C 39.75 -11.148438 40 -10.125 40.5 -9.375 C 41 -8.625 41.703125 -7.898438 42.609375 -7.203125 C 43.304688 -6.503906 43.800781 -5.925781 44.09375 -5.46875 C 44.394531 -5.019531 44.445312 -4.445312 44.25 -3.75 C 43.75 -2.445312 42.75 -1.492188 41.25 -0.890625 C 39.75 -0.296875 37.453125 0 34.359375 0 L 0.15625 0 C -2.445312 0 -4.347656 -0.421875 -5.546875 -1.265625 C -6.742188 -2.117188 -7.144531 -3.25 -6.75 -4.65625 C -6.351562 -5.851562 -5.300781 -6.898438 -3.59375 -7.796875 C -2.09375 -8.597656 -0.84375 -9.546875 0.15625 -10.640625 C 1.15625 -11.742188 2.003906 -13.5 2.703125 -15.90625 L 25.5 -90.765625 C 25.800781 -91.660156 25.953125 -92.410156 25.953125 -93.015625 C 25.953125 -94.109375 25.675781 -95.003906 25.125 -95.703125 C 24.570312 -96.410156 23.847656 -97.113281 22.953125 -97.8125 C 21.953125 -98.613281 21.226562 -99.3125 20.78125 -99.90625 C 20.332031 -100.507812 20.253906 -101.3125 20.546875 -102.3125 C 21.148438 -104.613281 24.300781 -106.613281 30 -108.3125 C 35.695312 -110.007812 41.648438 -110.859375 47.859375 -110.859375 Z M 47.859375 -110.859375 "/></g></g></g><g fill="#ffffff" fill-opacity="1"><g transform="translate(839.350191, 336.902377)"><g><path d="M 89.109375 -20.703125 C 88.910156 -19.898438 88.8125 -19.300781 88.8125 -18.90625 C 88.8125 -18.207031 88.984375 -17.65625 89.328125 -17.25 C 89.679688 -16.851562 90.160156 -16.65625 90.765625 -16.65625 C 91.960938 -16.65625 92.984375 -17.175781 93.828125 -18.21875 C 94.679688 -19.269531 95.257812 -19.796875 95.5625 -19.796875 C 96.0625 -19.796875 96.484375 -19.472656 96.828125 -18.828125 C 97.179688 -18.179688 97.359375 -17.40625 97.359375 -16.5 C 97.460938 -13.695312 96.460938 -10.921875 94.359375 -8.171875 C 92.253906 -5.421875 89.300781 -3.144531 85.5 -1.34375 C 81.707031 0.445312 77.457031 1.34375 72.75 1.34375 C 66.851562 1.34375 62.15625 0.144531 58.65625 -2.25 C 55.15625 -4.644531 52.90625 -7.796875 51.90625 -11.703125 C 48.300781 -7.703125 44.320312 -4.675781 39.96875 -2.625 C 35.625 -0.570312 31.203125 0.453125 26.703125 0.453125 C 19.703125 0.453125 13.828125 -1.269531 9.078125 -4.71875 C 4.328125 -8.175781 1.953125 -13.003906 1.953125 -19.203125 C 1.953125 -22.003906 2.453125 -24.90625 3.453125 -27.90625 L 13.046875 -59.25 C 13.347656 -60.15625 13.5 -60.90625 13.5 -61.5 C 13.5 -62.601562 13.25 -63.476562 12.75 -64.125 C 12.25 -64.78125 11.5 -65.457031 10.5 -66.15625 C 9.5 -66.957031 8.796875 -67.65625 8.390625 -68.25 C 7.992188 -68.851562 7.945312 -69.65625 8.25 -70.65625 C 8.851562 -72.957031 12.003906 -74.984375 17.703125 -76.734375 C 23.398438 -78.484375 29.347656 -79.359375 35.546875 -79.359375 C 41.347656 -79.359375 45.597656 -78.253906 48.296875 -76.046875 C 51.003906 -73.847656 52.359375 -70.851562 52.359375 -67.0625 C 52.359375 -64.757812 52.007812 -62.554688 51.3125 -60.453125 L 41.859375 -29.25 C 41.453125 -28.15625 41.25 -27.109375 41.25 -26.109375 C 41.25 -24.703125 41.648438 -23.648438 42.453125 -22.953125 C 43.253906 -22.253906 44.304688 -21.90625 45.609375 -21.90625 C 47.503906 -21.90625 49.050781 -22.453125 50.25 -23.546875 C 51.457031 -24.648438 52.660156 -26.503906 53.859375 -29.109375 L 63 -59.25 C 63.300781 -60.15625 63.453125 -60.90625 63.453125 -61.5 C 63.453125 -62.601562 63.203125 -63.476562 62.703125 -64.125 C 62.203125 -64.78125 61.503906 -65.457031 60.609375 -66.15625 C 59.609375 -66.957031 58.90625 -67.65625 58.5 -68.25 C 58.101562 -68.851562 58.054688 -69.65625 58.359375 -70.65625 C 58.859375 -72.957031 61.957031 -74.984375 67.65625 -76.734375 C 73.351562 -78.484375 79.304688 -79.359375 85.515625 -79.359375 C 91.304688 -79.359375 95.578125 -78.253906 98.328125 -76.046875 C 101.078125 -73.847656 102.453125 -70.898438 102.453125 -67.203125 C 102.453125 -65.304688 102.054688 -63.054688 101.265625 -60.453125 Z M 89.109375 -20.703125 "/></g></g></g><g fill="#ffffff" fill-opacity="1"><g transform="translate(942.258204, 336.902377)"><g><path d="M 50.859375 -80.109375 C 63.554688 -80.109375 72.753906 -78.082031 78.453125 -74.03125 C 84.160156 -69.976562 87.015625 -64.800781 87.015625 -58.5 C 87.015625 -56.601562 86.8125 -54.851562 86.40625 -53.25 C 84.90625 -46.65625 80.726562 -41.929688 73.875 -39.078125 C 67.03125 -36.222656 58.957031 -34.796875 49.65625 -34.796875 C 44.957031 -34.796875 40.554688 -35.097656 36.453125 -35.703125 C 36.347656 -30.503906 37.742188 -26.851562 40.640625 -24.75 C 43.546875 -22.65625 47.601562 -21.609375 52.8125 -21.609375 C 55.207031 -21.609375 57.503906 -21.878906 59.703125 -22.421875 C 61.898438 -22.972656 64.703125 -23.800781 68.109375 -24.90625 C 70.910156 -25.90625 72.8125 -26.40625 73.8125 -26.40625 C 74.90625 -26.40625 75.453125 -25.753906 75.453125 -24.453125 C 75.554688 -20.953125 74.253906 -17.273438 71.546875 -13.421875 C 68.847656 -9.578125 64.847656 -6.300781 59.546875 -3.59375 C 54.253906 -0.894531 47.859375 0.453125 40.359375 0.453125 C 29.253906 0.453125 20.148438 -2.347656 13.046875 -7.953125 C 5.953125 -13.554688 2.40625 -21.707031 2.40625 -32.40625 C 2.40625 -35.40625 2.800781 -38.90625 3.59375 -42.90625 C 6.09375 -55.207031 11.566406 -64.484375 20.015625 -70.734375 C 28.472656 -76.984375 38.753906 -80.109375 50.859375 -80.109375 Z M 37.5 -44.703125 C 37.90625 -44.597656 38.457031 -44.546875 39.15625 -44.546875 C 43.351562 -44.546875 46.550781 -46.492188 48.75 -50.390625 C 50.957031 -54.296875 52.007812 -58.648438 51.90625 -63.453125 C 51.800781 -66.253906 51 -67.65625 49.5 -67.65625 C 48.40625 -67.65625 47.109375 -66.78125 45.609375 -65.03125 C 44.109375 -63.28125 42.628906 -60.65625 41.171875 -57.15625 C 39.722656 -53.65625 38.5 -49.503906 37.5 -44.703125 Z M 37.5 -44.703125 "/></g></g></g><g fill="#ffffff" fill-opacity="1"><g transform="translate(1026.264745, 336.902377)"><g><path d="M 92.859375 -20.703125 C 92.660156 -20.304688 92.5625 -19.707031 92.5625 -18.90625 C 92.5625 -18.207031 92.734375 -17.65625 93.078125 -17.25 C 93.429688 -16.851562 93.910156 -16.65625 94.515625 -16.65625 C 95.710938 -16.65625 96.734375 -17.175781 97.578125 -18.21875 C 98.429688 -19.269531 99.007812 -19.796875 99.3125 -19.796875 C 99.8125 -19.796875 100.207031 -19.472656 100.5 -18.828125 C 100.800781 -18.179688 100.953125 -17.40625 100.953125 -16.5 C 101.054688 -13.601562 100.109375 -10.78125 98.109375 -8.03125 C 96.109375 -5.28125 93.179688 -3.03125 89.328125 -1.28125 C 85.484375 0.46875 80.859375 1.34375 75.453125 1.34375 C 68.859375 1.34375 63.609375 -0.175781 59.703125 -3.21875 C 55.804688 -6.269531 53.804688 -10.347656 53.703125 -15.453125 C 53.703125 -19.148438 54.601562 -23.300781 56.40625 -27.90625 L 64.65625 -49.5 C 65.15625 -50.800781 65.40625 -51.851562 65.40625 -52.65625 C 65.40625 -53.957031 64.976562 -54.984375 64.125 -55.734375 C 63.28125 -56.484375 62.257812 -56.859375 61.0625 -56.859375 C 58.851562 -56.859375 56.75 -55.832031 54.75 -53.78125 C 52.75 -51.726562 51.300781 -49.203125 50.40625 -46.203125 L 41.109375 -15.609375 C 40.703125 -14.503906 40.5 -13.453125 40.5 -12.453125 C 40.5 -11.253906 40.75 -10.28125 41.25 -9.53125 C 41.75 -8.78125 42.453125 -8.003906 43.359375 -7.203125 C 44.054688 -6.597656 44.554688 -6.046875 44.859375 -5.546875 C 45.160156 -5.046875 45.207031 -4.445312 45 -3.75 C 44.601562 -2.445312 43.65625 -1.492188 42.15625 -0.890625 C 40.65625 -0.296875 38.304688 0 35.109375 0 L 0.90625 0 C -1.695312 0 -3.570312 -0.421875 -4.71875 -1.265625 C -5.875 -2.117188 -6.300781 -3.25 -6 -4.65625 C -5.601562 -5.851562 -4.550781 -6.898438 -2.84375 -7.796875 C -1.34375 -8.597656 -0.09375 -9.546875 0.90625 -10.640625 C 1.90625 -11.742188 2.753906 -13.5 3.453125 -15.90625 L 16.796875 -59.25 C 17.003906 -59.75 17.109375 -60.453125 17.109375 -61.359375 C 17.109375 -62.453125 16.878906 -63.300781 16.421875 -63.90625 C 15.972656 -64.507812 15.25 -65.257812 14.25 -66.15625 C 13.25 -66.957031 12.546875 -67.65625 12.140625 -68.25 C 11.742188 -68.851562 11.695312 -69.65625 12 -70.65625 C 12.601562 -72.957031 15.753906 -74.984375 21.453125 -76.734375 C 27.148438 -78.484375 33.097656 -79.359375 39.296875 -79.359375 C 44.304688 -79.359375 48.257812 -77.984375 51.15625 -75.234375 C 54.050781 -72.484375 55.351562 -68.65625 55.0625 -63.75 C 59.15625 -69.65625 63.5 -73.734375 68.09375 -75.984375 C 72.695312 -78.234375 77.703125 -79.359375 83.109375 -79.359375 C 89.210938 -79.359375 94.140625 -77.503906 97.890625 -73.796875 C 101.640625 -70.097656 103.515625 -65.300781 103.515625 -59.40625 C 103.515625 -56.300781 103.015625 -53.25 102.015625 -50.25 Z M 92.859375 -20.703125 "/></g></g></g><g fill="#ffffff" fill-opacity="1"><g transform="translate(1133.673079, 336.902377)"><g><path d="M 54.453125 -80.109375 C 60.554688 -80.109375 65.90625 -79.234375 70.5 -77.484375 C 75.101562 -75.734375 78.679688 -73.332031 81.234375 -70.28125 C 83.785156 -67.226562 85.0625 -63.851562 85.0625 -60.15625 C 85.0625 -56.15625 83.6875 -52.851562 80.9375 -50.25 C 78.1875 -47.65625 74.457031 -46.359375 69.75 -46.359375 C 64.957031 -46.359375 61.207031 -47.582031 58.5 -50.03125 C 55.800781 -52.476562 54.453125 -55.800781 54.453125 -60 C 54.453125 -62 54.753906 -64.101562 55.359375 -66.3125 C 51.160156 -65.207031 47.429688 -63.03125 44.171875 -59.78125 C 40.921875 -56.53125 38.75 -52.253906 37.65625 -46.953125 C 37.050781 -43.953125 36.75 -41.253906 36.75 -38.859375 C 36.75 -33.453125 38.25 -29.347656 41.25 -26.546875 C 44.25 -23.753906 48.550781 -22.359375 54.15625 -22.359375 C 57.351562 -22.359375 60.101562 -22.679688 62.40625 -23.328125 C 64.707031 -23.972656 67.054688 -24.847656 69.453125 -25.953125 C 71.453125 -26.953125 72.90625 -27.453125 73.8125 -27.453125 C 74.40625 -27.453125 74.800781 -27.328125 75 -27.078125 C 75.207031 -26.828125 75.3125 -26.300781 75.3125 -25.5 C 75.40625 -21.800781 73.875 -17.925781 70.71875 -13.875 C 67.570312 -9.820312 63.222656 -6.421875 57.671875 -3.671875 C 52.128906 -0.921875 45.90625 0.453125 39 0.453125 C 31.800781 0.453125 25.425781 -0.867188 19.875 -3.515625 C 14.320312 -6.171875 10.019531 -9.972656 6.96875 -14.921875 C 3.925781 -19.878906 2.40625 -25.65625 2.40625 -32.25 C 2.40625 -35.351562 2.800781 -38.804688 3.59375 -42.609375 C 6.300781 -55.003906 12.28125 -64.351562 21.53125 -70.65625 C 30.78125 -76.957031 41.753906 -80.109375 54.453125 -80.109375 Z M 54.453125 -80.109375 "/></g></g></g><g fill="#ffffff" fill-opacity="1"><g transform="translate(1214.979408, 336.902377)"><g><path d="M 50.859375 -80.109375 C 63.554688 -80.109375 72.753906 -78.082031 78.453125 -74.03125 C 84.160156 -69.976562 87.015625 -64.800781 87.015625 -58.5 C 87.015625 -56.601562 86.8125 -54.851562 86.40625 -53.25 C 84.90625 -46.65625 80.726562 -41.929688 73.875 -39.078125 C 67.03125 -36.222656 58.957031 -34.796875 49.65625 -34.796875 C 44.957031 -34.796875 40.554688 -35.097656 36.453125 -35.703125 C 36.347656 -30.503906 37.742188 -26.851562 40.640625 -24.75 C 43.546875 -22.65625 47.601562 -21.609375 52.8125 -21.609375 C 55.207031 -21.609375 57.503906 -21.878906 59.703125 -22.421875 C 61.898438 -22.972656 64.703125 -23.800781 68.109375 -24.90625 C 70.910156 -25.90625 72.8125 -26.40625 73.8125 -26.40625 C 74.90625 -26.40625 75.453125 -25.753906 75.453125 -24.453125 C 75.554688 -20.953125 74.253906 -17.273438 71.546875 -13.421875 C 68.847656 -9.578125 64.847656 -6.300781 59.546875 -3.59375 C 54.253906 -0.894531 47.859375 0.453125 40.359375 0.453125 C 29.253906 0.453125 20.148438 -2.347656 13.046875 -7.953125 C 5.953125 -13.554688 2.40625 -21.707031 2.40625 -32.40625 C 2.40625 -35.40625 2.800781 -38.90625 3.59375 -42.90625 C 6.09375 -55.207031 11.566406 -64.484375 20.015625 -70.734375 C 28.472656 -76.984375 38.753906 -80.109375 50.859375 -80.109375 Z M 37.5 -44.703125 C 37.90625 -44.597656 38.457031 -44.546875 39.15625 -44.546875 C 43.351562 -44.546875 46.550781 -46.492188 48.75 -50.390625 C 50.957031 -54.296875 52.007812 -58.648438 51.90625 -63.453125 C 51.800781 -66.253906 51 -67.65625 49.5 -67.65625 C 48.40625 -67.65625 47.109375 -66.78125 45.609375 -65.03125 C 44.109375 -63.28125 42.628906 -60.65625 41.171875 -57.15625 C 39.722656 -53.65625 38.5 -49.503906 37.5 -44.703125 Z M 37.5 -44.703125 "/></g></g></g><path fill="#2684ff" d="M 357.988281 177.082031 L 181.878906 0.8125 L 5.773438 177.082031 C 5.089844 177.769531 4.480469 178.515625 3.941406 179.324219 C 3.40625 180.132812 2.953125 180.984375 2.582031 181.878906 C 2.210938 182.773438 1.933594 183.699219 1.742188 184.648438 C 1.554688 185.601562 1.460938 186.5625 1.460938 187.53125 C 1.460938 188.5 1.554688 189.460938 1.742188 190.410156 C 1.933594 191.363281 2.210938 192.285156 2.582031 193.183594 C 2.953125 194.078125 3.40625 194.929688 3.941406 195.738281 C 4.480469 196.542969 5.089844 197.289062 5.773438 197.976562 L 181.878906 374.25 L 357.988281 197.976562 C 358.671875 197.289062 359.28125 196.542969 359.816406 195.738281 C 360.355469 194.929688 360.808594 194.078125 361.175781 193.183594 C 361.546875 192.285156 361.828125 191.363281 362.015625 190.410156 C 362.203125 189.460938 362.296875 188.5 362.296875 187.53125 C 362.296875 186.5625 362.203125 185.601562 362.015625 184.648438 C 361.828125 183.699219 361.546875 182.773438 361.175781 181.878906 C 360.808594 180.984375 360.355469 180.132812 359.816406 179.324219 C 359.28125 178.515625 358.671875 177.769531 357.988281 177.082031 Z M 181.878906 242.71875 L 126.722656 187.511719 L 181.878906 132.304688 L 237.035156 187.511719 Z M 181.878906 242.71875 " fill-opacity="1" fill-rule="nonzero"/><g clip-path="url(#c416542af8)"><g clip-path="url(#79feb3dc30)"><path fill="url(#b28c558215)" d="M 60.417969 1.613281 L 60.417969 187.769531 L 181.878906 187.769531 L 181.878906 1.613281 Z M 60.417969 1.613281 " fill-rule="nonzero"/></g></g><g clip-path="url(#874a6cb1ff)"><g clip-path="url(#b88ac7844e)"><path fill="url(#e722ac5bab)" d="M 181.878906 187.367188 L 181.878906 374.214844 L 302.832031 374.214844 L 302.832031 187.367188 Z M 181.878906 187.367188 " fill-rule="nonzero"/></g></g></svg>