<svg xmlns="http://www.w3.org/2000/svg" xmlns:xlink="http://www.w3.org/1999/xlink" width="2000" zoomAndPan="magnify" viewBox="0 0 1500 374.999991" height="500" preserveAspectRatio="xMidYMid meet" version="1.0"><defs><g/></defs><g fill="#ffffff" fill-opacity="1"><g transform="translate(459.539373, 257.999983)"><g><path d="M 129.359375 -159.84375 C 146.316406 -159.84375 159.394531 -156.160156 168.59375 -148.796875 C 177.800781 -141.441406 182.40625 -131.679688 182.40625 -119.515625 C 182.40625 -114.710938 181.679688 -109.675781 180.234375 -104.40625 C 175.753906 -88.40625 166.914062 -76.5625 153.71875 -68.875 C 140.519531 -61.195312 123.84375 -57.359375 103.6875 -57.359375 L 78.953125 -57.359375 L 70.796875 -28.3125 C 70.472656 -27.351562 70.3125 -26.078125 70.3125 -24.484375 C 70.3125 -22.242188 70.832031 -20.398438 71.875 -18.953125 C 72.914062 -17.515625 74.476562 -15.835938 76.5625 -13.921875 C 78.320312 -12.316406 79.519531 -11.113281 80.15625 -10.3125 C 80.800781 -9.519531 81.125 -8.5625 81.125 -7.4375 C 81.125 -4.71875 79.84375 -2.796875 77.28125 -1.671875 C 74.71875 -0.554688 70.957031 0 66 0 L 5.765625 0 C 1.597656 0 -1.519531 -0.757812 -3.59375 -2.28125 C -5.675781 -3.800781 -6.398438 -5.921875 -5.765625 -8.640625 C -5.441406 -10.078125 -4.835938 -11.234375 -3.953125 -12.109375 C -3.078125 -12.992188 -1.757812 -14 0 -15.125 C 2.71875 -16.71875 4.875 -18.394531 6.46875 -20.15625 C 8.070312 -21.914062 9.351562 -24.632812 10.3125 -28.3125 L 39.59375 -131.765625 C 40.238281 -133.835938 40.5625 -135.835938 40.5625 -137.765625 C 40.5625 -139.523438 40.28125 -141.003906 39.71875 -142.203125 C 39.15625 -143.398438 38.394531 -144.800781 37.4375 -146.40625 C 36 -148.476562 35.28125 -150.15625 35.28125 -151.4375 C 35.28125 -151.914062 35.441406 -152.796875 35.765625 -154.078125 C 36.398438 -156.160156 37.796875 -157.640625 39.953125 -158.515625 C 42.117188 -159.398438 45.441406 -159.84375 49.921875 -159.84375 Z M 123.125 -108.71875 C 124.882812 -114.632812 125.765625 -119.832031 125.765625 -124.3125 C 125.765625 -133.59375 121.441406 -138.234375 112.796875 -138.234375 L 102 -138.234375 L 84.953125 -78.953125 L 95.515625 -78.953125 C 102.234375 -78.953125 107.710938 -81.070312 111.953125 -85.3125 C 116.191406 -89.5625 119.914062 -97.363281 123.125 -108.71875 Z M 123.125 -108.71875 "/></g></g></g><g fill="#ffffff" fill-opacity="1"><g transform="translate(623.4591, 257.999983)"><g><path d="M 127.203125 -126.953125 C 134.242188 -126.953125 139.882812 -124.113281 144.125 -118.4375 C 148.363281 -112.757812 150.484375 -105.039062 150.484375 -95.28125 C 150.484375 -86.800781 148.960938 -77.679688 145.921875 -67.921875 C 140.003906 -48.242188 130.523438 -29.679688 117.484375 -12.234375 C 104.441406 5.203125 89.476562 19.195312 72.59375 29.75 C 55.71875 40.3125 38.878906 45.59375 22.078125 45.59375 C 13.753906 45.59375 6.59375 44.148438 0.59375 41.265625 C -5.40625 38.390625 -9.960938 34.550781 -13.078125 29.75 C -16.203125 24.957031 -17.765625 19.84375 -17.765625 14.40625 C -17.765625 12 -17.363281 9.359375 -16.5625 6.484375 C -15.125 2.003906 -12.722656 -1.429688 -9.359375 -3.828125 C -5.992188 -6.234375 -1.992188 -7.4375 2.640625 -7.4375 C 10.003906 -7.4375 16.046875 -4.914062 20.765625 0.125 C 25.484375 5.164062 28.484375 12.082031 29.765625 20.875 C 40.003906 20.394531 49.441406 16 58.078125 7.6875 C 49.921875 6.238281 43.878906 3.476562 39.953125 -0.59375 C 36.035156 -4.675781 33.359375 -11.039062 31.921875 -19.6875 L 22.3125 -78.484375 C 21.832031 -81.523438 21.148438 -83.644531 20.265625 -84.84375 C 19.390625 -86.039062 18.234375 -86.640625 16.796875 -86.640625 C 15.679688 -86.640625 14.363281 -86.078125 12.84375 -84.953125 C 11.320312 -83.835938 10.238281 -83.28125 9.59375 -83.28125 C 8.320312 -83.28125 7.6875 -84.640625 7.6875 -87.359375 C 7.6875 -89.597656 8.082031 -92 8.875 -94.5625 C 11.757812 -103.675781 17.117188 -111.394531 24.953125 -117.71875 C 32.796875 -124.039062 41.914062 -127.203125 52.3125 -127.203125 C 62.5625 -127.203125 70.125 -124.160156 75 -118.078125 C 79.875 -111.992188 83.035156 -102.632812 84.484375 -90 L 91.6875 -37.203125 C 92.164062 -33.203125 93.601562 -31.203125 96 -31.203125 C 98.875 -31.203125 102.234375 -33.800781 106.078125 -39 C 109.921875 -44.195312 113.679688 -51.597656 117.359375 -61.203125 C 112.554688 -65.523438 108.875 -70.484375 106.3125 -76.078125 C 103.757812 -81.679688 102.484375 -87.679688 102.484375 -94.078125 C 102.484375 -99.035156 103.125 -103.515625 104.40625 -107.515625 C 106.320312 -113.921875 109.316406 -118.757812 113.390625 -122.03125 C 117.472656 -125.3125 122.078125 -126.953125 127.203125 -126.953125 Z M 127.203125 -126.953125 "/></g></g></g><g fill="#ffffff" fill-opacity="1"><g transform="translate(772.25882, 257.999983)"><g><path d="M 107.28125 -123.84375 C 110.320312 -123.84375 112.679688 -123.203125 114.359375 -121.921875 C 116.035156 -120.640625 116.875 -118.878906 116.875 -116.640625 C 116.875 -116.003906 116.71875 -114.882812 116.40625 -113.28125 C 114.320312 -106.238281 109.519531 -102.71875 102 -102.71875 L 88.078125 -102.71875 L 70.078125 -43.4375 C 69.273438 -41.039062 68.875 -38.5625 68.875 -36 C 68.875 -33.125 69.675781 -31.125 71.28125 -30 C 72.882812 -28.875 75.125 -28.3125 78 -28.3125 C 80.5625 -28.3125 83.757812 -28.632812 87.59375 -29.28125 C 89.519531 -29.757812 91.203125 -30 92.640625 -30 C 93.753906 -30 94.59375 -29.640625 95.15625 -28.921875 C 95.71875 -28.203125 96 -27.28125 96 -26.15625 C 96.15625 -22.957031 93.789062 -19.078125 88.90625 -14.515625 C 84.03125 -9.960938 77.429688 -6.046875 69.109375 -2.765625 C 60.796875 0.515625 51.597656 2.15625 41.515625 2.15625 C 30.640625 2.15625 21.921875 -0.320312 15.359375 -5.28125 C 8.796875 -10.238281 5.515625 -17.039062 5.515625 -25.6875 C 5.515625 -29.6875 6.15625 -33.523438 7.4375 -37.203125 L 22.796875 -84.71875 C 23.597656 -87.4375 24 -89.597656 24 -91.203125 C 24 -94.398438 23.238281 -97.117188 21.71875 -99.359375 C 20.195312 -101.597656 18.078125 -103.914062 15.359375 -106.3125 C 12.960938 -108.5625 11.28125 -110.441406 10.3125 -111.953125 C 9.351562 -113.472656 9.113281 -115.273438 9.59375 -117.359375 C 10.238281 -119.441406 11.597656 -121.039062 13.671875 -122.15625 C 15.753906 -123.28125 19.035156 -123.84375 23.515625 -123.84375 L 36.953125 -123.84375 L 52.078125 -138.953125 C 57.359375 -144.234375 62.195312 -147.914062 66.59375 -150 C 71 -152.082031 76.722656 -153.125 83.765625 -153.125 C 93.835938 -153.125 98.875 -149.28125 98.875 -141.59375 C 98.875 -139.195312 98.554688 -136.957031 97.921875 -134.875 L 94.5625 -123.84375 Z M 107.28125 -123.84375 "/></g></g></g><g fill="#ffffff" fill-opacity="1"><g transform="translate(875.458657, 257.999983)"><g><path d="M 147.125 -33.125 C 146.800781 -32.476562 146.640625 -31.515625 146.640625 -30.234375 C 146.640625 -29.117188 146.914062 -28.238281 147.46875 -27.59375 C 148.03125 -26.957031 148.796875 -26.640625 149.765625 -26.640625 C 151.679688 -26.640625 153.316406 -27.476562 154.671875 -29.15625 C 156.035156 -30.84375 156.957031 -31.6875 157.4375 -31.6875 C 158.238281 -31.6875 158.878906 -31.164062 159.359375 -30.125 C 159.835938 -29.082031 160.078125 -27.84375 160.078125 -26.40625 C 160.234375 -21.757812 158.710938 -17.234375 155.515625 -12.828125 C 152.316406 -8.429688 147.632812 -4.832031 141.46875 -2.03125 C 135.3125 0.757812 127.914062 2.15625 119.28125 2.15625 C 108.71875 2.15625 100.316406 -0.28125 94.078125 -5.15625 C 87.835938 -10.039062 84.640625 -16.5625 84.484375 -24.71875 C 84.484375 -30.632812 85.921875 -37.273438 88.796875 -44.640625 L 102 -79.203125 C 102.800781 -81.273438 103.203125 -82.953125 103.203125 -84.234375 C 103.203125 -86.316406 102.519531 -87.957031 101.15625 -89.15625 C 99.800781 -90.351562 98.160156 -90.953125 96.234375 -90.953125 C 93.203125 -90.953125 90.125 -89.550781 87 -86.75 C 83.875 -83.957031 81.351562 -79.441406 79.4375 -73.203125 L 79.4375 -73.6875 L 64.3125 -24.953125 C 63.832031 -23.035156 63.59375 -21.359375 63.59375 -19.921875 C 63.59375 -17.835938 63.992188 -16.195312 64.796875 -15 C 65.597656 -13.800781 66.71875 -12.640625 68.15625 -11.515625 C 69.28125 -10.398438 70.082031 -9.484375 70.5625 -8.765625 C 71.039062 -8.046875 71.117188 -7.125 70.796875 -6 C 69.992188 -3.914062 68.394531 -2.394531 66 -1.4375 C 63.601562 -0.476562 59.921875 0 54.953125 0 L 0.234375 0 C -3.921875 0 -6.957031 -0.675781 -8.875 -2.03125 C -10.800781 -3.394531 -11.441406 -5.195312 -10.796875 -7.4375 C -10.160156 -9.351562 -8.484375 -11.035156 -5.765625 -12.484375 C -3.359375 -13.765625 -1.359375 -15.285156 0.234375 -17.046875 C 1.835938 -18.804688 3.195312 -21.601562 4.3125 -25.4375 L 40.796875 -145.203125 C 41.273438 -146.640625 41.515625 -147.835938 41.515625 -148.796875 C 41.515625 -150.554688 41.070312 -151.992188 40.1875 -153.109375 C 39.3125 -154.234375 38.15625 -155.359375 36.71875 -156.484375 C 35.113281 -157.765625 33.953125 -158.882812 33.234375 -159.84375 C 32.515625 -160.800781 32.394531 -162.082031 32.875 -163.6875 C 33.832031 -167.363281 38.875 -170.5625 48 -173.28125 C 57.125 -176 66.644531 -177.359375 76.5625 -177.359375 C 85.84375 -177.359375 92.679688 -175.597656 97.078125 -172.078125 C 101.484375 -168.554688 103.6875 -163.757812 103.6875 -157.6875 C 103.6875 -154.164062 103.125 -150.722656 102 -147.359375 L 89.046875 -105.125 C 95.285156 -113.28125 101.882812 -118.957031 108.84375 -122.15625 C 115.800781 -125.351562 123.359375 -126.953125 131.515625 -126.953125 C 141.273438 -126.953125 149.15625 -123.992188 155.15625 -118.078125 C 161.15625 -112.160156 164.15625 -104.484375 164.15625 -95.046875 C 164.15625 -90.078125 163.359375 -85.195312 161.765625 -80.40625 Z M 147.125 -33.125 "/></g></g></g><g fill="#ffffff" fill-opacity="1"><g transform="translate(1045.858383, 257.999983)"><g><path d="M 92.875 -126.953125 C 114.632812 -126.953125 130.675781 -122.550781 141 -113.75 C 151.320312 -104.957031 156.484375 -93.441406 156.484375 -79.203125 C 156.484375 -74.398438 155.84375 -69.039062 154.5625 -63.125 C 151.519531 -50 145.835938 -38.515625 137.515625 -28.671875 C 129.203125 -18.835938 119.003906 -11.238281 106.921875 -5.875 C 94.835938 -0.519531 81.757812 2.15625 67.6875 2.15625 C 45.4375 2.15625 28.992188 -2.28125 18.359375 -11.15625 C 7.722656 -20.039062 2.40625 -31.84375 2.40625 -46.5625 C 2.40625 -51.519531 3.039062 -57.039062 4.3125 -63.125 C 7.351562 -75.601562 13.15625 -86.679688 21.71875 -96.359375 C 30.28125 -106.035156 40.757812 -113.550781 53.15625 -118.90625 C 65.5625 -124.269531 78.800781 -126.953125 92.875 -126.953125 Z M 92.15625 -105.59375 C 88.800781 -105.59375 85.242188 -102.59375 81.484375 -96.59375 C 77.722656 -90.59375 73.28125 -79.273438 68.15625 -62.640625 C 63.039062 -46.003906 60.484375 -34.320312 60.484375 -27.59375 C 60.484375 -24.070312 61.039062 -21.710938 62.15625 -20.515625 C 63.28125 -19.316406 64.800781 -18.71875 66.71875 -18.71875 C 70.082031 -18.394531 73.5625 -21.273438 77.15625 -27.359375 C 80.757812 -33.441406 85.28125 -45.28125 90.71875 -62.875 C 95.675781 -78.394531 98.15625 -89.675781 98.15625 -96.71875 C 98.15625 -100.082031 97.632812 -102.398438 96.59375 -103.671875 C 95.5625 -104.953125 94.082031 -105.59375 92.15625 -105.59375 Z M 92.15625 -105.59375 "/></g></g></g><g fill="#ffffff" fill-opacity="1"><g transform="translate(1203.298133, 257.999983)"><g><path d="M 148.5625 -33.125 C 148.238281 -32.476562 148.078125 -31.515625 148.078125 -30.234375 C 148.078125 -29.117188 148.359375 -28.238281 148.921875 -27.59375 C 149.484375 -26.957031 150.242188 -26.640625 151.203125 -26.640625 C 153.117188 -26.640625 154.753906 -27.476562 156.109375 -29.15625 C 157.472656 -30.84375 158.394531 -31.6875 158.875 -31.6875 C 159.675781 -31.6875 160.316406 -31.164062 160.796875 -30.125 C 161.273438 -29.082031 161.515625 -27.84375 161.515625 -26.40625 C 161.679688 -21.757812 160.160156 -17.234375 156.953125 -12.828125 C 153.753906 -8.429688 149.078125 -4.832031 142.921875 -2.03125 C 136.765625 0.757812 129.363281 2.15625 120.71875 2.15625 C 110.15625 2.15625 101.753906 -0.28125 95.515625 -5.15625 C 89.273438 -10.039062 86.078125 -16.5625 85.921875 -24.71875 C 85.921875 -30.632812 87.359375 -37.273438 90.234375 -44.640625 L 103.4375 -79.203125 C 104.238281 -81.273438 104.640625 -82.953125 104.640625 -84.234375 C 104.640625 -86.316406 103.957031 -87.957031 102.59375 -89.15625 C 101.238281 -90.351562 99.601562 -90.953125 97.6875 -90.953125 C 94.164062 -90.953125 90.800781 -89.3125 87.59375 -86.03125 C 84.394531 -82.757812 82.078125 -78.722656 80.640625 -73.921875 L 65.765625 -24.953125 C 65.117188 -23.191406 64.796875 -21.515625 64.796875 -19.921875 C 64.796875 -18.003906 65.195312 -16.441406 66 -15.234375 C 66.800781 -14.035156 67.921875 -12.796875 69.359375 -11.515625 C 70.484375 -10.554688 71.285156 -9.675781 71.765625 -8.875 C 72.242188 -8.082031 72.320312 -7.125 72 -6 C 71.363281 -3.914062 69.84375 -2.394531 67.4375 -1.4375 C 65.039062 -0.476562 61.28125 0 56.15625 0 L 1.4375 0 C -2.71875 0 -5.710938 -0.675781 -7.546875 -2.03125 C -9.390625 -3.394531 -10.070312 -5.195312 -9.59375 -7.4375 C -8.957031 -9.351562 -7.28125 -11.035156 -4.5625 -12.484375 C -2.15625 -13.765625 -0.15625 -15.285156 1.4375 -17.046875 C 3.039062 -18.804688 4.398438 -21.601562 5.515625 -25.4375 L 26.875 -94.796875 C 27.195312 -95.597656 27.359375 -96.71875 27.359375 -98.15625 C 27.359375 -99.914062 27 -101.273438 26.28125 -102.234375 C 25.5625 -103.203125 24.398438 -104.40625 22.796875 -105.84375 C 21.203125 -107.125 20.082031 -108.242188 19.4375 -109.203125 C 18.800781 -110.160156 18.722656 -111.441406 19.203125 -113.046875 C 20.160156 -116.722656 25.195312 -119.957031 34.3125 -122.75 C 43.4375 -125.550781 52.957031 -126.953125 62.875 -126.953125 C 70.875 -126.953125 77.191406 -124.753906 81.828125 -120.359375 C 86.472656 -115.960938 88.554688 -109.84375 88.078125 -102 C 94.640625 -111.4375 101.597656 -117.953125 108.953125 -121.546875 C 116.316406 -125.148438 124.316406 -126.953125 132.953125 -126.953125 C 142.710938 -126.953125 150.59375 -123.992188 156.59375 -118.078125 C 162.59375 -112.160156 165.59375 -104.484375 165.59375 -95.046875 C 165.59375 -90.078125 164.796875 -85.195312 163.203125 -80.40625 Z M 148.5625 -33.125 "/></g></g></g><path fill="#f0c020" d="M 358.074219 139.722656 C 359.847656 147.257812 361.175781 154.871094 362.0625 162.5625 C 362.945312 170.253906 363.378906 177.972656 363.363281 185.714844 C 363.347656 193.457031 362.882812 201.167969 361.964844 208.855469 C 361.050781 216.542969 359.6875 224.152344 357.882812 231.679688 C 357.632812 232.746094 357.339844 233.796875 357.003906 234.835938 C 356.664062 235.875 356.285156 236.898438 355.859375 237.90625 C 355.4375 238.914062 354.972656 239.902344 354.464844 240.871094 C 353.957031 241.839844 353.414062 242.785156 352.828125 243.710938 C 352.242188 244.632812 351.617188 245.527344 350.957031 246.398438 C 350.296875 247.269531 349.601562 248.113281 348.871094 248.921875 C 348.136719 249.734375 347.375 250.515625 346.578125 251.265625 C 345.78125 252.011719 344.953125 252.726562 344.097656 253.402344 C 343.242188 254.082031 342.359375 254.726562 341.449219 255.328125 C 340.539062 255.933594 339.605469 256.5 338.648438 257.027344 C 337.691406 257.550781 336.710938 258.035156 335.714844 258.480469 C 334.714844 258.925781 333.699219 259.328125 332.667969 259.6875 C 331.636719 260.046875 330.59375 260.359375 329.535156 260.632812 C 328.476562 260.902344 327.40625 261.128906 326.332031 261.3125 C 325.253906 261.492188 324.171875 261.628906 323.082031 261.71875 C 321.992188 261.8125 320.902344 261.855469 319.808594 261.855469 L 260.105469 261.855469 L 260.105469 321.617188 C 260.105469 338.589844 249.078125 355.21875 229.109375 359.917969 C 221.65625 361.671875 214.128906 362.992188 206.527344 363.875 C 198.921875 364.757812 191.292969 365.199219 183.640625 365.199219 C 175.984375 365.203125 168.355469 364.761719 160.75 363.878906 C 153.148438 362.996094 145.621094 361.679688 138.167969 359.925781 C 118.242188 355.238281 107.125 338.683594 107.125 321.617188 L 107.125 224.445312 C 107.125 223.164062 107.1875 221.886719 107.3125 220.609375 C 107.4375 219.335938 107.625 218.066406 107.875 216.808594 C 108.125 215.554688 108.4375 214.3125 108.808594 213.085938 C 109.179688 211.855469 109.613281 210.652344 110.101562 209.46875 C 110.59375 208.28125 111.140625 207.125 111.742188 205.996094 C 112.347656 204.863281 113.003906 203.765625 113.71875 202.699219 C 114.429688 201.632812 115.191406 200.605469 116.003906 199.613281 C 116.816406 198.621094 117.675781 197.675781 118.582031 196.765625 C 119.488281 195.859375 120.4375 195 121.425781 194.1875 C 122.417969 193.375 123.445312 192.613281 124.507812 191.898438 C 125.574219 191.1875 126.671875 190.527344 127.800781 189.925781 C 128.929688 189.320312 130.089844 188.773438 131.273438 188.28125 C 132.457031 187.792969 133.660156 187.359375 134.886719 186.988281 C 136.113281 186.617188 137.351562 186.304688 138.609375 186.054688 C 139.867188 185.804688 141.132812 185.617188 142.40625 185.492188 C 143.679688 185.363281 144.960938 185.300781 146.242188 185.300781 L 220.992188 185.300781 C 222.269531 185.300781 223.550781 185.238281 224.824219 185.113281 C 226.097656 184.988281 227.363281 184.800781 228.621094 184.550781 C 229.878906 184.300781 231.117188 183.988281 232.34375 183.617188 C 233.570312 183.246094 234.773438 182.8125 235.957031 182.324219 C 237.140625 181.832031 238.296875 181.285156 239.429688 180.679688 C 240.558594 180.074219 241.65625 179.417969 242.71875 178.707031 C 243.785156 177.992188 244.8125 177.230469 245.804688 176.417969 C 246.792969 175.605469 247.742188 174.746094 248.648438 173.835938 C 249.554688 172.929688 250.414062 171.984375 251.226562 170.992188 C 252.039062 170 252.800781 168.972656 253.511719 167.90625 C 254.222656 166.839844 254.882812 165.742188 255.484375 164.613281 C 256.089844 163.480469 256.636719 162.324219 257.125 161.140625 C 257.617188 159.957031 258.046875 158.75 258.421875 157.523438 C 258.792969 156.296875 259.101562 155.054688 259.351562 153.796875 C 259.601562 152.539062 259.792969 151.273438 259.917969 149.996094 C 260.042969 148.722656 260.105469 147.441406 260.105469 146.160156 L 260.105469 108.757812 L 319.8125 108.757812 C 320.921875 108.757812 322.03125 108.804688 323.136719 108.898438 C 324.242188 108.992188 325.339844 109.132812 326.433594 109.320312 C 327.527344 109.507812 328.613281 109.738281 329.683594 110.019531 C 330.757812 110.296875 331.820312 110.625 332.863281 110.992188 C 333.910156 111.363281 334.941406 111.777344 335.949219 112.234375 C 336.960938 112.691406 337.949219 113.191406 338.917969 113.734375 C 339.886719 114.273438 340.832031 114.855469 341.75 115.480469 C 342.667969 116.101562 343.558594 116.761719 344.421875 117.460938 C 345.285156 118.160156 346.117188 118.890625 346.917969 119.660156 C 347.71875 120.429688 348.484375 121.230469 349.214844 122.066406 C 349.945312 122.902344 350.640625 123.765625 351.300781 124.65625 C 351.960938 125.550781 352.578125 126.472656 353.160156 127.417969 C 353.738281 128.363281 354.277344 129.332031 354.777344 130.324219 C 355.273438 131.316406 355.730469 132.328125 356.140625 133.359375 C 356.550781 134.390625 356.917969 135.4375 357.242188 136.5 C 357.566406 137.5625 357.839844 138.636719 358.074219 139.722656 Z M 358.074219 139.722656 " fill-opacity="1" fill-rule="nonzero"/><path fill="#72c1e8" d="M 260.105469 49.007812 L 260.105469 146.160156 C 260.105469 147.445312 260.042969 148.722656 259.917969 150 C 259.792969 151.273438 259.605469 152.539062 259.355469 153.796875 C 259.105469 155.054688 258.792969 156.296875 258.421875 157.523438 C 258.050781 158.75 257.617188 159.957031 257.128906 161.140625 C 256.636719 162.328125 256.089844 163.484375 255.488281 164.613281 C 254.882812 165.746094 254.226562 166.84375 253.511719 167.910156 C 252.800781 168.976562 252.039062 170.003906 251.226562 170.996094 C 250.414062 171.988281 249.554688 172.9375 248.648438 173.84375 C 247.742188 174.75 246.792969 175.609375 245.804688 176.421875 C 244.8125 177.234375 243.785156 178 242.722656 178.710938 C 241.65625 179.421875 240.558594 180.082031 239.429688 180.683594 C 238.296875 181.289062 237.140625 181.835938 235.957031 182.328125 C 234.773438 182.820312 233.570312 183.25 232.34375 183.621094 C 231.117188 183.996094 229.875 184.304688 228.621094 184.554688 C 227.363281 184.804688 226.097656 184.992188 224.824219 185.121094 C 223.546875 185.246094 222.269531 185.308594 220.988281 185.308594 L 146.242188 185.308594 C 144.960938 185.308594 143.683594 185.371094 142.40625 185.496094 C 141.132812 185.621094 139.867188 185.808594 138.609375 186.058594 C 137.355469 186.308594 136.113281 186.621094 134.886719 186.992188 C 133.660156 187.367188 132.457031 187.796875 131.273438 188.289062 C 130.089844 188.777344 128.933594 189.324219 127.804688 189.929688 C 126.671875 190.535156 125.578125 191.191406 124.511719 191.902344 C 123.445312 192.617188 122.417969 193.378906 121.429688 194.191406 C 120.4375 195.003906 119.488281 195.863281 118.582031 196.769531 C 117.679688 197.675781 116.820312 198.625 116.007812 199.617188 C 115.191406 200.609375 114.429688 201.636719 113.71875 202.703125 C 113.007812 203.769531 112.351562 204.867188 111.746094 205.996094 C 111.140625 207.128906 110.59375 208.285156 110.105469 209.46875 C 109.613281 210.652344 109.183594 211.859375 108.8125 213.085938 C 108.4375 214.3125 108.128906 215.554688 107.878906 216.8125 C 107.628906 218.070312 107.441406 219.335938 107.3125 220.609375 C 107.1875 221.886719 107.125 223.164062 107.125 224.445312 L 107.125 261.851562 L 47.410156 261.851562 C 46.320312 261.851562 45.230469 261.804688 44.140625 261.714844 C 43.054688 261.625 41.972656 261.488281 40.894531 261.304688 C 39.816406 261.125 38.75 260.898438 37.691406 260.625 C 36.636719 260.355469 35.589844 260.039062 34.558594 259.683594 C 33.527344 259.324219 32.511719 258.921875 31.515625 258.476562 C 30.519531 258.035156 29.539062 257.550781 28.582031 257.023438 C 27.625 256.5 26.691406 255.933594 25.78125 255.328125 C 24.871094 254.726562 23.988281 254.082031 23.132812 253.40625 C 22.277344 252.726562 21.449219 252.015625 20.65625 251.265625 C 19.859375 250.519531 19.09375 249.742188 18.363281 248.929688 C 17.632812 248.117188 16.9375 247.277344 16.273438 246.40625 C 15.613281 245.539062 14.992188 244.640625 14.40625 243.71875 C 13.820312 242.796875 13.273438 241.851562 12.765625 240.882812 C 12.261719 239.914062 11.792969 238.929688 11.371094 237.921875 C 10.945312 236.914062 10.566406 235.890625 10.226562 234.851562 C 9.890625 233.8125 9.59375 232.761719 9.34375 231.699219 C 7.523438 224.101562 6.152344 216.421875 5.234375 208.664062 C 4.320312 200.90625 3.859375 193.117188 3.859375 185.304688 C 3.859375 177.492188 4.320312 169.707031 5.234375 161.945312 C 6.152344 154.1875 7.523438 146.507812 9.34375 138.910156 C 9.59375 137.847656 9.890625 136.796875 10.226562 135.757812 C 10.566406 134.71875 10.945312 133.695312 11.371094 132.6875 C 11.792969 131.679688 12.261719 130.695312 12.765625 129.726562 C 13.273438 128.757812 13.820312 127.8125 14.40625 126.890625 C 14.992188 125.96875 15.613281 125.070312 16.277344 124.203125 C 16.9375 123.332031 17.632812 122.492188 18.363281 121.679688 C 19.09375 120.867188 19.859375 120.089844 20.65625 119.339844 C 21.453125 118.59375 22.277344 117.882812 23.132812 117.203125 C 23.992188 116.523438 24.875 115.882812 25.785156 115.28125 C 26.695312 114.675781 27.628906 114.109375 28.585938 113.585938 C 29.542969 113.058594 30.519531 112.574219 31.515625 112.128906 C 32.515625 111.6875 33.53125 111.285156 34.5625 110.925781 C 35.59375 110.566406 36.636719 110.253906 37.695312 109.980469 C 38.753906 109.710938 39.820312 109.484375 40.898438 109.300781 C 41.972656 109.121094 43.054688 108.984375 44.144531 108.894531 C 45.234375 108.804688 46.324219 108.757812 47.414062 108.757812 L 107.125 108.757812 L 107.125 49.003906 C 107.125 47.894531 107.171875 46.785156 107.265625 45.679688 C 107.359375 44.574219 107.5 43.472656 107.6875 42.378906 C 107.875 41.285156 108.105469 40.199219 108.386719 39.125 C 108.667969 38.050781 108.992188 36.992188 109.359375 35.945312 C 109.730469 34.898438 110.144531 33.867188 110.601562 32.855469 C 111.058594 31.84375 111.558594 30.855469 112.097656 29.886719 C 112.640625 28.917969 113.222656 27.972656 113.84375 27.050781 C 114.464844 26.132812 115.125 25.242188 115.824219 24.378906 C 116.519531 23.515625 117.253906 22.683594 118.023438 21.882812 C 118.789062 21.082031 119.59375 20.316406 120.425781 19.582031 C 121.257812 18.851562 122.121094 18.152344 123.015625 17.496094 C 123.90625 16.835938 124.828125 16.214844 125.773438 15.636719 C 126.71875 15.054688 127.6875 14.515625 128.679688 14.015625 C 129.667969 13.519531 130.679688 13.0625 131.710938 12.652344 C 132.742188 12.238281 133.785156 11.871094 134.847656 11.546875 C 135.910156 11.226562 136.984375 10.949219 138.066406 10.714844 C 145.515625 8.960938 153.039062 7.640625 160.640625 6.753906 C 168.242188 5.867188 175.867188 5.425781 183.519531 5.421875 C 191.171875 5.417969 198.800781 5.855469 206.402344 6.734375 C 214.003906 7.613281 221.527344 8.925781 228.976562 10.675781 C 248.8125 15.332031 260.105469 31.730469 260.105469 49.007812 Z M 260.105469 49.007812 " fill-opacity="1" fill-rule="nonzero"/><path fill="#ffffff" d="M 163.15625 55.683594 C 163.460938 56.425781 163.695312 57.191406 163.851562 57.976562 C 164.007812 58.765625 164.085938 59.5625 164.085938 60.363281 C 164.085938 61.167969 164.007812 61.964844 163.851562 62.753906 C 163.695312 63.539062 163.464844 64.304688 163.15625 65.046875 C 162.851562 65.789062 162.472656 66.496094 162.027344 67.164062 C 161.582031 67.832031 161.074219 68.449219 160.507812 69.019531 C 159.941406 69.585938 159.324219 70.09375 158.65625 70.539062 C 157.988281 70.988281 157.285156 71.363281 156.542969 71.671875 C 155.800781 71.980469 155.035156 72.210938 154.25 72.367188 C 153.460938 72.527344 152.664062 72.605469 151.863281 72.605469 C 151.058594 72.605469 150.265625 72.527344 149.476562 72.371094 C 148.691406 72.214844 147.925781 71.980469 147.183594 71.675781 C 146.441406 71.367188 145.738281 70.988281 145.070312 70.542969 C 144.402344 70.097656 143.785156 69.589844 143.214844 69.023438 C 142.648438 68.453125 142.140625 67.835938 141.695312 67.167969 C 141.25 66.5 140.871094 65.796875 140.566406 65.054688 C 140.257812 64.3125 140.027344 63.546875 139.867188 62.757812 C 139.710938 61.96875 139.632812 61.175781 139.632812 60.371094 C 139.632812 59.566406 139.710938 58.773438 139.867188 57.984375 C 140.023438 57.195312 140.253906 56.429688 140.5625 55.6875 C 140.871094 54.945312 141.246094 54.242188 141.691406 53.574219 C 142.136719 52.90625 142.644531 52.285156 143.210938 51.71875 C 143.78125 51.148438 144.398438 50.640625 145.066406 50.195312 C 145.730469 49.75 146.4375 49.371094 147.179688 49.066406 C 147.917969 48.757812 148.683594 48.523438 149.472656 48.367188 C 150.257812 48.210938 151.054688 48.132812 151.855469 48.132812 C 152.660156 48.132812 153.453125 48.210938 154.242188 48.367188 C 155.03125 48.523438 155.792969 48.753906 156.535156 49.0625 C 157.277344 49.371094 157.984375 49.746094 158.648438 50.191406 C 159.316406 50.636719 159.9375 51.144531 160.503906 51.714844 C 161.070312 52.28125 161.578125 52.898438 162.023438 53.566406 C 162.472656 54.234375 162.847656 54.941406 163.15625 55.683594 Z M 163.15625 55.683594 " fill-opacity="1" fill-rule="nonzero"/><path fill="#ffffff" d="M 227.632812 310.203125 C 227.632812 311.007812 227.554688 311.804688 227.398438 312.589844 C 227.242188 313.378906 227.007812 314.144531 226.703125 314.886719 C 226.394531 315.628906 226.019531 316.332031 225.574219 317 C 225.125 317.667969 224.621094 318.285156 224.050781 318.855469 C 223.484375 319.421875 222.867188 319.929688 222.199219 320.375 C 221.53125 320.820312 220.828125 321.199219 220.085938 321.507812 C 219.34375 321.8125 218.582031 322.046875 217.792969 322.203125 C 217.007812 322.359375 216.210938 322.4375 215.410156 322.4375 C 214.605469 322.4375 213.8125 322.359375 213.023438 322.203125 C 212.238281 322.046875 211.472656 321.8125 210.730469 321.507812 C 209.988281 321.199219 209.285156 320.820312 208.617188 320.375 C 207.949219 319.929688 207.332031 319.421875 206.765625 318.855469 C 206.199219 318.285156 205.691406 317.667969 205.246094 317 C 204.800781 316.332031 204.421875 315.628906 204.117188 314.886719 C 203.808594 314.144531 203.578125 313.378906 203.417969 312.589844 C 203.261719 311.804688 203.183594 311.007812 203.183594 310.203125 C 203.183594 309.402344 203.261719 308.605469 203.417969 307.816406 C 203.578125 307.03125 203.808594 306.265625 204.117188 305.523438 C 204.421875 304.78125 204.800781 304.074219 205.246094 303.40625 C 205.691406 302.738281 206.199219 302.121094 206.765625 301.554688 C 207.332031 300.984375 207.949219 300.480469 208.617188 300.03125 C 209.285156 299.585938 209.988281 299.210938 210.730469 298.902344 C 211.472656 298.59375 212.238281 298.363281 213.023438 298.207031 C 213.8125 298.050781 214.605469 297.972656 215.410156 297.972656 C 216.210938 297.972656 217.007812 298.050781 217.792969 298.207031 C 218.582031 298.363281 219.34375 298.59375 220.085938 298.902344 C 220.828125 299.210938 221.53125 299.585938 222.199219 300.03125 C 222.867188 300.480469 223.484375 300.984375 224.050781 301.554688 C 224.621094 302.121094 225.125 302.738281 225.574219 303.40625 C 226.019531 304.074219 226.394531 304.78125 226.703125 305.523438 C 227.007812 306.265625 227.242188 307.03125 227.398438 307.816406 C 227.554688 308.605469 227.632812 309.402344 227.632812 310.203125 Z M 227.632812 310.203125 " fill-opacity="1" fill-rule="nonzero"/><path fill="#f9e5af" d="M 244.664062 326.074219 C 244.179688 326.074219 243.71875 325.980469 243.273438 325.796875 C 242.828125 325.613281 242.433594 325.351562 242.09375 325.007812 C 241.753906 324.667969 241.488281 324.273438 241.304688 323.828125 C 241.121094 323.382812 241.027344 322.917969 241.027344 322.4375 L 241.027344 315.375 C 241.027344 314.894531 241.121094 314.429688 241.304688 313.984375 C 241.488281 313.539062 241.753906 313.144531 242.09375 312.804688 C 242.433594 312.464844 242.828125 312.203125 243.273438 312.015625 C 243.71875 311.832031 244.179688 311.738281 244.664062 311.738281 C 245.144531 311.738281 245.609375 311.832031 246.054688 312.015625 C 246.5 312.203125 246.890625 312.464844 247.230469 312.804688 C 247.574219 313.144531 247.835938 313.539062 248.019531 313.984375 C 248.203125 314.429688 248.296875 314.894531 248.296875 315.375 L 248.296875 322.4375 C 248.296875 322.917969 248.203125 323.382812 248.019531 323.828125 C 247.835938 324.273438 247.574219 324.667969 247.230469 325.007812 C 246.890625 325.351562 246.5 325.613281 246.054688 325.796875 C 245.609375 325.980469 245.144531 326.074219 244.664062 326.074219 Z M 244.664062 304.46875 C 244.179688 304.46875 243.71875 304.375 243.273438 304.191406 C 242.828125 304.003906 242.433594 303.742188 242.09375 303.402344 C 241.753906 303.0625 241.488281 302.667969 241.304688 302.222656 C 241.121094 301.777344 241.027344 301.3125 241.027344 300.832031 L 241.027344 241.492188 C 241.027344 241.007812 241.121094 240.542969 241.304688 240.097656 C 241.488281 239.652344 241.753906 239.261719 242.09375 238.917969 C 242.433594 238.578125 242.828125 238.316406 243.273438 238.132812 C 243.71875 237.945312 244.179688 237.855469 244.664062 237.855469 L 319.808594 237.855469 C 320.65625 237.859375 321.496094 237.789062 322.332031 237.652344 C 323.167969 237.511719 323.988281 237.304688 324.789062 237.027344 C 325.589844 236.753906 326.359375 236.410156 327.101562 236.003906 C 327.847656 235.59375 328.550781 235.128906 329.214844 234.601562 C 329.878906 234.078125 330.492188 233.5 331.058594 232.867188 C 331.625 232.238281 332.136719 231.566406 332.589844 230.847656 C 333.042969 230.132812 333.433594 229.382812 333.757812 228.601562 C 334.085938 227.820312 334.34375 227.015625 334.535156 226.191406 C 336.136719 219.492188 337.339844 212.71875 338.148438 205.878906 C 338.953125 199.039062 339.355469 192.175781 339.355469 185.285156 C 339.355469 178.398438 338.953125 171.535156 338.148438 164.691406 C 337.339844 157.851562 336.136719 151.082031 334.535156 144.382812 C 334.34375 143.558594 334.085938 142.757812 333.757812 141.976562 C 333.429688 141.195312 333.039062 140.449219 332.585938 139.734375 C 332.132812 139.019531 331.621094 138.347656 331.054688 137.722656 C 330.488281 137.09375 329.875 136.515625 329.210938 135.992188 C 328.546875 135.46875 327.84375 135.003906 327.101562 134.597656 C 326.359375 134.195312 325.589844 133.851562 324.789062 133.578125 C 323.988281 133.300781 323.171875 133.097656 322.339844 132.960938 C 321.503906 132.820312 320.664062 132.753906 319.820312 132.761719 C 319.335938 132.761719 318.875 132.667969 318.429688 132.484375 C 317.984375 132.296875 317.589844 132.035156 317.25 131.695312 C 316.910156 131.355469 316.644531 130.960938 316.460938 130.515625 C 316.277344 130.070312 316.183594 129.605469 316.183594 129.125 C 316.183594 128.640625 316.277344 128.175781 316.460938 127.730469 C 316.644531 127.285156 316.910156 126.894531 317.25 126.550781 C 317.589844 126.210938 317.984375 125.949219 318.429688 125.761719 C 318.875 125.578125 319.335938 125.488281 319.820312 125.488281 C 329.589844 125.488281 339.003906 131.648438 341.789062 143.480469 C 343.410156 150.394531 344.625 157.378906 345.433594 164.4375 C 346.242188 171.492188 346.640625 178.570312 346.625 185.675781 C 346.613281 192.777344 346.1875 199.855469 345.347656 206.90625 C 344.511719 213.960938 343.269531 220.941406 341.617188 227.847656 C 341.335938 229.070312 340.953125 230.261719 340.46875 231.417969 C 339.984375 232.578125 339.410156 233.6875 338.738281 234.746094 C 338.066406 235.808594 337.3125 236.804688 336.472656 237.738281 C 335.636719 238.671875 334.722656 239.527344 333.742188 240.308594 C 332.757812 241.085938 331.714844 241.777344 330.617188 242.378906 C 329.515625 242.984375 328.375 243.492188 327.1875 243.902344 C 326.003906 244.3125 324.789062 244.617188 323.554688 244.824219 C 322.316406 245.03125 321.070312 245.128906 319.816406 245.125 L 248.304688 245.125 L 248.304688 300.828125 C 248.304688 301.3125 248.210938 301.777344 248.027344 302.222656 C 247.84375 302.667969 247.578125 303.0625 247.238281 303.402344 C 246.894531 303.746094 246.503906 304.007812 246.054688 304.191406 C 245.609375 304.375 245.144531 304.46875 244.664062 304.46875 Z M 244.664062 304.46875 " fill-opacity="1" fill-rule="nonzero"/><path fill="#c5e5ff" d="M 86.777344 245.128906 C 86.292969 245.128906 85.832031 245.035156 85.386719 244.851562 C 84.941406 244.667969 84.546875 244.402344 84.207031 244.0625 C 83.867188 243.722656 83.601562 243.328125 83.417969 242.882812 C 83.234375 242.4375 83.140625 241.972656 83.140625 241.492188 L 83.140625 234.972656 C 83.140625 234.492188 83.234375 234.027344 83.417969 233.582031 C 83.601562 233.136719 83.867188 232.742188 84.207031 232.402344 C 84.546875 232.058594 84.941406 231.796875 85.386719 231.613281 C 85.832031 231.429688 86.292969 231.335938 86.777344 231.335938 C 87.257812 231.335938 87.722656 231.429688 88.167969 231.613281 C 88.613281 231.796875 89.003906 232.058594 89.34375 232.402344 C 89.6875 232.742188 89.949219 233.136719 90.132812 233.582031 C 90.316406 234.027344 90.410156 234.492188 90.410156 234.972656 L 90.410156 241.492188 C 90.410156 241.972656 90.316406 242.4375 90.132812 242.882812 C 89.949219 243.328125 89.6875 243.722656 89.34375 244.0625 C 89.003906 244.402344 88.613281 244.667969 88.167969 244.851562 C 87.722656 245.035156 87.257812 245.128906 86.777344 245.128906 Z M 86.667969 224.058594 C 86.1875 224.027344 85.730469 223.902344 85.300781 223.691406 C 84.867188 223.476562 84.492188 223.1875 84.175781 222.824219 C 83.859375 222.460938 83.625 222.050781 83.46875 221.59375 C 83.316406 221.136719 83.253906 220.667969 83.285156 220.1875 C 83.421875 218.214844 83.652344 216.253906 83.976562 214.300781 C 84.296875 212.347656 84.707031 210.417969 85.210938 208.503906 C 85.714844 206.589844 86.304688 204.707031 86.984375 202.847656 C 87.664062 200.992188 88.425781 199.167969 89.277344 197.382812 C 90.125 195.597656 91.058594 193.855469 92.070312 192.15625 C 93.082031 190.460938 94.171875 188.8125 95.339844 187.214844 C 96.507812 185.621094 97.746094 184.082031 99.058594 182.601562 C 100.371094 181.121094 101.746094 179.707031 103.191406 178.355469 C 104.636719 177.003906 106.140625 175.726562 107.703125 174.515625 C 109.265625 173.308594 110.882812 172.171875 112.554688 171.117188 C 114.226562 170.058594 115.941406 169.082031 117.703125 168.183594 C 119.464844 167.285156 121.261719 166.476562 123.101562 165.746094 C 124.9375 165.019531 126.804688 164.378906 128.703125 163.824219 C 130.601562 163.273438 132.519531 162.8125 134.460938 162.4375 C 136.402344 162.066406 138.359375 161.785156 140.324219 161.59375 C 142.292969 161.40625 144.265625 161.308594 146.242188 161.304688 L 220.992188 161.304688 C 221.984375 161.304688 222.96875 161.207031 223.941406 161.011719 C 224.914062 160.816406 225.863281 160.527344 226.777344 160.148438 C 227.695312 159.765625 228.566406 159.300781 229.394531 158.75 C 230.21875 158.195312 230.984375 157.566406 231.6875 156.863281 C 232.386719 156.164062 233.015625 155.398438 233.566406 154.570312 C 234.121094 153.746094 234.585938 152.871094 234.964844 151.953125 C 235.347656 151.035156 235.636719 150.089844 235.828125 149.113281 C 236.023438 148.140625 236.121094 147.15625 236.121094 146.160156 L 236.121094 49.007812 C 236.125 48.160156 236.058594 47.320312 235.921875 46.484375 C 235.785156 45.648438 235.578125 44.828125 235.300781 44.027344 C 235.023438 43.226562 234.683594 42.453125 234.277344 41.710938 C 233.871094 40.96875 233.402344 40.265625 232.878906 39.597656 C 232.351562 38.933594 231.777344 38.320312 231.144531 37.75 C 230.515625 37.183594 229.84375 36.675781 229.128906 36.222656 C 228.414062 35.765625 227.667969 35.378906 226.886719 35.050781 C 226.105469 34.722656 225.300781 34.464844 224.476562 34.273438 L 223.5 34.039062 C 223.035156 33.921875 222.609375 33.726562 222.222656 33.441406 C 221.835938 33.160156 221.519531 32.816406 221.269531 32.40625 C 221.019531 32 220.855469 31.558594 220.78125 31.085938 C 220.703125 30.613281 220.71875 30.144531 220.828125 29.675781 C 220.9375 29.210938 221.132812 28.785156 221.410156 28.394531 C 221.6875 28.003906 222.03125 27.683594 222.433594 27.425781 C 222.839844 27.171875 223.277344 27.003906 223.75 26.921875 C 224.222656 26.839844 224.691406 26.851562 225.15625 26.957031 L 226.132812 27.183594 C 227.355469 27.46875 228.542969 27.851562 229.703125 28.335938 C 230.859375 28.820312 231.964844 29.398438 233.027344 30.070312 C 234.085938 30.742188 235.082031 31.496094 236.015625 32.335938 C 236.945312 33.175781 237.800781 34.085938 238.578125 35.070312 C 239.359375 36.054688 240.046875 37.097656 240.652344 38.199219 C 241.253906 39.296875 241.757812 40.441406 242.167969 41.628906 C 242.578125 42.816406 242.886719 44.027344 243.089844 45.265625 C 243.296875 46.503906 243.394531 47.75 243.390625 49.003906 L 243.390625 146.15625 C 243.390625 146.890625 243.351562 147.621094 243.28125 148.351562 C 243.207031 149.082031 243.101562 149.808594 242.957031 150.527344 C 242.8125 151.25 242.632812 151.960938 242.421875 152.660156 C 242.207031 153.363281 241.960938 154.054688 241.679688 154.730469 C 241.398438 155.410156 241.085938 156.070312 240.738281 156.71875 C 240.390625 157.367188 240.015625 157.996094 239.609375 158.605469 C 239.199219 159.214844 238.765625 159.804688 238.296875 160.371094 C 237.832031 160.9375 237.339844 161.480469 236.824219 162 C 236.304688 162.519531 235.761719 163.011719 235.195312 163.476562 C 234.628906 163.945312 234.039062 164.378906 233.429688 164.789062 C 232.820312 165.195312 232.191406 165.574219 231.542969 165.917969 C 230.898438 166.265625 230.234375 166.578125 229.558594 166.859375 C 228.882812 167.140625 228.191406 167.390625 227.488281 167.601562 C 226.789062 167.816406 226.078125 167.996094 225.359375 168.140625 C 224.640625 168.28125 223.914062 168.390625 223.183594 168.464844 C 222.457031 168.535156 221.722656 168.574219 220.992188 168.574219 L 146.242188 168.574219 C 144.492188 168.578125 142.746094 168.664062 141.007812 168.832031 C 139.265625 169 137.535156 169.246094 135.820312 169.578125 C 134.101562 169.90625 132.402344 170.316406 130.726562 170.804688 C 129.046875 171.292969 127.394531 171.859375 125.765625 172.503906 C 124.140625 173.148438 122.550781 173.867188 120.992188 174.660156 C 119.433594 175.453125 117.914062 176.316406 116.4375 177.253906 C 114.957031 178.1875 113.527344 179.191406 112.144531 180.261719 C 110.761719 181.332031 109.429688 182.464844 108.152344 183.660156 C 106.875 184.855469 105.65625 186.105469 104.496094 187.414062 C 103.335938 188.726562 102.238281 190.085938 101.203125 191.496094 C 100.171875 192.910156 99.207031 194.367188 98.3125 195.871094 C 97.414062 197.371094 96.589844 198.914062 95.839844 200.492188 C 95.085938 202.074219 94.410156 203.683594 93.808594 205.328125 C 93.207031 206.972656 92.683594 208.640625 92.242188 210.332031 C 91.796875 212.023438 91.429688 213.734375 91.144531 215.460938 C 90.863281 217.1875 90.65625 218.925781 90.535156 220.667969 C 90.503906 221.152344 90.382812 221.609375 90.167969 222.039062 C 89.953125 222.472656 89.667969 222.847656 89.304688 223.167969 C 88.941406 223.484375 88.53125 223.71875 88.074219 223.875 C 87.617188 224.03125 87.148438 224.089844 86.667969 224.058594 Z M 86.667969 224.058594 " fill-opacity="1" fill-rule="nonzero"/><path fill="#000000" d="M 361.414062 138.0625 C 361.140625 136.902344 360.816406 135.753906 360.445312 134.621094 C 360.074219 133.484375 359.660156 132.367188 359.195312 131.269531 C 358.730469 130.167969 358.21875 129.089844 357.667969 128.035156 C 357.113281 126.976562 356.515625 125.945312 355.875 124.9375 C 355.234375 123.929688 354.550781 122.953125 353.828125 122.003906 C 353.105469 121.050781 352.347656 120.132812 351.546875 119.25 C 350.746094 118.363281 349.914062 117.511719 349.042969 116.695312 C 348.171875 115.878906 347.269531 115.097656 346.335938 114.359375 C 345.398438 113.617188 344.433594 112.917969 343.441406 112.257812 C 342.445312 111.597656 341.425781 110.980469 340.382812 110.40625 C 339.335938 109.832031 338.269531 109.300781 337.179688 108.816406 C 336.089844 108.328125 334.980469 107.890625 333.855469 107.5 C 332.726562 107.105469 331.585938 106.761719 330.433594 106.464844 C 329.277344 106.167969 328.109375 105.917969 326.933594 105.71875 C 325.757812 105.519531 324.578125 105.371094 323.386719 105.269531 C 322.199219 105.167969 321.007812 105.117188 319.816406 105.117188 L 263.726562 105.117188 L 263.726562 88.285156 C 263.699219 87.824219 263.585938 87.382812 263.390625 86.964844 C 263.195312 86.546875 262.929688 86.179688 262.59375 85.859375 C 262.261719 85.542969 261.878906 85.296875 261.449219 85.125 C 261.019531 84.953125 260.574219 84.867188 260.113281 84.863281 C 259.648438 84.863281 259.203125 84.945312 258.773438 85.113281 C 258.34375 85.28125 257.960938 85.523438 257.621094 85.839844 C 257.28125 86.15625 257.015625 86.523438 256.816406 86.9375 C 256.617188 87.355469 256.503906 87.796875 256.472656 88.257812 C 256.464844 88.265625 256.460938 88.273438 256.457031 88.285156 L 256.457031 146.164062 C 256.453125 147.328125 256.390625 148.484375 256.273438 149.640625 C 256.15625 150.796875 255.984375 151.945312 255.753906 153.082031 C 255.523438 154.222656 255.238281 155.347656 254.902344 156.457031 C 254.5625 157.570312 254.167969 158.660156 253.722656 159.734375 C 253.277344 160.804688 252.777344 161.855469 252.230469 162.878906 C 251.679688 163.902344 251.085938 164.894531 250.4375 165.863281 C 249.792969 166.828125 249.101562 167.757812 248.363281 168.65625 C 247.628906 169.554688 246.847656 170.414062 246.027344 171.234375 C 245.207031 172.054688 244.347656 172.835938 243.449219 173.574219 C 242.554688 174.3125 241.621094 175.003906 240.660156 175.648438 C 239.695312 176.296875 238.699219 176.894531 237.675781 177.441406 C 236.652344 177.992188 235.605469 178.488281 234.535156 178.933594 C 233.464844 179.382812 232.371094 179.773438 231.261719 180.113281 C 230.152344 180.453125 229.027344 180.738281 227.890625 180.96875 C 226.753906 181.199219 225.605469 181.371094 224.449219 181.488281 C 223.296875 181.609375 222.136719 181.667969 220.976562 181.671875 L 146.238281 181.671875 C 144.835938 181.671875 143.441406 181.738281 142.046875 181.875 C 140.652344 182.011719 139.269531 182.21875 137.894531 182.488281 C 136.523438 182.761719 135.164062 183.101562 133.824219 183.507812 C 132.484375 183.914062 131.167969 184.386719 129.875 184.921875 C 128.578125 185.457031 127.316406 186.054688 126.082031 186.714844 C 124.84375 187.375 123.644531 188.09375 122.480469 188.871094 C 121.316406 189.652344 120.191406 190.484375 119.109375 191.375 C 118.027344 192.261719 116.992188 193.203125 116 194.195312 C 115.011719 195.183594 114.070312 196.222656 113.183594 197.304688 C 112.296875 198.386719 111.460938 199.511719 110.683594 200.679688 C 109.90625 201.84375 109.1875 203.042969 108.527344 204.28125 C 107.867188 205.515625 107.269531 206.78125 106.734375 208.078125 C 106.199219 209.371094 105.730469 210.691406 105.324219 212.03125 C 104.917969 213.371094 104.578125 214.730469 104.304688 216.105469 C 104.035156 217.480469 103.828125 218.863281 103.691406 220.257812 C 103.554688 221.652344 103.488281 223.050781 103.488281 224.453125 L 103.488281 258.214844 L 47.417969 258.214844 C 46.429688 258.21875 45.4375 258.179688 44.449219 258.101562 C 43.460938 258.023438 42.480469 257.902344 41.5 257.742188 C 40.523438 257.578125 39.554688 257.375 38.59375 257.132812 C 37.632812 256.886719 36.683594 256.605469 35.746094 256.28125 C 34.808594 255.957031 33.886719 255.59375 32.980469 255.191406 C 32.074219 254.789062 31.1875 254.351562 30.316406 253.875 C 29.445312 253.398438 28.597656 252.886719 27.773438 252.339844 C 26.945312 251.789062 26.144531 251.207031 25.367188 250.59375 C 24.589844 249.976562 23.839844 249.332031 23.117188 248.652344 C 22.394531 247.972656 21.699219 247.265625 21.035156 246.527344 C 20.375 245.789062 19.742188 245.027344 19.144531 244.234375 C 18.542969 243.445312 17.980469 242.632812 17.449219 241.792969 C 16.917969 240.953125 16.425781 240.09375 15.964844 239.214844 C 15.507812 238.335938 15.089844 237.4375 14.707031 236.523438 C 14.324219 235.609375 13.980469 234.679688 13.675781 233.734375 C 13.371094 232.789062 13.109375 231.835938 12.882812 230.867188 C 10.847656 222.347656 9.382812 213.734375 8.496094 205.019531 C 8.445312 204.539062 8.304688 204.085938 8.078125 203.660156 C 7.847656 203.238281 7.546875 202.871094 7.171875 202.566406 C 6.796875 202.261719 6.378906 202.039062 5.917969 201.902344 C 5.457031 201.765625 4.984375 201.71875 4.503906 201.769531 C 4.023438 201.816406 3.570312 201.957031 3.148438 202.1875 C 2.722656 202.414062 2.359375 202.71875 2.054688 203.089844 C 1.75 203.464844 1.527344 203.882812 1.390625 204.347656 C 1.25 204.808594 1.207031 205.28125 1.253906 205.761719 C 2.175781 214.789062 3.691406 223.714844 5.804688 232.539062 C 6.078125 233.703125 6.402344 234.851562 6.773438 235.988281 C 7.140625 237.121094 7.558594 238.238281 8.023438 239.339844 C 8.488281 240.441406 8.996094 241.519531 9.550781 242.578125 C 10.105469 243.636719 10.703125 244.667969 11.34375 245.675781 C 11.984375 246.683594 12.664062 247.660156 13.386719 248.613281 C 14.109375 249.5625 14.871094 250.480469 15.667969 251.367188 C 16.46875 252.253906 17.304688 253.105469 18.175781 253.921875 C 19.046875 254.738281 19.949219 255.519531 20.886719 256.257812 C 21.820312 257 22.785156 257.699219 23.78125 258.359375 C 24.773438 259.019531 25.796875 259.636719 26.839844 260.210938 C 27.886719 260.789062 28.957031 261.316406 30.046875 261.800781 C 31.136719 262.285156 32.246094 262.726562 33.371094 263.117188 C 34.5 263.507812 35.640625 263.855469 36.796875 264.148438 C 37.953125 264.445312 39.121094 264.695312 40.296875 264.890625 C 41.472656 265.089844 42.65625 265.238281 43.84375 265.339844 C 45.035156 265.4375 46.226562 265.488281 47.417969 265.488281 L 103.496094 265.488281 L 103.496094 321.605469 C 103.496094 322.820312 103.546875 324.027344 103.648438 325.234375 C 103.75 326.445312 103.90625 327.644531 104.109375 328.839844 C 104.3125 330.035156 104.566406 331.21875 104.871094 332.390625 C 105.175781 333.5625 105.53125 334.722656 105.933594 335.863281 C 106.339844 337.007812 106.789062 338.132812 107.289062 339.234375 C 107.785156 340.339844 108.332031 341.421875 108.921875 342.480469 C 109.511719 343.539062 110.144531 344.570312 110.824219 345.574219 C 111.503906 346.578125 112.222656 347.550781 112.984375 348.492188 C 113.742188 349.4375 114.542969 350.347656 115.382812 351.222656 C 116.21875 352.097656 117.09375 352.933594 118 353.734375 C 118.910156 354.535156 119.851562 355.296875 120.824219 356.015625 C 121.800781 356.738281 122.800781 357.414062 123.832031 358.050781 C 124.863281 358.6875 125.921875 359.277344 127.003906 359.820312 C 128.085938 360.367188 129.1875 360.867188 130.308594 361.316406 C 131.433594 361.769531 132.574219 362.171875 133.734375 362.527344 C 134.890625 362.882812 136.0625 363.1875 137.246094 363.441406 C 144.042969 364.539062 178.878906 375.039062 230.257812 363.382812 C 231.433594 363.121094 232.597656 362.8125 233.746094 362.449219 C 234.898438 362.089844 236.03125 361.683594 237.144531 361.226562 C 238.261719 360.769531 239.355469 360.265625 240.429688 359.71875 C 241.503906 359.167969 242.550781 358.578125 243.574219 357.9375 C 244.597656 357.300781 245.59375 356.621094 246.558594 355.902344 C 247.523438 355.179688 248.457031 354.417969 249.359375 353.617188 C 250.261719 352.816406 251.128906 351.980469 251.957031 351.105469 C 252.789062 350.234375 253.582031 349.324219 254.335938 348.382812 C 255.089844 347.441406 255.804688 346.472656 256.476562 345.472656 C 257.148438 344.46875 257.777344 343.441406 258.363281 342.386719 C 258.949219 341.332031 259.488281 340.253906 259.980469 339.15625 C 260.476562 338.054688 260.921875 336.9375 261.324219 335.796875 C 261.722656 334.660156 262.074219 333.507812 262.375 332.339844 C 262.679688 331.171875 262.933594 329.996094 263.136719 328.804688 C 263.335938 327.617188 263.492188 326.421875 263.59375 325.21875 C 263.695312 324.015625 263.746094 322.8125 263.746094 321.605469 L 263.746094 265.488281 L 281.203125 265.488281 C 281.683594 265.488281 282.148438 265.394531 282.59375 265.210938 C 283.039062 265.027344 283.429688 264.761719 283.773438 264.421875 C 284.113281 264.082031 284.375 263.6875 284.558594 263.242188 C 284.742188 262.796875 284.835938 262.332031 284.835938 261.851562 C 284.835938 261.367188 284.742188 260.90625 284.558594 260.460938 C 284.375 260.015625 284.113281 259.621094 283.773438 259.28125 C 283.429688 258.9375 283.039062 258.675781 282.59375 258.492188 C 282.148438 258.308594 281.683594 258.214844 281.203125 258.214844 L 183.613281 258.214844 C 183.132812 258.214844 182.667969 258.308594 182.222656 258.492188 C 181.777344 258.675781 181.382812 258.9375 181.042969 259.28125 C 180.703125 259.621094 180.441406 260.015625 180.257812 260.460938 C 180.070312 260.90625 179.980469 261.367188 179.980469 261.851562 C 179.980469 262.332031 180.070312 262.796875 180.257812 263.242188 C 180.441406 263.6875 180.703125 264.082031 181.042969 264.421875 C 181.382812 264.761719 181.777344 265.027344 182.222656 265.210938 C 182.667969 265.394531 183.132812 265.488281 183.613281 265.488281 L 256.472656 265.488281 L 256.472656 321.605469 C 256.476562 322.617188 256.4375 323.628906 256.355469 324.632812 C 256.273438 325.640625 256.148438 326.644531 255.980469 327.640625 C 255.8125 328.636719 255.601562 329.625 255.347656 330.605469 C 255.097656 331.582031 254.800781 332.550781 254.464844 333.503906 C 254.128906 334.457031 253.753906 335.394531 253.339844 336.316406 C 252.921875 337.234375 252.46875 338.136719 251.972656 339.019531 C 251.480469 339.902344 250.949219 340.761719 250.382812 341.597656 C 249.816406 342.433594 249.214844 343.246094 248.578125 344.03125 C 247.941406 344.816406 247.273438 345.570312 246.570312 346.296875 C 245.871094 347.027344 245.136719 347.722656 244.375 348.386719 C 243.617188 349.050781 242.828125 349.683594 242.011719 350.277344 C 241.195312 350.875 240.359375 351.4375 239.496094 351.960938 C 238.632812 352.484375 237.746094 352.972656 236.839844 353.421875 C 235.9375 353.871094 235.015625 354.28125 234.074219 354.648438 C 233.132812 355.019531 232.179688 355.347656 231.210938 355.636719 C 230.242188 355.921875 229.261719 356.167969 228.273438 356.371094 C 220.957031 358.085938 213.570312 359.378906 206.105469 360.242188 C 198.640625 361.105469 191.152344 361.539062 183.636719 361.539062 C 176.125 361.539062 168.632812 361.109375 161.171875 360.25 C 153.707031 359.386719 146.316406 358.101562 139 356.386719 C 120.605469 352.023438 110.757812 337.101562 110.757812 321.605469 L 110.757812 224.445312 C 110.761719 223.285156 110.820312 222.125 110.9375 220.96875 C 111.054688 219.816406 111.230469 218.667969 111.457031 217.527344 C 111.6875 216.390625 111.972656 215.265625 112.3125 214.152344 C 112.648438 213.042969 113.042969 211.949219 113.488281 210.878906 C 113.933594 209.804688 114.433594 208.757812 114.980469 207.730469 C 115.527344 206.707031 116.125 205.714844 116.773438 204.746094 C 117.417969 203.78125 118.109375 202.851562 118.847656 201.953125 C 119.582031 201.054688 120.363281 200.195312 121.183594 199.375 C 122.003906 198.550781 122.863281 197.773438 123.761719 197.035156 C 124.65625 196.296875 125.589844 195.605469 126.554688 194.960938 C 127.519531 194.3125 128.511719 193.714844 129.535156 193.167969 C 130.558594 192.617188 131.605469 192.121094 132.679688 191.671875 C 133.75 191.226562 134.839844 190.835938 135.949219 190.496094 C 137.0625 190.15625 138.1875 189.871094 139.324219 189.640625 C 140.460938 189.410156 141.609375 189.238281 142.761719 189.121094 C 143.917969 189.003906 145.078125 188.945312 146.238281 188.941406 L 220.992188 188.941406 C 222.390625 188.941406 223.789062 188.871094 225.179688 188.734375 C 226.574219 188.59375 227.957031 188.390625 229.332031 188.117188 C 230.703125 187.84375 232.058594 187.5 233.398438 187.09375 C 234.738281 186.6875 236.054688 186.214844 237.347656 185.679688 C 238.640625 185.144531 239.90625 184.542969 241.140625 183.882812 C 242.375 183.222656 243.574219 182.503906 244.738281 181.726562 C 245.902344 180.949219 247.023438 180.113281 248.105469 179.226562 C 249.1875 178.335938 250.226562 177.394531 251.214844 176.40625 C 252.203125 175.414062 253.144531 174.378906 254.03125 173.296875 C 254.921875 172.210938 255.753906 171.089844 256.53125 169.921875 C 257.308594 168.757812 258.027344 167.558594 258.6875 166.324219 C 259.347656 165.089844 259.945312 163.824219 260.480469 162.527344 C 261.019531 161.234375 261.488281 159.917969 261.894531 158.578125 C 262.300781 157.234375 262.640625 155.878906 262.914062 154.503906 C 263.1875 153.128906 263.394531 151.746094 263.53125 150.351562 C 263.671875 148.957031 263.738281 147.5625 263.738281 146.160156 L 263.738281 112.390625 L 319.816406 112.390625 C 320.8125 112.386719 321.8125 112.425781 322.804688 112.503906 C 323.800781 112.585938 324.789062 112.710938 325.773438 112.875 C 326.757812 113.039062 327.734375 113.246094 328.699219 113.492188 C 329.667969 113.742188 330.621094 114.03125 331.566406 114.359375 C 332.507812 114.6875 333.433594 115.054688 334.34375 115.460938 C 335.257812 115.871094 336.148438 116.316406 337.023438 116.800781 C 337.894531 117.28125 338.746094 117.800781 339.578125 118.355469 C 340.40625 118.914062 341.210938 119.503906 341.992188 120.125 C 342.769531 120.75 343.523438 121.40625 344.246094 122.09375 C 344.96875 122.78125 345.664062 123.496094 346.324219 124.242188 C 346.988281 124.988281 347.621094 125.761719 348.21875 126.5625 C 348.816406 127.363281 349.378906 128.1875 349.90625 129.035156 C 350.433594 129.882812 350.925781 130.75 351.378906 131.640625 C 351.832031 132.53125 352.25 133.4375 352.625 134.359375 C 353.003906 135.285156 353.339844 136.226562 353.640625 137.179688 C 353.9375 138.132812 354.195312 139.09375 354.410156 140.070312 C 354.457031 140.234375 354.496094 140.398438 354.527344 140.566406 C 361.914062 171.984375 360.953125 205.296875 354.335938 230.851562 C 354.113281 231.820312 353.851562 232.777344 353.546875 233.71875 C 353.242188 234.664062 352.898438 235.59375 352.515625 236.511719 C 352.136719 237.425781 351.714844 238.324219 351.257812 239.203125 C 350.800781 240.085938 350.304688 240.945312 349.773438 241.78125 C 349.246094 242.621094 348.679688 243.4375 348.082031 244.226562 C 347.484375 245.019531 346.851562 245.78125 346.1875 246.519531 C 345.523438 247.257812 344.832031 247.964844 344.109375 248.644531 C 343.386719 249.324219 342.636719 249.972656 341.859375 250.589844 C 341.082031 251.203125 340.277344 251.785156 339.453125 252.335938 C 338.625 252.882812 337.777344 253.394531 336.910156 253.871094 C 336.039062 254.347656 335.152344 254.789062 334.242188 255.191406 C 333.335938 255.59375 332.414062 255.953125 331.476562 256.277344 C 330.542969 256.601562 329.59375 256.886719 328.628906 257.132812 C 327.667969 257.375 326.699219 257.578125 325.722656 257.738281 C 324.742188 257.902344 323.761719 258.023438 322.773438 258.101562 C 321.785156 258.179688 320.792969 258.21875 319.800781 258.214844 L 310.265625 258.214844 C 309.785156 258.214844 309.320312 258.308594 308.875 258.492188 C 308.429688 258.675781 308.039062 258.9375 307.695312 259.28125 C 307.355469 259.621094 307.09375 260.015625 306.910156 260.460938 C 306.726562 260.90625 306.632812 261.367188 306.632812 261.851562 C 306.632812 262.332031 306.726562 262.796875 306.910156 263.242188 C 307.09375 263.6875 307.355469 264.082031 307.695312 264.421875 C 308.039062 264.761719 308.429688 265.027344 308.875 265.210938 C 309.320312 265.394531 309.785156 265.488281 310.265625 265.488281 L 319.800781 265.488281 C 320.996094 265.488281 322.1875 265.4375 323.378906 265.339844 C 324.566406 265.238281 325.75 265.089844 326.925781 264.890625 C 328.105469 264.691406 329.269531 264.445312 330.429688 264.148438 C 331.585938 263.851562 332.726562 263.507812 333.855469 263.113281 C 334.980469 262.722656 336.089844 262.285156 337.179688 261.796875 C 338.273438 261.3125 339.339844 260.78125 340.386719 260.207031 C 341.433594 259.632812 342.453125 259.015625 343.449219 258.351562 C 344.445312 257.691406 345.410156 256.992188 346.34375 256.25 C 347.28125 255.507812 348.183594 254.726562 349.054688 253.910156 C 349.925781 253.09375 350.761719 252.242188 351.558594 251.355469 C 352.359375 250.464844 353.121094 249.546875 353.84375 248.59375 C 354.566406 247.644531 355.246094 246.664062 355.886719 245.65625 C 356.527344 244.648438 357.125 243.613281 357.675781 242.554688 C 358.230469 241.496094 358.738281 240.417969 359.203125 239.316406 C 359.664062 238.214844 360.082031 237.097656 360.453125 235.960938 C 360.820312 234.824219 361.140625 233.675781 361.414062 232.511719 C 370.457031 194.402344 367.09375 168.996094 361.414062 138.0625 Z M 361.414062 138.0625 " fill-opacity="1" fill-rule="nonzero"/><path fill="#000000" d="M 299.371094 261.851562 C 299.371094 262.332031 299.277344 262.796875 299.09375 263.242188 C 298.910156 263.6875 298.648438 264.082031 298.308594 264.421875 C 297.964844 264.761719 297.574219 265.027344 297.128906 265.210938 C 296.683594 265.394531 296.21875 265.488281 295.738281 265.488281 C 295.253906 265.488281 294.792969 265.394531 294.347656 265.210938 C 293.902344 265.027344 293.507812 264.761719 293.167969 264.421875 C 292.828125 264.082031 292.566406 263.6875 292.378906 263.242188 C 292.195312 262.796875 292.101562 262.332031 292.105469 261.851562 C 292.101562 261.367188 292.195312 260.90625 292.378906 260.460938 C 292.566406 260.015625 292.828125 259.621094 293.167969 259.28125 C 293.507812 258.9375 293.902344 258.675781 294.347656 258.492188 C 294.792969 258.308594 295.253906 258.214844 295.738281 258.214844 C 296.21875 258.214844 296.683594 258.308594 297.128906 258.492188 C 297.574219 258.675781 297.964844 258.9375 298.308594 259.28125 C 298.648438 259.621094 298.910156 260.015625 299.09375 260.460938 C 299.277344 260.90625 299.371094 261.367188 299.371094 261.851562 Z M 299.371094 261.851562 " fill-opacity="1" fill-rule="nonzero"/><path fill="#000000" d="M 260.105469 70.105469 C 259.625 70.101562 259.160156 70.191406 258.714844 70.375 C 258.265625 70.558594 257.871094 70.820312 257.53125 71.160156 C 257.1875 71.5 256.925781 71.894531 256.738281 72.339844 C 256.550781 72.785156 256.457031 73.246094 256.457031 73.730469 C 256.457031 74.214844 256.546875 74.675781 256.730469 75.125 C 256.914062 75.570312 257.175781 75.964844 257.515625 76.304688 C 257.855469 76.648438 258.25 76.914062 258.695312 77.097656 C 259.140625 77.28125 259.605469 77.375 260.085938 77.375 C 260.570312 77.378906 261.03125 77.285156 261.480469 77.101562 C 261.925781 76.917969 262.316406 76.65625 262.660156 76.3125 C 263 75.972656 263.261719 75.578125 263.449219 75.132812 C 263.632812 74.6875 263.726562 74.222656 263.726562 73.742188 C 263.722656 73.261719 263.628906 72.796875 263.445312 72.355469 C 263.261719 71.910156 263 71.519531 262.664062 71.179688 C 262.324219 70.835938 261.933594 70.574219 261.488281 70.386719 C 261.046875 70.203125 260.585938 70.105469 260.105469 70.105469 Z M 260.105469 70.105469 " fill-opacity="1" fill-rule="nonzero"/><path fill="#000000" d="M 4.0625 179.972656 C 4.527344 179.972656 4.976562 179.886719 5.410156 179.714844 C 5.84375 179.539062 6.226562 179.292969 6.566406 178.972656 C 6.902344 178.652344 7.171875 178.28125 7.367188 177.855469 C 7.5625 177.433594 7.671875 176.988281 7.695312 176.523438 L 7.695312 176.496094 C 8.257812 164.082031 9.984375 151.832031 12.882812 139.75 C 13.105469 138.785156 13.371094 137.828125 13.675781 136.882812 C 13.976562 135.9375 14.320312 135.007812 14.703125 134.09375 C 15.085938 133.175781 15.503906 132.28125 15.964844 131.398438 C 16.421875 130.519531 16.914062 129.660156 17.445312 128.820312 C 17.976562 127.984375 18.539062 127.167969 19.140625 126.378906 C 19.738281 125.585938 20.371094 124.820312 21.03125 124.085938 C 21.695312 123.347656 22.390625 122.636719 23.113281 121.957031 C 23.835938 121.28125 24.585938 120.632812 25.363281 120.015625 C 26.140625 119.398438 26.941406 118.816406 27.769531 118.269531 C 28.59375 117.722656 29.441406 117.207031 30.3125 116.730469 C 31.183594 116.253906 32.070312 115.816406 32.976562 115.414062 C 33.882812 115.011719 34.804688 114.648438 35.742188 114.324219 C 36.679688 114 37.628906 113.71875 38.589844 113.472656 C 39.550781 113.230469 40.519531 113.027344 41.5 112.863281 C 42.476562 112.703125 43.460938 112.582031 44.449219 112.5 C 45.4375 112.421875 46.425781 112.386719 47.417969 112.390625 L 183.613281 112.390625 C 184.09375 112.390625 184.558594 112.296875 185.003906 112.113281 C 185.449219 111.929688 185.84375 111.664062 186.183594 111.324219 C 186.523438 110.984375 186.785156 110.589844 186.96875 110.144531 C 187.15625 109.699219 187.246094 109.234375 187.246094 108.753906 C 187.246094 108.269531 187.15625 107.808594 186.96875 107.359375 C 186.785156 106.914062 186.523438 106.523438 186.183594 106.179688 C 185.84375 105.839844 185.449219 105.578125 185.003906 105.394531 C 184.558594 105.207031 184.09375 105.117188 183.613281 105.117188 L 110.761719 105.117188 L 110.761719 49.011719 C 110.757812 48.003906 110.796875 46.992188 110.878906 45.988281 C 110.960938 44.980469 111.085938 43.980469 111.25 42.984375 C 111.417969 41.988281 111.628906 41 111.882812 40.023438 C 112.132812 39.046875 112.425781 38.082031 112.761719 37.128906 C 113.09375 36.175781 113.46875 35.238281 113.886719 34.316406 C 114.300781 33.398438 114.753906 32.496094 115.246094 31.613281 C 115.738281 30.734375 116.265625 29.875 116.832031 29.039062 C 117.398438 28.203125 118 27.390625 118.632812 26.605469 C 119.269531 25.824219 119.9375 25.066406 120.636719 24.339844 C 121.335938 23.613281 122.066406 22.917969 122.828125 22.25 C 123.585938 21.585938 124.375 20.957031 125.1875 20.359375 C 126 19.761719 126.839844 19.199219 127.699219 18.675781 C 128.5625 18.148438 129.445312 17.664062 130.347656 17.214844 C 131.253906 16.765625 132.171875 16.355469 133.113281 15.984375 C 134.050781 15.613281 135.003906 15.285156 135.96875 14.996094 C 136.9375 14.707031 137.914062 14.460938 138.902344 14.253906 C 169.75 6.980469 202.074219 7.71875 228.441406 14.285156 C 229.425781 14.492188 230.398438 14.742188 231.359375 15.035156 C 232.324219 15.324219 233.273438 15.65625 234.207031 16.027344 C 235.144531 16.402344 236.058594 16.8125 236.960938 17.265625 C 237.859375 17.714844 238.738281 18.203125 239.597656 18.730469 C 240.453125 19.253906 241.289062 19.816406 242.097656 20.414062 C 242.910156 21.011719 243.691406 21.644531 244.449219 22.308594 C 245.203125 22.972656 245.929688 23.667969 246.625 24.394531 C 247.324219 25.121094 247.988281 25.875 248.621094 26.660156 C 249.253906 27.441406 249.851562 28.25 250.414062 29.085938 C 250.976562 29.921875 251.503906 30.777344 251.992188 31.65625 C 252.484375 32.535156 252.933594 33.433594 253.347656 34.351562 C 253.761719 35.269531 254.132812 36.207031 254.46875 37.15625 C 254.800781 38.105469 255.09375 39.066406 255.34375 40.042969 C 255.597656 41.019531 255.804688 42.003906 255.972656 42.996094 C 256.140625 43.988281 256.265625 44.988281 256.347656 45.988281 C 256.429688 46.992188 256.46875 48 256.464844 49.007812 L 256.464844 59.1875 C 256.464844 59.671875 256.558594 60.132812 256.742188 60.578125 C 256.929688 61.023438 257.191406 61.417969 257.535156 61.757812 C 257.875 62.097656 258.269531 62.363281 258.714844 62.546875 C 259.160156 62.730469 259.621094 62.820312 260.105469 62.820312 C 260.585938 62.820312 261.050781 62.730469 261.496094 62.546875 C 261.941406 62.363281 262.335938 62.097656 262.675781 61.757812 C 263.015625 61.417969 263.28125 61.023438 263.464844 60.578125 C 263.652344 60.132812 263.742188 59.671875 263.746094 59.1875 L 263.730469 49.007812 C 263.730469 30.148438 251.367188 12.15625 229.804688 7.128906 C 222.21875 5.351562 214.554688 4.019531 206.8125 3.128906 C 199.074219 2.238281 191.308594 1.792969 183.515625 1.796875 C 175.726562 1.800781 167.960938 2.253906 160.21875 3.152344 C 152.480469 4.050781 144.816406 5.390625 137.230469 7.171875 C 136.046875 7.425781 134.878906 7.734375 133.71875 8.089844 C 132.5625 8.445312 131.421875 8.847656 130.300781 9.300781 C 129.175781 9.753906 128.074219 10.25 126.992188 10.796875 C 125.914062 11.34375 124.855469 11.933594 123.828125 12.570312 C 122.796875 13.207031 121.792969 13.882812 120.820312 14.605469 C 119.847656 15.324219 118.90625 16.085938 118 16.886719 C 117.089844 17.6875 116.21875 18.527344 115.378906 19.402344 C 114.542969 20.277344 113.742188 21.183594 112.984375 22.128906 C 112.222656 23.070312 111.503906 24.042969 110.824219 25.046875 C 110.148438 26.050781 109.515625 27.082031 108.921875 28.140625 C 108.332031 29.199219 107.789062 30.28125 107.289062 31.382812 C 106.792969 32.488281 106.339844 33.609375 105.9375 34.753906 C 105.535156 35.894531 105.179688 37.054688 104.875 38.226562 C 104.570312 39.398438 104.316406 40.582031 104.109375 41.777344 C 103.90625 42.96875 103.753906 44.171875 103.648438 45.378906 C 103.546875 46.585938 103.496094 47.792969 103.496094 49.007812 L 103.496094 105.109375 L 47.417969 105.109375 C 28.769531 105.109375 10.726562 117.308594 5.585938 138.988281 C 2.722656 151.222656 1.003906 163.617188 0.425781 176.167969 C 0.414062 176.414062 0.429688 176.660156 0.46875 176.902344 C 0.507812 177.144531 0.570312 177.382812 0.65625 177.609375 C 0.742188 177.839844 0.847656 178.0625 0.980469 178.269531 C 1.109375 178.476562 1.261719 178.671875 1.429688 178.847656 C 1.601562 179.027344 1.785156 179.183594 1.988281 179.324219 C 2.191406 179.464844 2.40625 179.582031 2.632812 179.679688 C 2.855469 179.777344 3.089844 179.847656 3.332031 179.898438 C 3.570312 179.945312 3.816406 179.972656 4.0625 179.972656 Z M 4.0625 179.972656 " fill-opacity="1" fill-rule="nonzero"/><path fill="#000000" d="M 4.03125 194.515625 C 4.511719 194.503906 4.972656 194.394531 5.414062 194.199219 C 5.851562 194 6.238281 193.726562 6.570312 193.378906 C 6.898438 193.027344 7.152344 192.625 7.324219 192.175781 C 7.496094 191.726562 7.574219 191.261719 7.5625 190.777344 C 7.554688 190.292969 7.453125 189.832031 7.261719 189.386719 C 7.066406 188.945312 6.792969 188.554688 6.441406 188.222656 C 6.089844 187.890625 5.6875 187.640625 5.234375 187.46875 C 4.78125 187.300781 4.3125 187.222656 3.828125 187.242188 C 3.347656 187.257812 2.882812 187.363281 2.445312 187.558594 C 2.003906 187.753906 1.617188 188.027344 1.285156 188.378906 C 0.953125 188.730469 0.703125 189.128906 0.527344 189.582031 C 0.355469 190.03125 0.277344 190.5 0.289062 190.984375 C 0.304688 191.464844 0.410156 191.925781 0.605469 192.367188 C 0.804688 192.808594 1.078125 193.195312 1.429688 193.527344 C 1.78125 193.859375 2.179688 194.109375 2.632812 194.28125 C 3.082031 194.453125 3.550781 194.53125 4.03125 194.515625 Z M 4.03125 194.515625 " fill-opacity="1" fill-rule="nonzero"/><path fill="#000000" d="M 135.964844 60.410156 C 135.964844 60.929688 135.988281 61.449219 136.039062 61.964844 C 136.089844 62.484375 136.167969 62.996094 136.269531 63.507812 C 136.371094 64.015625 136.496094 64.519531 136.648438 65.015625 C 136.796875 65.515625 136.972656 66.003906 137.171875 66.484375 C 137.371094 66.964844 137.59375 67.433594 137.835938 67.890625 C 138.082031 68.351562 138.347656 68.796875 138.636719 69.226562 C 138.925781 69.660156 139.234375 70.078125 139.5625 70.476562 C 139.894531 70.878906 140.242188 71.265625 140.609375 71.632812 C 140.976562 72 141.359375 72.347656 141.761719 72.679688 C 142.164062 73.007812 142.582031 73.316406 143.011719 73.605469 C 143.445312 73.894531 143.890625 74.160156 144.347656 74.40625 C 144.804688 74.652344 145.273438 74.875 145.753906 75.074219 C 146.234375 75.269531 146.722656 75.445312 147.21875 75.597656 C 147.714844 75.746094 148.21875 75.875 148.730469 75.976562 C 149.238281 76.078125 149.75 76.152344 150.269531 76.203125 C 150.785156 76.253906 151.304688 76.28125 151.824219 76.28125 C 152.34375 76.28125 152.859375 76.253906 153.378906 76.203125 C 153.894531 76.152344 154.40625 76.078125 154.917969 75.976562 C 155.425781 75.875 155.929688 75.746094 156.425781 75.597656 C 156.921875 75.445312 157.410156 75.269531 157.890625 75.070312 C 158.371094 74.871094 158.839844 74.652344 159.296875 74.40625 C 159.757812 74.160156 160.203125 73.894531 160.632812 73.605469 C 161.066406 73.316406 161.480469 73.007812 161.882812 72.675781 C 162.285156 72.347656 162.667969 72 163.035156 71.632812 C 163.402344 71.261719 163.75 70.878906 164.082031 70.476562 C 164.410156 70.074219 164.71875 69.65625 165.007812 69.226562 C 165.296875 68.792969 165.5625 68.347656 165.808594 67.890625 C 166.054688 67.429688 166.273438 66.960938 166.472656 66.480469 C 166.671875 66 166.847656 65.511719 166.996094 65.015625 C 167.148438 64.519531 167.273438 64.015625 167.375 63.503906 C 167.476562 62.996094 167.554688 62.480469 167.605469 61.964844 C 167.65625 61.445312 167.679688 60.929688 167.679688 60.410156 C 167.679688 59.886719 167.65625 59.371094 167.601562 58.851562 C 167.550781 58.335938 167.476562 57.820312 167.375 57.3125 C 167.273438 56.800781 167.148438 56.296875 166.996094 55.800781 C 166.84375 55.304688 166.671875 54.816406 166.472656 54.335938 C 166.273438 53.855469 166.050781 53.386719 165.804688 52.925781 C 165.5625 52.46875 165.292969 52.023438 165.007812 51.589844 C 164.71875 51.160156 164.410156 50.742188 164.078125 50.339844 C 163.75 49.9375 163.402344 49.554688 163.035156 49.1875 C 162.667969 48.820312 162.28125 48.472656 161.878906 48.140625 C 161.480469 47.8125 161.0625 47.503906 160.628906 47.214844 C 160.199219 46.925781 159.753906 46.65625 159.296875 46.414062 C 158.835938 46.167969 158.367188 45.945312 157.886719 45.746094 C 157.410156 45.546875 156.917969 45.375 156.421875 45.222656 C 155.925781 45.070312 155.421875 44.945312 154.914062 44.84375 C 154.402344 44.742188 153.890625 44.667969 153.375 44.617188 C 152.855469 44.566406 152.339844 44.539062 151.820312 44.539062 C 150.777344 44.542969 149.746094 44.644531 148.726562 44.847656 C 147.707031 45.054688 146.714844 45.355469 145.753906 45.753906 C 144.792969 46.152344 143.878906 46.640625 143.015625 47.222656 C 142.148438 47.800781 141.347656 48.457031 140.613281 49.195312 C 139.878906 49.929688 139.21875 50.734375 138.640625 51.597656 C 138.0625 52.464844 137.574219 53.378906 137.175781 54.339844 C 136.777344 55.300781 136.476562 56.292969 136.273438 57.316406 C 136.066406 58.335938 135.964844 59.367188 135.964844 60.410156 Z M 160.410156 60.410156 C 160.410156 60.976562 160.355469 61.535156 160.246094 62.085938 C 160.136719 62.640625 159.972656 63.179688 159.757812 63.699219 C 159.542969 64.222656 159.277344 64.71875 158.964844 65.1875 C 158.648438 65.65625 158.292969 66.089844 157.894531 66.488281 C 157.496094 66.886719 157.0625 67.246094 156.59375 67.558594 C 156.125 67.871094 155.628906 68.136719 155.109375 68.351562 C 154.585938 68.570312 154.050781 68.730469 153.496094 68.84375 C 152.941406 68.953125 152.382812 69.007812 151.820312 69.007812 C 151.257812 69.007812 150.699219 68.953125 150.144531 68.839844 C 149.589844 68.730469 149.054688 68.570312 148.53125 68.351562 C 148.011719 68.136719 147.515625 67.871094 147.046875 67.558594 C 146.578125 67.242188 146.144531 66.886719 145.746094 66.488281 C 145.347656 66.089844 144.992188 65.65625 144.675781 65.1875 C 144.363281 64.714844 144.101562 64.222656 143.882812 63.699219 C 143.667969 63.175781 143.503906 62.640625 143.394531 62.085938 C 143.285156 61.53125 143.230469 60.972656 143.230469 60.410156 C 143.230469 59.84375 143.285156 59.285156 143.394531 58.730469 C 143.503906 58.179688 143.667969 57.640625 143.882812 57.121094 C 144.101562 56.597656 144.367188 56.101562 144.679688 55.632812 C 144.992188 55.164062 145.347656 54.730469 145.746094 54.332031 C 146.144531 53.929688 146.582031 53.574219 147.050781 53.261719 C 147.519531 52.949219 148.011719 52.683594 148.535156 52.46875 C 149.054688 52.25 149.59375 52.089844 150.144531 51.976562 C 150.699219 51.867188 151.257812 51.8125 151.820312 51.8125 C 152.386719 51.8125 152.945312 51.871094 153.496094 51.980469 C 154.050781 52.089844 154.585938 52.253906 155.109375 52.46875 C 155.628906 52.6875 156.125 52.953125 156.59375 53.265625 C 157.058594 53.578125 157.496094 53.933594 157.894531 54.335938 C 158.292969 54.734375 158.648438 55.167969 158.960938 55.636719 C 159.273438 56.105469 159.539062 56.601562 159.753906 57.121094 C 159.972656 57.644531 160.132812 58.179688 160.246094 58.734375 C 160.355469 59.289062 160.410156 59.847656 160.410156 60.410156 Z M 160.410156 60.410156 " fill-opacity="1" fill-rule="nonzero"/><path fill="#000000" d="M 231.265625 310.207031 C 231.265625 309.6875 231.242188 309.167969 231.191406 308.648438 C 231.140625 308.132812 231.0625 307.621094 230.960938 307.109375 C 230.859375 306.601562 230.734375 306.097656 230.585938 305.597656 C 230.433594 305.101562 230.257812 304.613281 230.058594 304.132812 C 229.863281 303.652344 229.640625 303.183594 229.394531 302.722656 C 229.148438 302.265625 228.882812 301.820312 228.59375 301.386719 C 228.304688 300.957031 227.996094 300.539062 227.667969 300.136719 C 227.339844 299.734375 226.988281 299.351562 226.621094 298.984375 C 226.253906 298.617188 225.871094 298.265625 225.46875 297.9375 C 225.070312 297.609375 224.652344 297.296875 224.21875 297.007812 C 223.789062 296.71875 223.34375 296.453125 222.886719 296.207031 C 222.425781 295.964844 221.957031 295.742188 221.476562 295.542969 C 221 295.34375 220.511719 295.167969 220.011719 295.019531 C 219.515625 294.867188 219.011719 294.742188 218.503906 294.640625 C 217.996094 294.539062 217.480469 294.460938 216.964844 294.410156 C 216.449219 294.359375 215.929688 294.335938 215.410156 294.335938 C 214.890625 294.335938 214.371094 294.359375 213.855469 294.410156 C 213.339844 294.460938 212.824219 294.539062 212.316406 294.640625 C 211.808594 294.742188 211.304688 294.867188 210.804688 295.015625 C 210.308594 295.167969 209.820312 295.34375 209.339844 295.542969 C 208.863281 295.742188 208.390625 295.960938 207.933594 296.207031 C 207.476562 296.453125 207.03125 296.71875 206.597656 297.007812 C 206.167969 297.296875 205.75 297.605469 205.347656 297.9375 C 204.949219 298.265625 204.5625 298.613281 204.195312 298.980469 C 203.828125 299.347656 203.480469 299.734375 203.152344 300.136719 C 202.820312 300.539062 202.511719 300.953125 202.222656 301.386719 C 201.933594 301.820312 201.667969 302.265625 201.425781 302.722656 C 201.179688 303.179688 200.957031 303.648438 200.757812 304.128906 C 200.558594 304.609375 200.386719 305.097656 200.234375 305.597656 C 200.082031 306.09375 199.957031 306.597656 199.855469 307.109375 C 199.753906 307.617188 199.679688 308.128906 199.628906 308.648438 C 199.578125 309.164062 199.550781 309.683594 199.550781 310.203125 C 199.550781 310.722656 199.578125 311.242188 199.628906 311.757812 C 199.679688 312.277344 199.753906 312.789062 199.855469 313.300781 C 199.957031 313.808594 200.082031 314.3125 200.234375 314.808594 C 200.382812 315.308594 200.558594 315.796875 200.757812 316.277344 C 200.957031 316.757812 201.179688 317.226562 201.421875 317.683594 C 201.667969 318.144531 201.933594 318.589844 202.222656 319.019531 C 202.511719 319.453125 202.820312 319.871094 203.152344 320.273438 C 203.480469 320.671875 203.828125 321.058594 204.195312 321.425781 C 204.5625 321.792969 204.945312 322.140625 205.347656 322.472656 C 205.75 322.800781 206.167969 323.109375 206.597656 323.398438 C 207.03125 323.6875 207.476562 323.953125 207.933594 324.199219 C 208.390625 324.445312 208.859375 324.667969 209.339844 324.867188 C 209.820312 325.066406 210.308594 325.238281 210.804688 325.390625 C 211.300781 325.542969 211.804688 325.667969 212.316406 325.769531 C 212.824219 325.871094 213.335938 325.945312 213.855469 325.996094 C 214.371094 326.046875 214.890625 326.074219 215.410156 326.074219 C 216.449219 326.074219 217.480469 325.96875 218.5 325.765625 C 219.523438 325.5625 220.511719 325.261719 221.472656 324.863281 C 222.4375 324.460938 223.347656 323.972656 224.214844 323.394531 C 225.078125 322.816406 225.878906 322.15625 226.617188 321.421875 C 227.351562 320.683594 228.011719 319.882812 228.589844 319.019531 C 229.167969 318.152344 229.65625 317.238281 230.054688 316.277344 C 230.453125 315.3125 230.753906 314.320312 230.957031 313.300781 C 231.164062 312.277344 231.265625 311.246094 231.265625 310.207031 Z M 206.820312 310.207031 C 206.820312 309.640625 206.875 309.082031 206.984375 308.527344 C 207.09375 307.976562 207.257812 307.4375 207.472656 306.914062 C 207.6875 306.394531 207.953125 305.898438 208.265625 305.429688 C 208.578125 304.960938 208.933594 304.523438 209.332031 304.125 C 209.734375 303.726562 210.167969 303.371094 210.636719 303.058594 C 211.105469 302.742188 211.597656 302.476562 212.121094 302.261719 C 212.640625 302.046875 213.179688 301.882812 213.730469 301.773438 C 214.285156 301.664062 214.84375 301.605469 215.40625 301.605469 C 215.972656 301.605469 216.53125 301.664062 217.082031 301.773438 C 217.636719 301.882812 218.175781 302.046875 218.695312 302.261719 C 219.214844 302.476562 219.710938 302.742188 220.179688 303.054688 C 220.648438 303.371094 221.082031 303.726562 221.484375 304.125 C 221.882812 304.523438 222.238281 304.957031 222.550781 305.425781 C 222.863281 305.898438 223.128906 306.390625 223.34375 306.914062 C 223.5625 307.433594 223.722656 307.972656 223.835938 308.527344 C 223.945312 309.078125 224 309.640625 224 310.203125 C 224 310.769531 223.945312 311.328125 223.835938 311.878906 C 223.722656 312.433594 223.5625 312.972656 223.34375 313.492188 C 223.128906 314.015625 222.863281 314.511719 222.550781 314.980469 C 222.238281 315.449219 221.882812 315.882812 221.484375 316.28125 C 221.085938 316.683594 220.652344 317.039062 220.179688 317.351562 C 219.710938 317.664062 219.21875 317.929688 218.695312 318.144531 C 218.175781 318.363281 217.636719 318.527344 217.085938 318.636719 C 216.53125 318.746094 215.972656 318.800781 215.410156 318.800781 C 214.84375 318.800781 214.285156 318.746094 213.734375 318.632812 C 213.179688 318.523438 212.644531 318.359375 212.125 318.144531 C 211.601562 317.929688 211.109375 317.664062 210.640625 317.347656 C 210.171875 317.035156 209.738281 316.679688 209.339844 316.28125 C 208.941406 315.882812 208.582031 315.449219 208.269531 314.980469 C 207.957031 314.507812 207.691406 314.015625 207.476562 313.492188 C 207.257812 312.972656 207.097656 312.433594 206.984375 311.882812 C 206.875 311.328125 206.820312 310.769531 206.820312 310.207031 Z M 206.820312 310.207031 " fill-opacity="1" fill-rule="nonzero"/></svg>