<svg xmlns="http://www.w3.org/2000/svg" xmlns:xlink="http://www.w3.org/1999/xlink" width="2000" zoomAndPan="magnify" viewBox="0 0 1500 374.999991" height="500" preserveAspectRatio="xMidYMid meet" version="1.0"><defs><g/><clipPath id="3c1996f629"><path d="M 0 13 L 405.75 13 L 405.75 366 L 0 366 Z M 0 13 " clip-rule="nonzero"/></clipPath></defs><path fill="#53c1de" d="M 239.105469 189.050781 C 239.105469 169.65625 222.886719 153.929688 202.875 153.929688 C 182.867188 153.929688 166.644531 169.65625 166.644531 189.050781 C 166.644531 208.445312 182.867188 224.167969 202.875 224.167969 C 222.886719 224.167969 239.105469 208.445312 239.105469 189.050781 Z M 239.105469 189.050781 " fill-opacity="1" fill-rule="nonzero"/><g clip-path="url(#3c1996f629)"><path fill="#53c1de" d="M 320.546875 123.847656 C 328.199219 93.714844 337.816406 37.828125 303.914062 18.882812 C 270.164062 0.015625 226.25 36.164062 203.0625 57.863281 C 179.941406 36.378906 134.792969 0.386719 100.917969 19.394531 C 67.1875 38.320312 77.589844 93.28125 85.410156 123.605469 C 53.941406 132.269531 0 150.925781 0 189.050781 C 0 227.0625 53.886719 247.363281 85.167969 256.015625 C 77.316406 286.511719 67.433594 340.683594 101.210938 359.570312 C 135.214844 378.574219 180.21875 343.4375 203.625 321.5 C 226.960938 343.328125 270.453125 378.691406 304.207031 359.753906 C 338.066406 340.757812 329.246094 285.621094 321.425781 255.121094 C 351.75 246.445312 405.75 226.589844 405.75 189.050781 C 405.75 151.292969 351.519531 132.484375 320.546875 123.847656 Z M 316.703125 238.957031 C 311.570312 223.199219 304.636719 206.441406 296.160156 189.132812 C 304.25 172.230469 310.914062 155.691406 315.90625 140.035156 C 338.609375 146.417969 388.417969 161 388.417969 189.050781 C 388.417969 217.363281 340.621094 232.082031 316.703125 238.957031 Z M 295.519531 345.214844 C 270.335938 359.34375 232.929688 325.523438 215.695312 309.449219 C 227.128906 297.328125 238.554688 283.238281 249.707031 267.589844 C 269.320312 265.90625 287.851562 263.148438 304.660156 259.382812 C 310.164062 280.957031 320.816406 331.023438 295.519531 345.214844 Z M 109.871094 345.011719 C 84.6875 330.9375 96.199219 282.59375 101.972656 260.132812 C 118.59375 263.695312 136.988281 266.261719 156.652344 267.804688 C 167.875 283.117188 179.632812 297.191406 191.480469 309.515625 C 176.84375 323.242188 135.175781 359.15625 109.871094 345.011719 Z M 17.332031 189.050781 C 17.332031 160.628906 66.839844 146.152344 90.0625 139.789062 C 95.140625 155.796875 101.800781 172.535156 109.839844 189.457031 C 101.699219 206.636719 94.941406 223.636719 89.816406 239.835938 C 67.675781 233.691406 17.332031 217.484375 17.332031 189.050781 Z M 109.601562 33.933594 C 134.890625 19.746094 174.128906 54.300781 190.917969 69.855469 C 179.128906 82.121094 167.480469 96.089844 156.351562 111.3125 C 137.269531 113.027344 119.003906 115.78125 102.210938 119.46875 C 95.910156 95.011719 84.339844 48.109375 109.601562 33.933594 Z M 262.105469 129.574219 C 275.050781 131.15625 287.453125 133.265625 299.101562 135.839844 C 295.605469 146.703125 291.246094 158.0625 286.113281 169.707031 C 278.675781 156.023438 270.6875 142.613281 262.105469 129.574219 Z M 203.070312 81.859375 C 211.0625 90.253906 219.070312 99.628906 226.945312 109.800781 C 210.96875 109.066406 194.96875 109.0625 178.988281 109.789062 C 186.875 99.710938 194.949219 90.351562 203.070312 81.859375 Z M 119.785156 169.695312 C 114.738281 158.089844 110.417969 146.683594 106.890625 135.664062 C 118.46875 133.152344 130.8125 131.101562 143.675781 129.542969 C 135.070312 142.554688 127.097656 155.957031 119.785156 169.695312 Z M 144.046875 249.753906 C 130.757812 248.316406 118.226562 246.367188 106.652344 243.925781 C 110.234375 232.714844 114.648438 221.0625 119.804688 209.207031 C 127.214844 223.085938 135.3125 236.617188 144.046875 249.753906 Z M 203.546875 297.425781 C 195.332031 288.832031 187.136719 279.328125 179.136719 269.109375 C 195.203125 269.71875 211.300781 269.71875 227.367188 269.027344 C 219.46875 279.433594 211.488281 288.949219 203.546875 297.425781 Z M 286.28125 208.605469 C 291.703125 220.585938 296.273438 232.175781 299.90625 243.199219 C 288.140625 245.800781 275.4375 247.898438 262.054688 249.453125 C 270.703125 236.167969 278.816406 222.550781 286.28125 208.605469 Z M 240.03125 251.492188 C 215.453125 253.191406 190.722656 253.171875 166.136719 251.628906 C 152.167969 231.851562 139.730469 211.046875 128.996094 189.453125 C 139.679688 167.902344 152.027344 147.140625 165.929688 127.394531 C 190.535156 125.589844 215.289062 125.585938 239.890625 127.402344 C 253.675781 147.152344 266.003906 167.859375 276.933594 189.214844 C 266.132812 210.753906 253.722656 231.558594 240.03125 251.492188 Z M 295.253906 33.433594 C 320.550781 47.578125 309.292969 97.804688 303.765625 119.644531 C 286.929688 115.878906 268.652344 113.078125 249.511719 111.335938 C 238.363281 95.949219 226.8125 81.957031 215.214844 69.84375 C 232.21875 53.957031 270.203125 19.433594 295.253906 33.433594 Z M 295.253906 33.433594 " fill-opacity="1" fill-rule="evenodd"/></g><g fill="#ffffff" fill-opacity="1"><g transform="translate(462.578476, 257.254404)"><g><path d="M 136.296875 -22.75 C 139.003906 -19.082031 140.117188 -15.488281 139.640625 -11.96875 C 139.160156 -8.457031 137.644531 -5.460938 135.09375 -2.984375 C 132.539062 -0.515625 129.46875 1.234375 125.875 2.265625 C 122.28125 3.304688 118.601562 3.347656 114.84375 2.390625 C 111.09375 1.429688 107.863281 -0.878906 105.15625 -4.546875 C 97.96875 -14.453125 89.941406 -23.59375 81.078125 -31.96875 C 72.210938 -40.351562 62.671875 -47.898438 52.453125 -54.609375 C 51.660156 -45.023438 50.90625 -35.523438 50.1875 -26.109375 C 49.46875 -16.691406 48.707031 -7.191406 47.90625 2.390625 C 47.582031 7.023438 46.101562 10.695312 43.46875 13.40625 C 40.832031 16.125 37.675781 17.960938 34 18.921875 C 30.332031 19.878906 26.78125 19.878906 23.34375 18.921875 C 19.914062 17.960938 17.082031 16.125 14.84375 13.40625 C 12.613281 10.695312 11.660156 7.023438 11.984375 2.390625 C 13.410156 -15.171875 14.523438 -32.972656 15.328125 -51.015625 C 16.128906 -69.066406 18.285156 -86.710938 21.796875 -103.953125 C 23.554688 -112.734375 26.828125 -121.273438 31.609375 -129.578125 C 36.398438 -137.890625 42.507812 -144.796875 49.9375 -150.296875 C 57.363281 -155.804688 66.03125 -158.722656 75.9375 -159.046875 C 82.800781 -159.367188 89.304688 -158.09375 95.453125 -155.21875 C 101.597656 -152.34375 106.828125 -148.390625 111.140625 -143.359375 C 115.453125 -138.328125 118.363281 -132.578125 119.875 -126.109375 C 121.394531 -119.640625 121.039062 -112.972656 118.8125 -106.109375 C 116.570312 -99.398438 112.9375 -92.972656 107.90625 -86.828125 C 102.875 -80.679688 97.085938 -75.375 90.546875 -70.90625 C 107.628906 -57.164062 122.878906 -41.113281 136.296875 -22.75 Z M 85.03125 -118.8125 C 84.394531 -122 83.15625 -123.789062 81.3125 -124.1875 C 79.476562 -124.59375 77.40625 -124.078125 75.09375 -122.640625 C 72.78125 -121.203125 70.503906 -119.363281 68.265625 -117.125 C 66.023438 -114.894531 64.109375 -112.703125 62.515625 -110.546875 C 60.921875 -108.390625 59.882812 -106.832031 59.40625 -105.875 C 58.125 -102.363281 57.003906 -98.367188 56.046875 -93.890625 C 59.242188 -94.367188 62.117188 -95.367188 64.671875 -96.890625 C 67.222656 -98.410156 69.695312 -100.285156 72.09375 -102.515625 C 73.050781 -103.472656 74.648438 -104.988281 76.890625 -107.0625 C 79.128906 -109.144531 81.125 -111.300781 82.875 -113.53125 C 84.632812 -115.769531 85.351562 -117.53125 85.03125 -118.8125 Z M 85.03125 -118.8125 "/></g></g></g><g fill="#ffffff" fill-opacity="1"><g transform="translate(614.196146, 257.254404)"><g><path d="M 99.890625 -50.546875 C 104.515625 -50.378906 108.222656 -49.019531 111.015625 -46.46875 C 113.816406 -43.914062 115.65625 -40.84375 116.53125 -37.25 C 117.40625 -33.65625 117.40625 -30.097656 116.53125 -26.578125 C 115.65625 -23.066406 113.816406 -20.15625 111.015625 -17.84375 C 108.222656 -15.53125 104.515625 -14.453125 99.890625 -14.609375 C 89.023438 -15.085938 78.160156 -15.046875 67.296875 -14.484375 C 56.441406 -13.929688 45.585938 -12.773438 34.734375 -11.015625 C 31.378906 -10.535156 27.863281 -10.894531 24.1875 -12.09375 C 20.519531 -13.289062 17.445312 -15.242188 14.96875 -17.953125 C 12.5 -20.671875 11.582031 -24.1875 12.21875 -28.5 C 14.925781 -50.539062 17.914062 -72.578125 21.1875 -94.609375 C 24.46875 -116.648438 28.023438 -138.6875 31.859375 -160.71875 C 32.335938 -163.4375 33.296875 -165.753906 34.734375 -167.671875 C 36.003906 -169.910156 37.835938 -171.785156 40.234375 -173.296875 C 42.628906 -174.816406 45.585938 -175.65625 49.109375 -175.8125 C 66.347656 -176.289062 83.59375 -175.972656 100.84375 -174.859375 C 105.476562 -174.535156 109.191406 -173.054688 111.984375 -170.421875 C 114.773438 -167.785156 116.609375 -164.671875 117.484375 -161.078125 C 118.367188 -157.492188 118.367188 -153.941406 117.484375 -150.421875 C 116.609375 -146.910156 114.773438 -144.035156 111.984375 -141.796875 C 109.191406 -139.566406 105.476562 -138.609375 100.84375 -138.921875 C 89.03125 -139.722656 76.972656 -140.125 64.671875 -140.125 C 63.867188 -135.488281 63.066406 -130.851562 62.265625 -126.21875 C 61.472656 -121.59375 60.757812 -116.96875 60.125 -112.34375 C 66.664062 -112.175781 72.972656 -111.773438 79.046875 -111.140625 C 83.835938 -110.660156 88.03125 -108.863281 91.625 -105.75 C 95.21875 -102.632812 97.015625 -98.441406 97.015625 -93.171875 C 97.015625 -90.140625 96.175781 -87.1875 94.5 -84.3125 C 92.820312 -81.4375 90.625 -79.117188 87.90625 -77.359375 C 85.195312 -75.609375 82.242188 -74.894531 79.046875 -75.21875 C 70.898438 -76.007812 62.753906 -76.40625 54.609375 -76.40625 C 53.972656 -71.9375 53.332031 -67.382812 52.6875 -62.75 C 52.050781 -58.125 51.414062 -53.578125 50.78125 -49.109375 C 58.925781 -49.898438 67.066406 -50.414062 75.203125 -50.65625 C 83.347656 -50.894531 91.578125 -50.859375 99.890625 -50.546875 Z M 99.890625 -50.546875 "/></g></g></g><g fill="#ffffff" fill-opacity="1"><g transform="translate(744.256801, 257.254404)"><g><path d="M 124.078125 -104.671875 C 124.554688 -88.867188 124.953125 -72.984375 125.265625 -57.015625 C 125.585938 -41.046875 125.988281 -25.078125 126.46875 -9.109375 C 126.632812 -4.472656 125.519531 -0.757812 123.125 2.03125 C 120.726562 4.832031 117.769531 6.671875 114.25 7.546875 C 110.738281 8.421875 107.1875 8.421875 103.59375 7.546875 C 100 6.671875 96.960938 4.832031 94.484375 2.03125 C 92.015625 -0.757812 90.703125 -4.472656 90.546875 -9.109375 C 90.378906 -13.890625 90.253906 -18.632812 90.171875 -23.34375 C 90.097656 -28.0625 89.984375 -32.816406 89.828125 -37.609375 L 53.890625 -39.046875 C 52.617188 -32.972656 51.421875 -26.941406 50.296875 -20.953125 C 49.179688 -14.972656 48.066406 -8.945312 46.953125 -2.875 C 46.148438 1.757812 44.347656 5.113281 41.546875 7.1875 C 38.753906 9.257812 35.519531 10.253906 31.84375 10.171875 C 28.175781 10.097656 24.707031 9.140625 21.4375 7.296875 C 18.164062 5.460938 15.609375 2.867188 13.765625 -0.484375 C 11.929688 -3.835938 11.414062 -7.828125 12.21875 -12.453125 C 15.09375 -28.109375 18.328125 -43.597656 21.921875 -58.921875 C 25.515625 -74.253906 30.582031 -89.1875 37.125 -103.71875 C 40.320312 -110.90625 44.394531 -118.648438 49.34375 -126.953125 C 54.289062 -135.253906 59.914062 -142.878906 66.21875 -149.828125 C 72.53125 -156.773438 79.519531 -161.84375 87.1875 -165.03125 C 94.375 -168.070312 100.203125 -168.632812 104.671875 -166.71875 C 109.140625 -164.800781 112.648438 -161.363281 115.203125 -156.40625 C 117.765625 -151.457031 119.644531 -145.75 120.84375 -139.28125 C 122.039062 -132.820312 122.835938 -126.476562 123.234375 -120.25 C 123.640625 -114.019531 123.921875 -108.828125 124.078125 -104.671875 Z M 63.71875 -74.5 C 68.03125 -74.332031 72.257812 -74.171875 76.40625 -74.015625 C 80.5625 -73.859375 84.710938 -73.695312 88.859375 -73.53125 C 88.703125 -78.800781 88.582031 -84.03125 88.5 -89.21875 C 88.425781 -94.414062 88.304688 -99.566406 88.140625 -104.671875 C 87.984375 -106.753906 87.90625 -108.953125 87.90625 -111.265625 C 87.90625 -113.578125 87.90625 -115.929688 87.90625 -118.328125 C 85.195312 -115.128906 82.882812 -112.09375 80.96875 -109.21875 C 77.769531 -104.4375 74.851562 -99.445312 72.21875 -94.25 C 69.582031 -89.0625 67.226562 -83.832031 65.15625 -78.5625 C 64.988281 -77.925781 64.785156 -77.25 64.546875 -76.53125 C 64.304688 -75.8125 64.03125 -75.132812 63.71875 -74.5 Z M 63.71875 -74.5 "/></g></g></g><g fill="#ffffff" fill-opacity="1"><g transform="translate(882.700736, 257.254404)"><g><path d="M 106.59375 -57.484375 C 111.0625 -58.765625 114.929688 -58.601562 118.203125 -57 C 121.484375 -55.40625 124.039062 -53.007812 125.875 -49.8125 C 127.707031 -46.625 128.664062 -43.191406 128.75 -39.515625 C 128.832031 -35.847656 127.875 -32.457031 125.875 -29.34375 C 123.875 -26.226562 120.640625 -24.113281 116.171875 -23 C 108.023438 -20.601562 99.679688 -18.84375 91.140625 -17.71875 C 82.597656 -16.601562 74.132812 -16.5625 65.75 -17.59375 C 57.363281 -18.632812 49.335938 -21.3125 41.671875 -25.625 C 31.773438 -31.375 24.234375 -39.195312 19.046875 -49.09375 C 13.859375 -59 11.503906 -69.625 11.984375 -80.96875 C 12.617188 -92.144531 15.410156 -102.878906 20.359375 -113.171875 C 25.304688 -123.472656 31.890625 -132.535156 40.109375 -140.359375 C 48.335938 -148.191406 57.679688 -154.222656 68.140625 -158.453125 C 78.609375 -162.679688 89.507812 -164.394531 100.84375 -163.59375 C 105.476562 -163.113281 109.191406 -161.554688 111.984375 -158.921875 C 114.773438 -156.296875 116.609375 -153.1875 117.484375 -149.59375 C 118.367188 -146 118.367188 -142.441406 117.484375 -138.921875 C 116.609375 -135.410156 114.773438 -132.535156 111.984375 -130.296875 C 109.191406 -128.066406 105.476562 -127.191406 100.84375 -127.671875 C 92.539062 -128.304688 84.675781 -126.75 77.25 -123 C 69.820312 -119.25 63.550781 -114.019531 58.4375 -107.3125 C 53.332031 -100.601562 50.0625 -93.175781 48.625 -85.03125 C 47.1875 -77.6875 47.546875 -71.816406 49.703125 -67.421875 C 51.859375 -63.035156 55.09375 -59.800781 59.40625 -57.71875 C 63.71875 -55.644531 68.628906 -54.367188 74.140625 -53.890625 C 79.648438 -53.410156 85.238281 -53.570312 90.90625 -54.375 C 96.570312 -55.175781 101.800781 -56.210938 106.59375 -57.484375 Z M 106.59375 -57.484375 "/></g></g></g><g fill="#ffffff" fill-opacity="1"><g transform="translate(1023.539908, 257.254404)"><g><path d="M 109.21875 -164.5625 C 113.695312 -163.914062 117.289062 -162.234375 120 -159.515625 C 122.71875 -156.804688 124.554688 -153.613281 125.515625 -149.9375 C 126.472656 -146.269531 126.472656 -142.675781 125.515625 -139.15625 C 124.554688 -135.644531 122.71875 -132.890625 120 -130.890625 C 117.289062 -128.898438 113.695312 -128.144531 109.21875 -128.625 C 101.875 -129.582031 94.210938 -130.300781 86.234375 -130.78125 C 85.109375 -113.375 84.023438 -95.96875 82.984375 -78.5625 C 81.953125 -61.15625 80.878906 -43.671875 79.765625 -26.109375 C 79.609375 -21.640625 78.210938 -18.003906 75.578125 -15.203125 C 72.941406 -12.410156 69.828125 -10.535156 66.234375 -9.578125 C 62.640625 -8.617188 59.082031 -8.617188 55.5625 -9.578125 C 52.050781 -10.535156 49.175781 -12.367188 46.9375 -15.078125 C 44.707031 -17.796875 43.671875 -21.472656 43.828125 -26.109375 C 44.953125 -43.671875 46.03125 -61.195312 47.0625 -78.6875 C 48.101562 -96.175781 49.179688 -113.703125 50.296875 -131.265625 C 43.109375 -130.941406 36.082031 -130.460938 29.21875 -129.828125 C 24.59375 -129.347656 20.878906 -130.1875 18.078125 -132.34375 C 15.285156 -134.5 13.453125 -137.332031 12.578125 -140.84375 C 11.703125 -144.351562 11.738281 -147.90625 12.6875 -151.5 C 13.644531 -155.09375 15.484375 -158.242188 18.203125 -160.953125 C 20.921875 -163.671875 24.59375 -165.269531 29.21875 -165.75 C 55.882812 -168.46875 82.550781 -168.070312 109.21875 -164.5625 Z M 109.21875 -164.5625 "/></g></g></g><g fill="#ffffff" fill-opacity="1"><g transform="translate(1161.744307, 257.254404)"><g><path d="M 45.75 -36.40625 C 47.507812 -34.8125 48.785156 -32.894531 49.578125 -30.65625 C 50.378906 -28.425781 50.78125 -26.113281 50.78125 -23.71875 C 50.9375 -21.476562 50.492188 -19.195312 49.453125 -16.875 C 48.421875 -14.5625 47.1875 -12.609375 45.75 -11.015625 C 42.238281 -7.503906 38.007812 -5.75 33.0625 -5.75 L 29.9375 -5.75 C 25.3125 -5.75 21.082031 -7.503906 17.25 -11.015625 C 15.488281 -12.609375 14.207031 -14.5625 13.40625 -16.875 C 12.613281 -19.195312 12.140625 -21.476562 11.984375 -23.71875 C 11.816406 -25.945312 12.25 -28.21875 13.28125 -30.53125 C 14.320312 -32.851562 15.644531 -34.8125 17.25 -36.40625 C 20.757812 -39.914062 24.988281 -41.671875 29.9375 -41.671875 L 32.8125 -41.671875 C 37.601562 -41.671875 41.914062 -39.914062 45.75 -36.40625 Z M 45.75 -36.40625 "/></g></g></g><g fill="#ffffff" fill-opacity="1"><g transform="translate(1224.738704, 257.254404)"><g><path d="M 117.609375 -141.796875 C 117.765625 -132.703125 117.84375 -122.84375 117.84375 -112.21875 C 117.84375 -101.601562 117.203125 -90.941406 115.921875 -80.234375 C 114.648438 -69.535156 112.257812 -59.394531 108.75 -49.8125 C 105.238281 -40.238281 100.128906 -32.019531 93.421875 -25.15625 C 86.554688 -18.125 79.128906 -13.726562 71.140625 -11.96875 C 63.160156 -10.21875 55.296875 -10.617188 47.546875 -13.171875 C 39.804688 -15.722656 32.898438 -20.070312 26.828125 -26.21875 C 20.753906 -32.375 16.203125 -39.84375 13.171875 -48.625 C 11.578125 -53.414062 11.457031 -57.523438 12.8125 -60.953125 C 14.164062 -64.390625 16.398438 -67.066406 19.515625 -68.984375 C 22.628906 -70.898438 26.101562 -71.894531 29.9375 -71.96875 C 33.769531 -72.050781 37.320312 -71.054688 40.59375 -68.984375 C 43.875 -66.910156 46.234375 -63.554688 47.671875 -58.921875 C 49.109375 -54.773438 51.703125 -51.863281 55.453125 -50.1875 C 59.203125 -48.507812 62.914062 -48.867188 66.59375 -51.265625 C 69.625 -53.179688 71.859375 -56.132812 73.296875 -60.125 C 74.734375 -64.113281 75.851562 -67.785156 76.65625 -71.140625 C 79.53125 -82.640625 81.164062 -94.335938 81.5625 -106.234375 C 81.957031 -118.128906 82 -129.984375 81.6875 -141.796875 C 81.6875 -146.753906 82.878906 -150.75 85.265625 -153.78125 C 87.660156 -156.8125 90.613281 -158.804688 94.125 -159.765625 C 97.644531 -160.722656 101.203125 -160.722656 104.796875 -159.765625 C 108.390625 -158.804688 111.421875 -156.8125 113.890625 -153.78125 C 116.367188 -150.75 117.609375 -146.753906 117.609375 -141.796875 Z M 117.609375 -141.796875 "/></g></g></g><g fill="#ffffff" fill-opacity="1"><g transform="translate(1354.799341, 257.254404)"><g><path d="M 89.34375 -103.484375 C 98.289062 -97.410156 105.359375 -89.503906 110.546875 -79.765625 C 115.734375 -70.023438 117.769531 -59.644531 116.65625 -48.625 C 115.53125 -39.039062 112.253906 -30.816406 106.828125 -23.953125 C 101.398438 -17.085938 94.734375 -11.738281 86.828125 -7.90625 C 78.921875 -4.070312 70.535156 -1.953125 61.671875 -1.546875 C 52.816406 -1.148438 44.316406 -2.628906 36.171875 -5.984375 C 28.023438 -9.335938 21.15625 -14.769531 15.5625 -22.28125 C 12.695312 -25.945312 11.5 -29.492188 11.96875 -32.921875 C 12.445312 -36.359375 13.925781 -39.351562 16.40625 -41.90625 C 18.882812 -44.46875 21.957031 -46.265625 25.625 -47.296875 C 29.300781 -48.335938 33.015625 -48.378906 36.765625 -47.421875 C 40.515625 -46.460938 43.75 -44.148438 46.46875 -40.484375 C 47.75 -38.722656 50.144531 -37.722656 53.65625 -37.484375 C 57.164062 -37.242188 60.675781 -37.398438 64.1875 -37.953125 C 67.707031 -38.515625 70.1875 -39.117188 71.625 -39.765625 C 74.976562 -41.359375 77.492188 -43.710938 79.171875 -46.828125 C 80.847656 -49.941406 81.445312 -53.335938 80.96875 -57.015625 C 80.488281 -61.484375 78.890625 -65.15625 76.171875 -68.03125 C 73.453125 -70.90625 70.21875 -73.421875 66.46875 -75.578125 C 62.71875 -77.734375 58.925781 -79.804688 55.09375 -81.796875 C 51.257812 -83.796875 47.90625 -85.992188 45.03125 -88.390625 C 37.050781 -95.410156 32.179688 -103.03125 30.421875 -111.25 C 28.660156 -119.476562 29.253906 -127.703125 32.203125 -135.921875 C 35.160156 -144.148438 39.753906 -151.617188 45.984375 -158.328125 C 52.210938 -165.035156 59.320312 -170.226562 67.3125 -173.90625 C 71.625 -175.976562 75.613281 -176.535156 79.28125 -175.578125 C 82.957031 -174.617188 86.113281 -172.820312 88.75 -170.1875 C 91.382812 -167.550781 93.179688 -164.476562 94.140625 -160.96875 C 95.097656 -157.457031 94.9375 -154.0625 93.65625 -150.78125 C 92.375 -147.507812 89.660156 -144.914062 85.515625 -143 C 82.796875 -141.71875 79.640625 -139.957031 76.046875 -137.71875 C 72.453125 -135.488281 69.5 -132.816406 67.1875 -129.703125 C 64.875 -126.585938 64.4375 -123.113281 65.875 -119.28125 C 66.664062 -116.726562 68.539062 -114.53125 71.5 -112.6875 C 74.457031 -110.851562 77.609375 -109.21875 80.953125 -107.78125 C 84.304688 -106.351562 87.101562 -104.921875 89.34375 -103.484375 Z M 89.34375 -103.484375 "/></g></g></g></svg>