<svg xmlns="http://www.w3.org/2000/svg" xmlns:xlink="http://www.w3.org/1999/xlink" width="1330" zoomAndPan="magnify" viewBox="0 0 997.5 561.000005" height="748" preserveAspectRatio="xMidYMid meet" version="1.0"><defs><g/><clipPath id="079eae2f45"><path d="M 0.636719 0 L 996.363281 0 L 996.363281 560 L 0.636719 560 Z M 0.636719 0 " clip-rule="nonzero"/></clipPath><clipPath id="8caafa6669"><path d="M 239.972656 235.417969 L 762.402344 235.417969 L 762.402344 296.03125 L 239.972656 296.03125 Z M 239.972656 235.417969 " clip-rule="nonzero"/></clipPath></defs><g clip-path="url(#079eae2f45)"><path fill="#ffffff" d="M 0.636719 0 L 996.363281 0 L 996.363281 560 L 0.636719 560 Z M 0.636719 0 " fill-opacity="1" fill-rule="nonzero"/><path fill="#fafafa" d="M 0.636719 0 L 996.363281 0 L 996.363281 560 L 0.636719 560 Z M 0.636719 0 " fill-opacity="1" fill-rule="nonzero"/></g><g fill="#ff914d" fill-opacity="1"><g transform="translate(488.986619, 377.407153)"><g><path d="M 9.3125 -5.515625 L 9.3125 0 L 74.171875 0 L 74.171875 -5.515625 L 44.5 -5.515625 L 44.5 -216.3125 L 178.015625 2.765625 L 189.734375 2.765625 L 189.734375 -226.3125 L 219.40625 -226.3125 L 219.40625 -231.828125 L 154.546875 -231.828125 L 154.546875 -226.3125 L 184.21875 -226.3125 L 184.21875 -56.921875 L 77.28125 -231.828125 L 9.3125 -231.828125 L 9.3125 -226.3125 L 38.984375 -226.3125 L 38.984375 -5.515625 Z M 9.3125 -5.515625 "/></g></g></g><g fill="#ff3131" fill-opacity="1"><g transform="translate(270.017709, 382.504661)"><g><path d="M 101.984375 -229.90625 L 101.984375 -235.515625 L 11.921875 -235.515625 L 11.921875 -229.90625 L 39.953125 -229.90625 L 39.953125 -5.609375 L 11.921875 -5.609375 L 11.921875 0 L 101.984375 0 L 101.984375 -5.609375 L 73.953125 -5.609375 L 73.953125 -229.90625 Z M 177.34375 -229.90625 L 76.40625 -128.96875 L 162.96875 -5.609375 L 132.484375 -5.609375 L 132.484375 0 L 231.65625 0 L 231.65625 -5.609375 L 203.625 -5.609375 L 104.4375 -147.890625 L 186.453125 -229.90625 L 216.234375 -229.90625 L 216.234375 -235.515625 L 147.203125 -235.515625 L 147.203125 -229.90625 Z M 177.34375 -229.90625 "/></g></g></g><g clip-path="url(#8caafa6669)"><path fill="#fafafa" d="M 239.972656 235.417969 L 762.519531 235.417969 L 762.519531 296.03125 L 239.972656 296.03125 Z M 239.972656 235.417969 " fill-opacity="1" fill-rule="nonzero"/></g><g fill="#5ce1e6" fill-opacity="1"><g transform="translate(275.968927, 282.437266)"><g><path d="M 12.3125 -12.234375 L 7 -6.84375 L 7 0 L 4.234375 0 L 4.234375 -26.046875 L 7 -26.046875 L 7 -10.3125 L 22.28125 -26.046875 L 25.453125 -26.046875 L 14.171875 -14.25 L 26.234375 0 L 22.953125 0 Z M 12.3125 -12.234375 "/></g></g></g><g fill="#5ce1e6" fill-opacity="1"><g transform="translate(315.278922, 282.437266)"><g><path d="M 22.65625 -2.375 L 22.65625 0 L 4.234375 0 L 4.234375 -26.046875 L 22.09375 -26.046875 L 22.09375 -23.65625 L 7 -23.65625 L 7 -14.390625 L 20.46875 -14.390625 L 20.46875 -12.046875 L 7 -12.046875 L 7 -2.375 Z M 22.65625 -2.375 "/></g></g></g><g fill="#5ce1e6" fill-opacity="1"><g transform="translate(353.02733, 282.437266)"><g><path d="M 25.890625 -26.046875 L 14.359375 0 L 11.640625 0 L 0.109375 -26.046875 L 3.09375 -26.046875 L 13.0625 -3.421875 L 23.109375 -26.046875 Z M 25.890625 -26.046875 "/></g></g></g><g fill="#5ce1e6" fill-opacity="1"><g transform="translate(391.853993, 282.437266)"><g><path d="M 4.234375 -26.046875 L 7 -26.046875 L 7 0 L 4.234375 0 Z M 4.234375 -26.046875 "/></g></g></g><g fill="#5ce1e6" fill-opacity="1"><g transform="translate(415.957015, 282.437266)"><g><path d="M 26 -26.046875 L 26 0 L 23.734375 0 L 7 -21.125 L 7 0 L 4.234375 0 L 4.234375 -26.046875 L 6.515625 -26.046875 L 23.296875 -4.90625 L 23.296875 -26.046875 Z M 26 -26.046875 "/></g></g></g><g fill="#5ce1e6" fill-opacity="1"><g transform="translate(459.05947, 282.437266)"><g/></g></g><g fill="#5ce1e6" fill-opacity="1"><g transform="translate(481.675267, 282.437266)"><g><path d="M 26 -26.046875 L 26 0 L 23.734375 0 L 7 -21.125 L 7 0 L 4.234375 0 L 4.234375 -26.046875 L 6.515625 -26.046875 L 23.296875 -4.90625 L 23.296875 -26.046875 Z M 26 -26.046875 "/></g></g></g><g fill="#5ce1e6" fill-opacity="1"><g transform="translate(524.777734, 282.437266)"><g><path d="M 22.578125 -13.015625 L 25.21875 -13.015625 L 25.21875 -3.09375 C 24.007812 -2.019531 22.570312 -1.195312 20.90625 -0.625 C 19.25 -0.0625 17.5 0.21875 15.65625 0.21875 C 13.050781 0.21875 10.707031 -0.347656 8.625 -1.484375 C 6.539062 -2.628906 4.90625 -4.210938 3.71875 -6.234375 C 2.53125 -8.253906 1.9375 -10.515625 1.9375 -13.015625 C 1.9375 -15.523438 2.53125 -17.789062 3.71875 -19.8125 C 4.90625 -21.832031 6.539062 -23.410156 8.625 -24.546875 C 10.707031 -25.691406 13.066406 -26.265625 15.703125 -26.265625 C 17.679688 -26.265625 19.5 -25.945312 21.15625 -25.3125 C 22.820312 -24.6875 24.226562 -23.753906 25.375 -22.515625 L 23.65625 -20.765625 C 21.601562 -22.796875 18.988281 -23.8125 15.8125 -23.8125 C 13.707031 -23.8125 11.800781 -23.34375 10.09375 -22.40625 C 8.394531 -21.476562 7.0625 -20.191406 6.09375 -18.546875 C 5.132812 -16.898438 4.65625 -15.054688 4.65625 -13.015625 C 4.65625 -10.984375 5.132812 -9.148438 6.09375 -7.515625 C 7.0625 -5.878906 8.390625 -4.585938 10.078125 -3.640625 C 11.765625 -2.703125 13.664062 -2.234375 15.78125 -2.234375 C 18.457031 -2.234375 20.722656 -2.898438 22.578125 -4.234375 Z M 22.578125 -13.015625 "/></g></g></g><g fill="#5ce1e6" fill-opacity="1"><g transform="translate(566.392964, 282.437266)"><g><path d="M 14.734375 0.21875 C 11.359375 0.21875 8.726562 -0.742188 6.84375 -2.671875 C 4.957031 -4.609375 4.015625 -7.425781 4.015625 -11.125 L 4.015625 -26.046875 L 6.765625 -26.046875 L 6.765625 -11.234375 C 6.765625 -8.210938 7.445312 -5.957031 8.8125 -4.46875 C 10.175781 -2.976562 12.148438 -2.234375 14.734375 -2.234375 C 17.335938 -2.234375 19.320312 -2.976562 20.6875 -4.46875 C 22.050781 -5.957031 22.734375 -8.210938 22.734375 -11.234375 L 22.734375 -26.046875 L 25.40625 -26.046875 L 25.40625 -11.125 C 25.40625 -7.425781 24.46875 -4.609375 22.59375 -2.671875 C 20.726562 -0.742188 18.109375 0.21875 14.734375 0.21875 Z M 14.734375 0.21875 "/></g></g></g><g fill="#5ce1e6" fill-opacity="1"><g transform="translate(608.714627, 282.437266)"><g><path d="M 13.171875 -9 L 13.171875 0 L 10.453125 0 L 10.453125 -9 L 0.03125 -26.046875 L 2.96875 -26.046875 L 11.90625 -11.421875 L 20.828125 -26.046875 L 23.59375 -26.046875 Z M 13.171875 -9 "/></g></g></g><g fill="#5ce1e6" fill-opacity="1"><g transform="translate(645.198881, 282.437266)"><g><path d="M 22.65625 -2.375 L 22.65625 0 L 4.234375 0 L 4.234375 -26.046875 L 22.09375 -26.046875 L 22.09375 -23.65625 L 7 -23.65625 L 7 -14.390625 L 20.46875 -14.390625 L 20.46875 -12.046875 L 7 -12.046875 L 7 -2.375 Z M 22.65625 -2.375 "/></g></g></g><g fill="#5ce1e6" fill-opacity="1"><g transform="translate(682.947276, 282.437266)"><g><path d="M 26 -26.046875 L 26 0 L 23.734375 0 L 7 -21.125 L 7 0 L 4.234375 0 L 4.234375 -26.046875 L 6.515625 -26.046875 L 23.296875 -4.90625 L 23.296875 -26.046875 Z M 26 -26.046875 "/></g></g></g><g fill="#ffde59" fill-opacity="1"><g transform="translate(379.201474, 419.317553)"><g><path d="M 2.3125 -14.234375 L 8.109375 -14.234375 C 9.617188 -14.234375 10.945312 -13.929688 12.09375 -13.328125 C 13.25 -12.722656 14.144531 -11.878906 14.78125 -10.796875 C 15.414062 -9.722656 15.734375 -8.492188 15.734375 -7.109375 C 15.734375 -5.734375 15.414062 -4.503906 14.78125 -3.421875 C 14.144531 -2.347656 13.25 -1.507812 12.09375 -0.90625 C 10.945312 -0.300781 9.617188 0 8.109375 0 L 2.3125 0 Z M 8.03125 -1.296875 C 9.28125 -1.296875 10.367188 -1.539062 11.296875 -2.03125 C 12.234375 -2.53125 12.957031 -3.21875 13.46875 -4.09375 C 13.988281 -4.96875 14.25 -5.972656 14.25 -7.109375 C 14.25 -8.253906 13.988281 -9.257812 13.46875 -10.125 C 12.957031 -11 12.234375 -11.679688 11.296875 -12.171875 C 10.367188 -12.671875 9.28125 -12.921875 8.03125 -12.921875 L 3.828125 -12.921875 L 3.828125 -1.296875 Z M 8.03125 -1.296875 "/></g></g></g><g fill="#ffde59" fill-opacity="1"><g transform="translate(410.156594, 419.317553)"><g><path d="M 11.234375 -3.796875 L 3.3125 -3.796875 L 1.609375 0 L 0.046875 0 L 6.546875 -14.234375 L 8.03125 -14.234375 L 14.53125 0 L 12.953125 0 Z M 10.6875 -5.015625 L 7.28125 -12.671875 L 3.859375 -5.015625 Z M 10.6875 -5.015625 "/></g></g></g><g fill="#ffde59" fill-opacity="1"><g transform="translate(438.897103, 419.317553)"><g><path d="M 2.3125 -14.234375 L 3.828125 -14.234375 L 3.828125 -1.296875 L 11.796875 -1.296875 L 11.796875 0 L 2.3125 0 Z M 2.3125 -14.234375 "/></g></g></g><g fill="#ffde59" fill-opacity="1"><g transform="translate(465.036974, 419.317553)"><g><path d="M 14.203125 -14.234375 L 14.203125 0 L 12.71875 0 L 12.71875 -6.5625 L 3.828125 -6.5625 L 3.828125 0 L 2.3125 0 L 2.3125 -14.234375 L 3.828125 -14.234375 L 3.828125 -7.890625 L 12.71875 -7.890625 L 12.71875 -14.234375 Z M 14.203125 -14.234375 "/></g></g></g><g fill="#ffde59" fill-opacity="1"><g transform="translate(495.72797, 419.317553)"><g><path d="M 8.53125 0.125 C 7.125 0.125 5.847656 -0.1875 4.703125 -0.8125 C 3.554688 -1.445312 2.660156 -2.3125 2.015625 -3.40625 C 1.378906 -4.507812 1.0625 -5.742188 1.0625 -7.109375 C 1.0625 -8.484375 1.378906 -9.71875 2.015625 -10.8125 C 2.660156 -11.914062 3.554688 -12.78125 4.703125 -13.40625 C 5.847656 -14.039062 7.125 -14.359375 8.53125 -14.359375 C 9.945312 -14.359375 11.21875 -14.046875 12.34375 -13.421875 C 13.476562 -12.796875 14.367188 -11.929688 15.015625 -10.828125 C 15.671875 -9.722656 16 -8.484375 16 -7.109375 C 16 -5.742188 15.671875 -4.507812 15.015625 -3.40625 C 14.367188 -2.300781 13.476562 -1.4375 12.34375 -0.8125 C 11.21875 -0.1875 9.945312 0.125 8.53125 0.125 Z M 8.53125 -1.21875 C 9.65625 -1.21875 10.671875 -1.472656 11.578125 -1.984375 C 12.492188 -2.492188 13.207031 -3.195312 13.71875 -4.09375 C 14.238281 -5 14.5 -6.003906 14.5 -7.109375 C 14.5 -8.222656 14.238281 -9.226562 13.71875 -10.125 C 13.207031 -11.03125 12.492188 -11.738281 11.578125 -12.25 C 10.671875 -12.757812 9.65625 -13.015625 8.53125 -13.015625 C 7.40625 -13.015625 6.382812 -12.757812 5.46875 -12.25 C 4.5625 -11.738281 3.847656 -11.03125 3.328125 -10.125 C 2.804688 -9.226562 2.546875 -8.222656 2.546875 -7.109375 C 2.546875 -6.003906 2.804688 -5 3.328125 -4.09375 C 3.847656 -3.195312 4.5625 -2.492188 5.46875 -1.984375 C 6.382812 -1.472656 7.40625 -1.21875 8.53125 -1.21875 Z M 8.53125 -1.21875 "/></g></g></g><g fill="#ffde59" fill-opacity="1"><g transform="translate(526.947215, 419.317553)"><g><path d="M 8.046875 0.125 C 6.203125 0.125 4.765625 -0.398438 3.734375 -1.453125 C 2.710938 -2.515625 2.203125 -4.054688 2.203125 -6.078125 L 2.203125 -14.234375 L 3.703125 -14.234375 L 3.703125 -6.140625 C 3.703125 -4.484375 4.070312 -3.25 4.8125 -2.4375 C 5.5625 -1.625 6.640625 -1.21875 8.046875 -1.21875 C 9.472656 -1.21875 10.554688 -1.625 11.296875 -2.4375 C 12.046875 -3.25 12.421875 -4.484375 12.421875 -6.140625 L 12.421875 -14.234375 L 13.890625 -14.234375 L 13.890625 -6.078125 C 13.890625 -4.054688 13.375 -2.515625 12.34375 -1.453125 C 11.320312 -0.398438 9.890625 0.125 8.046875 0.125 Z M 8.046875 0.125 "/></g></g></g><g fill="#ffde59" fill-opacity="1"><g transform="translate(557.211545, 419.317553)"><g><path d="M 6.234375 0.125 C 5.179688 0.125 4.171875 -0.0390625 3.203125 -0.375 C 2.234375 -0.71875 1.484375 -1.171875 0.953125 -1.734375 L 1.546875 -2.890625 C 2.054688 -2.367188 2.738281 -1.945312 3.59375 -1.625 C 4.445312 -1.3125 5.328125 -1.15625 6.234375 -1.15625 C 7.515625 -1.15625 8.472656 -1.390625 9.109375 -1.859375 C 9.742188 -2.328125 10.0625 -2.929688 10.0625 -3.671875 C 10.0625 -4.242188 9.890625 -4.695312 9.546875 -5.03125 C 9.203125 -5.375 8.773438 -5.632812 8.265625 -5.8125 C 7.765625 -6 7.070312 -6.203125 6.1875 -6.421875 C 5.113281 -6.691406 4.253906 -6.953125 3.609375 -7.203125 C 2.972656 -7.453125 2.425781 -7.832031 1.96875 -8.34375 C 1.519531 -8.863281 1.296875 -9.566406 1.296875 -10.453125 C 1.296875 -11.171875 1.484375 -11.820312 1.859375 -12.40625 C 2.242188 -13 2.828125 -13.472656 3.609375 -13.828125 C 4.398438 -14.179688 5.378906 -14.359375 6.546875 -14.359375 C 7.359375 -14.359375 8.15625 -14.242188 8.9375 -14.015625 C 9.71875 -13.796875 10.390625 -13.488281 10.953125 -13.09375 L 10.453125 -11.890625 C 9.847656 -12.285156 9.207031 -12.582031 8.53125 -12.78125 C 7.851562 -12.976562 7.191406 -13.078125 6.546875 -13.078125 C 5.296875 -13.078125 4.351562 -12.832031 3.71875 -12.34375 C 3.09375 -11.863281 2.78125 -11.242188 2.78125 -10.484375 C 2.78125 -9.921875 2.953125 -9.460938 3.296875 -9.109375 C 3.648438 -8.765625 4.085938 -8.5 4.609375 -8.3125 C 5.128906 -8.132812 5.828125 -7.9375 6.703125 -7.71875 C 7.753906 -7.46875 8.597656 -7.21875 9.234375 -6.96875 C 9.878906 -6.71875 10.425781 -6.335938 10.875 -5.828125 C 11.320312 -5.316406 11.546875 -4.628906 11.546875 -3.765625 C 11.546875 -3.046875 11.351562 -2.390625 10.96875 -1.796875 C 10.582031 -1.210938 9.988281 -0.742188 9.1875 -0.390625 C 8.382812 -0.046875 7.398438 0.125 6.234375 0.125 Z M 6.234375 0.125 "/></g></g></g><g fill="#ffde59" fill-opacity="1"><g transform="translate(583.879681, 419.317553)"><g><path d="M 2.3125 -14.234375 L 3.828125 -14.234375 L 3.828125 0 L 2.3125 0 Z M 2.3125 -14.234375 "/></g></g></g><g fill="#ffde59" fill-opacity="1"><g transform="translate(604.188445, 419.317553)"><g><path d="M 12.375 -1.296875 L 12.375 0 L 2.3125 0 L 2.3125 -14.234375 L 12.078125 -14.234375 L 12.078125 -12.921875 L 3.828125 -12.921875 L 3.828125 -7.859375 L 11.1875 -7.859375 L 11.1875 -6.59375 L 3.828125 -6.59375 L 3.828125 -1.296875 Z M 12.375 -1.296875 "/></g></g></g></svg>